<svg width="400" height="309" viewBox="0 0 400 309" fill="none" xmlns="http://www.w3.org/2000/svg">
<rect y="0.483154" width="400" height="308" rx="16" fill="#F3F3F3"/>
<path d="M55.338 71.3334C55.338 68.1811 55.3387 65.8509 55.5791 64.0632C55.8181 62.2853 56.2886 61.0947 57.1916 60.1916C58.0947 59.2886 59.2853 58.8181 61.0632 58.5791C62.8509 58.3387 65.1811 58.338 68.3333 58.338H332.371C335.523 58.338 337.854 58.3387 339.641 58.5791C341.419 58.8181 342.61 59.2886 343.513 60.1916C344.416 61.0947 344.886 62.2853 345.125 64.0632C345.366 65.8509 345.366 68.1811 345.366 71.3333V88.0047C345.366 91.1569 345.366 93.4871 345.125 95.2748C344.886 97.0528 344.416 98.2434 343.513 99.1464C342.61 100.049 341.419 100.52 339.641 100.759C337.854 100.999 335.523 101 332.371 101H68.3334C65.1811 101 62.8509 100.999 61.0632 100.759C59.2853 100.52 58.0947 100.049 57.1916 99.1464C56.2886 98.2434 55.8181 97.0528 55.5791 95.2748C55.3387 93.4871 55.338 91.157 55.338 88.0047V71.3334Z" fill="#B0B5C0"/>
<path d="M55.338 71.3334C55.338 68.1811 55.3387 65.8509 55.5791 64.0632C55.8181 62.2853 56.2886 61.0947 57.1916 60.1916C58.0947 59.2886 59.2853 58.8181 61.0632 58.5791C62.8509 58.3387 65.1811 58.338 68.3333 58.338H332.371C335.523 58.338 337.854 58.3387 339.641 58.5791C341.419 58.8181 342.61 59.2886 343.513 60.1916C344.416 61.0947 344.886 62.2853 345.125 64.0632C345.366 65.8509 345.366 68.1811 345.366 71.3333V88.0047C345.366 91.1569 345.366 93.4871 345.125 95.2748C344.886 97.0528 344.416 98.2434 343.513 99.1464C342.61 100.049 341.419 100.52 339.641 100.759C337.854 100.999 335.523 101 332.371 101H68.3334C65.1811 101 62.8509 100.999 61.0632 100.759C59.2853 100.52 58.0947 100.049 57.1916 99.1464C56.2886 98.2434 55.8181 97.0528 55.5791 95.2748C55.3387 93.4871 55.338 91.157 55.338 88.0047V71.3334Z" stroke="#FAFAFA" stroke-width="0.676057"/>
<path d="M72.3788 84.3271C71.8434 84.3271 71.3728 84.2704 70.9672 84.1568C70.5697 84.0432 70.233 83.8769 69.9572 83.6578C69.6895 83.4307 69.4907 83.1549 69.3609 82.8304C69.2311 82.5058 69.1743 82.1286 69.1905 81.6986L70.2006 81.4796C70.1681 81.9015 70.2371 82.2544 70.4074 82.5383C70.5778 82.8222 70.8374 83.0372 71.1863 83.1833C71.5351 83.3212 71.9448 83.3901 72.4153 83.3901C72.8696 83.3901 73.255 83.3333 73.5714 83.2198C73.8878 83.1062 74.123 82.948 74.2772 82.7452C74.4394 82.5424 74.5206 82.3111 74.5206 82.0515C74.5206 81.7595 74.4273 81.5283 74.2407 81.3579C74.0541 81.1875 73.8026 81.0577 73.4862 80.9685C73.1779 80.8711 72.8331 80.7819 72.4518 80.7008C72.0787 80.6196 71.7055 80.5264 71.3323 80.4209C70.9591 80.3154 70.6224 80.1816 70.3223 80.0193C70.0302 79.8489 69.7909 79.6299 69.6043 79.3622C69.4258 79.0864 69.3366 78.7375 69.3366 78.3156C69.3366 77.837 69.4542 77.4233 69.6895 77.0744C69.9328 76.7256 70.2736 76.4578 70.7117 76.2712C71.1497 76.0765 71.6649 75.9792 72.2571 75.9792C72.8412 75.9792 73.3605 76.0725 73.8148 76.2591C74.2772 76.4457 74.6423 76.7215 74.91 77.0866C75.1777 77.4435 75.3197 77.8857 75.3359 78.413L74.2894 78.6685C74.2894 78.3765 74.2366 78.1209 74.1312 77.9019C74.0338 77.6747 73.8959 77.4922 73.7174 77.3543C73.5389 77.2083 73.3239 77.0987 73.0725 77.0257C72.821 76.9446 72.5451 76.904 72.245 76.904C71.8799 76.904 71.5594 76.9608 71.2836 77.0744C71.0078 77.188 70.7928 77.3421 70.6387 77.5368C70.4845 77.7315 70.4074 77.9627 70.4074 78.2305C70.4074 78.5469 70.517 78.7983 70.736 78.9849C70.9632 79.1634 71.2552 79.3054 71.6122 79.4109C71.9691 79.5163 72.3504 79.6137 72.7561 79.7029C73.1049 79.7759 73.4456 79.8652 73.7783 79.9706C74.119 80.068 74.4273 80.2018 74.7031 80.3722C74.9789 80.5345 75.198 80.7494 75.3602 81.0172C75.5225 81.2849 75.6036 81.6256 75.6036 82.0394C75.6036 82.5018 75.4819 82.9034 75.2385 83.2441C75.0033 83.5848 74.6463 83.8526 74.1677 84.0473C73.689 84.2338 73.0927 84.3271 72.3788 84.3271ZM79.3015 84.2906C78.7174 84.2906 78.2834 84.1324 77.9994 83.816C77.7155 83.4996 77.5735 83.0169 77.5735 82.3679V78.8024H76.6243L76.6365 77.8776H77.2328C77.4356 77.8776 77.5816 77.8411 77.6708 77.768C77.7682 77.695 77.825 77.5733 77.8412 77.403L77.9629 76.4538H78.6444V77.8776H80.4576V78.8146H78.6444V82.3436C78.6444 82.6681 78.7174 82.9034 78.8634 83.0494C79.0176 83.1873 79.2366 83.2563 79.5205 83.2563C79.6747 83.2563 79.8329 83.236 79.9951 83.1954C80.1655 83.1549 80.3318 83.0737 80.4941 82.952V84.0594C80.2588 84.1487 80.0397 84.2095 79.8369 84.242C79.6422 84.2744 79.4637 84.2906 79.3015 84.2906ZM84.2449 86.2864C83.9123 86.2864 83.5837 86.2458 83.2592 86.1647C82.9428 86.0917 82.6508 85.9781 82.383 85.8239C82.1153 85.6698 81.8963 85.471 81.7259 85.2277L82.2857 84.4245C82.4723 84.7003 82.7359 84.9113 83.0767 85.0573C83.4174 85.2033 83.7906 85.2763 84.1962 85.2763C84.6505 85.2763 85.0278 85.1749 85.3279 84.9721C85.6362 84.7774 85.8674 84.4732 86.0216 84.0594C86.1757 83.6376 86.2568 83.1143 86.265 82.4896L86.3988 81.224H86.1676C86.0784 81.8163 85.9364 82.2909 85.7417 82.6478C85.5551 82.9967 85.3198 83.2482 85.0359 83.4023C84.7601 83.5564 84.4396 83.6335 84.0745 83.6335C83.6202 83.6335 83.2349 83.5199 82.9185 83.2928C82.6102 83.0575 82.3749 82.7168 82.2127 82.2706C82.0504 81.8163 81.9693 81.2646 81.9693 80.6156V77.8776H83.0767V80.3722C83.0767 81.1591 83.1862 81.7392 83.4052 82.1124C83.6324 82.4775 83.9691 82.66 84.4153 82.66C84.6586 82.66 84.8777 82.5991 85.0724 82.4775C85.2671 82.3558 85.4334 82.1773 85.5713 81.942C85.7173 81.7067 85.8309 81.4106 85.9121 81.0537C86.0013 80.6886 86.0581 80.2667 86.0824 79.7881V77.8776H87.1898V82.5505C87.1898 83.0453 87.1533 83.4915 87.0803 83.8891C87.0073 84.2866 86.8896 84.6314 86.7274 84.9234C86.5732 85.2236 86.3785 85.4751 86.1433 85.6779C85.908 85.8807 85.6322 86.0308 85.3158 86.1282C84.9994 86.2336 84.6424 86.2864 84.2449 86.2864ZM89.2351 84.1689V75.6506H90.3425V84.1689H89.2351ZM95.0903 84.3271C94.5954 84.3271 94.1573 84.2541 93.776 84.1081C93.4029 83.954 93.0865 83.7349 92.8269 83.451C92.5672 83.167 92.3725 82.8304 92.2427 82.4409C92.1129 82.0515 92.048 81.6135 92.048 81.1267C92.048 80.6318 92.1129 80.1775 92.2427 79.7638C92.3725 79.35 92.5632 78.989 92.8147 78.6807C93.0662 78.3724 93.3745 78.1372 93.7395 77.9749C94.1046 77.8045 94.5224 77.7194 94.9929 77.7194C95.4067 77.7194 95.7839 77.7883 96.1247 77.9262C96.4654 78.0642 96.7534 78.2791 96.9887 78.5712C97.232 78.8551 97.4146 79.2162 97.5363 79.6542C97.658 80.0842 97.7066 80.5913 97.6823 81.1754L92.7417 81.2119V80.4574L97.013 80.4209L96.6358 80.932C96.6763 80.4209 96.6276 79.999 96.4897 79.6664C96.3518 79.3338 96.1531 79.0823 95.8934 78.9119C95.642 78.7416 95.3418 78.6564 94.9929 78.6564C94.6198 78.6564 94.2912 78.7537 94.0073 78.9484C93.7233 79.1431 93.5043 79.423 93.3501 79.7881C93.2041 80.1532 93.1311 80.5953 93.1311 81.1145C93.1311 81.8609 93.2974 82.4328 93.63 82.8304C93.9626 83.2198 94.4575 83.4145 95.1146 83.4145C95.3661 83.4145 95.5852 83.3861 95.7718 83.3293C95.9665 83.2644 96.1287 83.1792 96.2585 83.0737C96.3964 82.9602 96.506 82.8304 96.5871 82.6843C96.6763 82.5383 96.7453 82.3801 96.794 82.2097L97.7675 82.4409C97.6945 82.733 97.5809 82.9967 97.4267 83.2319C97.2807 83.4591 97.0941 83.6538 96.867 83.816C96.6479 83.9783 96.3924 84.104 96.1003 84.1933C95.8083 84.2825 95.4716 84.3271 95.0903 84.3271ZM104.955 86.2985C104.289 86.2985 103.742 86.2458 103.312 86.1403C102.89 86.043 102.578 85.8888 102.375 85.6779C102.172 85.4751 102.071 85.2195 102.071 84.9113C102.071 84.5381 102.217 84.2298 102.509 83.9864C102.801 83.743 103.243 83.5808 103.835 83.4996V83.2806C103.405 83.2806 103.081 83.2279 102.861 83.1224C102.642 83.0169 102.533 82.8587 102.533 82.6478C102.533 82.4288 102.642 82.2462 102.861 82.1002C103.081 81.9461 103.437 81.8041 103.932 81.6743V81.4431C103.437 81.435 103.06 81.2889 102.801 81.005C102.541 80.7129 102.411 80.3357 102.411 79.8733C102.411 79.4595 102.521 79.1026 102.74 78.8024C102.967 78.4941 103.291 78.2589 103.713 78.0966C104.143 77.9262 104.654 77.8411 105.247 77.8411H108.216V78.7781L106.269 78.4738V78.7051C106.739 78.8024 107.1 78.9687 107.352 79.204C107.603 79.4311 107.729 79.7394 107.729 80.1288C107.729 80.4777 107.628 80.7819 107.425 81.0415C107.222 81.3011 106.922 81.5039 106.524 81.65C106.135 81.7879 105.652 81.8568 105.076 81.8568C104.963 81.8568 104.841 81.8528 104.711 81.8447C104.589 81.8284 104.427 81.8041 104.224 81.7716C104.005 81.9096 103.827 82.0353 103.689 82.1489C103.559 82.2625 103.494 82.3639 103.494 82.4531C103.494 82.5424 103.555 82.6154 103.677 82.6722C103.807 82.7208 103.961 82.7533 104.139 82.7695C104.318 82.7857 104.484 82.7938 104.638 82.7938H106.062C106.224 82.7938 106.427 82.8101 106.67 82.8425C106.922 82.875 107.169 82.9439 107.413 83.0494C107.664 83.1549 107.875 83.3171 108.045 83.5362C108.216 83.7552 108.301 84.0594 108.301 84.4488C108.301 84.8869 108.171 85.2439 107.912 85.5197C107.652 85.7955 107.275 85.9943 106.78 86.116C106.285 86.2377 105.677 86.2985 104.955 86.2985ZM104.979 85.3858C105.522 85.3858 105.961 85.3493 106.293 85.2763C106.634 85.2114 106.881 85.106 107.035 84.9599C107.198 84.8139 107.279 84.6273 107.279 84.4002C107.279 84.1892 107.222 84.027 107.108 83.9134C107.003 83.7917 106.869 83.7065 106.707 83.6578C106.545 83.6092 106.382 83.5808 106.22 83.5727C106.058 83.5564 105.92 83.5483 105.806 83.5483H104.383C103.912 83.6538 103.588 83.7998 103.409 83.9864C103.231 84.173 103.141 84.3718 103.141 84.5827C103.141 84.8098 103.223 84.9802 103.385 85.0938C103.547 85.2074 103.766 85.2844 104.042 85.325C104.326 85.3656 104.638 85.3858 104.979 85.3858ZM105.125 81.1389C105.636 81.1389 106.021 81.0334 106.281 80.8225C106.541 80.6115 106.67 80.3276 106.67 79.9706C106.67 79.5893 106.537 79.277 106.269 79.0336C106.009 78.7821 105.616 78.6564 105.088 78.6564C104.577 78.6564 104.184 78.774 103.908 79.0093C103.64 79.2445 103.506 79.5488 103.506 79.922C103.506 80.1653 103.567 80.3803 103.689 80.5669C103.819 80.7454 104.001 80.8874 104.237 80.9928C104.48 81.0902 104.776 81.1389 105.125 81.1389ZM111.844 84.3271C111.146 84.3271 110.619 84.0838 110.262 83.597C109.905 83.1102 109.727 82.3842 109.727 81.4187V77.8776H110.846V81.3214C110.846 82.0029 110.952 82.5099 111.162 82.8425C111.373 83.1751 111.706 83.3415 112.16 83.3415C112.412 83.3415 112.635 83.2806 112.83 83.1589C113.032 83.0372 113.211 82.8628 113.365 82.6356C113.519 82.4085 113.645 82.1408 113.742 81.8325C113.84 81.5161 113.905 81.1754 113.937 80.8103V77.8776H115.044V81.5404V84.1689H114.059L114.156 82.1489H113.974C113.868 82.6519 113.718 83.0656 113.523 83.3901C113.337 83.7065 113.101 83.9418 112.817 84.0959C112.534 84.2501 112.209 84.3271 111.844 84.3271ZM117.113 84.1689V77.8776H118.221V84.1689H117.113ZM117.673 76.7823C117.414 76.7823 117.219 76.7296 117.089 76.6242C116.959 76.5187 116.894 76.3605 116.894 76.1496C116.894 75.9386 116.959 75.7804 117.089 75.675C117.219 75.5695 117.41 75.5168 117.661 75.5168C117.921 75.5168 118.115 75.5695 118.245 75.675C118.375 75.7804 118.44 75.9386 118.44 76.1496C118.44 76.3524 118.375 76.5106 118.245 76.6242C118.115 76.7296 117.925 76.7823 117.673 76.7823ZM122.494 84.3271C121.958 84.3271 121.5 84.1852 121.118 83.9012C120.737 83.6173 120.445 83.2279 120.242 82.733C120.048 82.2381 119.95 81.6702 119.95 81.0293C119.95 80.3884 120.048 79.8205 120.242 79.3257C120.437 78.8308 120.721 78.4414 121.094 78.1574C121.467 77.8735 121.926 77.7315 122.469 77.7315C122.915 77.7315 123.28 77.8248 123.564 78.0114C123.848 78.198 124.075 78.4414 124.246 78.7416C124.424 79.0336 124.554 79.3541 124.635 79.7029H124.854C124.814 79.4676 124.777 79.2243 124.745 78.9728C124.712 78.7132 124.684 78.4617 124.66 78.2183C124.635 77.9668 124.623 77.7437 124.623 77.549V75.6506H125.743V81.0658V84.1689H124.745L124.806 82.4653H124.611C124.514 82.8304 124.376 83.1549 124.197 83.4388C124.019 83.7146 123.792 83.9337 123.516 84.0959C123.24 84.2501 122.899 84.3271 122.494 84.3271ZM122.749 83.3536C123.041 83.3536 123.305 83.2847 123.54 83.1467C123.775 83.0088 123.974 82.8304 124.136 82.6113C124.299 82.3842 124.42 82.1408 124.501 81.8812C124.591 81.6216 124.635 81.3701 124.635 81.1267V80.9807C124.635 80.8103 124.611 80.6278 124.562 80.4331C124.514 80.2302 124.441 80.0274 124.343 79.8246C124.254 79.6218 124.132 79.4352 123.978 79.2648C123.832 79.0864 123.658 78.9484 123.455 78.8511C123.252 78.7456 123.025 78.6929 122.773 78.6929C122.408 78.6929 122.1 78.7983 121.849 79.0093C121.605 79.2121 121.419 79.492 121.289 79.8489C121.167 80.2059 121.106 80.6075 121.106 81.0537C121.106 81.5161 121.171 81.9217 121.301 82.2706C121.431 82.6113 121.617 82.879 121.861 83.0737C122.112 83.2603 122.408 83.3536 122.749 83.3536ZM130.507 84.3271C130.012 84.3271 129.574 84.2541 129.193 84.1081C128.82 83.954 128.503 83.7349 128.244 83.451C127.984 83.167 127.789 82.8304 127.66 82.4409C127.53 82.0515 127.465 81.6135 127.465 81.1267C127.465 80.6318 127.53 80.1775 127.66 79.7638C127.789 79.35 127.98 78.989 128.232 78.6807C128.483 78.3724 128.791 78.1372 129.156 77.9749C129.522 77.8045 129.939 77.7194 130.41 77.7194C130.824 77.7194 131.201 77.7883 131.542 77.9262C131.882 78.0642 132.17 78.2791 132.406 78.5712C132.649 78.8551 132.832 79.2162 132.953 79.6542C133.075 80.0842 133.124 80.5913 133.099 81.1754L128.159 81.2119V80.4574L132.43 80.4209L132.053 80.932C132.093 80.4209 132.045 79.999 131.907 79.6664C131.769 79.3338 131.57 79.0823 131.31 78.9119C131.059 78.7416 130.759 78.6564 130.41 78.6564C130.037 78.6564 129.708 78.7537 129.424 78.9484C129.14 79.1431 128.921 79.423 128.767 79.7881C128.621 80.1532 128.548 80.5953 128.548 81.1145C128.548 81.8609 128.714 82.4328 129.047 82.8304C129.38 83.2198 129.874 83.4145 130.532 83.4145C130.783 83.4145 131.002 83.3861 131.189 83.3293C131.383 83.2644 131.546 83.1792 131.675 83.0737C131.813 82.9602 131.923 82.8304 132.004 82.6843C132.093 82.5383 132.162 82.3801 132.211 82.2097L133.184 82.4409C133.111 82.733 132.998 82.9967 132.844 83.2319C132.698 83.4591 132.511 83.6538 132.284 83.816C132.065 83.9783 131.809 84.104 131.517 84.1933C131.225 84.2825 130.889 84.3271 130.507 84.3271ZM137.241 84.3271C136.803 84.3271 136.414 84.2785 136.073 84.1811C135.732 84.0919 135.448 83.9621 135.221 83.7917C134.994 83.6132 134.82 83.4023 134.698 83.1589C134.576 82.9155 134.511 82.6478 134.503 82.3558L135.44 82.1124C135.424 82.3801 135.489 82.6154 135.635 82.8182C135.789 83.0129 136.004 83.163 136.28 83.2684C136.564 83.3739 136.905 83.4266 137.302 83.4266C137.781 83.4266 138.15 83.3455 138.409 83.1833C138.677 83.021 138.811 82.7979 138.811 82.514C138.811 82.2868 138.738 82.1124 138.592 81.9907C138.446 81.8609 138.243 81.7595 137.984 81.6865C137.732 81.6053 137.432 81.5323 137.083 81.4674C136.791 81.4025 136.499 81.3295 136.207 81.2484C135.915 81.1673 135.647 81.0618 135.404 80.932C135.168 80.7941 134.978 80.6156 134.832 80.3965C134.686 80.1775 134.613 79.9057 134.613 79.5812C134.613 79.1999 134.714 78.8714 134.917 78.5955C135.12 78.3197 135.408 78.1047 135.781 77.9506C136.154 77.7964 136.6 77.7194 137.12 77.7194C137.639 77.7194 138.081 77.8005 138.446 77.9627C138.811 78.1169 139.099 78.3359 139.31 78.6199C139.521 78.9038 139.639 79.2364 139.663 79.6177L138.702 79.8611C138.693 79.5934 138.62 79.3662 138.483 79.1796C138.353 78.9931 138.166 78.8551 137.923 78.7659C137.679 78.6685 137.395 78.6199 137.071 78.6199C136.641 78.6199 136.3 78.701 136.049 78.8633C135.797 79.0255 135.671 79.2486 135.671 79.5325C135.671 79.7435 135.744 79.9138 135.891 80.0436C136.045 80.1734 136.252 80.2749 136.511 80.3479C136.771 80.4209 137.059 80.4939 137.375 80.5669C137.7 80.6318 138.008 80.7048 138.3 80.786C138.6 80.8671 138.868 80.9725 139.103 81.1024C139.338 81.2322 139.525 81.4066 139.663 81.6256C139.801 81.8365 139.87 82.1083 139.87 82.4409C139.87 82.8547 139.76 83.2035 139.541 83.4875C139.322 83.7633 139.014 83.9742 138.616 84.1203C138.227 84.2582 137.769 84.3271 137.241 84.3271Z" fill="#333333"/>
<path d="M321.18 77.3984C321.33 77.2484 321.565 77.2348 321.73 77.3575L321.778 77.3984L325.423 81.0431L329.067 77.3984C329.217 77.2484 329.452 77.2348 329.618 77.3575L329.665 77.3984C329.815 77.5484 329.829 77.7832 329.706 77.9486L329.665 77.996L325.721 81.9396C325.571 82.0896 325.337 82.1033 325.171 81.9805L325.124 81.9396L321.18 77.996C321.015 77.831 321.015 77.5634 321.18 77.3984Z" fill="#333333"/>
<g clip-path="url(#clip0_158_5589)">
<rect x="55" y="112.084" width="290.704" height="137.916" rx="16.2254" fill="#E6E7EB"/>
<mask id="path-6-inside-1_158_5589" fill="white">
<path d="M55 112.592H345.704V158.225H55V112.592Z"/>
</mask>
<path d="M345.704 157.549H55V158.901H345.704V157.549Z" fill="#B0B0B0" mask="url(#path-6-inside-1_158_5589)"/>
<path d="M71.6729 142.408L76.3112 128.982H80.0748L84.7131 142.408H81.9057L78.3456 131.036H78.0607L74.46 142.408H71.6729ZM74.1345 139.642V137.831H82.5973V139.642H74.1345ZM88.4073 138.503V136.448H91.5606C92.6455 136.448 93.4525 136.238 93.9814 135.817C94.5239 135.383 94.7952 134.671 94.7952 133.681C94.7952 132.8 94.5443 132.135 94.0425 131.687C93.5406 131.24 92.7676 131.016 91.7233 131.016H88.4073V128.982H91.7843C92.6523 128.982 93.4322 129.083 94.1238 129.287C94.8155 129.49 95.4055 129.789 95.8937 130.182C96.382 130.575 96.7549 131.077 97.0126 131.687C97.2703 132.284 97.3991 132.976 97.3991 133.762C97.3991 134.793 97.1618 135.661 96.6871 136.366C96.226 137.072 95.5343 137.607 94.6121 137.974C93.7034 138.326 92.5709 138.503 91.2147 138.503H88.4073ZM86.7188 142.408V128.982H89.2821V142.408H86.7188ZM97.6585 142.408L102.297 128.982H106.06L110.699 142.408H107.891L104.331 131.036H104.046L100.446 142.408H97.6585ZM100.12 139.642V137.831H108.583V139.642H100.12ZM116.596 138.157V135.838H122.353V138.157H116.596ZM132.152 142.584C131.566 142.584 131.044 142.526 130.584 142.408C130.133 142.282 129.75 142.102 129.435 141.868C129.128 141.624 128.894 141.327 128.731 140.975C128.578 140.615 128.506 140.2 128.515 139.731L129.827 139.38C129.809 139.83 129.894 140.205 130.084 140.502C130.273 140.799 130.552 141.025 130.922 141.178C131.3 141.322 131.733 141.394 132.22 141.394C132.698 141.394 133.099 141.336 133.423 141.219C133.748 141.101 133.991 140.944 134.153 140.745C134.325 140.538 134.41 140.304 134.41 140.042C134.41 139.745 134.307 139.51 134.099 139.339C133.901 139.159 133.635 139.019 133.302 138.92C132.968 138.812 132.594 138.713 132.179 138.623C131.756 138.532 131.336 138.429 130.922 138.312C130.507 138.194 130.129 138.041 129.786 137.852C129.453 137.654 129.182 137.401 128.975 137.095C128.776 136.788 128.677 136.401 128.677 135.932C128.677 135.391 128.813 134.927 129.083 134.539C129.353 134.152 129.736 133.85 130.232 133.633C130.737 133.417 131.332 133.309 132.017 133.309C132.702 133.309 133.302 133.417 133.815 133.633C134.338 133.841 134.748 134.147 135.046 134.553C135.352 134.949 135.51 135.432 135.519 135.999L134.167 136.351C134.167 136.044 134.113 135.774 134.005 135.54C133.905 135.305 133.761 135.112 133.572 134.958C133.383 134.805 133.157 134.692 132.896 134.62C132.635 134.539 132.337 134.499 132.004 134.499C131.616 134.499 131.278 134.557 130.989 134.674C130.701 134.783 130.476 134.936 130.313 135.134C130.16 135.323 130.084 135.549 130.084 135.81C130.084 136.135 130.196 136.392 130.422 136.581C130.656 136.761 130.962 136.91 131.341 137.027C131.72 137.135 132.125 137.239 132.558 137.338C132.945 137.419 133.329 137.518 133.707 137.635C134.095 137.744 134.446 137.892 134.762 138.082C135.086 138.271 135.343 138.519 135.533 138.825C135.731 139.132 135.83 139.524 135.83 140.002C135.83 140.525 135.69 140.98 135.411 141.367C135.14 141.755 134.735 142.057 134.194 142.273C133.653 142.481 132.973 142.584 132.152 142.584ZM139.827 142.557C139.133 142.557 138.615 142.368 138.272 141.989C137.939 141.611 137.772 141.029 137.772 140.245V136.581H136.731L136.758 135.377H137.434C137.668 135.377 137.844 135.341 137.961 135.269C138.078 135.188 138.151 135.048 138.178 134.85L138.313 133.809H139.192V135.377H141.125V136.608H139.192V140.205C139.192 140.556 139.273 140.808 139.435 140.962C139.597 141.115 139.836 141.192 140.152 141.192C140.323 141.192 140.494 141.174 140.666 141.137C140.846 141.092 141.017 141.011 141.179 140.894V142.314C140.909 142.404 140.661 142.467 140.436 142.503C140.21 142.539 140.007 142.557 139.827 142.557ZM142.638 142.408V138.744V135.377H143.909L143.841 137.811H144.071C144.152 137.261 144.279 136.793 144.45 136.405C144.621 136.017 144.855 135.724 145.153 135.526C145.45 135.319 145.82 135.215 146.262 135.215C146.352 135.215 146.451 135.22 146.559 135.229C146.667 135.238 146.789 135.265 146.924 135.31L146.857 136.851C146.721 136.797 146.582 136.761 146.437 136.743C146.293 136.716 146.163 136.703 146.045 136.703C145.685 136.703 145.378 136.806 145.126 137.014C144.873 137.212 144.662 137.491 144.49 137.852C144.328 138.203 144.202 138.614 144.112 139.082V142.408H142.638ZM148.197 142.408V135.377H149.657V142.408H148.197ZM148.927 134.201C148.612 134.201 148.373 134.138 148.211 134.012C148.048 133.877 147.967 133.678 147.967 133.417C147.967 133.164 148.048 132.971 148.211 132.835C148.373 132.7 148.612 132.633 148.927 132.633C149.252 132.633 149.495 132.7 149.657 132.835C149.82 132.971 149.901 133.164 149.901 133.417C149.901 133.678 149.82 133.877 149.657 134.012C149.495 134.138 149.252 134.201 148.927 134.201ZM154.779 142.584C154.175 142.584 153.652 142.49 153.21 142.3C152.778 142.111 152.422 141.85 152.142 141.516C151.863 141.183 151.656 140.799 151.52 140.367C151.385 139.934 151.318 139.47 151.318 138.974C151.318 138.442 151.39 137.951 151.534 137.5C151.678 137.041 151.89 136.639 152.169 136.297C152.458 135.945 152.814 135.675 153.238 135.486C153.661 135.296 154.152 135.202 154.711 135.202C155.261 135.202 155.739 135.296 156.145 135.486C156.559 135.666 156.897 135.927 157.159 136.27C157.42 136.603 157.591 136.995 157.672 137.446L156.293 137.865C156.266 137.604 156.19 137.361 156.063 137.135C155.937 136.91 155.757 136.734 155.523 136.608C155.288 136.473 155.004 136.405 154.671 136.405C154.355 136.405 154.08 136.468 153.846 136.594C153.612 136.712 153.418 136.887 153.265 137.122C153.111 137.347 152.994 137.613 152.913 137.919C152.841 138.226 152.805 138.564 152.805 138.934C152.805 139.438 152.872 139.88 153.008 140.259C153.152 140.628 153.373 140.917 153.67 141.124C153.968 141.322 154.342 141.421 154.792 141.421C155.171 141.421 155.482 141.354 155.725 141.219C155.969 141.083 156.158 140.903 156.293 140.678C156.429 140.443 156.519 140.173 156.564 139.866L157.875 140.177C157.821 140.547 157.713 140.885 157.551 141.192C157.389 141.489 157.177 141.741 156.915 141.949C156.654 142.156 156.343 142.314 155.982 142.422C155.631 142.53 155.23 142.584 154.779 142.584ZM161.522 142.557C160.828 142.557 160.309 142.368 159.967 141.989C159.633 141.611 159.467 141.029 159.467 140.245V136.581H158.425L158.452 135.377H159.129C159.363 135.377 159.539 135.341 159.656 135.269C159.773 135.188 159.845 135.048 159.872 134.85L160.007 133.809H160.886V135.377H162.82V136.608H160.886V140.205C160.886 140.556 160.967 140.808 161.13 140.962C161.292 141.115 161.531 141.192 161.846 141.192C162.018 141.192 162.189 141.174 162.36 141.137C162.54 141.092 162.712 141.011 162.874 140.894V142.314C162.603 142.404 162.356 142.467 162.13 142.503C161.905 142.539 161.702 142.557 161.522 142.557ZM174.231 142.584C173.763 142.584 173.307 142.472 172.866 142.246C172.433 142.021 172.023 141.719 171.635 141.34C171.248 140.953 170.896 140.525 170.581 140.056C170.265 139.578 169.99 139.087 169.756 138.582C169.521 138.068 169.341 137.568 169.215 137.081C169.089 136.594 169.026 136.153 169.026 135.756C169.026 135.314 169.111 134.909 169.283 134.539C169.463 134.161 169.733 133.859 170.094 133.633C170.463 133.408 170.932 133.295 171.5 133.295C172.014 133.295 172.447 133.39 172.798 133.579C173.15 133.759 173.416 134.003 173.596 134.309C173.785 134.616 173.88 134.958 173.88 135.337C173.88 135.643 173.808 135.941 173.663 136.229C173.528 136.509 173.294 136.766 172.96 137C172.627 137.234 172.176 137.428 171.608 137.581L171.5 137.352C171.861 137.063 172.117 136.779 172.271 136.5C172.433 136.211 172.514 135.914 172.514 135.607C172.514 135.292 172.428 135.026 172.257 134.81C172.095 134.593 171.847 134.485 171.514 134.485C171.27 134.485 171.072 134.544 170.919 134.661C170.765 134.769 170.653 134.922 170.581 135.121C170.517 135.31 170.486 135.526 170.486 135.77C170.486 136.058 170.536 136.396 170.635 136.784C170.734 137.171 170.869 137.572 171.04 137.987C171.221 138.402 171.428 138.807 171.662 139.204C171.897 139.601 172.154 139.961 172.433 140.286C172.712 140.601 173.001 140.854 173.298 141.043C173.605 141.232 173.911 141.327 174.218 141.327C174.47 141.327 174.668 141.264 174.813 141.137C174.966 141.002 175.043 140.831 175.043 140.624C175.043 140.398 174.957 140.177 174.786 139.961C174.623 139.745 174.385 139.551 174.069 139.38C173.763 139.199 173.384 139.064 172.933 138.974V137.69H176.057V138.825L173.596 138.487V138.758C174.524 138.929 175.209 139.195 175.651 139.555C176.093 139.916 176.314 140.362 176.314 140.894C176.314 141.21 176.246 141.48 176.111 141.705C175.976 141.922 175.8 142.093 175.583 142.219C175.367 142.345 175.137 142.435 174.894 142.49C174.659 142.553 174.439 142.584 174.231 142.584ZM169.418 142.584C168.958 142.584 168.548 142.499 168.187 142.327C167.836 142.147 167.561 141.899 167.363 141.584C167.173 141.259 167.079 140.885 167.079 140.461C167.079 140.083 167.155 139.749 167.308 139.461C167.471 139.172 167.683 138.934 167.944 138.744C168.214 138.546 168.516 138.388 168.85 138.271C169.183 138.145 169.521 138.059 169.864 138.014L169.932 138.366C169.454 138.582 169.089 138.843 168.836 139.15C168.593 139.447 168.471 139.772 168.471 140.123C168.471 140.385 168.53 140.624 168.647 140.84C168.764 141.047 168.936 141.214 169.161 141.34C169.395 141.457 169.679 141.516 170.013 141.516C170.319 141.516 170.594 141.453 170.837 141.327C171.081 141.201 171.311 141.034 171.527 140.826L171.865 141.34H171.541C171.405 141.593 171.239 141.814 171.04 142.003C170.842 142.183 170.608 142.323 170.337 142.422C170.076 142.53 169.769 142.584 169.418 142.584ZM178.854 139.745V138.541H181.004C181.788 138.541 182.374 138.388 182.762 138.082C183.158 137.775 183.356 137.27 183.356 136.567C183.356 135.936 183.172 135.463 182.802 135.148C182.442 134.832 181.883 134.674 181.125 134.674H178.854V133.484H181.153C181.738 133.484 182.257 133.552 182.707 133.687C183.167 133.823 183.555 134.021 183.87 134.282C184.195 134.544 184.438 134.873 184.6 135.269C184.772 135.657 184.857 136.108 184.857 136.621C184.857 137.297 184.704 137.87 184.398 138.339C184.091 138.798 183.636 139.15 183.032 139.393C182.437 139.628 181.698 139.745 180.815 139.745H178.854ZM177.962 142.408V133.484H179.435V142.408H177.962ZM186.331 142.408V138.744V135.377H187.602L187.534 137.811H187.764C187.845 137.261 187.971 136.793 188.143 136.405C188.314 136.017 188.548 135.724 188.846 135.526C189.143 135.319 189.513 135.215 189.954 135.215C190.045 135.215 190.144 135.22 190.252 135.229C190.36 135.238 190.482 135.265 190.617 135.31L190.549 136.851C190.414 136.797 190.274 136.761 190.13 136.743C189.986 136.716 189.855 136.703 189.738 136.703C189.378 136.703 189.071 136.806 188.819 137.014C188.566 137.212 188.354 137.491 188.183 137.852C188.021 138.203 187.895 138.614 187.805 139.082V142.408H186.331ZM194.88 142.584C194.204 142.584 193.604 142.44 193.082 142.152C192.559 141.863 192.149 141.444 191.851 140.894C191.563 140.344 191.418 139.668 191.418 138.866C191.418 138.046 191.572 137.365 191.878 136.824C192.185 136.283 192.595 135.878 193.109 135.607C193.631 135.337 194.217 135.202 194.866 135.202C195.533 135.202 196.128 135.341 196.651 135.621C197.174 135.9 197.584 136.315 197.882 136.865C198.188 137.415 198.341 138.1 198.341 138.92C198.341 139.731 198.188 140.412 197.882 140.962C197.584 141.503 197.174 141.908 196.651 142.179C196.128 142.449 195.538 142.584 194.88 142.584ZM194.934 141.421C195.34 141.421 195.687 141.327 195.975 141.137C196.264 140.948 196.484 140.669 196.638 140.299C196.791 139.93 196.867 139.488 196.867 138.974C196.867 138.442 196.786 137.987 196.624 137.608C196.462 137.221 196.227 136.923 195.921 136.716C195.624 136.509 195.258 136.405 194.826 136.405C194.438 136.405 194.096 136.5 193.798 136.689C193.51 136.869 193.289 137.144 193.136 137.514C192.982 137.874 192.906 138.316 192.906 138.839C192.906 139.659 193.086 140.295 193.447 140.745C193.807 141.196 194.303 141.421 194.934 141.421ZM200.512 142.408V137.608H199.295V136.473L201.093 136.567V136.324C200.841 136.243 200.629 136.126 200.458 135.972C200.296 135.81 200.169 135.625 200.079 135.418C199.998 135.202 199.958 134.972 199.958 134.728C199.958 134.35 200.048 134.021 200.228 133.741C200.408 133.453 200.661 133.232 200.985 133.079C201.319 132.917 201.706 132.835 202.148 132.835C202.518 132.835 202.851 132.885 203.149 132.984C203.446 133.074 203.689 133.196 203.879 133.349L203.744 134.701C203.554 134.548 203.333 134.422 203.081 134.323C202.829 134.224 202.581 134.174 202.337 134.174C202.049 134.174 201.81 134.264 201.621 134.444C201.44 134.616 201.35 134.886 201.35 135.256C201.35 135.481 201.386 135.67 201.458 135.824C201.531 135.977 201.625 136.103 201.742 136.202C201.86 136.292 201.977 136.364 202.094 136.419H203.784V137.608H201.945V142.408H200.512ZM208.177 142.584C207.618 142.584 207.123 142.503 206.69 142.341C206.257 142.17 205.892 141.931 205.595 141.624C205.297 141.309 205.072 140.935 204.919 140.502C204.765 140.06 204.689 139.565 204.689 139.015C204.689 138.465 204.765 137.96 204.919 137.5C205.072 137.032 205.288 136.626 205.568 136.283C205.856 135.941 206.208 135.675 206.622 135.486C207.046 135.296 207.524 135.202 208.055 135.202C208.551 135.202 208.993 135.283 209.381 135.445C209.777 135.607 210.111 135.855 210.381 136.189C210.652 136.513 210.854 136.923 210.99 137.419C211.125 137.906 211.174 138.478 211.138 139.136L205.635 139.177V138.257L210.273 138.217L209.759 138.785C209.813 138.244 209.768 137.798 209.624 137.446C209.48 137.095 209.272 136.833 209.002 136.662C208.732 136.491 208.421 136.405 208.069 136.405C207.672 136.405 207.325 136.509 207.028 136.716C206.739 136.914 206.514 137.207 206.352 137.595C206.19 137.983 206.108 138.447 206.108 138.988C206.108 139.799 206.289 140.412 206.649 140.826C207.01 141.232 207.524 141.435 208.191 141.435C208.47 141.435 208.709 141.403 208.907 141.34C209.106 141.268 209.272 141.178 209.408 141.07C209.543 140.953 209.651 140.817 209.732 140.664C209.822 140.502 209.894 140.335 209.948 140.164L211.233 140.461C211.152 140.795 211.026 141.092 210.854 141.354C210.692 141.606 210.485 141.827 210.232 142.016C209.98 142.197 209.683 142.336 209.34 142.435C209.006 142.535 208.619 142.584 208.177 142.584ZM215.562 142.584C215.075 142.584 214.642 142.535 214.264 142.435C213.885 142.336 213.561 142.197 213.29 142.016C213.029 141.827 212.826 141.602 212.682 141.34C212.537 141.079 212.452 140.795 212.425 140.488L213.615 140.096C213.615 140.358 213.696 140.592 213.858 140.799C214.02 141.007 214.25 141.169 214.548 141.286C214.854 141.394 215.219 141.448 215.643 141.448C216.139 141.448 216.522 141.367 216.792 141.205C217.063 141.043 217.198 140.817 217.198 140.529C217.198 140.313 217.121 140.141 216.968 140.015C216.824 139.889 216.612 139.785 216.332 139.704C216.062 139.623 215.742 139.546 215.372 139.474C215.039 139.402 214.705 139.321 214.372 139.231C214.047 139.132 213.745 139.006 213.466 138.852C213.196 138.699 212.975 138.501 212.803 138.257C212.641 138.005 212.56 137.69 212.56 137.311C212.56 136.878 212.673 136.509 212.898 136.202C213.123 135.887 213.448 135.643 213.872 135.472C214.304 135.292 214.818 135.202 215.413 135.202C215.99 135.202 216.486 135.287 216.9 135.459C217.324 135.63 217.662 135.869 217.914 136.175C218.167 136.482 218.32 136.842 218.374 137.257L217.13 137.622C217.112 137.343 217.026 137.108 216.873 136.919C216.729 136.73 216.531 136.59 216.278 136.5C216.026 136.401 215.728 136.351 215.386 136.351C214.935 136.351 214.579 136.432 214.318 136.594C214.065 136.757 213.939 136.977 213.939 137.257C213.939 137.473 214.016 137.649 214.169 137.784C214.331 137.91 214.548 138.014 214.818 138.095C215.097 138.167 215.413 138.239 215.765 138.312C216.125 138.384 216.472 138.465 216.806 138.555C217.139 138.645 217.437 138.767 217.698 138.92C217.968 139.064 218.18 139.263 218.334 139.515C218.496 139.758 218.577 140.069 218.577 140.448C218.577 140.908 218.451 141.3 218.198 141.624C217.955 141.94 217.608 142.179 217.157 142.341C216.706 142.503 216.175 142.584 215.562 142.584ZM222.916 142.584C222.43 142.584 221.997 142.535 221.618 142.435C221.24 142.336 220.915 142.197 220.645 142.016C220.384 141.827 220.181 141.602 220.036 141.34C219.892 141.079 219.807 140.795 219.78 140.488L220.969 140.096C220.969 140.358 221.051 140.592 221.213 140.799C221.375 141.007 221.605 141.169 221.902 141.286C222.209 141.394 222.574 141.448 222.998 141.448C223.493 141.448 223.876 141.367 224.147 141.205C224.417 141.043 224.553 140.817 224.553 140.529C224.553 140.313 224.476 140.141 224.323 140.015C224.178 139.889 223.967 139.785 223.687 139.704C223.417 139.623 223.097 139.546 222.727 139.474C222.394 139.402 222.06 139.321 221.727 139.231C221.402 139.132 221.1 139.006 220.821 138.852C220.55 138.699 220.329 138.501 220.158 138.257C219.996 138.005 219.915 137.69 219.915 137.311C219.915 136.878 220.027 136.509 220.253 136.202C220.478 135.887 220.803 135.643 221.226 135.472C221.659 135.292 222.173 135.202 222.768 135.202C223.345 135.202 223.84 135.287 224.255 135.459C224.679 135.63 225.017 135.869 225.269 136.175C225.522 136.482 225.675 136.842 225.729 137.257L224.485 137.622C224.467 137.343 224.381 137.108 224.228 136.919C224.084 136.73 223.885 136.59 223.633 136.5C223.381 136.401 223.083 136.351 222.741 136.351C222.29 136.351 221.934 136.432 221.673 136.594C221.42 136.757 221.294 136.977 221.294 137.257C221.294 137.473 221.371 137.649 221.524 137.784C221.686 137.91 221.902 138.014 222.173 138.095C222.452 138.167 222.768 138.239 223.119 138.312C223.48 138.384 223.827 138.465 224.16 138.555C224.494 138.645 224.791 138.767 225.053 138.92C225.323 139.064 225.535 139.263 225.688 139.515C225.851 139.758 225.932 140.069 225.932 140.448C225.932 140.908 225.805 141.3 225.553 141.624C225.31 141.94 224.963 142.179 224.512 142.341C224.061 142.503 223.529 142.584 222.916 142.584ZM227.488 142.408V135.377H228.949V142.408H227.488ZM228.219 134.201C227.903 134.201 227.664 134.138 227.502 134.012C227.34 133.877 227.259 133.678 227.259 133.417C227.259 133.164 227.34 132.971 227.502 132.835C227.664 132.7 227.903 132.633 228.219 132.633C228.543 132.633 228.786 132.7 228.949 132.835C229.111 132.971 229.192 133.164 229.192 133.417C229.192 133.678 229.111 133.877 228.949 134.012C228.786 134.138 228.543 134.201 228.219 134.201ZM234.057 142.584C233.381 142.584 232.781 142.44 232.259 142.152C231.736 141.863 231.326 141.444 231.028 140.894C230.74 140.344 230.595 139.668 230.595 138.866C230.595 138.046 230.749 137.365 231.055 136.824C231.362 136.283 231.772 135.878 232.286 135.607C232.808 135.337 233.394 135.202 234.043 135.202C234.71 135.202 235.305 135.341 235.828 135.621C236.351 135.9 236.761 136.315 237.059 136.865C237.365 137.415 237.518 138.1 237.518 138.92C237.518 139.731 237.365 140.412 237.059 140.962C236.761 141.503 236.351 141.908 235.828 142.179C235.305 142.449 234.715 142.584 234.057 142.584ZM234.111 141.421C234.517 141.421 234.864 141.327 235.152 141.137C235.44 140.948 235.661 140.669 235.815 140.299C235.968 139.93 236.044 139.488 236.044 138.974C236.044 138.442 235.963 137.987 235.801 137.608C235.639 137.221 235.404 136.923 235.098 136.716C234.8 136.509 234.435 136.405 234.003 136.405C233.615 136.405 233.273 136.5 232.975 136.689C232.687 136.869 232.466 137.144 232.313 137.514C232.159 137.874 232.083 138.316 232.083 138.839C232.083 139.659 232.263 140.295 232.624 140.745C232.984 141.196 233.48 141.421 234.111 141.421ZM239.148 142.408V138.082V135.377H240.419L240.338 137.568H240.567C240.694 137.027 240.86 136.585 241.068 136.243C241.284 135.891 241.555 135.63 241.879 135.459C242.213 135.287 242.6 135.202 243.042 135.202C243.826 135.202 244.421 135.481 244.827 136.04C245.241 136.599 245.449 137.451 245.449 138.595V142.408H243.961V138.744C243.961 137.96 243.844 137.388 243.61 137.027C243.375 136.657 243.024 136.473 242.555 136.473C242.149 136.473 241.802 136.603 241.514 136.865C241.235 137.117 241.018 137.451 240.865 137.865C240.712 138.28 240.626 138.731 240.608 139.217V142.408H239.148ZM248.997 142.584C248.609 142.584 248.262 142.512 247.955 142.368C247.649 142.215 247.406 141.989 247.225 141.692C247.054 141.394 246.968 141.025 246.968 140.583C246.968 140.232 247.031 139.93 247.158 139.677C247.293 139.416 247.491 139.199 247.753 139.028C248.023 138.848 248.366 138.704 248.78 138.595C249.195 138.478 249.686 138.379 250.254 138.298C250.569 138.253 250.826 138.208 251.025 138.163C251.232 138.118 251.381 138.046 251.471 137.946C251.57 137.847 251.62 137.699 251.62 137.5C251.62 137.194 251.511 136.932 251.295 136.716C251.088 136.491 250.75 136.378 250.281 136.378C250.02 136.378 249.758 136.423 249.497 136.513C249.244 136.603 249.024 136.752 248.834 136.959C248.654 137.158 248.532 137.428 248.469 137.771L247.144 137.352C247.225 137.009 247.356 136.707 247.536 136.446C247.717 136.175 247.942 135.95 248.212 135.77C248.483 135.58 248.794 135.441 249.145 135.35C249.506 135.251 249.898 135.202 250.322 135.202C250.944 135.202 251.457 135.305 251.863 135.513C252.269 135.72 252.571 136.04 252.769 136.473C252.976 136.896 253.08 137.442 253.08 138.109V139.542C253.08 139.839 253.084 140.155 253.093 140.488C253.111 140.813 253.129 141.142 253.148 141.475C253.175 141.8 253.206 142.111 253.242 142.408H251.904C251.877 142.138 251.849 141.859 251.822 141.57C251.804 141.282 251.786 140.989 251.768 140.691H251.566C251.439 141.034 251.259 141.349 251.025 141.638C250.799 141.926 250.515 142.156 250.173 142.327C249.839 142.499 249.447 142.584 248.997 142.584ZM249.51 141.448C249.7 141.448 249.889 141.417 250.078 141.354C250.277 141.291 250.47 141.196 250.66 141.07C250.858 140.935 251.038 140.763 251.2 140.556C251.372 140.349 251.52 140.101 251.647 139.812L251.633 138.541L251.985 138.609C251.831 138.744 251.638 138.848 251.403 138.92C251.178 138.992 250.93 139.051 250.66 139.096C250.389 139.132 250.119 139.177 249.848 139.231C249.587 139.276 249.344 139.344 249.118 139.434C248.902 139.515 248.726 139.632 248.591 139.785C248.465 139.939 248.402 140.15 248.402 140.421C248.402 140.754 248.505 141.011 248.713 141.192C248.92 141.363 249.186 141.448 249.51 141.448ZM255.046 142.408V132.876H256.492V142.408H255.046Z" fill="#1A1A1A"/>
<mask id="path-9-inside-2_158_5589" fill="white">
<path d="M55 158.225H345.704V203.859H55V158.225Z"/>
</mask>
<path d="M345.704 203.183H55V204.535H345.704V203.183Z" fill="#B0B0B0" mask="url(#path-9-inside-2_158_5589)"/>
<path d="M72.8121 188.042V174.616H76.6977L80.6851 185.174H80.7868L84.7131 174.616H88.4359V188.042H85.9947L86.1575 177.22H85.954L81.7022 188.042H79.4644L75.2737 177.22H75.0703L75.233 188.042H72.8121ZM91.606 188.042V174.616H94.1693V188.042H91.606ZM92.196 188.042V185.845H100.049V188.042H92.196ZM101.274 188.042L105.913 174.616H109.676L114.314 188.042H111.507L107.947 176.67H107.662L104.061 188.042H101.274ZM103.736 185.276V183.465H112.199V185.276H103.736ZM120.211 183.79V181.471H125.969V183.79H120.211ZM134.078 188.218C133.69 188.218 133.343 188.146 133.037 188.002C132.73 187.848 132.487 187.623 132.307 187.326C132.135 187.028 132.05 186.659 132.05 186.217C132.05 185.865 132.113 185.563 132.239 185.311C132.374 185.05 132.572 184.833 132.834 184.662C133.104 184.482 133.447 184.337 133.862 184.229C134.276 184.112 134.767 184.013 135.335 183.932C135.651 183.887 135.908 183.842 136.106 183.797C136.313 183.752 136.462 183.679 136.552 183.58C136.651 183.481 136.701 183.332 136.701 183.134C136.701 182.828 136.593 182.566 136.376 182.35C136.169 182.124 135.831 182.012 135.362 182.012C135.101 182.012 134.84 182.057 134.578 182.147C134.326 182.237 134.105 182.386 133.916 182.593C133.735 182.792 133.614 183.062 133.551 183.404L132.225 182.985C132.307 182.643 132.437 182.341 132.618 182.079C132.798 181.809 133.023 181.584 133.294 181.403C133.564 181.214 133.875 181.074 134.227 180.984C134.587 180.885 134.979 180.835 135.403 180.835C136.025 180.835 136.539 180.939 136.944 181.146C137.35 181.354 137.652 181.674 137.85 182.106C138.058 182.53 138.161 183.075 138.161 183.743V185.176C138.161 185.473 138.166 185.789 138.175 186.122C138.193 186.447 138.211 186.776 138.229 187.109C138.256 187.434 138.287 187.745 138.323 188.042H136.985C136.958 187.772 136.931 187.492 136.904 187.204C136.886 186.915 136.868 186.623 136.85 186.325H136.647C136.521 186.668 136.34 186.983 136.106 187.272C135.881 187.56 135.597 187.79 135.254 187.961C134.921 188.132 134.529 188.218 134.078 188.218ZM134.592 187.082C134.781 187.082 134.97 187.051 135.16 186.988C135.358 186.924 135.552 186.83 135.741 186.704C135.939 186.568 136.12 186.397 136.282 186.19C136.453 185.983 136.602 185.735 136.728 185.446L136.714 184.175L137.066 184.243C136.913 184.378 136.719 184.482 136.485 184.554C136.259 184.626 136.011 184.684 135.741 184.73C135.471 184.766 135.2 184.811 134.93 184.865C134.668 184.91 134.425 184.977 134.2 185.068C133.983 185.149 133.807 185.266 133.672 185.419C133.546 185.572 133.483 185.784 133.483 186.055C133.483 186.388 133.587 186.645 133.794 186.825C134.001 186.997 134.267 187.082 134.592 187.082ZM140.127 188.042V184.378V181.011H141.398L141.33 183.445H141.56C141.641 182.895 141.768 182.426 141.939 182.039C142.11 181.651 142.344 181.358 142.642 181.16C142.939 180.953 143.309 180.849 143.751 180.849C143.841 180.849 143.94 180.853 144.048 180.863C144.156 180.872 144.278 180.899 144.413 180.944L144.346 182.485C144.21 182.431 144.071 182.395 143.926 182.377C143.782 182.35 143.651 182.336 143.534 182.336C143.174 182.336 142.867 182.44 142.615 182.647C142.362 182.846 142.151 183.125 141.979 183.486C141.817 183.837 141.691 184.247 141.601 184.716V188.042H140.127ZM148.355 188.191C147.661 188.191 147.143 188.002 146.8 187.623C146.466 187.244 146.3 186.663 146.3 185.879V182.215H145.259L145.286 181.011H145.962C146.196 181.011 146.372 180.975 146.489 180.903C146.606 180.822 146.678 180.682 146.705 180.484L146.841 179.443H147.719V181.011H149.653V182.242H147.719V185.838C147.719 186.19 147.801 186.442 147.963 186.595C148.125 186.749 148.364 186.825 148.679 186.825C148.851 186.825 149.022 186.807 149.193 186.771C149.373 186.726 149.545 186.645 149.707 186.528V187.948C149.437 188.038 149.189 188.101 148.963 188.137C148.738 188.173 148.535 188.191 148.355 188.191ZM153.843 188.218C153.356 188.218 152.923 188.168 152.545 188.069C152.166 187.97 151.842 187.83 151.571 187.65C151.31 187.461 151.107 187.235 150.963 186.974C150.819 186.713 150.733 186.429 150.706 186.122L151.896 185.73C151.896 185.992 151.977 186.226 152.139 186.433C152.301 186.641 152.531 186.803 152.829 186.92C153.135 187.028 153.5 187.082 153.924 187.082C154.42 187.082 154.803 187.001 155.073 186.839C155.344 186.677 155.479 186.451 155.479 186.163C155.479 185.946 155.402 185.775 155.249 185.649C155.105 185.523 154.893 185.419 154.614 185.338C154.343 185.257 154.023 185.18 153.654 185.108C153.32 185.036 152.987 184.955 152.653 184.865C152.329 184.766 152.027 184.639 151.747 184.486C151.477 184.333 151.256 184.135 151.085 183.891C150.922 183.639 150.841 183.323 150.841 182.945C150.841 182.512 150.954 182.143 151.179 181.836C151.405 181.521 151.729 181.277 152.153 181.106C152.585 180.926 153.099 180.835 153.694 180.835C154.271 180.835 154.767 180.921 155.181 181.092C155.605 181.264 155.943 181.503 156.196 181.809C156.448 182.115 156.601 182.476 156.655 182.891L155.411 183.256C155.393 182.976 155.308 182.742 155.154 182.553C155.01 182.363 154.812 182.224 154.56 182.134C154.307 182.034 154.01 181.985 153.667 181.985C153.216 181.985 152.86 182.066 152.599 182.228C152.347 182.39 152.22 182.611 152.22 182.891C152.22 183.107 152.297 183.283 152.45 183.418C152.612 183.544 152.829 183.648 153.099 183.729C153.379 183.801 153.694 183.873 154.046 183.945C154.406 184.017 154.753 184.099 155.087 184.189C155.42 184.279 155.718 184.401 155.979 184.554C156.25 184.698 156.461 184.896 156.615 185.149C156.777 185.392 156.858 185.703 156.858 186.082C156.858 186.541 156.732 186.934 156.48 187.258C156.236 187.574 155.889 187.812 155.438 187.975C154.988 188.137 154.456 188.218 153.843 188.218ZM160.891 190.422C160.531 190.422 160.166 190.381 159.796 190.3C159.436 190.228 159.102 190.111 158.796 189.949C158.489 189.795 158.232 189.593 158.025 189.34L158.62 188.177C158.854 188.484 159.17 188.714 159.566 188.867C159.963 189.029 160.382 189.11 160.824 189.11C161.329 189.11 161.743 189.002 162.068 188.786C162.401 188.579 162.654 188.254 162.825 187.812C162.996 187.371 163.086 186.816 163.095 186.149L163.217 184.797H162.96C162.861 185.437 162.703 185.951 162.487 186.339C162.28 186.726 162.023 187.006 161.716 187.177C161.41 187.348 161.049 187.434 160.635 187.434C160.121 187.434 159.688 187.308 159.336 187.055C158.994 186.794 158.733 186.411 158.552 185.906C158.381 185.392 158.295 184.766 158.295 184.026V181.011H159.756V183.702C159.756 184.558 159.868 185.185 160.094 185.581C160.328 185.978 160.675 186.176 161.135 186.176C161.387 186.176 161.613 186.113 161.811 185.987C162.009 185.861 162.18 185.676 162.325 185.433C162.478 185.18 162.595 184.869 162.676 184.5C162.766 184.13 162.82 183.702 162.838 183.215V181.011H164.312V186.217C164.312 186.776 164.267 187.281 164.177 187.731C164.087 188.173 163.947 188.561 163.758 188.894C163.578 189.237 163.352 189.521 163.082 189.746C162.811 189.98 162.491 190.152 162.122 190.26C161.761 190.368 161.351 190.422 160.891 190.422Z" fill="#1A1A1A"/>
<mask id="path-12-inside-3_158_5589" fill="white">
<path d="M55 203.859H345.704V249.493H55V203.859Z"/>
</mask>
<path d="M345.704 248.817H55V250.169H345.704V248.817Z" fill="#B0B0B0" mask="url(#path-12-inside-3_158_5589)"/>
<path d="M78.7931 233.94C77.7759 233.94 76.8673 233.798 76.0671 233.513C75.2669 233.215 74.5888 232.781 74.0327 232.211C73.4767 231.628 73.0495 230.909 72.7511 230.055C72.4527 229.2 72.3035 228.224 72.3035 227.125C72.3035 225.986 72.4527 224.976 72.7511 224.094C73.063 223.212 73.497 222.467 74.0531 221.856C74.6091 221.232 75.2737 220.764 76.0467 220.453C76.8198 220.141 77.681 219.985 78.6304 219.985C79.3627 219.985 80.0408 220.08 80.6647 220.269C81.2886 220.459 81.8243 220.744 82.2718 221.124C82.733 221.49 83.0924 221.938 83.3501 222.467C83.6077 222.982 83.7434 223.572 83.7569 224.236L81.3564 224.867C81.37 224.257 81.2411 223.748 80.9699 223.341C80.6986 222.934 80.346 222.629 79.912 222.426C79.4916 222.222 79.0372 222.121 78.549 222.121C78.115 222.121 77.681 222.209 77.247 222.385C76.8266 222.561 76.4468 222.839 76.1078 223.219C75.7687 223.599 75.4975 224.101 75.294 224.725C75.0906 225.335 74.9889 226.088 74.9889 226.983C74.9889 228.122 75.1516 229.044 75.4771 229.749C75.8162 230.455 76.2773 230.977 76.8605 231.316C77.4572 231.641 78.1286 231.804 78.8745 231.804C79.634 231.804 80.2375 231.655 80.6851 231.357C81.1326 231.045 81.4581 230.638 81.6615 230.136C81.865 229.621 81.9803 229.065 82.0074 228.468L84.2655 228.854C84.2519 229.56 84.1434 230.224 83.94 230.848C83.7366 231.472 83.4179 232.014 82.9839 232.476C82.5634 232.937 82.0074 233.296 81.3157 233.554C80.624 233.811 79.7832 233.94 78.7931 233.94ZM86.4175 233.676V227.064V219.232H89.0011V222.548C89.0011 222.833 88.9875 223.124 88.9604 223.423C88.9468 223.721 88.9197 224.026 88.879 224.338C88.8383 224.65 88.7909 224.962 88.7366 225.274C88.6959 225.586 88.6485 225.898 88.5942 226.21H89.0214C89.2113 225.477 89.4554 224.86 89.7538 224.358C90.0522 223.843 90.4319 223.45 90.893 223.179C91.3677 222.907 91.9441 222.772 92.6222 222.772C93.8564 222.772 94.7786 223.206 95.3889 224.074C95.9992 224.928 96.3044 226.23 96.3044 227.98V233.676H93.7208V228.346C93.7208 227.179 93.5445 226.318 93.1918 225.762C92.8528 225.206 92.3374 224.928 91.6457 224.928C91.0761 224.928 90.6014 225.104 90.2217 225.457C89.842 225.796 89.5504 226.25 89.3469 226.82C89.1435 227.39 89.0214 228.034 88.9807 228.753V233.676H86.4175ZM99.0129 233.676V223.036H101.576V233.676H99.0129ZM100.295 221.368C99.7792 221.368 99.3791 221.259 99.0943 221.042C98.8231 220.812 98.6874 220.486 98.6874 220.066C98.6874 219.646 98.8231 219.327 99.0943 219.11C99.3791 218.879 99.7792 218.764 100.295 218.764C100.837 218.764 101.244 218.873 101.515 219.09C101.786 219.307 101.922 219.632 101.922 220.066C101.922 220.486 101.78 220.812 101.495 221.042C101.224 221.259 100.824 221.368 100.295 221.368ZM109.237 233.94C108.315 233.94 107.515 233.805 106.837 233.533C106.172 233.262 105.616 232.882 105.168 232.394C104.734 231.892 104.409 231.309 104.192 230.645C103.975 229.98 103.866 229.261 103.866 228.488C103.866 227.661 103.975 226.901 104.192 226.21C104.422 225.518 104.762 224.915 105.209 224.399C105.657 223.884 106.206 223.484 106.857 223.199C107.521 222.914 108.281 222.772 109.135 222.772C109.99 222.772 110.729 222.914 111.353 223.199C111.99 223.484 112.506 223.884 112.899 224.399C113.292 224.901 113.557 225.491 113.692 226.169L111.292 226.922C111.265 226.515 111.156 226.155 110.966 225.844C110.776 225.518 110.519 225.267 110.193 225.091C109.868 224.915 109.481 224.826 109.034 224.826C108.6 224.826 108.22 224.915 107.894 225.091C107.583 225.254 107.318 225.491 107.101 225.803C106.898 226.115 106.735 226.495 106.613 226.942C106.504 227.376 106.45 227.864 106.45 228.407C106.45 229.153 106.552 229.79 106.755 230.319C106.959 230.848 107.271 231.262 107.691 231.56C108.111 231.845 108.634 231.987 109.257 231.987C109.814 231.987 110.261 231.886 110.6 231.682C110.953 231.465 111.217 231.187 111.394 230.848C111.583 230.509 111.699 230.136 111.739 229.729L114.018 230.238C113.936 230.794 113.78 231.296 113.55 231.743C113.319 232.191 113.001 232.584 112.594 232.923C112.2 233.249 111.726 233.499 111.17 233.676C110.614 233.852 109.969 233.94 109.237 233.94ZM118.441 233.94C117.857 233.94 117.335 233.832 116.874 233.615C116.413 233.384 116.047 233.045 115.776 232.598C115.518 232.15 115.389 231.594 115.389 230.929C115.389 230.373 115.491 229.899 115.694 229.505C115.911 229.112 116.23 228.793 116.65 228.549C117.071 228.292 117.593 228.081 118.217 227.919C118.841 227.742 119.573 227.593 120.414 227.471C120.875 227.403 121.248 227.335 121.533 227.268C121.831 227.2 122.048 227.098 122.184 226.962C122.319 226.813 122.387 226.596 122.387 226.311C122.387 225.891 122.238 225.532 121.94 225.233C121.655 224.921 121.187 224.765 120.536 224.765C120.143 224.765 119.763 224.833 119.397 224.969C119.044 225.104 118.739 225.321 118.481 225.62C118.224 225.905 118.047 226.284 117.952 226.759L115.654 226.047C115.803 225.504 116.02 225.037 116.305 224.643C116.589 224.236 116.942 223.891 117.362 223.606C117.783 223.321 118.264 223.111 118.807 222.975C119.349 222.839 119.946 222.772 120.597 222.772C121.587 222.772 122.401 222.934 123.038 223.26C123.676 223.572 124.15 224.067 124.462 224.745C124.774 225.41 124.93 226.271 124.93 227.329V229.322C124.93 229.783 124.937 230.265 124.951 230.767C124.978 231.255 125.005 231.75 125.032 232.252C125.073 232.74 125.12 233.215 125.174 233.676H122.876C122.821 233.296 122.774 232.889 122.733 232.455C122.692 232.021 122.659 231.58 122.631 231.133H122.306C122.116 231.648 121.845 232.123 121.492 232.557C121.14 232.977 120.706 233.316 120.19 233.574C119.688 233.818 119.105 233.94 118.441 233.94ZM119.458 232.048C119.729 232.048 120 232.001 120.272 231.906C120.556 231.811 120.834 231.669 121.106 231.479C121.377 231.289 121.628 231.058 121.858 230.787C122.089 230.502 122.286 230.17 122.448 229.79L122.408 227.98L122.896 228.061C122.665 228.251 122.38 228.4 122.041 228.509C121.702 228.617 121.343 228.698 120.963 228.753C120.597 228.807 120.224 228.875 119.844 228.956C119.478 229.024 119.146 229.119 118.848 229.241C118.549 229.349 118.312 229.512 118.135 229.729C117.959 229.933 117.871 230.217 117.871 230.584C117.871 231.045 118.02 231.404 118.319 231.662C118.617 231.919 118.997 232.048 119.458 232.048ZM131.83 237.338C130.677 237.338 129.728 237.249 128.982 237.073C128.25 236.897 127.707 236.632 127.355 236.28C127.002 235.927 126.826 235.493 126.826 234.978C126.826 234.354 127.07 233.845 127.558 233.452C128.06 233.045 128.799 232.794 129.775 232.699V232.292C129.043 232.306 128.487 232.231 128.107 232.069C127.728 231.892 127.538 231.614 127.538 231.235C127.538 230.868 127.721 230.543 128.087 230.258C128.467 229.973 129.091 229.736 129.959 229.546V229.139C129.131 229.098 128.487 228.841 128.026 228.366C127.565 227.878 127.334 227.247 127.334 226.474C127.334 225.783 127.524 225.172 127.904 224.643C128.284 224.114 128.84 223.701 129.572 223.402C130.318 223.09 131.22 222.934 132.278 222.934H137.547V224.969L134.21 224.481V224.928C135.051 225.064 135.668 225.301 136.062 225.64C136.468 225.979 136.672 226.44 136.672 227.023C136.672 227.58 136.496 228.075 136.143 228.509C135.79 228.929 135.275 229.261 134.597 229.505C133.932 229.736 133.125 229.851 132.176 229.851C132 229.851 131.81 229.844 131.606 229.831C131.403 229.817 131.084 229.783 130.65 229.729C130.365 229.933 130.135 230.116 129.959 230.278C129.782 230.428 129.694 230.57 129.694 230.706C129.694 230.814 129.762 230.909 129.898 230.99C130.033 231.058 130.209 231.106 130.426 231.133C130.643 231.16 130.854 231.174 131.057 231.174H133.885C134.156 231.174 134.502 231.194 134.922 231.235C135.356 231.275 135.784 231.384 136.204 231.56C136.638 231.736 136.997 232.014 137.282 232.394C137.581 232.774 137.73 233.31 137.73 234.001C137.73 234.774 137.506 235.405 137.058 235.893C136.624 236.395 135.967 236.761 135.085 236.992C134.217 237.222 133.132 237.338 131.83 237.338ZM132.054 235.263C132.895 235.263 133.566 235.215 134.068 235.12C134.57 235.025 134.929 234.869 135.146 234.652C135.363 234.449 135.472 234.184 135.472 233.859C135.472 233.561 135.404 233.33 135.268 233.167C135.133 232.991 134.956 232.869 134.739 232.801C134.536 232.733 134.326 232.693 134.109 232.679C133.892 232.665 133.709 232.659 133.559 232.659H131.057C130.406 232.754 129.945 232.937 129.674 233.208C129.416 233.479 129.287 233.777 129.287 234.103C129.287 234.428 129.396 234.673 129.613 234.835C129.83 235.012 130.142 235.127 130.549 235.181C130.969 235.235 131.471 235.263 132.054 235.263ZM132.115 228.448C132.82 228.448 133.356 228.285 133.722 227.959C134.088 227.62 134.271 227.179 134.271 226.637C134.271 226.054 134.081 225.579 133.702 225.213C133.336 224.833 132.8 224.643 132.095 224.643C131.389 224.643 130.84 224.826 130.447 225.193C130.067 225.559 129.877 226.027 129.877 226.596C129.877 226.962 129.959 227.288 130.121 227.573C130.298 227.844 130.549 228.061 130.874 228.224C131.213 228.373 131.627 228.448 132.115 228.448ZM144.3 233.94C143.256 233.94 142.334 233.73 141.534 233.31C140.733 232.876 140.103 232.245 139.642 231.418C139.194 230.577 138.97 229.546 138.97 228.325C138.97 227.078 139.201 226.047 139.662 225.233C140.137 224.406 140.774 223.789 141.574 223.382C142.375 222.975 143.276 222.772 144.28 222.772C145.324 222.772 146.247 222.982 147.047 223.402C147.847 223.823 148.478 224.453 148.939 225.294C149.4 226.122 149.63 227.152 149.63 228.386C149.63 229.634 149.4 230.672 148.939 231.499C148.478 232.326 147.84 232.943 147.026 233.35C146.226 233.744 145.318 233.94 144.3 233.94ZM144.402 231.987C144.972 231.987 145.453 231.858 145.846 231.601C146.24 231.33 146.538 230.929 146.742 230.4C146.959 229.872 147.067 229.241 147.067 228.509C147.067 227.735 146.952 227.078 146.721 226.535C146.504 225.979 146.186 225.552 145.765 225.254C145.358 224.955 144.843 224.806 144.219 224.806C143.677 224.806 143.202 224.942 142.795 225.213C142.388 225.471 142.076 225.857 141.859 226.372C141.656 226.888 141.554 227.525 141.554 228.285C141.554 229.478 141.805 230.394 142.307 231.031C142.822 231.669 143.521 231.987 144.402 231.987ZM155.971 229.424V227.105H161.729V229.424H155.971ZM171.298 233.852C170.694 233.852 170.171 233.757 169.73 233.568C169.297 233.378 168.941 233.117 168.662 232.783C168.382 232.45 168.175 232.067 168.04 231.634C167.904 231.201 167.837 230.737 167.837 230.241C167.837 229.71 167.909 229.218 168.053 228.768C168.197 228.308 168.409 227.907 168.689 227.564C168.977 227.213 169.333 226.942 169.757 226.753C170.18 226.564 170.672 226.469 171.231 226.469C171.78 226.469 172.258 226.564 172.664 226.753C173.078 226.933 173.416 227.195 173.678 227.537C173.939 227.871 174.111 228.263 174.192 228.714L172.813 229.133C172.785 228.871 172.709 228.628 172.583 228.403C172.456 228.177 172.276 228.001 172.042 227.875C171.807 227.74 171.523 227.672 171.19 227.672C170.874 227.672 170.6 227.735 170.365 227.862C170.131 227.979 169.937 228.155 169.784 228.389C169.631 228.614 169.513 228.88 169.432 229.187C169.36 229.493 169.324 229.831 169.324 230.201C169.324 230.706 169.392 231.147 169.527 231.526C169.671 231.895 169.892 232.184 170.189 232.391C170.487 232.59 170.861 232.689 171.312 232.689C171.69 232.689 172.001 232.621 172.245 232.486C172.488 232.351 172.677 232.17 172.813 231.945C172.948 231.711 173.038 231.44 173.083 231.134L174.394 231.445C174.34 231.814 174.232 232.152 174.07 232.459C173.908 232.756 173.696 233.009 173.434 233.216C173.173 233.423 172.862 233.581 172.502 233.689C172.15 233.797 171.749 233.852 171.298 233.852ZM175.715 233.676V224.143H177.162V233.676H175.715ZM180.811 233.852C180.423 233.852 180.076 233.779 179.769 233.635C179.463 233.482 179.22 233.257 179.039 232.959C178.868 232.662 178.782 232.292 178.782 231.85C178.782 231.499 178.846 231.197 178.972 230.945C179.107 230.683 179.305 230.467 179.567 230.295C179.837 230.115 180.18 229.971 180.594 229.863C181.009 229.746 181.5 229.646 182.068 229.565C182.384 229.52 182.64 229.475 182.839 229.43C183.046 229.385 183.195 229.313 183.285 229.214C183.384 229.115 183.434 228.966 183.434 228.768C183.434 228.461 183.326 228.2 183.109 227.983C182.902 227.758 182.564 227.645 182.095 227.645C181.834 227.645 181.572 227.69 181.311 227.781C181.058 227.871 180.838 228.019 180.648 228.227C180.468 228.425 180.346 228.695 180.283 229.038L178.958 228.619C179.039 228.276 179.17 227.974 179.35 227.713C179.531 227.443 179.756 227.217 180.026 227.037C180.297 226.848 180.608 226.708 180.959 226.618C181.32 226.519 181.712 226.469 182.136 226.469C182.758 226.469 183.271 226.573 183.677 226.78C184.083 226.987 184.385 227.307 184.583 227.74C184.79 228.164 184.894 228.709 184.894 229.376V230.809C184.894 231.107 184.898 231.422 184.907 231.756C184.926 232.08 184.944 232.409 184.962 232.743C184.989 233.067 185.02 233.378 185.056 233.676H183.718C183.691 233.405 183.664 233.126 183.636 232.837C183.618 232.549 183.6 232.256 183.582 231.959H183.38C183.253 232.301 183.073 232.617 182.839 232.905C182.613 233.194 182.329 233.423 181.987 233.595C181.653 233.766 181.261 233.852 180.811 233.852ZM181.324 232.716C181.514 232.716 181.703 232.684 181.892 232.621C182.091 232.558 182.284 232.463 182.474 232.337C182.672 232.202 182.852 232.031 183.015 231.823C183.186 231.616 183.335 231.368 183.461 231.08L183.447 229.809L183.799 229.876C183.646 230.012 183.452 230.115 183.217 230.187C182.992 230.259 182.744 230.318 182.474 230.363C182.203 230.399 181.933 230.444 181.662 230.498C181.401 230.543 181.158 230.611 180.932 230.701C180.716 230.782 180.54 230.899 180.405 231.053C180.279 231.206 180.216 231.418 180.216 231.688C180.216 232.022 180.319 232.279 180.527 232.459C180.734 232.63 181 232.716 181.324 232.716ZM189.524 233.852C189.037 233.852 188.604 233.802 188.226 233.703C187.847 233.604 187.523 233.464 187.252 233.284C186.991 233.094 186.788 232.869 186.644 232.608C186.499 232.346 186.414 232.062 186.387 231.756L187.577 231.364C187.577 231.625 187.658 231.859 187.82 232.067C187.982 232.274 188.212 232.436 188.51 232.554C188.816 232.662 189.181 232.716 189.605 232.716C190.101 232.716 190.484 232.635 190.754 232.472C191.025 232.31 191.16 232.085 191.16 231.796C191.16 231.58 191.083 231.409 190.93 231.283C190.786 231.156 190.574 231.053 190.294 230.972C190.024 230.89 189.704 230.814 189.334 230.742C189.001 230.67 188.667 230.588 188.334 230.498C188.009 230.399 187.707 230.273 187.428 230.12C187.157 229.966 186.937 229.768 186.765 229.525C186.603 229.272 186.522 228.957 186.522 228.578C186.522 228.146 186.635 227.776 186.86 227.47C187.085 227.154 187.41 226.911 187.834 226.739C188.266 226.559 188.78 226.469 189.375 226.469C189.952 226.469 190.448 226.555 190.862 226.726C191.286 226.897 191.624 227.136 191.876 227.443C192.129 227.749 192.282 228.11 192.336 228.524L191.092 228.889C191.074 228.61 190.988 228.375 190.835 228.186C190.691 227.997 190.493 227.857 190.24 227.767C189.988 227.668 189.69 227.618 189.348 227.618C188.897 227.618 188.541 227.699 188.28 227.862C188.027 228.024 187.901 228.245 187.901 228.524C187.901 228.741 187.978 228.916 188.131 229.052C188.293 229.178 188.51 229.281 188.78 229.363C189.059 229.435 189.375 229.507 189.726 229.579C190.087 229.651 190.434 229.732 190.768 229.822C191.101 229.912 191.399 230.034 191.66 230.187C191.93 230.332 192.142 230.53 192.296 230.782C192.458 231.026 192.539 231.337 192.539 231.715C192.539 232.175 192.413 232.567 192.16 232.892C191.917 233.207 191.57 233.446 191.119 233.608C190.668 233.77 190.137 233.852 189.524 233.852ZM196.878 233.852C196.392 233.852 195.959 233.802 195.58 233.703C195.202 233.604 194.877 233.464 194.607 233.284C194.345 233.094 194.143 232.869 193.998 232.608C193.854 232.346 193.769 232.062 193.742 231.756L194.931 231.364C194.931 231.625 195.013 231.859 195.175 232.067C195.337 232.274 195.567 232.436 195.864 232.554C196.171 232.662 196.536 232.716 196.96 232.716C197.455 232.716 197.838 232.635 198.109 232.472C198.379 232.31 198.514 232.085 198.514 231.796C198.514 231.58 198.438 231.409 198.285 231.283C198.14 231.156 197.929 231.053 197.649 230.972C197.379 230.89 197.059 230.814 196.689 230.742C196.356 230.67 196.022 230.588 195.689 230.498C195.364 230.399 195.062 230.273 194.783 230.12C194.512 229.966 194.291 229.768 194.12 229.525C193.958 229.272 193.877 228.957 193.877 228.578C193.877 228.146 193.989 227.776 194.215 227.47C194.44 227.154 194.765 226.911 195.188 226.739C195.621 226.559 196.135 226.469 196.73 226.469C197.307 226.469 197.802 226.555 198.217 226.726C198.641 226.897 198.979 227.136 199.231 227.443C199.484 227.749 199.637 228.11 199.691 228.524L198.447 228.889C198.429 228.61 198.343 228.375 198.19 228.186C198.046 227.997 197.847 227.857 197.595 227.767C197.343 227.668 197.045 227.618 196.703 227.618C196.252 227.618 195.896 227.699 195.634 227.862C195.382 228.024 195.256 228.245 195.256 228.524C195.256 228.741 195.333 228.916 195.486 229.052C195.648 229.178 195.864 229.281 196.135 229.363C196.414 229.435 196.73 229.507 197.081 229.579C197.442 229.651 197.789 229.732 198.122 229.822C198.456 229.912 198.753 230.034 199.015 230.187C199.285 230.332 199.497 230.53 199.65 230.782C199.813 231.026 199.894 231.337 199.894 231.715C199.894 232.175 199.767 232.567 199.515 232.892C199.272 233.207 198.925 233.446 198.474 233.608C198.023 233.77 197.491 233.852 196.878 233.852ZM201.45 233.676V226.645H202.911V233.676H201.45ZM202.181 225.468C201.865 225.468 201.626 225.405 201.464 225.279C201.302 225.144 201.221 224.946 201.221 224.684C201.221 224.432 201.302 224.238 201.464 224.103C201.626 223.968 201.865 223.9 202.181 223.9C202.505 223.9 202.748 223.968 202.911 224.103C203.073 224.238 203.154 224.432 203.154 224.684C203.154 224.946 203.073 225.144 202.911 225.279C202.748 225.405 202.505 225.468 202.181 225.468ZM208.032 233.852C207.428 233.852 206.906 233.757 206.464 233.568C206.031 233.378 205.675 233.117 205.396 232.783C205.116 232.45 204.909 232.067 204.774 231.634C204.639 231.201 204.571 230.737 204.571 230.241C204.571 229.71 204.643 229.218 204.787 228.768C204.931 228.308 205.143 227.907 205.423 227.564C205.711 227.213 206.067 226.942 206.491 226.753C206.915 226.564 207.406 226.469 207.965 226.469C208.515 226.469 208.992 226.564 209.398 226.753C209.813 226.933 210.151 227.195 210.412 227.537C210.673 227.871 210.845 228.263 210.926 228.714L209.547 229.133C209.52 228.871 209.443 228.628 209.317 228.403C209.191 228.177 209.01 228.001 208.776 227.875C208.542 227.74 208.258 227.672 207.924 227.672C207.609 227.672 207.334 227.735 207.099 227.862C206.865 227.979 206.671 228.155 206.518 228.389C206.365 228.614 206.248 228.88 206.166 229.187C206.094 229.493 206.058 229.831 206.058 230.201C206.058 230.706 206.126 231.147 206.261 231.526C206.405 231.895 206.626 232.184 206.924 232.391C207.221 232.59 207.595 232.689 208.046 232.689C208.424 232.689 208.735 232.621 208.979 232.486C209.222 232.351 209.411 232.17 209.547 231.945C209.682 231.711 209.772 231.44 209.817 231.134L211.129 231.445C211.075 231.814 210.966 232.152 210.804 232.459C210.642 232.756 210.43 233.009 210.169 233.216C209.907 233.423 209.596 233.581 209.236 233.689C208.884 233.797 208.483 233.852 208.032 233.852ZM217.4 233.852C217.012 233.852 216.665 233.779 216.358 233.635C216.052 233.482 215.809 233.257 215.628 232.959C215.457 232.662 215.371 232.292 215.371 231.85C215.371 231.499 215.434 231.197 215.561 230.945C215.696 230.683 215.894 230.467 216.156 230.295C216.426 230.115 216.769 229.971 217.183 229.863C217.598 229.746 218.089 229.646 218.657 229.565C218.972 229.52 219.229 229.475 219.428 229.43C219.635 229.385 219.784 229.313 219.874 229.214C219.973 229.115 220.023 228.966 220.023 228.768C220.023 228.461 219.914 228.2 219.698 227.983C219.491 227.758 219.153 227.645 218.684 227.645C218.423 227.645 218.161 227.69 217.9 227.781C217.647 227.871 217.427 228.019 217.237 228.227C217.057 228.425 216.935 228.695 216.872 229.038L215.547 228.619C215.628 228.276 215.759 227.974 215.939 227.713C216.12 227.443 216.345 227.217 216.615 227.037C216.886 226.848 217.197 226.708 217.548 226.618C217.909 226.519 218.301 226.469 218.725 226.469C219.347 226.469 219.86 226.573 220.266 226.78C220.672 226.987 220.974 227.307 221.172 227.74C221.379 228.164 221.483 228.709 221.483 229.376V230.809C221.483 231.107 221.487 231.422 221.496 231.756C221.514 232.08 221.532 232.409 221.551 232.743C221.578 233.067 221.609 233.378 221.645 233.676H220.307C220.28 233.405 220.252 233.126 220.225 232.837C220.207 232.549 220.189 232.256 220.171 231.959H219.969C219.842 232.301 219.662 232.617 219.428 232.905C219.202 233.194 218.918 233.423 218.576 233.595C218.242 233.766 217.85 233.852 217.4 233.852ZM217.913 232.716C218.103 232.716 218.292 232.684 218.481 232.621C218.68 232.558 218.873 232.463 219.063 232.337C219.261 232.202 219.441 232.031 219.603 231.823C219.775 231.616 219.923 231.368 220.05 231.08L220.036 229.809L220.388 229.876C220.234 230.012 220.041 230.115 219.806 230.187C219.581 230.259 219.333 230.318 219.063 230.363C218.792 230.399 218.522 230.444 218.251 230.498C217.99 230.543 217.747 230.611 217.521 230.701C217.305 230.782 217.129 230.899 216.994 231.053C216.868 231.206 216.805 231.418 216.805 231.688C216.805 232.022 216.908 232.279 217.116 232.459C217.323 232.63 217.589 232.716 217.913 232.716ZM223.449 233.676V229.349V226.645H224.72L224.639 228.835H224.868C224.995 228.294 225.161 227.853 225.369 227.51C225.585 227.159 225.855 226.897 226.18 226.726C226.513 226.555 226.901 226.469 227.343 226.469C228.127 226.469 228.722 226.748 229.128 227.307C229.542 227.866 229.749 228.718 229.749 229.863V233.676H228.262V230.012C228.262 229.227 228.145 228.655 227.911 228.294C227.676 227.925 227.325 227.74 226.856 227.74C226.45 227.74 226.103 227.871 225.815 228.132C225.535 228.385 225.319 228.718 225.166 229.133C225.013 229.547 224.927 229.998 224.909 230.485V233.676H223.449ZM234.189 233.852C233.595 233.852 233.081 233.698 232.648 233.392C232.215 233.076 231.886 232.644 231.661 232.094C231.436 231.535 231.323 230.89 231.323 230.16C231.323 229.448 231.427 228.817 231.634 228.267C231.85 227.708 232.166 227.271 232.58 226.956C233.004 226.64 233.522 226.483 234.135 226.483C234.622 226.483 235.023 226.582 235.339 226.78C235.654 226.969 235.907 227.231 236.096 227.564C236.294 227.898 236.443 228.267 236.542 228.673H236.813C236.768 228.412 236.722 228.141 236.677 227.862C236.632 227.573 236.596 227.298 236.569 227.037C236.542 226.766 236.529 226.528 236.529 226.32V224.143H238.016V230.214V233.676H236.731L236.786 231.729H236.542C236.434 232.17 236.281 232.549 236.082 232.865C235.884 233.18 235.627 233.423 235.312 233.595C235.005 233.766 234.631 233.852 234.189 233.852ZM234.595 232.608C234.911 232.608 235.19 232.535 235.433 232.391C235.677 232.247 235.88 232.058 236.042 231.823C236.204 231.589 236.326 231.337 236.407 231.066C236.497 230.787 236.542 230.525 236.542 230.282V230.093C236.542 229.912 236.515 229.719 236.461 229.511C236.416 229.295 236.339 229.083 236.231 228.876C236.132 228.659 236.006 228.466 235.853 228.294C235.699 228.123 235.515 227.988 235.298 227.889C235.091 227.781 234.857 227.726 234.595 227.726C234.217 227.726 233.897 227.835 233.635 228.051C233.383 228.258 233.189 228.547 233.054 228.916C232.919 229.286 232.851 229.71 232.851 230.187C232.851 230.674 232.919 231.102 233.054 231.472C233.198 231.832 233.401 232.112 233.662 232.31C233.924 232.508 234.235 232.608 234.595 232.608ZM245.862 233.852C245.267 233.852 244.753 233.698 244.321 233.392C243.888 233.076 243.559 232.644 243.334 232.094C243.108 231.535 242.996 230.89 242.996 230.16C242.996 229.448 243.099 228.817 243.307 228.267C243.523 227.708 243.838 227.271 244.253 226.956C244.677 226.64 245.195 226.483 245.808 226.483C246.295 226.483 246.696 226.582 247.011 226.78C247.327 226.969 247.579 227.231 247.769 227.564C247.967 227.898 248.116 228.267 248.215 228.673H248.485C248.44 228.412 248.395 228.141 248.35 227.862C248.305 227.573 248.269 227.298 248.242 227.037C248.215 226.766 248.201 226.528 248.201 226.32V224.143H249.689V230.214V233.676H248.404L248.458 231.729H248.215C248.107 232.17 247.953 232.549 247.755 232.865C247.557 233.18 247.3 233.423 246.984 233.595C246.678 233.766 246.304 233.852 245.862 233.852ZM246.268 232.608C246.583 232.608 246.863 232.535 247.106 232.391C247.349 232.247 247.552 232.058 247.714 231.823C247.877 231.589 247.998 231.337 248.08 231.066C248.17 230.787 248.215 230.525 248.215 230.282V230.093C248.215 229.912 248.188 229.719 248.134 229.511C248.089 229.295 248.012 229.083 247.904 228.876C247.805 228.659 247.678 228.466 247.525 228.294C247.372 228.123 247.187 227.988 246.971 227.889C246.763 227.781 246.529 227.726 246.268 227.726C245.889 227.726 245.569 227.835 245.308 228.051C245.055 228.258 244.861 228.547 244.726 228.916C244.591 229.286 244.523 229.71 244.523 230.187C244.523 230.674 244.591 231.102 244.726 231.472C244.87 231.832 245.073 232.112 245.335 232.31C245.596 232.508 245.907 232.608 246.268 232.608ZM251.706 233.676V226.645H253.166V233.676H251.706ZM252.436 225.468C252.12 225.468 251.881 225.405 251.719 225.279C251.557 225.144 251.476 224.946 251.476 224.684C251.476 224.432 251.557 224.238 251.719 224.103C251.881 223.968 252.12 223.9 252.436 223.9C252.76 223.9 253.004 223.968 253.166 224.103C253.328 224.238 253.409 224.432 253.409 224.684C253.409 224.946 253.328 225.144 253.166 225.279C253.004 225.405 252.76 225.468 252.436 225.468ZM257.882 233.852C257.395 233.852 256.963 233.802 256.584 233.703C256.205 233.604 255.881 233.464 255.61 233.284C255.349 233.094 255.146 232.869 255.002 232.608C254.858 232.346 254.772 232.062 254.745 231.756L255.935 231.364C255.935 231.625 256.016 231.859 256.178 232.067C256.341 232.274 256.57 232.436 256.868 232.554C257.174 232.662 257.539 232.716 257.963 232.716C258.459 232.716 258.842 232.635 259.112 232.472C259.383 232.31 259.518 232.085 259.518 231.796C259.518 231.58 259.441 231.409 259.288 231.283C259.144 231.156 258.932 231.053 258.653 230.972C258.382 230.89 258.062 230.814 257.693 230.742C257.359 230.67 257.026 230.588 256.692 230.498C256.368 230.399 256.066 230.273 255.786 230.12C255.516 229.966 255.295 229.768 255.124 229.525C254.961 229.272 254.88 228.957 254.88 228.578C254.88 228.146 254.993 227.776 255.218 227.47C255.444 227.154 255.768 226.911 256.192 226.739C256.625 226.559 257.138 226.469 257.733 226.469C258.31 226.469 258.806 226.555 259.221 226.726C259.644 226.897 259.982 227.136 260.235 227.443C260.487 227.749 260.64 228.11 260.694 228.524L259.45 228.889C259.432 228.61 259.347 228.375 259.194 228.186C259.049 227.997 258.851 227.857 258.599 227.767C258.346 227.668 258.049 227.618 257.706 227.618C257.256 227.618 256.899 227.699 256.638 227.862C256.386 228.024 256.259 228.245 256.259 228.524C256.259 228.741 256.336 228.916 256.489 229.052C256.652 229.178 256.868 229.281 257.138 229.363C257.418 229.435 257.733 229.507 258.085 229.579C258.445 229.651 258.792 229.732 259.126 229.822C259.459 229.912 259.757 230.034 260.018 230.187C260.289 230.332 260.501 230.53 260.654 230.782C260.816 231.026 260.897 231.337 260.897 231.715C260.897 232.175 260.771 232.567 260.519 232.892C260.275 233.207 259.928 233.446 259.477 233.608C259.027 233.77 258.495 233.852 257.882 233.852ZM264.766 233.825C264.072 233.825 263.554 233.635 263.211 233.257C262.878 232.878 262.711 232.297 262.711 231.512V227.848H261.67L261.697 226.645H262.373C262.607 226.645 262.783 226.609 262.9 226.537C263.018 226.455 263.09 226.316 263.117 226.117L263.252 225.076H264.131V226.645H266.064V227.875H264.131V231.472C264.131 231.823 264.212 232.076 264.374 232.229C264.537 232.382 264.775 232.459 265.091 232.459C265.262 232.459 265.433 232.441 265.605 232.405C265.785 232.36 265.956 232.279 266.118 232.161V233.581C265.848 233.671 265.6 233.734 265.375 233.77C265.149 233.806 264.947 233.825 264.766 233.825ZM267.577 233.676V226.645H269.037V233.676H267.577ZM268.307 225.468C267.992 225.468 267.753 225.405 267.591 225.279C267.428 225.144 267.347 224.946 267.347 224.684C267.347 224.432 267.428 224.238 267.591 224.103C267.753 223.968 267.992 223.9 268.307 223.9C268.632 223.9 268.875 223.968 269.037 224.103C269.2 224.238 269.281 224.432 269.281 224.684C269.281 224.946 269.2 225.144 269.037 225.279C268.875 225.405 268.632 225.468 268.307 225.468ZM271.076 233.676V229.349V226.645H272.347L272.266 228.835H272.496C272.622 228.294 272.789 227.853 272.996 227.51C273.213 227.159 273.483 226.897 273.808 226.726C274.141 226.555 274.529 226.469 274.97 226.469C275.755 226.469 276.35 226.748 276.755 227.307C277.17 227.866 277.377 228.718 277.377 229.863V233.676H275.89V230.012C275.89 229.227 275.773 228.655 275.538 228.294C275.304 227.925 274.952 227.74 274.484 227.74C274.078 227.74 273.731 227.871 273.443 228.132C273.163 228.385 272.947 228.718 272.793 229.133C272.64 229.547 272.555 229.998 272.537 230.485V233.676H271.076ZM281.98 236.083C281.223 236.083 280.601 236.024 280.114 235.907C279.636 235.79 279.285 235.614 279.059 235.379C278.834 235.145 278.721 234.857 278.721 234.514C278.721 234.099 278.883 233.761 279.208 233.5C279.532 233.23 280.024 233.058 280.682 232.986V232.716C280.195 232.725 279.825 232.675 279.573 232.567C279.33 232.45 279.208 232.27 279.208 232.026C279.208 231.774 279.33 231.562 279.573 231.391C279.825 231.21 280.231 231.053 280.79 230.917V230.661C280.24 230.643 279.816 230.471 279.519 230.147C279.221 229.822 279.073 229.408 279.073 228.903C279.073 228.443 279.194 228.042 279.438 227.699C279.69 227.348 280.055 227.077 280.533 226.888C281.02 226.69 281.606 226.591 282.291 226.591H285.685V227.781L283.508 227.456V227.726C284.048 227.826 284.454 227.997 284.725 228.24C284.995 228.484 285.13 228.813 285.13 229.227C285.13 229.597 285.013 229.926 284.779 230.214C284.553 230.503 284.22 230.728 283.778 230.89C283.336 231.044 282.795 231.12 282.155 231.12C282.038 231.12 281.912 231.116 281.777 231.107C281.642 231.098 281.443 231.075 281.182 231.039C280.966 231.174 280.79 231.301 280.655 231.418C280.528 231.535 280.465 231.639 280.465 231.729C280.465 231.819 280.519 231.891 280.628 231.945C280.745 231.999 280.889 232.035 281.06 232.053C281.232 232.071 281.394 232.08 281.547 232.08H283.278C283.458 232.08 283.688 232.098 283.967 232.134C284.247 232.161 284.526 232.234 284.806 232.351C285.085 232.468 285.319 232.653 285.509 232.905C285.698 233.148 285.793 233.491 285.793 233.933C285.793 234.437 285.648 234.848 285.36 235.163C285.072 235.479 284.643 235.708 284.075 235.853C283.508 236.006 282.809 236.083 281.98 236.083ZM282.074 234.879C282.651 234.879 283.115 234.843 283.467 234.771C283.819 234.708 284.075 234.6 284.238 234.446C284.4 234.293 284.481 234.099 284.481 233.865C284.481 233.649 284.427 233.482 284.319 233.365C284.211 233.239 284.075 233.153 283.913 233.108C283.76 233.054 283.602 233.022 283.44 233.013C283.278 233.004 283.138 233 283.021 233H281.412C280.934 233.081 280.601 233.221 280.411 233.419C280.222 233.608 280.127 233.82 280.127 234.054C280.127 234.28 280.208 234.451 280.371 234.568C280.533 234.694 280.758 234.776 281.047 234.812C281.344 234.857 281.687 234.879 282.074 234.879ZM282.169 230.255C282.692 230.255 283.084 230.142 283.345 229.917C283.616 229.683 283.751 229.376 283.751 228.997C283.751 228.592 283.616 228.263 283.345 228.01C283.075 227.749 282.674 227.618 282.142 227.618C281.619 227.618 281.218 227.745 280.939 227.997C280.668 228.249 280.533 228.569 280.533 228.957C280.533 229.218 280.596 229.448 280.722 229.646C280.848 229.836 281.029 229.985 281.263 230.093C281.506 230.201 281.808 230.255 282.169 230.255ZM289.55 233.852C288.757 233.852 288.157 233.581 287.752 233.04C287.346 232.49 287.143 231.666 287.143 230.566V226.645H288.617V230.404C288.617 231.143 288.73 231.693 288.955 232.053C289.181 232.414 289.537 232.594 290.023 232.594C290.294 232.594 290.533 232.526 290.74 232.391C290.947 232.256 291.128 232.067 291.281 231.823C291.443 231.58 291.569 231.296 291.659 230.972C291.759 230.638 291.826 230.273 291.862 229.876V226.645H293.322V230.755V233.676H292.079L292.146 231.445H291.916C291.799 232.004 291.632 232.463 291.416 232.824C291.209 233.175 290.947 233.437 290.632 233.608C290.325 233.77 289.965 233.852 289.55 233.852ZM295.346 233.676V226.645H296.806V233.676H295.346ZM296.076 225.468C295.76 225.468 295.521 225.405 295.359 225.279C295.197 225.144 295.116 224.946 295.116 224.684C295.116 224.432 295.197 224.238 295.359 224.103C295.521 223.968 295.76 223.9 296.076 223.9C296.4 223.9 296.644 223.968 296.806 224.103C296.968 224.238 297.049 224.432 297.049 224.684C297.049 224.946 296.968 225.144 296.806 225.279C296.644 225.405 296.4 225.468 296.076 225.468ZM301.522 233.852C301.035 233.852 300.603 233.802 300.224 233.703C299.845 233.604 299.521 233.464 299.25 233.284C298.989 233.094 298.786 232.869 298.642 232.608C298.498 232.346 298.412 232.062 298.385 231.756L299.575 231.364C299.575 231.625 299.656 231.859 299.818 232.067C299.981 232.274 300.21 232.436 300.508 232.554C300.814 232.662 301.179 232.716 301.603 232.716C302.099 232.716 302.482 232.635 302.752 232.472C303.023 232.31 303.158 232.085 303.158 231.796C303.158 231.58 303.081 231.409 302.928 231.283C302.784 231.156 302.572 231.053 302.293 230.972C302.022 230.89 301.702 230.814 301.333 230.742C300.999 230.67 300.666 230.588 300.332 230.498C300.008 230.399 299.706 230.273 299.426 230.12C299.156 229.966 298.935 229.768 298.764 229.525C298.601 229.272 298.52 228.957 298.52 228.578C298.52 228.146 298.633 227.776 298.858 227.47C299.084 227.154 299.408 226.911 299.832 226.739C300.265 226.559 300.778 226.469 301.373 226.469C301.95 226.469 302.446 226.555 302.861 226.726C303.284 226.897 303.622 227.136 303.875 227.443C304.127 227.749 304.28 228.11 304.334 228.524L303.09 228.889C303.072 228.61 302.987 228.375 302.834 228.186C302.689 227.997 302.491 227.857 302.239 227.767C301.986 227.668 301.689 227.618 301.346 227.618C300.896 227.618 300.539 227.699 300.278 227.862C300.026 228.024 299.899 228.245 299.899 228.524C299.899 228.741 299.976 228.916 300.129 229.052C300.292 229.178 300.508 229.281 300.778 229.363C301.058 229.435 301.373 229.507 301.725 229.579C302.085 229.651 302.432 229.732 302.766 229.822C303.099 229.912 303.397 230.034 303.658 230.187C303.929 230.332 304.141 230.53 304.294 230.782C304.456 231.026 304.537 231.337 304.537 231.715C304.537 232.175 304.411 232.567 304.159 232.892C303.915 233.207 303.568 233.446 303.117 233.608C302.667 233.77 302.135 233.852 301.522 233.852ZM306.094 233.676V229.363V224.143H307.581V226.334C307.581 226.523 307.577 226.721 307.568 226.929C307.559 227.127 307.541 227.33 307.514 227.537C307.487 227.745 307.46 227.952 307.433 228.159C307.405 228.366 307.374 228.578 307.338 228.795H307.581C307.716 228.29 307.883 227.866 308.082 227.524C308.289 227.172 308.546 226.911 308.852 226.739C309.168 226.559 309.546 226.469 309.988 226.469C310.799 226.469 311.403 226.753 311.8 227.321C312.196 227.88 312.395 228.723 312.395 229.849V233.676H310.907V230.039C310.907 229.245 310.786 228.664 310.542 228.294C310.308 227.925 309.952 227.74 309.474 227.74C309.078 227.74 308.744 227.857 308.474 228.092C308.212 228.326 308.005 228.641 307.852 229.038C307.698 229.435 307.599 229.885 307.554 230.39V233.676H306.094ZM317.417 233.852C316.858 233.852 316.362 233.77 315.929 233.608C315.497 233.437 315.131 233.198 314.834 232.892C314.537 232.576 314.311 232.202 314.158 231.769C314.005 231.328 313.928 230.832 313.928 230.282C313.928 229.732 314.005 229.227 314.158 228.768C314.311 228.299 314.528 227.893 314.807 227.551C315.095 227.208 315.447 226.942 315.862 226.753C316.285 226.564 316.763 226.469 317.295 226.469C317.791 226.469 318.232 226.55 318.62 226.712C319.017 226.875 319.35 227.123 319.62 227.456C319.891 227.781 320.094 228.191 320.229 228.686C320.364 229.173 320.414 229.746 320.378 230.404L314.875 230.444V229.525L319.512 229.484L318.998 230.052C319.053 229.511 319.008 229.065 318.863 228.714C318.719 228.362 318.512 228.101 318.241 227.929C317.971 227.758 317.66 227.672 317.308 227.672C316.912 227.672 316.565 227.776 316.267 227.983C315.979 228.182 315.753 228.475 315.591 228.862C315.429 229.25 315.348 229.714 315.348 230.255C315.348 231.066 315.528 231.679 315.889 232.094C316.249 232.499 316.763 232.702 317.43 232.702C317.709 232.702 317.948 232.671 318.147 232.608C318.345 232.535 318.512 232.445 318.647 232.337C318.782 232.22 318.89 232.085 318.971 231.932C319.062 231.769 319.134 231.603 319.188 231.431L320.472 231.729C320.391 232.062 320.265 232.36 320.094 232.621C319.931 232.874 319.724 233.094 319.472 233.284C319.219 233.464 318.922 233.604 318.579 233.703C318.246 233.802 317.858 233.852 317.417 233.852ZM324.599 233.852C324.004 233.852 323.49 233.698 323.057 233.392C322.625 233.076 322.296 232.644 322.07 232.094C321.845 231.535 321.732 230.89 321.732 230.16C321.732 229.448 321.836 228.817 322.043 228.267C322.26 227.708 322.575 227.271 322.99 226.956C323.414 226.64 323.932 226.483 324.545 226.483C325.032 226.483 325.433 226.582 325.748 226.78C326.064 226.969 326.316 227.231 326.505 227.564C326.704 227.898 326.852 228.267 326.952 228.673H327.222C327.177 228.412 327.132 228.141 327.087 227.862C327.042 227.573 327.006 227.298 326.979 227.037C326.952 226.766 326.938 226.528 326.938 226.32V224.143H328.425V230.214V233.676H327.141L327.195 231.729H326.952C326.843 232.17 326.69 232.549 326.492 232.865C326.294 233.18 326.037 233.423 325.721 233.595C325.415 233.766 325.041 233.852 324.599 233.852ZM325.005 232.608C325.32 232.608 325.599 232.535 325.843 232.391C326.086 232.247 326.289 232.058 326.451 231.823C326.614 231.589 326.735 231.337 326.816 231.066C326.906 230.787 326.952 230.525 326.952 230.282V230.093C326.952 229.912 326.925 229.719 326.87 229.511C326.825 229.295 326.749 229.083 326.641 228.876C326.541 228.659 326.415 228.466 326.262 228.294C326.109 228.123 325.924 227.988 325.708 227.889C325.5 227.781 325.266 227.726 325.005 227.726C324.626 227.726 324.306 227.835 324.045 228.051C323.792 228.258 323.598 228.547 323.463 228.916C323.328 229.286 323.26 229.71 323.26 230.187C323.26 230.674 323.328 231.102 323.463 231.472C323.607 231.832 323.81 232.112 324.072 232.31C324.333 232.508 324.644 232.608 325.005 232.608Z" fill="#1A1A1A"/>
</g>
<defs>
<clipPath id="clip0_158_5589">
<rect x="55" y="112.084" width="290.704" height="137.916" rx="16.2254" fill="white"/>
</clipPath>
</defs>
</svg>
