<svg width="400" height="309" viewBox="0 0 400 309" fill="none" xmlns="http://www.w3.org/2000/svg">
<rect y="0.483154" width="400" height="308" rx="16" fill="#F3F3F3"/>
<rect x="156" y="78" width="80" height="80" rx="40" fill="#E6E7EB"/>
<path d="M202.667 135.917H189.333C183.25 135.917 179.75 132.417 179.75 126.333V109.667C179.75 103.583 183.25 100.083 189.333 100.083H202.667C208.75 100.083 212.25 103.583 212.25 109.667V126.333C212.25 132.417 208.75 135.917 202.667 135.917ZM189.333 102.583C184.567 102.583 182.25 104.9 182.25 109.667V126.333C182.25 131.1 184.567 133.417 189.333 133.417H202.667C207.433 133.417 209.75 131.1 209.75 126.333V109.667C209.75 104.9 207.433 102.583 202.667 102.583H189.333Z" fill="#343F5D"/>
<path d="M206.833 113.417H203.5C200.967 113.417 198.917 111.367 198.917 108.833V105.5C198.917 104.817 199.483 104.25 200.167 104.25C200.85 104.25 201.417 104.817 201.417 105.5V108.833C201.417 109.983 202.35 110.917 203.5 110.917H206.833C207.517 110.917 208.083 111.483 208.083 112.167C208.083 112.85 207.517 113.417 206.833 113.417Z" fill="#343F5D"/>
<path d="M196 120.917H189.333C188.65 120.917 188.083 120.35 188.083 119.667C188.083 118.983 188.65 118.417 189.333 118.417H196C196.683 118.417 197.25 118.983 197.25 119.667C197.25 120.35 196.683 120.917 196 120.917Z" fill="#343F5D"/>
<path d="M202.667 127.583H189.333C188.65 127.583 188.083 127.017 188.083 126.333C188.083 125.65 188.65 125.083 189.333 125.083H202.667C203.35 125.083 203.917 125.65 203.917 126.333C203.917 127.017 203.35 127.583 202.667 127.583Z" fill="#343F5D"/>
<rect x="77" y="136" width="247" height="136.665" rx="30.0914" fill="#B0B5C0"/>
<path d="M152.489 214.152V194.292H156.311V214.152H152.489ZM146.591 197.512V194.292H162.239V197.512H146.591ZM167.224 214.152L163.222 198.415H167.194L169.691 211.083H170.233L173.092 198.415H177.726L180.675 211.083H181.216L183.654 198.415H187.536L183.533 214.152H178.267L175.559 201.544H175.108L172.46 214.152H167.224ZM197.22 214.544C195.956 214.544 194.822 214.363 193.819 214.002C192.836 213.641 192.004 213.119 191.322 212.437C190.64 211.735 190.118 210.892 189.757 209.909C189.396 208.926 189.215 207.813 189.215 206.569C189.215 205.326 189.386 204.182 189.727 203.139C190.088 202.096 190.6 201.193 191.262 200.431C191.924 199.668 192.726 199.077 193.669 198.655C194.632 198.234 195.725 198.023 196.949 198.023C198.092 198.023 199.115 198.214 200.018 198.595C200.921 198.976 201.683 199.548 202.305 200.31C202.927 201.053 203.388 201.985 203.689 203.109C203.99 204.212 204.091 205.496 203.99 206.961L191.683 207.051V204.854L201.794 204.764L200.47 205.998C200.59 204.854 200.5 203.921 200.199 203.199C199.898 202.457 199.466 201.915 198.905 201.574C198.343 201.213 197.701 201.033 196.979 201.033C196.156 201.033 195.434 201.253 194.812 201.695C194.19 202.116 193.709 202.738 193.368 203.56C193.047 204.363 192.886 205.346 192.886 206.509C192.886 208.254 193.268 209.558 194.03 210.421C194.812 211.284 195.876 211.715 197.22 211.715C197.821 211.715 198.323 211.645 198.724 211.504C199.146 211.344 199.497 211.143 199.777 210.902C200.058 210.642 200.279 210.351 200.439 210.03C200.62 209.709 200.76 209.368 200.861 209.007L204.171 209.759C204.01 210.501 203.749 211.163 203.388 211.745C203.027 212.327 202.556 212.828 201.974 213.25C201.412 213.671 200.74 213.992 199.958 214.213C199.176 214.433 198.263 214.544 197.22 214.544ZM211.156 214.544C210.293 214.544 209.521 214.383 208.839 214.062C208.157 213.721 207.615 213.22 207.214 212.558C206.833 211.895 206.642 211.073 206.642 210.09C206.642 209.268 206.792 208.565 207.093 207.984C207.414 207.402 207.886 206.93 208.508 206.569C209.13 206.188 209.902 205.877 210.825 205.636C211.748 205.376 212.831 205.155 214.075 204.974C214.757 204.874 215.308 204.774 215.73 204.674C216.171 204.573 216.492 204.423 216.693 204.222C216.893 204.002 216.993 203.681 216.993 203.259C216.993 202.637 216.773 202.106 216.331 201.664C215.91 201.203 215.218 200.972 214.255 200.972C213.673 200.972 213.112 201.073 212.57 201.273C212.048 201.474 211.597 201.795 211.216 202.236C210.835 202.657 210.574 203.219 210.434 203.921L207.033 202.868C207.254 202.066 207.575 201.374 207.996 200.792C208.417 200.19 208.939 199.678 209.561 199.257C210.183 198.836 210.895 198.525 211.697 198.324C212.5 198.124 213.382 198.023 214.345 198.023C215.81 198.023 217.014 198.264 217.956 198.746C218.899 199.207 219.601 199.939 220.063 200.942C220.524 201.925 220.755 203.199 220.755 204.764V207.713C220.755 208.395 220.765 209.107 220.785 209.849C220.825 210.571 220.865 211.304 220.905 212.046C220.966 212.768 221.036 213.47 221.116 214.152H217.716C217.635 213.591 217.565 212.989 217.505 212.347C217.445 211.705 217.395 211.053 217.355 210.391H216.873C216.592 211.153 216.191 211.855 215.669 212.497C215.148 213.119 214.506 213.621 213.744 214.002C213.001 214.363 212.139 214.544 211.156 214.544ZM212.66 211.745C213.062 211.745 213.463 211.675 213.864 211.534C214.285 211.394 214.696 211.183 215.098 210.902C215.499 210.622 215.87 210.281 216.211 209.879C216.552 209.458 216.843 208.967 217.084 208.405L217.024 205.727L217.746 205.847C217.405 206.128 216.983 206.349 216.482 206.509C215.98 206.67 215.449 206.79 214.887 206.87C214.345 206.95 213.794 207.051 213.232 207.171C212.69 207.271 212.199 207.412 211.758 207.592C211.316 207.753 210.965 207.994 210.704 208.315C210.444 208.616 210.313 209.037 210.313 209.578C210.313 210.261 210.534 210.792 210.975 211.173C211.417 211.554 211.978 211.745 212.66 211.745ZM224.852 214.152V206.268V198.415H228.042L227.982 203.831H228.524C228.704 202.547 228.985 201.484 229.366 200.641C229.747 199.779 230.279 199.137 230.961 198.715C231.643 198.274 232.486 198.053 233.489 198.053C233.689 198.053 233.9 198.063 234.121 198.084C234.361 198.104 234.622 198.154 234.903 198.234L234.753 202.236C234.432 202.116 234.101 202.036 233.76 201.995C233.439 201.935 233.138 201.905 232.857 201.905C232.074 201.905 231.392 202.106 230.811 202.507C230.249 202.908 229.787 203.48 229.426 204.222C229.085 204.944 228.825 205.807 228.644 206.81V214.152H224.852ZM237.547 214.152V192.757H241.279V204.764C241.961 204.343 242.613 203.881 243.235 203.38C243.856 202.858 244.428 202.316 244.95 201.755C245.471 201.193 245.933 200.631 246.334 200.07C246.735 199.488 247.066 198.936 247.327 198.415H251.69C251.369 199.197 250.948 199.969 250.426 200.732C249.905 201.494 249.293 202.196 248.591 202.838C247.909 203.48 247.136 204.042 246.274 204.523C245.411 204.985 244.488 205.305 243.505 205.486V205.907C244.749 205.727 245.792 205.787 246.635 206.088C247.477 206.389 248.19 206.84 248.771 207.442C249.353 208.044 249.835 208.746 250.216 209.548C250.617 210.331 250.988 211.133 251.329 211.956L252.111 214.152H247.929L247.447 212.708C247.066 211.705 246.665 210.822 246.244 210.06C245.842 209.278 245.331 208.676 244.709 208.254C244.107 207.813 243.325 207.592 242.362 207.592H241.279V214.152H237.547Z" fill="#1A1A1A"/>
<rect x="256" y="43" width="40" height="40" rx="20" transform="rotate(30 256 43)" fill="#E6E7EB"/>
<path d="M261.728 79.7452L255.955 76.4119C253.32 74.891 252.68 72.5005 254.201 69.8663L258.367 62.6495C259.888 60.0153 262.279 59.3748 264.913 60.8956L270.686 64.2289C273.321 65.7498 273.961 68.1403 272.44 70.7745L268.274 77.9913C266.753 80.6255 264.362 81.266 261.728 79.7452ZM264.288 61.9781C262.224 60.7865 260.642 61.2104 259.45 63.2745L255.283 70.4913C254.092 72.5554 254.516 74.1377 256.58 75.3293L262.353 78.6627C264.417 79.8543 265.999 79.4304 267.191 77.3663L271.358 70.1495C272.549 68.0854 272.125 66.5031 270.061 65.3115L264.288 61.9781Z" fill="#343F5D"/>
<path d="M269.157 71.0442L267.714 70.2108C266.617 69.5775 266.242 68.1773 266.875 67.0803L267.708 65.637C267.879 65.3411 268.266 65.2374 268.562 65.4082C268.858 65.579 268.962 65.9661 268.791 66.262L267.958 67.7053C267.67 68.2033 267.841 68.8408 268.339 69.1283L269.782 69.9616C270.078 70.1325 270.182 70.5195 270.011 70.8154C269.84 71.1113 269.453 71.215 269.157 71.0442Z" fill="#343F5D"/>
<path d="M262.591 71.5834L259.704 69.9168C259.408 69.7459 259.305 69.3589 259.476 69.063C259.646 68.7671 260.033 68.6634 260.329 68.8342L263.216 70.5009C263.512 70.6717 263.616 71.0588 263.445 71.3547C263.274 71.6506 262.887 71.7543 262.591 71.5834Z" fill="#343F5D"/>
<path d="M263.811 76.1368L258.038 72.8035C257.742 72.6326 257.638 72.2456 257.809 71.9497C257.98 71.6538 258.367 71.5501 258.663 71.7209L264.436 75.0543C264.732 75.2251 264.836 75.6122 264.665 75.908C264.494 76.2039 264.107 76.3076 263.811 76.1368Z" fill="#343F5D"/>
<rect width="40" height="40" rx="20" transform="matrix(-0.866025 0.5 0.5 0.866025 125.641 54)" fill="#E6E7EB"/>
<path d="M119.913 90.7452L125.687 87.4119C128.321 85.891 128.961 83.5005 127.44 80.8663L123.274 73.6495C121.753 71.0153 119.362 70.3748 116.728 71.8956L110.955 75.2289C108.321 76.7498 107.68 79.1403 109.201 81.7745L113.368 88.9913C114.888 91.6255 117.279 92.266 119.913 90.7452ZM117.353 72.9781C119.417 71.7865 121 72.2104 122.191 74.2745L126.358 81.4913C127.55 83.5554 127.126 85.1377 125.062 86.3293L119.288 89.6627C117.224 90.8543 115.642 90.4304 114.45 88.3663L110.283 81.1495C109.092 79.0854 109.516 77.5031 111.58 76.3115L117.353 72.9781Z" fill="#343F5D"/>
<path d="M112.484 82.0442L113.927 81.2108C115.024 80.5775 115.4 79.1773 114.766 78.0803L113.933 76.637C113.762 76.3411 113.375 76.2374 113.079 76.4082C112.783 76.579 112.679 76.9661 112.85 77.262L113.684 78.7053C113.971 79.2033 113.8 79.8408 113.302 80.1283L111.859 80.9616C111.563 81.1325 111.459 81.5195 111.63 81.8154C111.801 82.1113 112.188 82.215 112.484 82.0442Z" fill="#343F5D"/>
<path d="M119.05 82.5832L121.937 80.9165C122.232 80.7457 122.336 80.3586 122.165 80.0628C121.994 79.7669 121.607 79.6632 121.312 79.834L118.425 81.5007C118.129 81.6715 118.025 82.0585 118.196 82.3544C118.367 82.6503 118.754 82.754 119.05 82.5832Z" fill="#343F5D"/>
<path d="M117.83 87.1368L123.603 83.8035C123.899 83.6326 124.003 83.2456 123.832 82.9497C123.661 82.6538 123.274 82.5501 122.978 82.7209L117.205 86.0543C116.909 86.2251 116.805 86.6122 116.976 86.908C117.147 87.2039 117.534 87.3076 117.83 87.1368Z" fill="#343F5D"/>
</svg>
