<svg width="400" height="309" viewBox="0 0 400 309" fill="none" xmlns="http://www.w3.org/2000/svg">
<rect y="0.483154" width="400" height="308" rx="16" fill="#F3F3F3"/>
<rect x="156" y="78" width="80" height="80" rx="40" fill="#E6E7EB"/>
<path d="M202.667 135.917H189.333C183.25 135.917 179.75 132.417 179.75 126.333V109.667C179.75 103.583 183.25 100.083 189.333 100.083H202.667C208.75 100.083 212.25 103.583 212.25 109.667V126.333C212.25 132.417 208.75 135.917 202.667 135.917ZM189.333 102.583C184.567 102.583 182.25 104.9 182.25 109.667V126.333C182.25 131.1 184.567 133.417 189.333 133.417H202.667C207.433 133.417 209.75 131.1 209.75 126.333V109.667C209.75 104.9 207.433 102.583 202.667 102.583H189.333Z" fill="#343F5D"/>
<path d="M206.833 113.417H203.5C200.967 113.417 198.917 111.367 198.917 108.833V105.5C198.917 104.817 199.483 104.25 200.167 104.25C200.85 104.25 201.417 104.817 201.417 105.5V108.833C201.417 109.983 202.35 110.917 203.5 110.917H206.833C207.517 110.917 208.083 111.483 208.083 112.167C208.083 112.85 207.517 113.417 206.833 113.417Z" fill="#343F5D"/>
<path d="M196 120.917H189.333C188.65 120.917 188.083 120.35 188.083 119.667C188.083 118.983 188.65 118.417 189.333 118.417H196C196.683 118.417 197.25 118.983 197.25 119.667C197.25 120.35 196.683 120.917 196 120.917Z" fill="#343F5D"/>
<path d="M202.667 127.583H189.333C188.65 127.583 188.083 127.017 188.083 126.333C188.083 125.65 188.65 125.083 189.333 125.083H202.667C203.35 125.083 203.917 125.65 203.917 126.333C203.917 127.017 203.35 127.583 202.667 127.583Z" fill="#343F5D"/>
<rect x="77" y="136" width="247" height="136.665" rx="30.0914" fill="#B0B5C0"/>
<path d="M146.53 214.152V194.292H150.351V214.152H146.53ZM140.632 197.512V194.292H156.279V197.512H140.632ZM161.264 214.152L157.262 198.415H161.234L163.732 211.083H164.274L167.132 198.415H171.766L174.715 211.083H175.257L177.694 198.415H181.576L177.574 214.152H172.308L169.6 201.544H169.148L166.5 214.152H161.264ZM191.26 214.544C189.996 214.544 188.863 214.363 187.86 214.002C186.877 213.641 186.044 213.119 185.362 212.437C184.68 211.735 184.159 210.892 183.798 209.909C183.436 208.926 183.256 207.813 183.256 206.569C183.256 205.326 183.426 204.182 183.767 203.139C184.129 202.096 184.64 201.193 185.302 200.431C185.964 199.668 186.767 199.077 187.709 198.655C188.672 198.234 189.766 198.023 190.989 198.023C192.133 198.023 193.156 198.214 194.059 198.595C194.961 198.976 195.724 199.548 196.346 200.31C196.968 201.053 197.429 201.985 197.73 203.109C198.031 204.212 198.131 205.496 198.031 206.961L185.723 207.051V204.854L195.834 204.764L194.51 205.998C194.63 204.854 194.54 203.921 194.239 203.199C193.938 202.457 193.507 201.915 192.945 201.574C192.384 201.213 191.742 201.033 191.019 201.033C190.197 201.033 189.475 201.253 188.853 201.695C188.231 202.116 187.75 202.738 187.408 203.56C187.088 204.363 186.927 205.346 186.927 206.509C186.927 208.254 187.308 209.558 188.07 210.421C188.853 211.284 189.916 211.715 191.26 211.715C191.862 211.715 192.364 211.645 192.765 211.504C193.186 211.344 193.537 211.143 193.818 210.902C194.099 210.642 194.319 210.351 194.48 210.03C194.661 209.709 194.801 209.368 194.901 209.007L198.211 209.759C198.051 210.501 197.79 211.163 197.429 211.745C197.068 212.327 196.596 212.828 196.015 213.25C195.453 213.671 194.781 213.992 193.998 214.213C193.216 214.433 192.303 214.544 191.26 214.544ZM205.196 214.544C204.334 214.544 203.561 214.383 202.879 214.062C202.197 213.721 201.655 213.22 201.254 212.558C200.873 211.895 200.683 211.073 200.683 210.09C200.683 209.268 200.833 208.565 201.134 207.984C201.455 207.402 201.926 206.93 202.548 206.569C203.17 206.188 203.942 205.877 204.865 205.636C205.788 205.376 206.871 205.155 208.115 204.974C208.797 204.874 209.349 204.774 209.77 204.674C210.211 204.573 210.532 204.423 210.733 204.222C210.934 204.002 211.034 203.681 211.034 203.259C211.034 202.637 210.813 202.106 210.372 201.664C209.951 201.203 209.259 200.972 208.296 200.972C207.714 200.972 207.152 201.073 206.611 201.273C206.089 201.474 205.638 201.795 205.256 202.236C204.875 202.657 204.614 203.219 204.474 203.921L201.074 202.868C201.294 202.066 201.615 201.374 202.037 200.792C202.458 200.19 202.98 199.678 203.601 199.257C204.223 198.836 204.935 198.525 205.738 198.324C206.54 198.124 207.423 198.023 208.386 198.023C209.85 198.023 211.054 198.264 211.997 198.746C212.94 199.207 213.642 199.939 214.103 200.942C214.565 201.925 214.795 203.199 214.795 204.764V207.713C214.795 208.395 214.805 209.107 214.825 209.849C214.866 210.571 214.906 211.304 214.946 212.046C215.006 212.768 215.076 213.47 215.156 214.152H211.756C211.676 213.591 211.606 212.989 211.546 212.347C211.485 211.705 211.435 211.053 211.395 210.391H210.914C210.633 211.153 210.232 211.855 209.71 212.497C209.188 213.119 208.546 213.621 207.784 214.002C207.042 214.363 206.179 214.544 205.196 214.544ZM206.701 211.745C207.102 211.745 207.503 211.675 207.904 211.534C208.326 211.394 208.737 211.183 209.138 210.902C209.539 210.622 209.911 210.281 210.252 209.879C210.593 209.458 210.884 208.967 211.124 208.405L211.064 205.727L211.786 205.847C211.445 206.128 211.024 206.349 210.522 206.509C210.021 206.67 209.489 206.79 208.928 206.87C208.386 206.95 207.834 207.051 207.273 207.171C206.731 207.271 206.239 207.412 205.798 207.592C205.357 207.753 205.006 207.994 204.745 208.315C204.484 208.616 204.354 209.037 204.354 209.578C204.354 210.261 204.574 210.792 205.016 211.173C205.457 211.554 206.019 211.745 206.701 211.745ZM218.893 214.152V192.757H222.624V204.764C223.306 204.343 223.958 203.881 224.58 203.38C225.202 202.858 225.774 202.316 226.295 201.755C226.817 201.193 227.278 200.631 227.68 200.07C228.081 199.488 228.412 198.936 228.673 198.415H233.036C232.715 199.197 232.294 199.969 231.772 200.732C231.251 201.494 230.639 202.196 229.937 202.838C229.254 203.48 228.482 204.042 227.619 204.523C226.757 204.985 225.834 205.305 224.851 205.486V205.907C226.095 205.727 227.138 205.787 227.981 206.088C228.823 206.389 229.535 206.84 230.117 207.442C230.699 208.044 231.18 208.746 231.561 209.548C231.963 210.331 232.334 211.133 232.675 211.956L233.457 214.152H229.275L228.793 212.708C228.412 211.705 228.011 210.822 227.589 210.06C227.188 209.278 226.677 208.676 226.055 208.254C225.453 207.813 224.671 207.592 223.708 207.592H222.624V214.152H218.893ZM236.231 214.152V206.268V198.415H239.42L239.36 203.831H239.902C240.082 202.547 240.363 201.484 240.744 200.641C241.126 199.779 241.657 199.137 242.339 198.715C243.021 198.274 243.864 198.053 244.867 198.053C245.068 198.053 245.278 198.063 245.499 198.084C245.74 198.104 246 198.154 246.281 198.234L246.131 202.236C245.81 202.116 245.479 202.036 245.138 201.995C244.817 201.935 244.516 201.905 244.235 201.905C243.453 201.905 242.771 202.106 242.189 202.507C241.627 202.908 241.166 203.48 240.805 204.222C240.464 204.944 240.203 205.807 240.022 206.81V214.152H236.231ZM248.926 214.152V206.268V198.415H252.115L252.055 203.831H252.597C252.777 202.547 253.058 201.484 253.439 200.641C253.82 199.779 254.352 199.137 255.034 198.715C255.716 198.274 256.559 198.053 257.562 198.053C257.762 198.053 257.973 198.063 258.194 198.084C258.434 198.104 258.695 198.154 258.976 198.234L258.826 202.236C258.505 202.116 258.174 202.036 257.833 201.995C257.512 201.935 257.211 201.905 256.93 201.905C256.148 201.905 255.465 202.106 254.884 202.507C254.322 202.908 253.861 203.48 253.499 204.222C253.158 204.944 252.898 205.807 252.717 206.81V214.152H248.926Z" fill="#1A1A1A"/>
<rect x="256" y="43" width="40" height="40" rx="20" transform="rotate(30 256 43)" fill="#E6E7EB"/>
<path d="M261.728 79.7452L255.955 76.4119C253.32 74.891 252.68 72.5005 254.201 69.8663L258.367 62.6495C259.888 60.0153 262.279 59.3748 264.913 60.8956L270.686 64.2289C273.321 65.7498 273.961 68.1403 272.44 70.7745L268.274 77.9913C266.753 80.6255 264.362 81.266 261.728 79.7452ZM264.288 61.9781C262.224 60.7865 260.642 61.2104 259.45 63.2745L255.283 70.4913C254.092 72.5554 254.516 74.1377 256.58 75.3293L262.353 78.6627C264.417 79.8543 265.999 79.4304 267.191 77.3663L271.358 70.1495C272.549 68.0854 272.125 66.5031 270.061 65.3115L264.288 61.9781Z" fill="#343F5D"/>
<path d="M269.157 71.0442L267.714 70.2108C266.617 69.5775 266.242 68.1773 266.875 67.0803L267.708 65.637C267.879 65.3411 268.266 65.2374 268.562 65.4082C268.858 65.579 268.962 65.9661 268.791 66.262L267.958 67.7053C267.67 68.2033 267.841 68.8408 268.339 69.1283L269.782 69.9616C270.078 70.1325 270.182 70.5195 270.011 70.8154C269.84 71.1113 269.453 71.215 269.157 71.0442Z" fill="#343F5D"/>
<path d="M262.591 71.5834L259.704 69.9168C259.408 69.7459 259.305 69.3589 259.476 69.063C259.646 68.7671 260.033 68.6634 260.329 68.8342L263.216 70.5009C263.512 70.6717 263.616 71.0588 263.445 71.3547C263.274 71.6506 262.887 71.7543 262.591 71.5834Z" fill="#343F5D"/>
<path d="M263.811 76.1368L258.038 72.8035C257.742 72.6326 257.638 72.2456 257.809 71.9497C257.98 71.6538 258.367 71.5501 258.663 71.7209L264.436 75.0543C264.732 75.2251 264.836 75.6122 264.665 75.908C264.494 76.2039 264.107 76.3076 263.811 76.1368Z" fill="#343F5D"/>
<rect width="40" height="40" rx="20" transform="matrix(-0.866025 0.5 0.5 0.866025 125.641 54)" fill="#E6E7EB"/>
<path d="M119.913 90.7452L125.687 87.4119C128.321 85.891 128.961 83.5005 127.44 80.8663L123.274 73.6495C121.753 71.0153 119.362 70.3748 116.728 71.8956L110.955 75.2289C108.321 76.7498 107.68 79.1403 109.201 81.7745L113.368 88.9913C114.888 91.6255 117.279 92.266 119.913 90.7452ZM117.353 72.9781C119.417 71.7865 121 72.2104 122.191 74.2745L126.358 81.4913C127.55 83.5554 127.126 85.1377 125.062 86.3293L119.288 89.6627C117.224 90.8543 115.642 90.4304 114.45 88.3663L110.283 81.1495C109.092 79.0854 109.516 77.5031 111.58 76.3115L117.353 72.9781Z" fill="#343F5D"/>
<path d="M112.484 82.0442L113.927 81.2108C115.024 80.5775 115.4 79.1773 114.766 78.0803L113.933 76.637C113.762 76.3411 113.375 76.2374 113.079 76.4082C112.783 76.579 112.679 76.9661 112.85 77.262L113.684 78.7053C113.971 79.2033 113.8 79.8408 113.302 80.1283L111.859 80.9616C111.563 81.1325 111.459 81.5195 111.63 81.8154C111.801 82.1113 112.188 82.215 112.484 82.0442Z" fill="#343F5D"/>
<path d="M119.05 82.5832L121.937 80.9165C122.232 80.7457 122.336 80.3586 122.165 80.0628C121.994 79.7669 121.607 79.6632 121.312 79.834L118.425 81.5007C118.129 81.6715 118.025 82.0585 118.196 82.3544C118.367 82.6503 118.754 82.754 119.05 82.5832Z" fill="#343F5D"/>
<path d="M117.83 87.1368L123.603 83.8035C123.899 83.6326 124.003 83.2456 123.832 82.9497C123.661 82.6538 123.274 82.5501 122.978 82.7209L117.205 86.0543C116.909 86.2251 116.805 86.6122 116.976 86.908C117.147 87.2039 117.534 87.3076 117.83 87.1368Z" fill="#343F5D"/>
</svg>
