<svg width="20" height="21" viewBox="0 0 20 21" fill="none" xmlns="http://www.w3.org/2000/svg">
<g clip-path="url(#clip0_614_3688)">
<path d="M13.9774 0.510009C13.9349 0.462509 12.4037 0.528759 11.0712 1.97501C9.73866 3.42001 9.94366 5.07751 9.97366 5.12001C10.0037 5.16251 11.8737 5.22876 13.0674 3.54751C14.2612 1.86626 14.0199 0.558759 13.9774 0.510009ZM18.1199 15.1763C18.0599 15.0563 15.2137 13.6338 15.4787 10.8988C15.7437 8.16251 17.5724 7.41251 17.6012 7.33126C17.6299 7.25001 16.8549 6.34376 16.0337 5.88501C15.4307 5.56157 14.7633 5.37627 14.0799 5.34251C13.9449 5.33876 13.4762 5.22376 12.5124 5.48751C11.8774 5.66126 10.4462 6.22376 10.0524 6.24626C9.65741 6.26876 8.48241 5.59376 7.21866 5.41501C6.40991 5.25876 5.55241 5.57876 4.93866 5.82501C4.32616 6.07001 3.16116 6.76751 2.34616 8.62126C1.53116 10.4738 1.95741 13.4088 2.26241 14.3213C2.56741 15.2325 3.04366 16.7263 3.85366 17.8163C4.57366 19.0463 5.52866 19.9 5.92741 20.19C6.32616 20.48 7.45116 20.6725 8.23116 20.2738C8.85866 19.8888 9.99116 19.6675 10.4387 19.6838C10.8849 19.7 11.7649 19.8763 12.6662 20.3575C13.3799 20.6038 14.0549 20.5013 14.7312 20.2263C15.4074 19.95 16.3862 18.9025 17.5287 16.7788C17.9624 15.7913 18.1599 15.2575 18.1199 15.1763Z" fill="black"/>
<path d="M13.9774 0.510009C13.9349 0.462509 12.4037 0.528759 11.0712 1.97501C9.73866 3.42001 9.94366 5.07751 9.97366 5.12001C10.0037 5.16251 11.8737 5.22876 13.0674 3.54751C14.2612 1.86626 14.0199 0.558759 13.9774 0.510009ZM18.1199 15.1763C18.0599 15.0563 15.2137 13.6338 15.4787 10.8988C15.7437 8.16251 17.5724 7.41251 17.6012 7.33126C17.6299 7.25001 16.8549 6.34376 16.0337 5.88501C15.4307 5.56157 14.7633 5.37627 14.0799 5.34251C13.9449 5.33876 13.4762 5.22376 12.5124 5.48751C11.8774 5.66126 10.4462 6.22376 10.0524 6.24626C9.65741 6.26876 8.48241 5.59376 7.21866 5.41501C6.40991 5.25876 5.55241 5.57876 4.93866 5.82501C4.32616 6.07001 3.16116 6.76751 2.34616 8.62126C1.53116 10.4738 1.95741 13.4088 2.26241 14.3213C2.56741 15.2325 3.04366 16.7263 3.85366 17.8163C4.57366 19.0463 5.52866 19.9 5.92741 20.19C6.32616 20.48 7.45116 20.6725 8.23116 20.2738C8.85866 19.8888 9.99116 19.6675 10.4387 19.6838C10.8849 19.7 11.7649 19.8763 12.6662 20.3575C13.3799 20.6038 14.0549 20.5013 14.7312 20.2263C15.4074 19.95 16.3862 18.9025 17.5287 16.7788C17.9624 15.7913 18.1599 15.2575 18.1199 15.1763Z" fill="black"/>
</g>
<defs>
<clipPath id="clip0_614_3688">
<rect width="20" height="20" fill="white" transform="translate(0 0.5)"/>
</clipPath>
</defs>
</svg>
