<svg width="525" height="81" viewBox="0 0 525 81" fill="none" xmlns="http://www.w3.org/2000/svg">
<rect x="2" y="2.48315" width="76" height="76" rx="38" fill="#FDFDFD"/>
<rect x="2" y="2.48315" width="76" height="76" rx="38" stroke="#F3F3F3" stroke-width="4"/>
<path fill-rule="evenodd" clip-rule="evenodd" d="M25.084 24.7913L39.5919 39.3113C39.8639 39.5913 40 39.9133 40 40.2773C39.9968 40.6505 39.8508 41.0083 39.5919 41.2773L24.442 56.0733C23.6753 56.7079 22.994 56.7079 22.398 56.0733C21.8006 55.4399 21.8006 54.7866 22.398 54.1133L36.558 40.2773L23.05 26.7513C22.5753 26.0659 22.6193 25.4426 23.182 24.8813C23.7446 24.3213 24.3786 24.2913 25.084 24.7913ZM43.084 24.7913L57.5919 39.3113C57.8639 39.5913 58 39.9133 58 40.2773C57.9968 40.6505 57.8508 41.0083 57.5919 41.2773L42.4419 56.0733C41.6753 56.7079 40.994 56.7079 40.398 56.0733C39.7993 55.4399 39.7993 54.7866 40.398 54.1133L54.5579 40.2773L41.0499 26.7513C40.5766 26.0659 40.6206 25.4426 41.1819 24.8813C41.7446 24.3213 42.3786 24.2913 43.084 24.7913Z" fill="#010F34"/>
<rect x="447" y="2.48315" width="76" height="76" rx="38" fill="#FDFDFD"/>
<rect x="447" y="2.48315" width="76" height="76" rx="38" stroke="#F3F3F3" stroke-width="4"/>
<path fill-rule="evenodd" clip-rule="evenodd" d="M470.084 24.7913L484.592 39.3113C484.864 39.5913 485 39.9133 485 40.2773C484.997 40.6505 484.851 41.0083 484.592 41.2773L469.442 56.0733C468.675 56.7079 467.994 56.7079 467.398 56.0733C466.801 55.4399 466.801 54.7866 467.398 54.1133L481.558 40.2773L468.05 26.7513C467.575 26.0659 467.619 25.4426 468.182 24.8813C468.745 24.3213 469.379 24.2913 470.084 24.7913ZM488.084 24.7913L502.592 39.3113C502.864 39.5913 503 39.9133 503 40.2773C502.997 40.6505 502.851 41.0083 502.592 41.2773L487.442 56.0733C486.675 56.7079 485.994 56.7079 485.398 56.0733C484.799 55.4399 484.799 54.7866 485.398 54.1133L499.558 40.2773L486.05 26.7513C485.577 26.0659 485.621 25.4426 486.182 24.8813C486.745 24.3213 487.379 24.2913 488.084 24.7913Z" fill="#010F34"/>
</svg>
