<svg width="20" height="21" viewBox="0 0 20 21" fill="none" xmlns="http://www.w3.org/2000/svg">
<path d="M18.3337 8.20801H1.66699C1.32533 8.20801 1.04199 7.92467 1.04199 7.58301C1.04199 7.24134 1.32533 6.95801 1.66699 6.95801H18.3337C18.6753 6.95801 18.9587 7.24134 18.9587 7.58301C18.9587 7.92467 18.6753 8.20801 18.3337 8.20801Z" fill="#292D32"/>
<path d="M6.66667 14.875H5C4.65833 14.875 4.375 14.5917 4.375 14.25C4.375 13.9083 4.65833 13.625 5 13.625H6.66667C7.00833 13.625 7.29167 13.9083 7.29167 14.25C7.29167 14.5917 7.00833 14.875 6.66667 14.875Z" fill="#292D32"/>
<path d="M12.0833 14.875H8.75C8.40833 14.875 8.125 14.5917 8.125 14.25C8.125 13.9083 8.40833 13.625 8.75 13.625H12.0833C12.425 13.625 12.7083 13.9083 12.7083 14.25C12.7083 14.5917 12.425 14.875 12.0833 14.875Z" fill="#292D32"/>
<path d="M14.6337 18.2087H5.36699C2.05033 18.2087 1.04199 17.2087 1.04199 13.9253V7.07533C1.04199 3.79199 2.05033 2.79199 5.36699 2.79199H14.6253C17.942 2.79199 18.9503 3.79199 18.9503 7.07533V13.917C18.9587 17.2087 17.9503 18.2087 14.6337 18.2087ZM5.36699 4.04199C2.75033 4.04199 2.29199 4.49199 2.29199 7.07533V13.917C2.29199 16.5003 2.75033 16.9503 5.36699 16.9503H14.6253C17.242 16.9503 17.7003 16.5003 17.7003 13.917V7.07533C17.7003 4.49199 17.242 4.04199 14.6253 4.04199H5.36699Z" fill="#292D32"/>
</svg>
