<svg width="24" height="25" viewBox="0 0 24 25" fill="none" xmlns="http://www.w3.org/2000/svg">
<path d="M18.4405 3.55957H5.56055C4.89807 3.56142 4.26326 3.8254 3.79482 4.29384C3.32638 4.76229 3.06239 5.3971 3.06055 6.05957V18.9396C3.06239 19.602 3.32638 20.2369 3.79482 20.7053C4.26326 21.1737 4.89807 21.4377 5.56055 21.4396H18.4405C19.1036 21.4396 19.7395 21.1762 20.2083 20.7073C20.6772 20.2385 20.9405 19.6026 20.9405 18.9396V6.05957C20.9405 5.39653 20.6772 4.76064 20.2083 4.2918C19.7395 3.82296 19.1036 3.55957 18.4405 3.55957ZM19.9405 18.9396C19.9379 19.3366 19.7791 19.7166 19.4983 19.9973C19.2176 20.2781 18.8376 20.437 18.4405 20.4396H5.56055C5.16353 20.437 4.78352 20.2781 4.50278 19.9973C4.22204 19.7166 4.06317 19.3366 4.06055 18.9396V6.05957C4.06317 5.66255 4.22204 5.28254 4.50278 5.00181C4.78352 4.72107 5.16353 4.56219 5.56055 4.55957H18.4405C18.8376 4.56219 19.2176 4.72107 19.4983 5.00181C19.7791 5.28254 19.9379 5.66255 19.9405 6.05957V18.9396Z" fill="black"/>
<path d="M6.37695 11.248C6.37695 10.9828 6.48231 10.7285 6.66985 10.5409C6.85738 10.3534 7.11174 10.248 7.37695 10.248C7.64217 10.248 7.89652 10.3534 8.08406 10.5409C8.2716 10.7285 8.37695 10.9828 8.37695 11.248V17.748C8.37695 18.0133 8.2716 18.2676 8.08406 18.4552C7.89652 18.6427 7.64217 18.748 7.37695 18.748C7.11174 18.748 6.85738 18.6427 6.66985 18.4552C6.48231 18.2676 6.37695 18.0133 6.37695 17.748V11.248Z" fill="black"/>
<path d="M7.37695 8.24414C7.92924 8.24414 8.37695 7.79643 8.37695 7.24414C8.37695 6.69186 7.92924 6.24414 7.37695 6.24414C6.82467 6.24414 6.37695 6.69186 6.37695 7.24414C6.37695 7.79643 6.82467 8.24414 7.37695 8.24414Z" fill="black"/>
<path d="M17.6206 13.8704V17.7504C17.6206 18.0156 17.5153 18.2699 17.3277 18.4575C17.1402 18.645 16.8858 18.7504 16.6206 18.7504C16.3554 18.7504 16.1011 18.645 15.9135 18.4575C15.726 18.2699 15.6206 18.0156 15.6206 17.7504V13.8704C15.6206 13.442 15.4505 13.0312 15.1476 12.7284C14.8447 12.4255 14.4339 12.2554 14.0056 12.2554C13.5773 12.2554 13.1665 12.4255 12.8636 12.7284C12.5608 13.0312 12.3906 13.442 12.3906 13.8704V17.7504C12.3906 18.0156 12.2853 18.2699 12.0977 18.4575C11.9102 18.645 11.6558 18.7504 11.3906 18.7504C11.1254 18.7504 10.8711 18.645 10.6835 18.4575C10.496 18.2699 10.3906 18.0156 10.3906 17.7504V11.2504C10.3947 10.9864 10.5014 10.7345 10.6881 10.5478C10.8747 10.3612 11.1267 10.2545 11.3906 10.2504C11.56 10.2457 11.7275 10.2869 11.8753 10.3697C12.0232 10.4524 12.146 10.5736 12.2306 10.7204C12.7805 10.4087 13.4025 10.2469 14.0346 10.2511C14.6666 10.2553 15.2864 10.4253 15.8321 10.7442C16.3778 11.0631 16.8302 11.5197 17.1441 12.0683C17.4579 12.6169 17.6223 13.2383 17.6206 13.8704Z" fill="black"/>
</svg>
