<svg width="80" height="81" viewBox="0 0 80 81" fill="none" xmlns="http://www.w3.org/2000/svg">
<g opacity="0.8">
<circle cx="40.0001" cy="39.078" r="31.6667" fill="#EAFBF9" stroke="#155C51" stroke-width="3.33333"/>
<path d="M26.6667 5.74463C20.0001 6.35069 6.66675 11.1992 6.66675 25.7446" stroke="black" stroke-width="1.66667" stroke-linecap="round"/>
<path d="M26.6667 72.4111C20.0001 71.8051 6.66675 66.9566 6.66675 52.4111" stroke="black" stroke-width="1.66667" stroke-linecap="round"/>
<path d="M21.4303 21.06L23.7404 21.6024L23.7672 21.5756L23.2248 19.2655L23.7136 18.7767L24.3498 21.5689L27.142 22.2051L26.6532 22.6939L24.3699 22.1783L24.3431 22.2051L24.8587 24.4884L24.3699 24.9772L23.7605 22.1582L20.9415 21.5488L21.4303 21.06ZM24.6691 17.8212L28.0975 21.2496L27.6823 21.6648L24.2539 18.2364L24.6691 17.8212ZM25.9167 16.5736L29.3451 20.002L28.9299 20.4172L25.5015 16.9888L25.9167 16.5736Z" fill="black"/>
<path d="M54.1355 55.3556L55.756 58.8778L55.3542 59.2795L51.832 57.6591L52.2606 57.2305L55.0194 58.5697L55.0462 58.543L53.707 55.7842L54.1355 55.3556ZM54.2686 53.5083L57.697 56.9367L57.2818 57.3519L53.8534 53.9235L54.2686 53.5083Z" fill="black"/>
<path d="M40.0427 19.0771L40.0018 39.0771" stroke="#155C51" stroke-width="6.66667" stroke-linecap="round"/>
<path d="M39.4272 39.0776L29.9992 48.5057" stroke="#155C51" stroke-width="6.66667" stroke-linecap="round"/>
<circle cx="40.0001" cy="39.077" r="3.33333" fill="#EAFBF9"/>
</g>
</svg>
