<svg width="40" height="40" viewBox="0 0 40 40" fill="none" xmlns="http://www.w3.org/2000/svg">
<path d="M26.6667 37.9163H13.3333C7.25 37.9163 3.75 34.4163 3.75 28.333L3.75 11.6663C3.75 5.58301 7.25 2.08301 13.3333 2.08301L26.6667 2.08301C32.75 2.08301 36.25 5.58301 36.25 11.6663V28.333C36.25 34.4163 32.75 37.9163 26.6667 37.9163ZM13.3333 4.58301C8.56667 4.58301 6.25 6.89967 6.25 11.6663L6.25 28.333C6.25 33.0997 8.56667 35.4163 13.3333 35.4163H26.6667C31.4333 35.4163 33.75 33.0997 33.75 28.333V11.6663C33.75 6.89967 31.4333 4.58301 26.6667 4.58301L13.3333 4.58301Z" fill="#31DAC0"/>
<path d="M30.8333 15.4167H27.5C24.9666 15.4167 22.9166 13.3667 22.9166 10.8333V7.5C22.9166 6.81667 23.4833 6.25 24.1666 6.25C24.85 6.25 25.4166 6.81667 25.4166 7.5V10.8333C25.4166 11.9833 26.35 12.9167 27.5 12.9167H30.8333C31.5166 12.9167 32.0833 13.4833 32.0833 14.1667C32.0833 14.85 31.5166 15.4167 30.8333 15.4167Z" fill="#31DAC0"/>
<path d="M20 22.917H13.3334C12.65 22.917 12.0834 22.3503 12.0834 21.667C12.0834 20.9837 12.65 20.417 13.3334 20.417H20C20.6834 20.417 21.25 20.9837 21.25 21.667C21.25 22.3503 20.6834 22.917 20 22.917Z" fill="#31DAC0"/>
<path d="M26.6667 29.583H13.3334C12.65 29.583 12.0834 29.0163 12.0834 28.333C12.0834 27.6497 12.65 27.083 13.3334 27.083H26.6667C27.35 27.083 27.9167 27.6497 27.9167 28.333C27.9167 29.0163 27.35 29.583 26.6667 29.583Z" fill="#31DAC0"/>
</svg>
