<svg width="80" height="81" viewBox="0 0 80 81" fill="none" xmlns="http://www.w3.org/2000/svg">
<rect x="2.82812" y="19.5674" width="53.3333" height="62.133" rx="6.66667" transform="rotate(-15 2.82812 19.5674)" fill="#155C51"/>
<rect x="13.3333" y="10.9834" width="53.3333" height="63.3333" rx="6.66667" fill="#EAFBF9"/>
<path d="M23.333 33.1925C24.9997 31.5258 29.333 29.1925 33.333 33.1925" stroke="#155C51" stroke-width="1.66667" stroke-linecap="round"/>
<path d="M46.6665 33.1925C48.3332 31.5258 52.6665 29.1925 56.6665 33.1925" stroke="#155C51" stroke-width="1.66667" stroke-linecap="round"/>
<path d="M26.6665 50.9834L26.9089 50.1861L25.0542 49.6222L25.9211 51.3561L26.6665 50.9834ZM53.3332 50.9834L54.0785 51.3561L54.8421 49.829L53.1684 50.1665L53.3332 50.9834ZM26.4241 51.7807C31.8942 53.4438 38.6878 53.433 44.0507 53.0269C46.7446 52.8229 49.102 52.517 50.7867 52.262C51.6293 52.1345 52.3045 52.0196 52.7702 51.9363C53.0031 51.8947 53.1836 51.861 53.3067 51.8375C53.3682 51.8258 53.4153 51.8166 53.4474 51.8103C53.4634 51.8071 53.4757 51.8047 53.4842 51.803C53.4884 51.8022 53.4917 51.8015 53.494 51.8011C53.4951 51.8008 53.496 51.8007 53.4967 51.8005C53.497 51.8005 53.4973 51.8004 53.4975 51.8004C53.4977 51.8003 53.4979 51.8003 53.3332 50.9834C53.1684 50.1665 53.1685 50.1665 53.1685 50.1665C53.1684 50.1665 53.1684 50.1665 53.1682 50.1666C53.1679 50.1666 53.1673 50.1667 53.1665 50.1669C53.1649 50.1672 53.1624 50.1677 53.1588 50.1684C53.1518 50.1698 53.1409 50.172 53.1263 50.1749C53.0971 50.1806 53.0529 50.1892 52.9944 50.2003C52.8774 50.2227 52.7031 50.2552 52.4768 50.2957C52.0243 50.3766 51.3638 50.4891 50.5373 50.6141C48.8836 50.8644 46.5684 51.1648 43.9249 51.365C38.6132 51.7672 32.0735 51.7563 26.9089 50.1861L26.4241 51.7807ZM53.3332 50.9834C52.5878 50.6107 52.5879 50.6105 52.588 50.6103C52.588 50.6103 52.5881 50.6102 52.5881 50.6102C52.5881 50.6102 52.588 50.6103 52.5879 50.6106C52.5876 50.6111 52.587 50.6123 52.5861 50.614C52.5844 50.6175 52.5814 50.6234 52.5772 50.6315C52.5689 50.6477 52.5558 50.673 52.538 50.7067C52.5023 50.7743 52.4478 50.8757 52.3748 51.0062C52.2288 51.2672 52.0092 51.6437 51.7195 52.0972C51.1389 53.0059 50.2822 54.2148 49.1772 55.4203C46.9474 57.8528 43.8211 60.1501 39.9998 60.1501V61.8167C44.5119 61.8167 48.0522 59.114 50.4058 56.5465C51.5925 55.252 52.5066 53.9609 53.124 52.9946C53.4332 52.5106 53.6693 52.1059 53.8293 51.82C53.9093 51.677 53.9703 51.5636 54.012 51.4847C54.0328 51.4452 54.0488 51.4143 54.0599 51.3927C54.0655 51.3819 54.0698 51.3734 54.0729 51.3673C54.0744 51.3642 54.0757 51.3617 54.0766 51.3599C54.0771 51.3589 54.0775 51.3581 54.0778 51.3575C54.078 51.3572 54.0781 51.3568 54.0782 51.3567C54.0784 51.3564 54.0785 51.3561 53.3332 50.9834ZM39.9998 60.1501C36.1785 60.1501 33.0522 57.8528 30.8225 55.4203C29.7175 54.2148 28.8607 53.0059 28.2802 52.0972C27.9905 51.6437 27.7709 51.2672 27.6249 51.0062C27.5519 50.8757 27.4973 50.7743 27.4617 50.7067C27.4439 50.673 27.4308 50.6477 27.4224 50.6315C27.4183 50.6234 27.4153 50.6175 27.4135 50.614C27.4127 50.6123 27.4121 50.6111 27.4118 50.6106C27.4117 50.6103 27.4116 50.6102 27.4116 50.6102C27.4116 50.6102 27.4117 50.6103 27.4117 50.6103C27.4118 50.6105 27.4119 50.6107 26.6665 50.9834C25.9211 51.3561 25.9213 51.3564 25.9214 51.3567C25.9215 51.3568 25.9217 51.3572 25.9219 51.3575C25.9222 51.3581 25.9226 51.3589 25.923 51.3599C25.924 51.3617 25.9252 51.3642 25.9268 51.3673C25.9299 51.3734 25.9342 51.3819 25.9398 51.3927C25.9509 51.4143 25.9669 51.4452 25.9877 51.4847C26.0294 51.5636 26.0904 51.677 26.1704 51.82C26.3303 52.1059 26.5665 52.5106 26.8757 52.9946C27.4931 53.9609 28.4072 55.252 29.5939 56.5465C31.9474 59.114 35.4878 61.8167 39.9998 61.8167V60.1501Z" fill="#155C51"/>
<path d="M43.3329 52.6504H36.6663V55.9837H43.3329V52.6504Z" fill="#155C51"/>
<circle cx="29.9998" cy="37.6497" r="3.33333" fill="black"/>
<circle cx="49.9998" cy="37.6497" r="3.33333" fill="black"/>
<circle cx="50.8326" cy="38.4827" r="0.833333" fill="#EAFBF9"/>
<circle cx="30.8331" cy="38.4827" r="0.833333" fill="#EAFBF9"/>
</svg>
