<svg width="21" height="21" viewBox="0 0 21 21" fill="none" xmlns="http://www.w3.org/2000/svg">
<g clip-path="url(#clip0_614_3190)">
<path d="M19.6661 10.8947C19.6661 10.1256 19.6037 9.56442 19.4686 8.98242H10.6865V12.4537H15.8414C15.7375 13.3163 15.1763 14.6154 13.9291 15.4884L13.9116 15.6046L16.6884 17.7557L16.8808 17.7749C18.6476 16.1432 19.6661 13.7424 19.6661 10.8947Z" fill="#4285F4"/>
<path d="M10.6871 20.0409C13.2126 20.0409 15.3327 19.2094 16.8813 17.7752L13.9297 15.4887C13.1398 16.0395 12.0797 16.4241 10.6871 16.4241C8.21356 16.4241 6.11418 14.7924 5.36581 12.5371L5.25611 12.5464L2.36881 14.7809L2.33105 14.8859C3.86921 17.9414 7.0287 20.0409 10.6871 20.0409Z" fill="#34A853"/>
<path d="M5.36547 12.5367C5.16801 11.9547 5.05373 11.331 5.05373 10.6867C5.05373 10.0423 5.16801 9.41874 5.35508 8.83674L5.34985 8.71279L2.42637 6.44238L2.33072 6.48788C1.69677 7.75585 1.33301 9.17972 1.33301 10.6867C1.33301 12.1937 1.69677 13.6175 2.33072 14.8855L5.36547 12.5367Z" fill="#FBBC05"/>
<path d="M10.6871 4.94976C12.4435 4.94976 13.6283 5.70845 14.3038 6.34247L16.9437 3.76498C15.3224 2.25799 13.2126 1.33301 10.6871 1.33301C7.0287 1.33301 3.86921 3.43239 2.33105 6.48792L5.35542 8.83678C6.11418 6.58149 8.21356 4.94976 10.6871 4.94976Z" fill="#EB4335"/>
</g>
<defs>
<clipPath id="clip0_614_3190">
<rect width="20" height="20" fill="white" transform="translate(0.5 0.5)"/>
</clipPath>
</defs>
</svg>
