<svg width="37" height="29" viewBox="0 0 37 29" fill="none" xmlns="http://www.w3.org/2000/svg">
<path d="M36.784 0.987396C35.248 4.82739 34.1387 8.36873 33.456 11.6114C32.8587 14.8541 32.4747 17.8834 32.304 20.6994C32.2187 23.4301 32.176 26.1607 32.176 28.8914H21.04C21.04 24.4541 21.3387 20.5287 21.936 17.1154C22.5333 13.6167 23.3013 10.5447 24.24 7.89939C25.1787 5.25406 26.1173 2.95006 27.056 0.987396H36.784ZM16.56 0.987396C15.024 4.82739 13.9147 8.36873 13.232 11.6114C12.6347 14.8541 12.2507 17.8834 12.08 20.6994C11.9947 23.4301 11.952 26.1607 11.952 28.8914H0.816C0.816 24.4541 1.11467 20.5287 1.712 17.1154C2.30933 13.6167 3.07733 10.5447 4.016 7.89939C4.95467 5.25406 5.936 2.95006 6.96 0.987396H16.56Z" fill="#31DAC0"/>
</svg>
