<svg width="21" height="20" viewBox="0 0 21 20" fill="none" xmlns="http://www.w3.org/2000/svg">
<path fill-rule="evenodd" clip-rule="evenodd" d="M8.63411 13.0142C8.47411 13.0142 8.31411 12.9534 8.19245 12.8309C7.57745 12.2167 7.23828 11.4001 7.23828 10.5317C7.23828 8.73174 8.70161 7.26758 10.4999 7.26758C11.3649 7.26758 12.2049 7.61674 12.8041 8.22591C13.0458 8.47258 13.0433 8.86758 12.7966 9.10924C12.5508 9.35258 12.1558 9.34841 11.9133 9.10341C11.5474 8.73091 11.0324 8.51758 10.4999 8.51758C9.39078 8.51758 8.48828 9.42091 8.48828 10.5317C8.48828 11.0659 8.69745 11.5692 9.07578 11.9476C9.31995 12.1917 9.31995 12.5867 9.07661 12.8309C8.95411 12.9534 8.79411 13.0142 8.63411 13.0142Z" fill="#212121"/>
<path fill-rule="evenodd" clip-rule="evenodd" d="M10.973 13.7426C10.6771 13.7426 10.4138 13.5309 10.3588 13.2293C10.2971 12.8901 10.5221 12.5643 10.8621 12.5026C11.6788 12.3543 12.3255 11.7059 12.4721 10.8884C12.5338 10.5493 12.8588 10.3259 13.198 10.3843C13.538 10.4451 13.7638 10.7701 13.703 11.1101C13.4638 12.4376 12.4121 13.4909 11.0855 13.7326C11.048 13.7393 11.0096 13.7426 10.973 13.7426Z" fill="#212121"/>
<mask id="mask0_614_2465" style="mask-type:luminance" maskUnits="userSpaceOnUse" x="2" y="3" width="14" height="13">
<path fill-rule="evenodd" clip-rule="evenodd" d="M2.16699 3.85449H15.5722V15.6029H2.16699V3.85449Z" fill="white"/>
</mask>
<g mask="url(#mask0_614_2465)">
<path fill-rule="evenodd" clip-rule="evenodd" d="M6.04574 15.6029C5.91074 15.6029 5.77491 15.5588 5.65991 15.4696C4.25074 14.3629 3.05991 12.7404 2.21824 10.7788C2.14991 10.6204 2.14991 10.4421 2.21824 10.2846C3.06908 8.3146 4.26741 6.68376 5.68408 5.5696C8.57241 3.28376 12.4174 3.27626 15.3349 5.58626C15.6057 5.80043 15.6516 6.19376 15.4374 6.4646C15.2224 6.73376 14.8307 6.78126 14.5591 6.56626C12.0874 4.6096 8.90324 4.61626 6.45824 6.55127C5.26158 7.49293 4.23408 8.8646 3.47574 10.5329C4.22658 12.1913 5.24491 13.5546 6.43241 14.4863C6.70408 14.6996 6.75074 15.0929 6.53741 15.3638C6.41408 15.5204 6.23074 15.6029 6.04574 15.6029Z" fill="#212121"/>
</g>
<mask id="mask1_614_2465" style="mask-type:luminance" maskUnits="userSpaceOnUse" x="7" y="7" width="12" height="11">
<path fill-rule="evenodd" clip-rule="evenodd" d="M7.76465 7.28418H18.8334V17.241H7.76465V7.28418Z" fill="white"/>
</mask>
<g mask="url(#mask1_614_2465)">
<path fill-rule="evenodd" clip-rule="evenodd" d="M10.5002 17.241C9.71934 17.241 8.94268 17.1144 8.19268 16.8652C7.86518 16.756 7.68768 16.4019 7.79684 16.0744C7.90601 15.746 8.25851 15.5719 8.58768 15.6785C9.21018 15.886 9.85351 15.991 10.5002 15.991C13.3568 15.991 15.9677 13.956 17.5252 10.5302C17.1452 9.69768 16.7027 8.94352 16.2077 8.28518C16.0002 8.00935 16.0552 7.61685 16.331 7.40935C16.606 7.20185 16.9985 7.25852 17.206 7.53352C17.8093 8.33435 18.3393 9.26018 18.7818 10.2819C18.851 10.4402 18.851 10.6202 18.7818 10.7777C17.0352 14.8252 13.9393 17.241 10.5002 17.241Z" fill="#212121"/>
</g>
<mask id="mask2_614_2465" style="mask-type:luminance" maskUnits="userSpaceOnUse" x="3" y="3" width="15" height="15">
<path fill-rule="evenodd" clip-rule="evenodd" d="M3.30371 3.33398H17.6983V17.7282H3.30371V3.33398Z" fill="white"/>
</mask>
<g mask="url(#mask2_614_2465)">
<path fill-rule="evenodd" clip-rule="evenodd" d="M3.9285 17.7278C3.7685 17.7278 3.6085 17.667 3.48684 17.5445C3.24267 17.3003 3.24267 16.9053 3.48684 16.6611L16.6318 3.51613C16.876 3.27197 17.271 3.27197 17.5152 3.51613C17.7593 3.7603 17.7593 4.15613 17.5152 4.4003L4.37017 17.5445C4.2485 17.667 4.0885 17.7278 3.9285 17.7278Z" fill="#212121"/>
</g>
</svg>
