<svg width="48" height="48" viewBox="0 0 48 48" fill="none" xmlns="http://www.w3.org/2000/svg">
<path d="M35.58 45.4804H12.42C6.94 45.4804 2.5 41.0204 2.5 35.5404V20.7204C2.5 18.0004 4.18 14.5804 6.34 12.9004L17.12 4.50042C20.36 1.98042 25.54 1.86042 28.9 4.22042L41.26 12.8804C43.64 14.5404 45.5 18.1004 45.5 21.0004V35.5604C45.5 41.0204 41.06 45.4804 35.58 45.4804ZM18.96 6.86042L8.18 15.2604C6.76 16.3804 5.5 18.9204 5.5 20.7204V35.5404C5.5 39.3604 8.6 42.4804 12.42 42.4804H35.58C39.4 42.4804 42.5 39.3804 42.5 35.5604V21.0004C42.5 19.0804 41.12 16.4204 39.54 15.3404L27.18 6.68042C24.9 5.08042 21.14 5.16042 18.96 6.86042Z" fill="#010F34"/>
<path d="M33 34.4999C32.62 34.4999 32.24 34.3599 31.94 34.0599L24.84 26.9599L22.66 30.2399C22.42 30.6199 22 30.8599 21.56 30.8999C21.1 30.9399 20.66 30.7799 20.36 30.4599L13.96 24.0599C13.38 23.4799 13.38 22.5199 13.96 21.9399C14.54 21.3599 15.5 21.3599 16.08 21.9399L21.18 27.0399L23.36 23.7599C23.6 23.3799 24.02 23.1399 24.46 23.0999C24.92 23.0599 25.36 23.2199 25.66 23.5399L34.06 31.9399C34.64 32.5199 34.64 33.4799 34.06 34.0599C33.76 34.3599 33.38 34.4999 33 34.4999Z" fill="#010F34"/>
<path d="M33 34.5H29C28.18 34.5 27.5 33.82 27.5 33C27.5 32.18 28.18 31.5 29 31.5H31.5V29C31.5 28.18 32.18 27.5 33 27.5C33.82 27.5 34.5 28.18 34.5 29V33C34.5 33.82 33.82 34.5 33 34.5Z" fill="#010F34"/>
</svg>
