<svg width="22" height="21" viewBox="0 0 22 21" fill="none" xmlns="http://www.w3.org/2000/svg">
<path d="M1.5 10.5C1.5 6.022 1.5 3.782 2.891 2.391C4.282 1 6.521 1 11 1C15.478 1 17.718 1 19.109 2.391C20.5 3.782 20.5 6.021 20.5 10.5C20.5 14.978 20.5 17.218 19.109 18.609C17.718 20 15.479 20 11 20C6.522 20 4.282 20 2.891 18.609C1.5 17.218 1.5 14.979 1.5 10.5Z" stroke="black" stroke-width="1.5" stroke-linecap="round" stroke-linejoin="round"/>
<path d="M16.508 5H16.498M15.5 10.5C15.5 11.6935 15.0259 12.8381 14.182 13.682C13.3381 14.5259 12.1935 15 11 15C9.80653 15 8.66193 14.5259 7.81802 13.682C6.97411 12.8381 6.5 11.6935 6.5 10.5C6.5 9.30653 6.97411 8.16193 7.81802 7.31802C8.66193 6.47411 9.80653 6 11 6C12.1935 6 13.3381 6.47411 14.182 7.31802C15.0259 8.16193 15.5 9.30653 15.5 10.5Z" stroke="black" stroke-width="1.5" stroke-linecap="round" stroke-linejoin="round"/>
</svg>
