<svg width="129" height="65" viewBox="0 0 129 65" fill="none" xmlns="http://www.w3.org/2000/svg">
<mask id="path-1-outside-1_164_6317" maskUnits="userSpaceOnUse" x="49" y="39" width="80" height="22" fill="black">
<rect fill="white" x="49" y="39" width="80" height="22"/>
<path d="M58.4267 50.5547C58.4996 50.8099 58.5361 51.0703 58.5361 51.3359C58.5361 52.6432 58.0777 53.7812 57.1611 54.75C56.2444 55.7135 55.1663 56.1953 53.9267 56.1953C53.0205 56.1953 52.2809 55.9245 51.708 55.3828C51.1402 54.8411 50.8564 54.1432 50.8564 53.2891C50.8564 52.6693 50.971 51.7812 51.2001 50.625L52.5126 44C52.2574 44.0469 52.0335 44.0703 51.8408 44.0703C50.7262 44.0703 50.1689 43.4896 50.1689 42.3281C50.5074 42.651 51.0491 42.8125 51.7939 42.8125C52.4449 42.8125 53.3121 42.6458 54.3955 42.3125L52.5517 51.5625C52.4319 52.1875 52.372 52.7396 52.372 53.2188C52.372 53.8594 52.5413 54.3802 52.8798 54.7812C53.2184 55.1771 53.6585 55.375 54.2001 55.375C55.0179 55.375 55.7106 55.0052 56.2783 54.2656C56.8512 53.5208 57.1376 52.6224 57.1376 51.5703C57.1376 51.0495 57.0517 50.5417 56.8798 50.0469C56.2236 49.8281 55.6845 49.5443 55.2626 49.1953C54.846 48.8464 54.6376 48.5026 54.6376 48.1641C54.6376 47.987 54.7106 47.7552 54.8564 47.4688C56.2626 47.5781 57.333 48.1875 58.0673 49.2969C58.7444 49.6198 59.458 49.7812 60.208 49.7812C60.9736 49.7812 61.7522 49.5495 62.5439 49.0859L62.9423 49.7188C62.0361 50.4062 61.0205 50.75 59.8955 50.75C59.3798 50.75 58.8902 50.6849 58.4267 50.5547ZM66.3935 52.75C66.3935 54.276 67.0394 55.0391 68.331 55.0391C69.4508 55.0391 70.6852 54.5052 72.0341 53.4375C73.3831 52.3698 74.5993 50.9635 75.6826 49.2188L76.3466 49.5859C75.3258 51.4922 73.9977 53.0703 72.3623 54.3203C70.7321 55.5703 69.1852 56.1953 67.7216 56.1953C66.7841 56.1953 66.042 55.8932 65.4951 55.2891C64.9534 54.6849 64.6826 53.8594 64.6826 52.8125C64.6826 51.3021 65.1748 50.0104 66.1591 48.9375C67.1487 47.8646 68.3388 47.3281 69.7295 47.3281C70.4013 47.3281 70.9378 47.4974 71.3388 47.8359C71.7451 48.1745 71.9482 48.6276 71.9482 49.1953C71.9482 50.1276 71.3857 50.9531 70.2607 51.6719C69.1409 52.3906 67.8519 52.75 66.3935 52.75ZM66.456 52C67.5446 51.9427 68.4769 51.6302 69.2529 51.0625C70.0341 50.4948 70.4248 49.8385 70.4248 49.0938C70.4248 48.4271 70.1279 48.0938 69.5341 48.0938C68.8258 48.0938 68.1722 48.474 67.5732 49.2344C66.9743 49.9948 66.6019 50.9167 66.456 52ZM79.376 49.7812H79.2197C78.4437 49.7812 77.7666 49.974 77.1885 50.3594C77.3135 49.6927 77.4958 49.2708 77.7353 49.0938C77.9801 48.9115 78.4906 48.8203 79.2666 48.8203H79.5635L79.8213 47.5312C80.1702 45.7812 80.7275 44.5208 81.4932 43.75C82.4411 42.7917 83.4906 42.3125 84.6416 42.3125C85.0895 42.3125 85.4749 42.4167 85.7978 42.625C86.1208 42.8333 86.2822 43.0859 86.2822 43.3828C86.2822 43.6849 85.9463 44.0312 85.2744 44.4219C85.0869 43.625 84.6598 43.2266 83.9932 43.2266C82.8109 43.2266 81.9645 44.513 81.4541 47.0859L81.1103 48.8203H83.8369C85.0817 48.8203 85.9958 48.7526 86.5791 48.6172C86.3291 49.1693 86.0426 49.5026 85.7197 49.6172C85.402 49.7266 84.5791 49.7812 83.251 49.7812H80.915L79.5869 56.4844C79.4567 57.1302 79.3916 57.6953 79.3916 58.1797C79.3916 58.487 79.4593 58.7656 79.5947 59.0156C79.0739 59.1875 78.6728 59.2734 78.3916 59.2734C77.9593 59.2734 77.7432 59.0312 77.7432 58.5469C77.7432 58.1667 77.8291 57.5417 78.001 56.6719L79.376 49.7812ZM96.4209 50.2422C96.4365 50.3672 96.4443 50.4792 96.4443 50.5781C96.4443 52.0833 95.9339 53.3958 94.9131 54.5156C93.8923 55.6354 92.697 56.1953 91.3272 56.1953C90.2803 56.1953 89.4261 55.862 88.7647 55.1953C88.1084 54.5234 87.7803 53.6536 87.7803 52.5859C87.7803 51.3724 88.2048 50.3203 89.0537 49.4297C89.9079 48.5391 90.9131 48.0938 92.0693 48.0938C92.2464 48.0938 92.4339 48.1172 92.6318 48.1641C92.5016 47.9297 92.4365 47.7318 92.4365 47.5703C92.4365 47.3203 92.5225 47.0807 92.6943 46.8516C93.9652 46.9557 95.0225 47.6068 95.8662 48.8047C96.7308 49.3932 97.6318 49.6875 98.5693 49.6875C99.1787 49.6875 99.8376 49.4818 100.546 49.0703L100.937 49.7344C100.108 50.3125 99.2595 50.6016 98.3897 50.6016C97.8115 50.6016 97.1553 50.4818 96.4209 50.2422ZM94.6475 49.5781C94.2152 49.4479 93.8167 49.2396 93.4522 48.9531C93.1865 48.8958 92.9652 48.8672 92.7881 48.8672C91.9027 48.8672 91.1162 49.2656 90.4287 50.0625C89.7464 50.8594 89.4053 51.7682 89.4053 52.7891C89.4053 53.5286 89.611 54.138 90.0225 54.6172C90.4391 55.0911 90.973 55.3281 91.624 55.3281C92.5042 55.3281 93.2621 54.8854 93.8975 54C94.5329 53.1094 94.8506 52.0495 94.8506 50.8203C94.8506 50.3932 94.7829 49.9792 94.6475 49.5781ZM104.724 55.9453C104.37 56.112 104.086 56.1953 103.872 56.1953C103.341 56.1953 103.075 55.9609 103.075 55.4922C103.075 55.2526 103.169 54.6562 103.356 53.7031L103.747 51.7578C103.987 50.6016 104.106 49.7448 104.106 49.1875C104.106 48.8854 104.021 48.6328 103.849 48.4297C104.396 48.2422 104.841 48.1484 105.185 48.1484C105.549 48.1484 105.731 48.3802 105.731 48.8438C105.731 49.1302 105.601 49.8828 105.341 51.1016L104.896 53.375C105.88 51.4635 106.87 49.9792 107.864 48.9219C108.864 47.8594 109.771 47.3281 110.583 47.3281C110.87 47.3281 111.117 47.4115 111.325 47.5781C111.534 47.7396 111.638 47.9375 111.638 48.1719C111.638 48.5365 111.242 49.0208 110.45 49.625C110.252 49.2135 109.971 49.0078 109.606 49.0078C108.945 49.0078 108.101 49.7109 107.075 51.1172C106.44 51.9922 105.888 52.8958 105.419 53.8281C104.95 54.7552 104.716 55.4167 104.716 55.8125L104.724 55.9453ZM117.105 52.75C117.105 54.276 117.75 55.0391 119.042 55.0391C120.162 55.0391 121.396 54.5052 122.745 53.4375C124.094 52.3698 125.31 50.9635 126.394 49.2188L127.058 49.5859C126.037 51.4922 124.709 53.0703 123.073 54.3203C121.443 55.5703 119.896 56.1953 118.433 56.1953C117.495 56.1953 116.753 55.8932 116.206 55.2891C115.664 54.6849 115.394 53.8594 115.394 52.8125C115.394 51.3021 115.886 50.0104 116.87 48.9375C117.86 47.8646 119.05 47.3281 120.44 47.3281C121.112 47.3281 121.649 47.4974 122.05 47.8359C122.456 48.1745 122.659 48.6276 122.659 49.1953C122.659 50.1276 122.097 50.9531 120.972 51.6719C119.852 52.3906 118.563 52.75 117.105 52.75ZM117.167 52C118.256 51.9427 119.188 51.6302 119.964 51.0625C120.745 50.4948 121.136 49.8385 121.136 49.0938C121.136 48.4271 120.839 48.0938 120.245 48.0938C119.537 48.0938 118.883 48.474 118.284 49.2344C117.685 49.9948 117.313 50.9167 117.167 52Z"/>
</mask>
<path d="M58.4267 50.5547C58.4996 50.8099 58.5361 51.0703 58.5361 51.3359C58.5361 52.6432 58.0777 53.7812 57.1611 54.75C56.2444 55.7135 55.1663 56.1953 53.9267 56.1953C53.0205 56.1953 52.2809 55.9245 51.708 55.3828C51.1402 54.8411 50.8564 54.1432 50.8564 53.2891C50.8564 52.6693 50.971 51.7812 51.2001 50.625L52.5126 44C52.2574 44.0469 52.0335 44.0703 51.8408 44.0703C50.7262 44.0703 50.1689 43.4896 50.1689 42.3281C50.5074 42.651 51.0491 42.8125 51.7939 42.8125C52.4449 42.8125 53.3121 42.6458 54.3955 42.3125L52.5517 51.5625C52.4319 52.1875 52.372 52.7396 52.372 53.2188C52.372 53.8594 52.5413 54.3802 52.8798 54.7812C53.2184 55.1771 53.6585 55.375 54.2001 55.375C55.0179 55.375 55.7106 55.0052 56.2783 54.2656C56.8512 53.5208 57.1376 52.6224 57.1376 51.5703C57.1376 51.0495 57.0517 50.5417 56.8798 50.0469C56.2236 49.8281 55.6845 49.5443 55.2626 49.1953C54.846 48.8464 54.6376 48.5026 54.6376 48.1641C54.6376 47.987 54.7106 47.7552 54.8564 47.4688C56.2626 47.5781 57.333 48.1875 58.0673 49.2969C58.7444 49.6198 59.458 49.7812 60.208 49.7812C60.9736 49.7812 61.7522 49.5495 62.5439 49.0859L62.9423 49.7188C62.0361 50.4062 61.0205 50.75 59.8955 50.75C59.3798 50.75 58.8902 50.6849 58.4267 50.5547ZM66.3935 52.75C66.3935 54.276 67.0394 55.0391 68.331 55.0391C69.4508 55.0391 70.6852 54.5052 72.0341 53.4375C73.3831 52.3698 74.5993 50.9635 75.6826 49.2188L76.3466 49.5859C75.3258 51.4922 73.9977 53.0703 72.3623 54.3203C70.7321 55.5703 69.1852 56.1953 67.7216 56.1953C66.7841 56.1953 66.042 55.8932 65.4951 55.2891C64.9534 54.6849 64.6826 53.8594 64.6826 52.8125C64.6826 51.3021 65.1748 50.0104 66.1591 48.9375C67.1487 47.8646 68.3388 47.3281 69.7295 47.3281C70.4013 47.3281 70.9378 47.4974 71.3388 47.8359C71.7451 48.1745 71.9482 48.6276 71.9482 49.1953C71.9482 50.1276 71.3857 50.9531 70.2607 51.6719C69.1409 52.3906 67.8519 52.75 66.3935 52.75ZM66.456 52C67.5446 51.9427 68.4769 51.6302 69.2529 51.0625C70.0341 50.4948 70.4248 49.8385 70.4248 49.0938C70.4248 48.4271 70.1279 48.0938 69.5341 48.0938C68.8258 48.0938 68.1722 48.474 67.5732 49.2344C66.9743 49.9948 66.6019 50.9167 66.456 52ZM79.376 49.7812H79.2197C78.4437 49.7812 77.7666 49.974 77.1885 50.3594C77.3135 49.6927 77.4958 49.2708 77.7353 49.0938C77.9801 48.9115 78.4906 48.8203 79.2666 48.8203H79.5635L79.8213 47.5312C80.1702 45.7812 80.7275 44.5208 81.4932 43.75C82.4411 42.7917 83.4906 42.3125 84.6416 42.3125C85.0895 42.3125 85.4749 42.4167 85.7978 42.625C86.1208 42.8333 86.2822 43.0859 86.2822 43.3828C86.2822 43.6849 85.9463 44.0312 85.2744 44.4219C85.0869 43.625 84.6598 43.2266 83.9932 43.2266C82.8109 43.2266 81.9645 44.513 81.4541 47.0859L81.1103 48.8203H83.8369C85.0817 48.8203 85.9958 48.7526 86.5791 48.6172C86.3291 49.1693 86.0426 49.5026 85.7197 49.6172C85.402 49.7266 84.5791 49.7812 83.251 49.7812H80.915L79.5869 56.4844C79.4567 57.1302 79.3916 57.6953 79.3916 58.1797C79.3916 58.487 79.4593 58.7656 79.5947 59.0156C79.0739 59.1875 78.6728 59.2734 78.3916 59.2734C77.9593 59.2734 77.7432 59.0312 77.7432 58.5469C77.7432 58.1667 77.8291 57.5417 78.001 56.6719L79.376 49.7812ZM96.4209 50.2422C96.4365 50.3672 96.4443 50.4792 96.4443 50.5781C96.4443 52.0833 95.9339 53.3958 94.9131 54.5156C93.8923 55.6354 92.697 56.1953 91.3272 56.1953C90.2803 56.1953 89.4261 55.862 88.7647 55.1953C88.1084 54.5234 87.7803 53.6536 87.7803 52.5859C87.7803 51.3724 88.2048 50.3203 89.0537 49.4297C89.9079 48.5391 90.9131 48.0938 92.0693 48.0938C92.2464 48.0938 92.4339 48.1172 92.6318 48.1641C92.5016 47.9297 92.4365 47.7318 92.4365 47.5703C92.4365 47.3203 92.5225 47.0807 92.6943 46.8516C93.9652 46.9557 95.0225 47.6068 95.8662 48.8047C96.7308 49.3932 97.6318 49.6875 98.5693 49.6875C99.1787 49.6875 99.8376 49.4818 100.546 49.0703L100.937 49.7344C100.108 50.3125 99.2595 50.6016 98.3897 50.6016C97.8115 50.6016 97.1553 50.4818 96.4209 50.2422ZM94.6475 49.5781C94.2152 49.4479 93.8167 49.2396 93.4522 48.9531C93.1865 48.8958 92.9652 48.8672 92.7881 48.8672C91.9027 48.8672 91.1162 49.2656 90.4287 50.0625C89.7464 50.8594 89.4053 51.7682 89.4053 52.7891C89.4053 53.5286 89.611 54.138 90.0225 54.6172C90.4391 55.0911 90.973 55.3281 91.624 55.3281C92.5042 55.3281 93.2621 54.8854 93.8975 54C94.5329 53.1094 94.8506 52.0495 94.8506 50.8203C94.8506 50.3932 94.7829 49.9792 94.6475 49.5781ZM104.724 55.9453C104.37 56.112 104.086 56.1953 103.872 56.1953C103.341 56.1953 103.075 55.9609 103.075 55.4922C103.075 55.2526 103.169 54.6562 103.356 53.7031L103.747 51.7578C103.987 50.6016 104.106 49.7448 104.106 49.1875C104.106 48.8854 104.021 48.6328 103.849 48.4297C104.396 48.2422 104.841 48.1484 105.185 48.1484C105.549 48.1484 105.731 48.3802 105.731 48.8438C105.731 49.1302 105.601 49.8828 105.341 51.1016L104.896 53.375C105.88 51.4635 106.87 49.9792 107.864 48.9219C108.864 47.8594 109.771 47.3281 110.583 47.3281C110.87 47.3281 111.117 47.4115 111.325 47.5781C111.534 47.7396 111.638 47.9375 111.638 48.1719C111.638 48.5365 111.242 49.0208 110.45 49.625C110.252 49.2135 109.971 49.0078 109.606 49.0078C108.945 49.0078 108.101 49.7109 107.075 51.1172C106.44 51.9922 105.888 52.8958 105.419 53.8281C104.95 54.7552 104.716 55.4167 104.716 55.8125L104.724 55.9453ZM117.105 52.75C117.105 54.276 117.75 55.0391 119.042 55.0391C120.162 55.0391 121.396 54.5052 122.745 53.4375C124.094 52.3698 125.31 50.9635 126.394 49.2188L127.058 49.5859C126.037 51.4922 124.709 53.0703 123.073 54.3203C121.443 55.5703 119.896 56.1953 118.433 56.1953C117.495 56.1953 116.753 55.8932 116.206 55.2891C115.664 54.6849 115.394 53.8594 115.394 52.8125C115.394 51.3021 115.886 50.0104 116.87 48.9375C117.86 47.8646 119.05 47.3281 120.44 47.3281C121.112 47.3281 121.649 47.4974 122.05 47.8359C122.456 48.1745 122.659 48.6276 122.659 49.1953C122.659 50.1276 122.097 50.9531 120.972 51.6719C119.852 52.3906 118.563 52.75 117.105 52.75ZM117.167 52C118.256 51.9427 119.188 51.6302 119.964 51.0625C120.745 50.4948 121.136 49.8385 121.136 49.0938C121.136 48.4271 120.839 48.0938 120.245 48.0938C119.537 48.0938 118.883 48.474 118.284 49.2344C117.685 49.9948 117.313 50.9167 117.167 52Z" fill="white"/>
<path d="M58.4267 50.5547L58.6971 49.5919L56.9733 49.1077L57.4652 50.8294L58.4267 50.5547ZM57.1611 54.75L57.8856 55.4393L57.8874 55.4373L57.1611 54.75ZM51.708 55.3828L51.0176 56.1063L51.0209 56.1095L51.708 55.3828ZM51.2001 50.625L52.1811 50.8194L52.1811 50.8193L51.2001 50.625ZM52.5126 44L53.4936 44.1943L53.7796 42.7506L52.332 43.0165L52.5126 44ZM50.1689 42.3281L50.8591 41.6045L49.1689 39.9923V42.3281H50.1689ZM54.3955 42.3125L55.3762 42.508L55.7039 40.8636L54.1014 41.3567L54.3955 42.3125ZM52.5517 51.5625L51.571 51.367L51.5696 51.3743L52.5517 51.5625ZM52.8798 54.7812L52.1157 55.4263L52.1199 55.4312L52.8798 54.7812ZM56.2783 54.2656L55.4856 53.6559L55.485 53.6567L56.2783 54.2656ZM56.8798 50.0469L57.8245 49.7187L57.663 49.2538L57.1961 49.0982L56.8798 50.0469ZM55.2626 49.1953L54.6206 49.962L54.6253 49.9659L55.2626 49.1953ZM54.8564 47.4688L54.9339 46.4718L54.2682 46.42L53.9652 47.0151L54.8564 47.4688ZM58.0673 49.2969L57.2335 49.8489L57.3866 50.0801L57.6369 50.1995L58.0673 49.2969ZM62.5439 49.0859L63.3901 48.5531L62.8742 47.7337L62.0386 48.223L62.5439 49.0859ZM62.9423 49.7188L63.5467 50.5154L64.2769 49.9615L63.7886 49.1859L62.9423 49.7188ZM57.4652 50.8294C57.5126 50.9952 57.5361 51.1632 57.5361 51.3359H59.5361C59.5361 50.9775 59.4867 50.6246 59.3882 50.28L57.4652 50.8294ZM57.5361 51.3359C57.5361 52.3819 57.1796 53.2755 56.4347 54.0627L57.8874 55.4373C58.9759 54.287 59.5361 52.9046 59.5361 51.3359H57.5361ZM56.4366 54.0607C55.6933 54.842 54.8709 55.1953 53.9267 55.1953V57.1953C55.4616 57.1953 56.7955 56.5851 57.8856 55.4393L56.4366 54.0607ZM53.9267 55.1953C53.2349 55.1953 52.7544 54.996 52.395 54.6562L51.0209 56.1095C51.8074 56.853 52.806 57.1953 53.9267 57.1953V55.1953ZM52.3983 54.6593C52.047 54.3241 51.8564 53.8968 51.8564 53.2891H49.8564C49.8564 54.3897 50.2335 55.3582 51.0176 56.1063L52.3983 54.6593ZM51.8564 53.2891C51.8564 52.769 51.9554 51.9579 52.1811 50.8194L50.2192 50.4306C49.9865 51.6046 49.8564 52.5695 49.8564 53.2891H51.8564ZM52.1811 50.8193L53.4936 44.1943L51.5317 43.8057L50.2192 50.4307L52.1811 50.8193ZM52.332 43.0165C52.1174 43.0559 51.9562 43.0703 51.8408 43.0703V45.0703C52.1107 45.0703 52.3975 45.0379 52.6933 44.9835L52.332 43.0165ZM51.8408 43.0703C51.4483 43.0703 51.3351 42.9702 51.3084 42.9424C51.2743 42.9068 51.1689 42.7648 51.1689 42.3281H49.1689C49.1689 43.0529 49.3422 43.782 49.8653 44.3272C50.3959 44.88 51.1186 45.0703 51.8408 45.0703V43.0703ZM49.4787 43.0517C50.0871 43.6321 50.9378 43.8125 51.7939 43.8125V41.8125C51.1604 41.8125 50.9278 41.67 50.8591 41.6045L49.4787 43.0517ZM51.7939 43.8125C52.592 43.8125 53.5703 43.6126 54.6895 43.2683L54.1014 41.3567C53.0539 41.679 52.2979 41.8125 51.7939 41.8125V43.8125ZM53.4147 42.117L51.571 51.367L53.5324 51.758L55.3762 42.508L53.4147 42.117ZM51.5696 51.3743C51.4415 52.0425 51.372 52.6598 51.372 53.2188H53.372C53.372 52.8194 53.4223 52.3325 53.5338 51.7507L51.5696 51.3743ZM51.372 53.2188C51.372 54.0414 51.5932 54.8074 52.1157 55.4263L53.644 54.1362C53.4893 53.953 53.372 53.6774 53.372 53.2188H51.372ZM52.1199 55.4312C52.6569 56.0592 53.3795 56.375 54.2001 56.375V54.375C53.9374 54.375 53.7798 54.295 53.6398 54.1313L52.1199 55.4312ZM54.2001 56.375C55.3751 56.375 56.3447 55.8214 57.0715 54.8745L55.485 53.6567C55.0764 54.1891 54.6606 54.375 54.2001 54.375V56.375ZM57.0709 54.8753C57.7943 53.9349 58.1376 52.8151 58.1376 51.5703H56.1376C56.1376 52.4296 55.9081 53.1068 55.4856 53.6559L57.0709 54.8753ZM58.1376 51.5703C58.1376 50.9371 58.0328 50.3184 57.8245 49.7187L55.9352 50.375C56.0706 50.7649 56.1376 51.1618 56.1376 51.5703H58.1376ZM57.1961 49.0982C56.6273 48.9086 56.2054 48.6773 55.9 48.4248L54.6253 49.9659C55.1637 50.4112 55.8198 50.7476 56.5636 50.9956L57.1961 49.0982ZM55.9047 48.4287C55.7529 48.3015 55.6802 48.2089 55.6491 48.1575C55.6217 48.1124 55.6376 48.1189 55.6376 48.1641H53.6376C53.6376 48.9388 54.1128 49.5367 54.6206 49.962L55.9047 48.4287ZM55.6376 48.1641C55.6376 48.2073 55.6298 48.2097 55.6462 48.1575C55.6617 48.1082 55.6923 48.0311 55.7476 47.9224L53.9652 47.0151C53.7972 47.3451 53.6376 47.748 53.6376 48.1641H55.6376ZM54.7788 48.4657C55.8993 48.5529 56.6807 49.0138 57.2335 49.8489L58.9012 48.7449C57.9852 47.3612 56.626 46.6034 54.9339 46.4718L54.7788 48.4657ZM57.6369 50.1995C58.4484 50.5865 59.309 50.7812 60.208 50.7812V48.7812C59.6069 48.7812 59.0405 48.6531 58.4978 48.3943L57.6369 50.1995ZM60.208 50.7812C61.1834 50.7812 62.1347 50.4843 63.0492 49.9489L62.0386 48.223C61.3697 48.6146 60.7637 48.7812 60.208 48.7812V50.7812ZM61.6977 49.6188L62.0961 50.2516L63.7886 49.1859L63.3901 48.5531L61.6977 49.6188ZM62.3379 48.9221C61.6035 49.4792 60.7996 49.75 59.8955 49.75V51.75C61.2413 51.75 62.4687 51.3333 63.5467 50.5154L62.3379 48.9221ZM59.8955 49.75C59.4648 49.75 59.0667 49.6957 58.6971 49.5919L58.1563 51.5174C58.7138 51.674 59.2949 51.75 59.8955 51.75V49.75ZM66.3935 52.75V51.75H65.3935V52.75H66.3935ZM75.6826 49.2188L76.1665 48.3436L75.3345 47.8836L74.833 48.6913L75.6826 49.2188ZM76.3466 49.5859L77.2282 50.058L77.694 49.1882L76.8305 48.7108L76.3466 49.5859ZM72.3623 54.3203L71.755 53.5258L71.7538 53.5267L72.3623 54.3203ZM65.4951 55.2891L64.7505 55.9566L64.7537 55.9601L65.4951 55.2891ZM66.1591 48.9375L65.4241 48.2595L65.4223 48.2615L66.1591 48.9375ZM71.3388 47.8359L70.6938 48.6001L70.6987 48.6042L71.3388 47.8359ZM70.2607 51.6719L69.7223 50.8292L69.7205 50.8303L70.2607 51.6719ZM66.456 52L65.465 51.8666L65.304 53.062L66.5086 52.9986L66.456 52ZM69.2529 51.0625L68.665 50.2535L68.6625 50.2554L69.2529 51.0625ZM65.3935 52.75C65.3935 53.6302 65.5763 54.4768 66.1146 55.1129C66.68 55.7808 67.4833 56.0391 68.331 56.0391V54.0391C67.8871 54.0391 67.7216 53.9158 67.6412 53.8207C67.5337 53.6937 67.3935 53.3958 67.3935 52.75H65.3935ZM68.331 56.0391C69.7687 56.0391 71.2189 55.3581 72.6548 54.2216L71.4135 52.6534C70.1514 53.6523 69.1329 54.0391 68.331 54.0391V56.0391ZM72.6548 54.2216C74.1099 53.0698 75.3994 51.5706 76.5321 49.7462L74.833 48.6913C73.7991 50.3564 72.6563 51.6697 71.4135 52.6534L72.6548 54.2216ZM75.1987 50.0939L75.8628 50.4611L76.8305 48.7108L76.1665 48.3436L75.1987 50.0939ZM75.4651 49.1138C74.5082 50.9008 73.2713 52.3668 71.755 53.5258L72.9695 55.1148C74.7241 53.7738 76.1435 52.0836 77.2282 50.058L75.4651 49.1138ZM71.7538 53.5267C70.2293 54.6957 68.8918 55.1953 67.7216 55.1953V57.1953C69.4786 57.1953 71.2348 56.4449 72.9708 55.1139L71.7538 53.5267ZM67.7216 55.1953C67.0198 55.1953 66.5645 54.9803 66.2365 54.618L64.7537 55.9601C65.5195 56.8061 66.5485 57.1953 67.7216 57.1953V55.1953ZM66.2397 54.6215C65.9057 54.249 65.6826 53.6865 65.6826 52.8125H63.6826C63.6826 54.0323 64.0012 55.1208 64.7505 55.9566L66.2397 54.6215ZM65.6826 52.8125C65.6826 51.5421 66.0877 50.4945 66.896 49.6135L65.4223 48.2615C64.2618 49.5263 63.6826 51.062 63.6826 52.8125H65.6826ZM66.8942 49.6155C67.7051 48.7363 68.6333 48.3281 69.7295 48.3281V46.3281C68.0444 46.3281 66.5924 46.9928 65.4241 48.2595L66.8942 49.6155ZM69.7295 48.3281C70.2328 48.3281 70.5189 48.4524 70.6938 48.6001L71.9839 47.0718C71.3567 46.5424 70.5698 46.3281 69.7295 46.3281V48.3281ZM70.6987 48.6042C70.8585 48.7373 70.9482 48.8995 70.9482 49.1953H72.9482C72.9482 48.3557 72.6317 47.6116 71.979 47.0677L70.6987 48.6042ZM70.9482 49.1953C70.9482 49.6522 70.6948 50.2079 69.7223 50.8292L70.7991 52.5146C72.0766 51.6984 72.9482 50.603 72.9482 49.1953H70.9482ZM69.7205 50.8303C68.7773 51.4358 67.6794 51.75 66.3935 51.75V53.75C68.0243 53.75 69.5046 53.3455 70.8009 52.5134L69.7205 50.8303ZM66.5086 52.9986C67.7645 52.9325 68.8901 52.5669 69.8433 51.8696L68.6625 50.2554C68.0636 50.6935 67.3246 50.9529 66.4035 51.0014L66.5086 52.9986ZM69.8407 51.8715C70.7963 51.1771 71.4248 50.2505 71.4248 49.0938H69.4248C69.4248 49.4265 69.272 49.8125 68.665 50.2535L69.8407 51.8715ZM71.4248 49.0938C71.4248 48.633 71.3247 48.1006 70.9489 47.6787C70.5534 47.2346 70.0171 47.0938 69.5341 47.0938V49.0938C69.5915 49.0938 69.598 49.1021 69.5733 49.0928C69.5602 49.0879 69.5407 49.0789 69.5182 49.0637C69.4954 49.0484 69.4739 49.0297 69.4554 49.0088C69.4167 48.9655 69.4082 48.9331 69.4105 48.9408C69.4138 48.952 69.4248 48.9981 69.4248 49.0938H71.4248ZM69.5341 47.0938C68.4169 47.0938 67.5022 47.7085 66.7876 48.6156L68.3588 49.8531C68.8422 49.2394 69.2347 49.0938 69.5341 49.0938V47.0938ZM66.7876 48.6156C66.0643 49.534 65.6315 50.6294 65.465 51.8666L67.4471 52.1334C67.5722 51.2039 67.8842 50.4556 68.3588 49.8531L66.7876 48.6156ZM79.376 49.7812L80.3566 49.9769L80.5952 48.7812H79.376V49.7812ZM77.1885 50.3594L76.2056 50.1751L75.7682 52.5081L77.7432 51.1914L77.1885 50.3594ZM77.7353 49.0938L78.3297 49.8979L78.3326 49.8958L77.7353 49.0938ZM79.5635 48.8203V49.8203H80.3833L80.544 49.0164L79.5635 48.8203ZM79.8213 47.5312L80.8019 47.7274L80.802 47.7268L79.8213 47.5312ZM81.4932 43.75L82.2027 44.4547L82.2041 44.4532L81.4932 43.75ZM85.2744 44.4219L84.301 44.6509L84.6101 45.9648L85.777 45.2864L85.2744 44.4219ZM81.4541 47.0859L80.4732 46.8913L80.4732 46.8915L81.4541 47.0859ZM81.1103 48.8203L80.1294 48.6259L79.8927 49.8203H81.1103V48.8203ZM86.5791 48.6172L87.49 49.0297L88.3253 47.1852L86.353 47.6431L86.5791 48.6172ZM85.7197 49.6172L86.0452 50.5628L86.0541 50.5596L85.7197 49.6172ZM80.915 49.7812V48.7812H80.0937L79.9341 49.5869L80.915 49.7812ZM79.5869 56.4844L80.5672 56.682L80.5678 56.6787L79.5869 56.4844ZM79.5947 59.0156L79.9081 59.9653L81.0434 59.5906L80.474 58.5393L79.5947 59.0156ZM78.001 56.6719L77.0203 56.4762L77.0199 56.478L78.001 56.6719ZM79.376 48.7812H79.2197V50.7812H79.376V48.7812ZM79.2197 48.7812C78.2702 48.7812 77.395 49.0198 76.6338 49.5273L77.7432 51.1914C78.1382 50.9281 78.6172 50.7812 79.2197 50.7812V48.7812ZM78.1713 50.5437C78.226 50.2523 78.2855 50.0585 78.3369 49.9396C78.3928 49.8102 78.4088 49.8395 78.3297 49.8979L77.141 48.2896C76.8223 48.5251 76.6273 48.8539 76.501 49.1463C76.37 49.4493 76.276 49.7998 76.2056 50.1751L78.1713 50.5437ZM78.3326 49.8958C78.2722 49.9408 78.2822 49.908 78.4775 49.8731C78.6538 49.8416 78.9116 49.8203 79.2666 49.8203V47.8203C78.8456 47.8203 78.4601 47.8446 78.126 47.9042C77.8109 47.9605 77.4432 48.0645 77.1381 48.2917L78.3326 49.8958ZM79.2666 49.8203H79.5635V47.8203H79.2666V49.8203ZM80.544 49.0164L80.8019 47.7274L78.8407 47.3351L78.5829 48.6242L80.544 49.0164ZM80.802 47.7268C81.1348 46.0576 81.6385 45.0227 82.2027 44.4547L80.7837 43.0453C79.8166 44.0189 79.2057 45.5049 78.8406 47.3357L80.802 47.7268ZM82.2041 44.4532C82.9989 43.6497 83.8033 43.3125 84.6416 43.3125V41.3125C83.1778 41.3125 81.8832 41.9336 80.7822 43.0468L82.2041 44.4532ZM84.6416 43.3125C84.9297 43.3125 85.1197 43.3775 85.2557 43.4653L86.34 41.7847C85.8302 41.4558 85.2493 41.3125 84.6416 41.3125V43.3125ZM85.2557 43.4653C85.3293 43.5128 85.3337 43.533 85.3185 43.5093C85.3104 43.4966 85.3002 43.4765 85.2925 43.4504C85.2848 43.4242 85.2822 43.4005 85.2822 43.3828H87.2822C87.2822 42.6471 86.8536 42.1161 86.34 41.7847L85.2557 43.4653ZM85.2822 43.3828C85.2822 43.1557 85.4031 43.0795 85.3124 43.1729C85.2349 43.2529 85.0705 43.3837 84.7718 43.5574L85.777 45.2864C86.1502 45.0694 86.4897 44.8317 86.7481 44.5654C86.9934 44.3124 87.2822 43.912 87.2822 43.3828H85.2822ZM86.2478 44.1928C86.1263 43.6763 85.9011 43.1724 85.4956 42.7942C85.0706 42.3976 84.5412 42.2266 83.9932 42.2266V44.2266C84.0598 44.2266 84.0936 44.2364 84.1059 44.2409C84.1161 44.2446 84.1223 44.2482 84.1313 44.2566C84.153 44.2768 84.235 44.3705 84.301 44.6509L86.2478 44.1928ZM83.9932 42.2266C82.9655 42.2266 82.1817 42.8127 81.6363 43.6418C81.1091 44.443 80.7384 45.5548 80.4732 46.8913L82.435 47.2805C82.6802 46.0442 82.9879 45.2263 83.3071 44.741C83.608 44.2837 83.8385 44.2266 83.9932 44.2266V42.2266ZM80.4732 46.8915L80.1294 48.6259L82.0913 49.0147L82.435 47.2804L80.4732 46.8915ZM81.1103 49.8203H83.8369V47.8203H81.1103V49.8203ZM83.8369 49.8203C85.0946 49.8203 86.1045 49.754 86.8052 49.5913L86.353 47.6431C85.887 47.7513 85.0688 47.8203 83.8369 47.8203V49.8203ZM85.6681 48.2047C85.5687 48.4244 85.4812 48.5564 85.4183 48.6295C85.3573 48.7006 85.3424 48.69 85.3853 48.6748L86.0541 50.5596C86.7713 50.3051 87.2077 49.6532 87.49 49.0297L85.6681 48.2047ZM85.3942 48.6716C85.4017 48.6691 85.362 48.6822 85.2443 48.6992C85.1352 48.7149 84.9881 48.7298 84.7979 48.7424C84.4177 48.7677 83.9045 48.7812 83.251 48.7812V50.7812C83.9256 50.7812 84.4879 50.7675 84.9306 50.738C85.3393 50.7109 85.7464 50.6656 86.0452 50.5627L85.3942 48.6716ZM83.251 48.7812H80.915V50.7812H83.251V48.7812ZM79.9341 49.5869L78.606 56.29L80.5678 56.6787L81.896 49.9756L79.9341 49.5869ZM78.6066 56.2867C78.4676 56.9761 78.3916 57.6101 78.3916 58.1797H80.3916C80.3916 57.7805 80.4457 57.2843 80.5672 56.682L78.6066 56.2867ZM78.3916 58.1797C78.3916 58.6395 78.4945 59.084 78.7154 59.4919L80.474 58.5393C80.4241 58.4473 80.3916 58.3344 80.3916 58.1797H78.3916ZM79.2813 58.066C78.7847 58.2299 78.5078 58.2734 78.3916 58.2734V60.2734C78.8379 60.2734 79.3631 60.1451 79.9081 59.9653L79.2813 58.066ZM78.3916 58.2734C78.3744 58.2734 78.4029 58.2708 78.4578 58.2912C78.5185 58.3139 78.5901 58.3574 78.6513 58.4259C78.7711 58.5602 78.7432 58.6612 78.7432 58.5469H76.7432C76.7432 58.9169 76.8233 59.3813 77.1592 59.7577C77.5144 60.1557 77.99 60.2734 78.3916 60.2734V58.2734ZM78.7432 58.5469C78.7432 58.2737 78.8106 57.7333 78.982 56.8657L77.0199 56.478C76.8476 57.35 76.7432 58.0597 76.7432 58.5469H78.7432ZM78.9816 56.8676L80.3566 49.9769L78.3953 49.5856L77.0203 56.4762L78.9816 56.8676ZM96.4209 50.2422L96.7311 49.2915L95.2332 48.8028L95.4286 50.3662L96.4209 50.2422ZM94.9131 54.5156L94.1741 53.8419L94.9131 54.5156ZM88.7647 55.1953L88.0493 55.8941L88.0548 55.8996L88.7647 55.1953ZM89.0537 49.4297L88.332 48.7375L88.3299 48.7397L89.0537 49.4297ZM92.6318 48.1641L92.4014 49.1371L94.6066 49.6594L93.506 47.6784L92.6318 48.1641ZM92.6943 46.8516L92.776 45.8549L92.2257 45.8098L91.8943 46.2516L92.6943 46.8516ZM95.8662 48.8047L95.0487 49.3805L95.1533 49.5291L95.3035 49.6313L95.8662 48.8047ZM100.546 49.0703L101.408 48.5633L100.904 47.7061L100.044 48.2056L100.546 49.0703ZM100.937 49.7344L101.509 50.5543L102.268 50.0248L101.798 49.2274L100.937 49.7344ZM94.6475 49.5781L95.5949 49.2582L95.4299 48.7694L94.9359 48.6206L94.6475 49.5781ZM93.4522 48.9531L94.07 48.1668L93.8885 48.0243L93.663 47.9756L93.4522 48.9531ZM90.4287 50.0625L89.6716 49.4093L89.6691 49.4121L90.4287 50.0625ZM90.0225 54.6172L89.2637 55.2687L89.2714 55.2774L90.0225 54.6172ZM93.8975 54L94.7099 54.583L94.7115 54.5808L93.8975 54ZM95.4286 50.3662C95.4404 50.4606 95.4443 50.53 95.4443 50.5781H97.4443C97.4443 50.4283 97.4326 50.2738 97.4132 50.1182L95.4286 50.3662ZM95.4443 50.5781C95.4443 51.8322 95.0283 52.905 94.1741 53.8419L95.6521 55.1893C96.8396 53.8867 97.4443 52.3344 97.4443 50.5781H95.4443ZM94.1741 53.8419C93.3203 54.7784 92.3841 55.1953 91.3272 55.1953V57.1953C93.0098 57.1953 94.4642 56.4924 95.6521 55.1893L94.1741 53.8419ZM91.3272 55.1953C90.5133 55.1953 89.9259 54.9459 89.4745 54.491L88.0548 55.8996C88.9264 56.7781 90.0472 57.1953 91.3272 57.1953V55.1953ZM89.48 54.4966C89.0317 54.0375 88.7803 53.4312 88.7803 52.5859H86.7803C86.7803 53.876 87.1852 55.0094 88.0493 55.8941L89.48 54.4966ZM88.7803 52.5859C88.7803 51.6333 89.1031 50.8272 89.7776 50.1197L88.3299 48.7397C87.3064 49.8134 86.7803 51.1115 86.7803 52.5859H88.7803ZM89.7754 50.1219C90.4552 49.4131 91.2053 49.0938 92.0693 49.0938V47.0938C90.6208 47.0938 89.3606 47.665 88.332 48.7375L89.7754 50.1219ZM92.0693 49.0938C92.1584 49.0938 92.2681 49.1056 92.4014 49.1371L92.8623 47.191C92.5998 47.1288 92.3345 47.0938 92.0693 47.0938V49.0938ZM93.506 47.6784C93.4633 47.6016 93.4434 47.5521 93.4353 47.5274C93.4268 47.5015 93.4365 47.5192 93.4365 47.5703H91.4365C91.4365 47.9792 91.5932 48.3537 91.7577 48.6497L93.506 47.6784ZM93.4365 47.5703C93.4365 47.5674 93.4325 47.534 93.4943 47.4516L91.8943 46.2516C91.6124 46.6275 91.4365 47.0732 91.4365 47.5703H93.4365ZM92.6127 47.8482C93.542 47.9244 94.3472 48.3846 95.0487 49.3805L96.6838 48.2288C95.6977 46.8289 94.3884 45.9871 92.776 45.8549L92.6127 47.8482ZM95.3035 49.6313C96.3141 50.3193 97.4083 50.6875 98.5693 50.6875V48.6875C97.8554 48.6875 97.1475 48.4672 96.4289 47.978L95.3035 49.6313ZM98.5693 50.6875C99.4057 50.6875 100.238 50.4057 101.048 49.935L100.044 48.2056C99.4372 48.5579 98.9517 48.6875 98.5693 48.6875V50.6875ZM99.684 49.5773L100.075 50.2414L101.798 49.2274L101.408 48.5633L99.684 49.5773ZM100.364 48.9144C99.676 49.3948 99.0232 49.6016 98.3897 49.6016V51.6016C99.4957 51.6016 100.541 51.2302 101.509 50.5543L100.364 48.9144ZM98.3897 49.6016C97.9455 49.6016 97.3968 49.5087 96.7311 49.2915L96.1108 51.1929C96.9138 51.4549 97.6775 51.6016 98.3897 51.6016V49.6016ZM94.9359 48.6206C94.6264 48.5274 94.3391 48.3783 94.07 48.1668L92.8343 49.7394C93.2944 50.1009 93.804 50.3684 94.3591 50.5356L94.9359 48.6206ZM93.663 47.9756C93.3607 47.9104 93.063 47.8672 92.7881 47.8672V49.8672C92.8673 49.8672 93.0124 49.8813 93.2413 49.9306L93.663 47.9756ZM92.7881 47.8672C91.5565 47.8672 90.5096 48.4379 89.6716 49.4093L91.1859 50.7157C91.7228 50.0934 92.2488 49.8672 92.7881 49.8672V47.8672ZM89.6691 49.4121C88.8364 50.3847 88.4053 51.5226 88.4053 52.7891H90.4053C90.4053 52.0139 90.6565 51.3341 91.1883 50.7129L89.6691 49.4121ZM88.4053 52.7891C88.4053 53.7246 88.6707 54.5779 89.2638 55.2687L90.7811 53.9657C90.5514 53.6981 90.4053 53.3327 90.4053 52.7891H88.4053ZM89.2714 55.2774C89.8847 55.975 90.6958 56.3281 91.624 56.3281V54.3281C91.2501 54.3281 90.9936 54.2072 90.7735 53.9569L89.2714 55.2774ZM91.624 56.3281C92.9038 56.3281 93.9368 55.6603 94.7099 54.583L93.085 53.417C92.5873 54.1105 92.1047 54.3281 91.624 54.3281V56.3281ZM94.7115 54.5808C95.4826 53.5 95.8506 52.2309 95.8506 50.8203H93.8506C93.8506 51.8681 93.5832 52.7187 93.0834 53.4192L94.7115 54.5808ZM95.8506 50.8203C95.8506 50.2854 95.7655 49.7633 95.5949 49.2582L93.7 49.898C93.8003 50.1951 93.8506 50.501 93.8506 50.8203H95.8506ZM104.724 55.9453L105.149 56.8501L105.762 56.562L105.722 55.8866L104.724 55.9453ZM103.356 53.7031L102.376 53.5063L102.375 53.5101L103.356 53.7031ZM103.747 51.7578L102.768 51.5549L102.767 51.5609L103.747 51.7578ZM103.849 48.4297L103.524 47.4837L102.14 47.9584L103.085 49.0756L103.849 48.4297ZM105.341 51.1016L104.363 50.8926L104.361 50.901L104.36 50.9093L105.341 51.1016ZM104.896 53.375L103.914 53.1828L105.785 53.8328L104.896 53.375ZM107.864 48.9219L107.136 48.2365L107.136 48.2366L107.864 48.9219ZM111.325 47.5781L110.701 48.359L110.707 48.3638L110.713 48.3685L111.325 47.5781ZM110.45 49.625L109.549 50.0585L110.081 51.1646L111.057 50.42L110.45 49.625ZM107.075 51.1172L106.267 50.5278L106.266 50.5296L107.075 51.1172ZM105.419 53.8281L106.311 54.2793L106.312 54.2773L105.419 53.8281ZM104.716 55.8125H103.716V55.8419L103.718 55.8712L104.716 55.8125ZM104.298 55.0405C104.153 55.1085 104.043 55.1499 103.963 55.1733C103.881 55.1976 103.855 55.1953 103.872 55.1953V57.1953C104.309 57.1953 104.755 57.0357 105.149 56.8501L104.298 55.0405ZM103.872 55.1953C103.732 55.1953 103.814 55.1617 103.936 55.2697C103.999 55.3255 104.04 55.3914 104.061 55.4464C104.079 55.4955 104.075 55.5174 104.075 55.4922H102.075C102.075 55.9154 102.201 56.4059 102.613 56.7694C103.001 57.1117 103.481 57.1953 103.872 57.1953V55.1953ZM104.075 55.4922C104.075 55.4929 104.075 55.4822 104.077 55.4567C104.079 55.4322 104.082 55.3993 104.087 55.3571C104.096 55.272 104.111 55.1607 104.133 55.0205C104.177 54.7402 104.245 54.3667 104.338 53.8961L102.375 53.5101C102.195 54.4262 102.075 55.1328 102.075 55.4922H104.075ZM104.337 53.9L104.728 51.9547L102.767 51.5609L102.376 53.5063L104.337 53.9ZM104.726 51.9607C104.968 50.7946 105.106 49.8534 105.106 49.1875H103.106C103.106 49.6362 103.005 50.4085 102.768 51.5549L104.726 51.9607ZM105.106 49.1875C105.106 48.6829 104.957 48.1918 104.612 47.7837L103.085 49.0756C103.09 49.0814 103.093 49.0854 103.095 49.0936C103.099 49.1034 103.106 49.1317 103.106 49.1875H105.106ZM104.173 49.3756C104.676 49.203 105.001 49.1484 105.185 49.1484V47.1484C104.681 47.1484 104.115 47.2814 103.524 47.4837L104.173 49.3756ZM105.185 49.1484C105.171 49.1484 105.113 49.1464 105.034 49.1126C104.948 49.0763 104.868 49.0161 104.809 48.9405C104.702 48.8044 104.731 48.7159 104.731 48.8438H106.731C106.731 48.5081 106.67 48.0719 106.381 47.7041C106.056 47.2905 105.594 47.1484 105.185 47.1484V49.1484ZM104.731 48.8438C104.731 48.8431 104.731 48.8469 104.731 48.8558C104.731 48.8645 104.73 48.8766 104.729 48.8925C104.726 48.9247 104.722 48.9673 104.715 49.0217C104.701 49.1309 104.679 49.2735 104.648 49.4526C104.587 49.8106 104.492 50.2891 104.363 50.8926L106.319 51.3105C106.45 50.6952 106.551 50.1881 106.619 49.7935C106.683 49.424 106.731 49.0845 106.731 48.8438H104.731ZM104.36 50.9093L103.914 53.1828L105.877 53.5672L106.322 51.2938L104.36 50.9093ZM105.785 53.8328C106.745 51.9685 107.684 50.5723 108.593 49.6071L107.136 48.2366C106.055 49.386 105.015 50.9586 104.007 52.9172L105.785 53.8328ZM108.592 49.6072C109.542 48.5981 110.198 48.3281 110.583 48.3281V46.3281C109.343 46.3281 108.186 47.1206 107.136 48.2365L108.592 49.6072ZM110.583 48.3281C110.66 48.3281 110.683 48.345 110.701 48.359L111.95 46.7973C111.551 46.4779 111.079 46.3281 110.583 46.3281V48.3281ZM110.713 48.3685C110.724 48.3772 110.7 48.3614 110.675 48.3134C110.648 48.2618 110.638 48.2089 110.638 48.1719H112.638C112.638 47.5869 112.356 47.1117 111.938 46.7877L110.713 48.3685ZM110.638 48.1719C110.638 48.0085 110.713 47.9961 110.567 48.1758C110.438 48.3329 110.209 48.551 109.844 48.83L111.057 50.42C111.483 50.0949 111.848 49.7687 112.115 49.4414C112.364 49.1367 112.638 48.6999 112.638 48.1719H110.638ZM111.351 49.1915C111.203 48.882 110.989 48.5804 110.681 48.355C110.361 48.1208 109.991 48.0078 109.606 48.0078V50.0078C109.602 50.0078 109.585 50.007 109.561 49.9992C109.536 49.9912 109.515 49.9797 109.5 49.9692C109.474 49.9495 109.5 49.9565 109.549 50.0585L111.351 49.1915ZM109.606 48.0078C108.931 48.0078 108.329 48.3569 107.837 48.7669C107.327 49.1923 106.804 49.7921 106.267 50.5278L107.883 51.7066C108.372 51.036 108.784 50.5811 109.118 50.3034C109.47 50.0102 109.621 50.0078 109.606 50.0078V48.0078ZM106.266 50.5296C105.6 51.4468 105.019 52.3966 104.526 53.3789L106.312 54.2773C106.756 53.3951 107.28 52.5376 107.884 51.7048L106.266 50.5296ZM104.527 53.3769C104.281 53.8622 104.085 54.3006 103.949 54.6855C103.819 55.054 103.716 55.4451 103.716 55.8125H105.716C105.716 55.7841 105.73 55.6465 105.834 55.3535C105.932 55.077 106.088 54.7211 106.311 54.2793L104.527 53.3769ZM103.718 55.8712L103.725 56.004L105.722 55.8866L105.714 55.7538L103.718 55.8712ZM117.105 52.75V51.75H116.105V52.75H117.105ZM126.394 49.2188L126.878 48.3436L126.046 47.8836L125.544 48.6913L126.394 49.2188ZM127.058 49.5859L127.939 50.058L128.405 49.1882L127.542 48.7108L127.058 49.5859ZM123.073 54.3203L122.466 53.5258L122.465 53.5267L123.073 54.3203ZM116.206 55.2891L115.462 55.9566L115.465 55.9601L116.206 55.2891ZM116.87 48.9375L116.135 48.2595L116.133 48.2615L116.87 48.9375ZM122.05 47.8359L121.405 48.6001L121.41 48.6042L122.05 47.8359ZM120.972 51.6719L120.433 50.8292L120.432 50.8303L120.972 51.6719ZM117.167 52L116.176 51.8666L116.015 53.062L117.22 52.9986L117.167 52ZM119.964 51.0625L119.376 50.2535L119.373 50.2554L119.964 51.0625ZM116.105 52.75C116.105 53.6302 116.287 54.4768 116.826 55.1129C117.391 55.7808 118.194 56.0391 119.042 56.0391V54.0391C118.598 54.0391 118.433 53.9158 118.352 53.8207C118.245 53.6937 118.105 53.3958 118.105 52.75H116.105ZM119.042 56.0391C120.48 56.0391 121.93 55.3581 123.366 54.2216L122.125 52.6534C120.862 53.6523 119.844 54.0391 119.042 54.0391V56.0391ZM123.366 54.2216C124.821 53.0698 126.11 51.5706 127.243 49.7462L125.544 48.6913C124.51 50.3564 123.367 51.6697 122.125 52.6534L123.366 54.2216ZM125.91 50.0939L126.574 50.4611L127.542 48.7108L126.878 48.3436L125.91 50.0939ZM126.176 49.1138C125.219 50.9008 123.982 52.3668 122.466 53.5258L123.681 55.1148C125.435 53.7738 126.854 52.0836 127.939 50.058L126.176 49.1138ZM122.465 53.5267C120.94 54.6957 119.603 55.1953 118.433 55.1953V57.1953C120.19 57.1953 121.946 56.4449 123.682 55.1139L122.465 53.5267ZM118.433 55.1953C117.731 55.1953 117.275 54.9803 116.947 54.618L115.465 55.9601C116.23 56.8061 117.26 57.1953 118.433 57.1953V55.1953ZM116.951 54.6215C116.617 54.249 116.394 53.6865 116.394 52.8125H114.394C114.394 54.0323 114.712 55.1208 115.462 55.9566L116.951 54.6215ZM116.394 52.8125C116.394 51.5421 116.799 50.4945 117.607 49.6135L116.133 48.2615C114.973 49.5263 114.394 51.062 114.394 52.8125H116.394ZM117.605 49.6155C118.416 48.7363 119.344 48.3281 120.44 48.3281V46.3281C118.755 46.3281 117.303 46.9928 116.135 48.2595L117.605 49.6155ZM120.44 48.3281C120.944 48.3281 121.23 48.4524 121.405 48.6001L122.695 47.0718C122.068 46.5424 121.281 46.3281 120.44 46.3281V48.3281ZM121.41 48.6042C121.569 48.7373 121.659 48.8995 121.659 49.1953H123.659C123.659 48.3557 123.343 47.6116 122.69 47.0677L121.41 48.6042ZM121.659 49.1953C121.659 49.6522 121.406 50.2079 120.433 50.8292L121.51 52.5146C122.788 51.6984 123.659 50.603 123.659 49.1953H121.659ZM120.432 50.8303C119.488 51.4358 118.39 51.75 117.105 51.75V53.75C118.735 53.75 120.216 53.3455 121.512 52.5134L120.432 50.8303ZM117.22 52.9986C118.476 52.9325 119.601 52.5669 120.554 51.8696L119.373 50.2554C118.775 50.6935 118.036 50.9529 117.114 51.0014L117.22 52.9986ZM120.552 51.8715C121.507 51.1771 122.136 50.2505 122.136 49.0938H120.136C120.136 49.4265 119.983 49.8125 119.376 50.2535L120.552 51.8715ZM122.136 49.0938C122.136 48.633 122.036 48.1006 121.66 47.6787C121.264 47.2346 120.728 47.0938 120.245 47.0938V49.0938C120.303 49.0938 120.309 49.1021 120.284 49.0928C120.271 49.0879 120.252 49.0789 120.229 49.0637C120.206 49.0484 120.185 49.0297 120.166 49.0088C120.128 48.9655 120.119 48.9331 120.121 48.9408C120.125 48.952 120.136 48.9981 120.136 49.0938H122.136ZM120.245 47.0938C119.128 47.0938 118.213 47.7085 117.499 48.6156L119.07 49.8531C119.553 49.2394 119.946 49.0938 120.245 49.0938V47.0938ZM117.499 48.6156C116.775 49.534 116.343 50.6294 116.176 51.8666L118.158 52.1334C118.283 51.2039 118.595 50.4556 119.07 49.8531L117.499 48.6156Z" fill="white" mask="url(#path-1-outside-1_164_6317)"/>
<path d="M64.9793 26.6645C65.5314 26.6782 65.9901 26.2418 66.0039 25.6897L66.228 16.6925C66.2418 16.1404 65.8054 15.6817 65.2533 15.6679C64.7011 15.6541 64.2424 16.0906 64.2287 16.6427L64.0294 24.6402L56.0319 24.4409C55.4798 24.4272 55.021 24.8636 55.0073 25.4157C54.9935 25.9678 55.4299 26.4266 55.982 26.4403L64.9793 26.6645ZM4.65755 42.9382C8.62594 33.6955 16.3813 21.888 26.691 16.2442C31.8146 13.4394 37.5504 12.1648 43.7945 13.4524C50.0527 14.7429 56.9312 18.6301 64.2797 26.3541L65.7287 24.9755C58.1888 17.0503 50.9668 12.8893 44.1985 11.4936C37.4161 10.095 31.1993 11.4962 25.7306 14.4899C14.8554 20.4433 6.86629 32.7245 2.81978 42.1491L4.65755 42.9382Z" fill="url(#paint0_linear_164_6317)"/>
<defs>
<linearGradient id="paint0_linear_164_6317" x1="20.2936" y1="19.307" x2="44.7105" y2="44.9717" gradientUnits="userSpaceOnUse">
<stop stop-color="#ACBBFF"/>
<stop offset="1" stop-color="#00CBFF"/>
</linearGradient>
</defs>
</svg>
