<svg width="20" height="21" viewBox="0 0 20 21" fill="none" xmlns="http://www.w3.org/2000/svg">
<path d="M5.94161 17.792H4.3166C3.88327 17.792 3.48327 17.6087 3.19994 17.2753C2.92494 16.9503 2.79995 16.517 2.87495 16.1003L4.86661 4.15867C5.11661 2.642 6.41662 1.54199 7.94995 1.54199H11.6666C14.3083 1.54199 16.4583 3.69199 16.4583 6.33366C16.4583 6.50866 16.4499 6.67531 16.4249 6.84198C16.3166 8.14198 15.7416 9.38366 14.8 10.317C13.75 11.3753 12.3333 11.967 10.8249 11.967H8.2166C8.1166 11.967 8.02493 12.042 8.00826 12.1503L7.37495 16.5503C7.29161 17.1087 6.89994 17.567 6.37494 17.7253C6.20827 17.7837 6.04995 17.792 5.94161 17.792ZM7.94995 2.79199C7.02495 2.79199 6.24995 3.45033 6.09995 4.35866L4.10827 16.3003C4.0916 16.3837 4.13327 16.442 4.15827 16.467C4.18327 16.492 4.23327 16.542 4.3166 16.542H5.94161C6.08328 16.5003 6.13328 16.4337 6.14995 16.3587L6.78329 11.967C6.88329 11.2503 7.50827 10.717 8.22494 10.717H10.8333C12.0083 10.717 13.0999 10.2587 13.9249 9.43366C14.6583 8.70866 15.1 7.75033 15.1916 6.72533C15.2083 6.58366 15.2166 6.467 15.2166 6.342C15.2166 4.392 13.625 2.80033 11.675 2.80033H7.94995V2.79199Z" fill="black"/>
<path d="M9.29199 19.4579H6.85033C6.417 19.4579 6.00866 19.2662 5.72533 18.9245C5.44199 18.5829 5.33366 18.1412 5.417 17.7079L5.63367 16.6162L6.00866 16.5162C6.07532 16.4995 6.13367 16.4329 6.15033 16.3495L6.78368 11.9579C6.88368 11.2412 7.50866 10.7079 8.22533 10.7079H10.8337C12.0087 10.7079 13.1003 10.2495 13.9253 9.42453C14.6587 8.69953 15.1003 7.7412 15.192 6.7162L15.2753 5.74121L16.1253 6.22453C17.367 6.93287 18.1337 8.24954 18.1337 9.6662C18.1337 10.9412 17.6337 12.1412 16.7337 13.0579C15.817 13.9662 14.617 14.4579 13.342 14.4579H11.5503C11.442 14.4579 11.3587 14.5329 11.342 14.6329L10.742 18.2329C10.617 18.9412 10.0087 19.4579 9.29199 19.4579ZM6.72534 17.5579L6.642 17.9579C6.62533 18.0412 6.667 18.1079 6.692 18.1329C6.717 18.1662 6.767 18.2079 6.85033 18.2079H9.29199C9.40032 18.2079 9.48366 18.1329 9.50032 18.0329L10.1003 14.4329C10.217 13.7245 10.8253 13.2079 11.542 13.2079H13.3337C14.2753 13.2079 15.167 12.8412 15.842 12.1745C16.5087 11.5079 16.8753 10.6079 16.8753 9.6662C16.8753 9.0162 16.642 8.39953 16.2253 7.9162C15.967 8.8162 15.4753 9.64954 14.8003 10.3162C13.7503 11.3745 12.3337 11.9662 10.8253 11.9662H8.21698C8.11698 11.9662 8.02532 12.0412 8.00865 12.1495L7.37533 16.5495C7.317 16.9662 7.07534 17.3329 6.72534 17.5579Z" fill="black"/>
</svg>
