<svg width="80" height="81" viewBox="0 0 80 81" fill="none" xmlns="http://www.w3.org/2000/svg">
<rect x="13.3335" y="7.65039" width="53.3333" height="60" rx="6.66667" fill="#EAFBF9"/>
<path d="M73.4662 56.2617L56.7995 72.9284" stroke="#155C51" stroke-width="6.66667" stroke-linecap="round"/>
<path d="M56.2266 72.355L51.5125 67.6409" stroke="#155C51" stroke-width="6.66667" stroke-linecap="round"/>
<path d="M45.1974 61.2061L49.1952 49.5313H52.9099L56.9076 61.2061H54.1481L51.194 51.5478H50.9287L47.9569 61.2061H45.1974ZM47.4439 58.9065V57.1729H55.0325V58.9065H47.4439ZM59.9241 59.1364V51.8309H61.9761V59.1364H59.9241ZM57.3061 56.4477V54.5019H64.594V56.4477H57.3061Z" fill="black"/>
<path d="M20 14.3169H60" stroke="#155C51" stroke-width="3.33333" stroke-linecap="round"/>
<path d="M20.0006 20.9829H60.0006" stroke="#155C51" stroke-width="3.33333" stroke-linecap="round"/>
<path d="M20.0006 27.6499H60.0006" stroke="#155C51" stroke-width="3.33333" stroke-linecap="round"/>
<path d="M20.0006 34.3164H60.0006" stroke="#155C51" stroke-width="3.33333" stroke-linecap="round"/>
<path d="M20.0006 40.9834H60.0006" stroke="#155C51" stroke-width="3.33333" stroke-linecap="round"/>
</svg>
