<svg width="100" height="65" viewBox="0 0 100 65" fill="none" xmlns="http://www.w3.org/2000/svg">
<mask id="path-1-outside-1_164_6318" maskUnits="userSpaceOnUse" x="0.994629" y="41.0001" width="63" height="20" fill="black">
<rect fill="white" x="0.994629" y="41.0001" width="63" height="20"/>
<path d="M8.92037 51.2267C8.2537 52.6069 7.43078 53.7814 6.45162 54.7501C5.47766 55.7137 4.6287 56.1954 3.90474 56.1954C3.35266 56.1954 2.90995 55.9506 2.57662 55.4611C2.24849 54.9663 2.08443 54.31 2.08443 53.4923C2.08443 51.8621 2.57662 50.4272 3.56099 49.1876C4.55057 47.948 5.6938 47.3282 6.99068 47.3282C7.77714 47.3282 8.6287 47.573 9.54537 48.0626C9.68078 47.5782 10.2329 47.3361 11.2016 47.3361C11.2641 47.3361 11.3657 47.3387 11.5063 47.3439C11.2094 47.797 10.9829 48.4168 10.8266 49.2032L10.6938 49.8673C10.5428 50.6069 10.4672 51.4715 10.4672 52.4611C10.4672 53.6017 10.7329 54.172 11.2641 54.172C11.8266 54.172 12.5948 53.7032 13.5688 52.7657C14.548 51.823 15.5089 50.6251 16.4516 49.172L17.061 49.5939C16.0974 51.3126 14.9959 52.7475 13.7563 53.8986C12.5167 55.0444 11.4516 55.6173 10.561 55.6173C9.43599 55.6173 8.87349 54.6798 8.87349 52.8048C8.87349 52.4142 8.88912 51.8881 8.92037 51.2267ZM9.28755 49.3595C8.1938 48.646 7.28495 48.2892 6.56099 48.2892C5.77453 48.2892 5.09485 48.7684 4.52193 49.7267C3.94901 50.6798 3.66255 51.8126 3.66255 53.1251C3.66255 54.1772 4.0063 54.7032 4.6938 54.7032C5.4386 54.7032 6.86307 53.0678 8.96724 49.797C8.99328 49.7553 9.10005 49.6095 9.28755 49.3595ZM20.0981 49.7814H19.9419C19.1658 49.7814 18.4887 49.9741 17.9106 50.3595C18.0356 49.6928 18.2179 49.271 18.4575 49.0939C18.7023 48.9116 19.2127 48.8204 19.9887 48.8204H20.2856L20.5434 47.5314C20.8924 45.7814 21.4497 44.521 22.2153 43.7501C23.1632 42.7918 24.2127 42.3126 25.3637 42.3126C25.8117 42.3126 26.1971 42.4168 26.52 42.6251C26.8429 42.8335 27.0044 43.0861 27.0044 43.3829C27.0044 43.685 26.6684 44.0314 25.9966 44.422C25.8091 43.6251 25.382 43.2267 24.7153 43.2267C23.533 43.2267 22.6867 44.5131 22.1762 47.0861L21.8325 48.8204H24.5591C25.8039 48.8204 26.7179 48.7527 27.3012 48.6173C27.0512 49.1694 26.7648 49.5027 26.4419 49.6173C26.1242 49.7267 25.3012 49.7814 23.9731 49.7814H21.6372L20.3091 56.4845C20.1789 57.1303 20.1137 57.6954 20.1137 58.1798C20.1137 58.4871 20.1815 58.7657 20.3169 59.0157C19.796 59.1876 19.395 59.2736 19.1137 59.2736C18.6815 59.2736 18.4653 59.0314 18.4653 58.547C18.4653 58.1668 18.5512 57.5418 18.7231 56.672L20.0981 49.7814ZM34.6899 52.9064C34.8306 53.1616 34.9009 53.3855 34.9009 53.5782C34.9009 54.0887 34.4686 54.6538 33.604 55.2736C32.7446 55.8881 31.9608 56.1954 31.2524 56.1954C30.6274 56.1954 30.117 55.9168 29.7212 55.3595C29.3306 54.8022 29.1353 54.0835 29.1353 53.2032C29.1353 52.2241 29.3931 50.8309 29.9087 49.0236L30.2681 47.7111H28.9478C28.3957 47.7111 27.9556 47.7892 27.6274 47.9454C27.9295 47.3934 28.1795 47.047 28.3774 46.9064C28.5754 46.7657 28.9113 46.6954 29.3853 46.6954H30.5649L30.7212 46.1564C30.9608 45.3543 31.2472 44.8048 31.5806 44.5079C31.9139 44.2059 32.4139 44.0548 33.0806 44.0548C33.1587 44.0548 33.2837 44.06 33.4556 44.0704C33.0493 44.5913 32.6274 45.4663 32.1899 46.6954H36.3149C37.0389 46.6954 37.591 46.6017 37.9712 46.4142C37.841 46.9506 37.6665 47.3022 37.4478 47.4689C37.2342 47.6303 36.8332 47.7111 36.2446 47.7111H31.854C31.8019 47.8829 31.7629 48.0105 31.7368 48.0939C31.1066 50.2397 30.7915 51.8595 30.7915 52.9532C30.7915 54.1616 31.2264 54.7657 32.0962 54.7657C32.5441 54.7657 33.0311 54.5756 33.5571 54.1954C34.0884 53.8152 34.466 53.3855 34.6899 52.9064ZM41.4224 52.7501C41.4224 54.2762 42.0682 55.0392 43.3599 55.0392C44.4797 55.0392 45.7141 54.5053 47.063 53.4376C48.412 52.3699 49.6281 50.9637 50.7114 49.2189L51.3755 49.5861C50.3547 51.4923 49.0266 53.0704 47.3911 54.3204C45.7609 55.5704 44.2141 56.1954 42.7505 56.1954C41.813 56.1954 41.0708 55.8934 40.5239 55.2892C39.9823 54.685 39.7114 53.8595 39.7114 52.8126C39.7114 51.3022 40.2036 50.0105 41.188 48.9376C42.1776 47.8647 43.3677 47.3282 44.7583 47.3282C45.4302 47.3282 45.9667 47.4975 46.3677 47.8361C46.7739 48.1746 46.9771 48.6277 46.9771 49.1954C46.9771 50.1277 46.4146 50.9532 45.2896 51.672C44.1698 52.3907 42.8807 52.7501 41.4224 52.7501ZM41.4849 52.0001C42.5734 51.9428 43.5057 51.6303 44.2818 51.0626C45.063 50.4949 45.4536 49.8387 45.4536 49.0939C45.4536 48.4272 45.1568 48.0939 44.563 48.0939C43.8547 48.0939 43.201 48.4741 42.6021 49.2345C42.0031 49.9949 41.6307 50.9168 41.4849 52.0001ZM55.147 55.9454C54.7929 56.1121 54.509 56.1954 54.2955 56.1954C53.7642 56.1954 53.4986 55.9611 53.4986 55.4923C53.4986 55.2527 53.5923 54.6564 53.7798 53.7032L54.1705 51.7579C54.41 50.6017 54.5298 49.7449 54.5298 49.1876C54.5298 48.8855 54.4439 48.6329 54.272 48.4298C54.8189 48.2423 55.2642 48.1486 55.608 48.1486C55.9725 48.1486 56.1548 48.3803 56.1548 48.8439C56.1548 49.1303 56.0246 49.8829 55.7642 51.1017L55.3189 53.3751C56.3033 51.4637 57.2929 49.9793 58.2876 48.922C59.2876 47.8595 60.1939 47.3282 61.0064 47.3282C61.2929 47.3282 61.5402 47.4116 61.7486 47.5782C61.9569 47.7397 62.0611 47.9376 62.0611 48.172C62.0611 48.5366 61.6652 49.021 60.8736 49.6251C60.6757 49.2137 60.3944 49.0079 60.0298 49.0079C59.3684 49.0079 58.5246 49.7111 57.4986 51.1173C56.8632 51.9923 56.3111 52.896 55.8423 53.8282C55.3736 54.7553 55.1392 55.4168 55.1392 55.8126L55.147 55.9454Z"/>
</mask>
<path d="M8.92037 51.2267C8.2537 52.6069 7.43078 53.7814 6.45162 54.7501C5.47766 55.7137 4.6287 56.1954 3.90474 56.1954C3.35266 56.1954 2.90995 55.9506 2.57662 55.4611C2.24849 54.9663 2.08443 54.31 2.08443 53.4923C2.08443 51.8621 2.57662 50.4272 3.56099 49.1876C4.55057 47.948 5.6938 47.3282 6.99068 47.3282C7.77714 47.3282 8.6287 47.573 9.54537 48.0626C9.68078 47.5782 10.2329 47.3361 11.2016 47.3361C11.2641 47.3361 11.3657 47.3387 11.5063 47.3439C11.2094 47.797 10.9829 48.4168 10.8266 49.2032L10.6938 49.8673C10.5428 50.6069 10.4672 51.4715 10.4672 52.4611C10.4672 53.6017 10.7329 54.172 11.2641 54.172C11.8266 54.172 12.5948 53.7032 13.5688 52.7657C14.548 51.823 15.5089 50.6251 16.4516 49.172L17.061 49.5939C16.0974 51.3126 14.9959 52.7475 13.7563 53.8986C12.5167 55.0444 11.4516 55.6173 10.561 55.6173C9.43599 55.6173 8.87349 54.6798 8.87349 52.8048C8.87349 52.4142 8.88912 51.8881 8.92037 51.2267ZM9.28755 49.3595C8.1938 48.646 7.28495 48.2892 6.56099 48.2892C5.77453 48.2892 5.09485 48.7684 4.52193 49.7267C3.94901 50.6798 3.66255 51.8126 3.66255 53.1251C3.66255 54.1772 4.0063 54.7032 4.6938 54.7032C5.4386 54.7032 6.86307 53.0678 8.96724 49.797C8.99328 49.7553 9.10005 49.6095 9.28755 49.3595ZM20.0981 49.7814H19.9419C19.1658 49.7814 18.4887 49.9741 17.9106 50.3595C18.0356 49.6928 18.2179 49.271 18.4575 49.0939C18.7023 48.9116 19.2127 48.8204 19.9887 48.8204H20.2856L20.5434 47.5314C20.8924 45.7814 21.4497 44.521 22.2153 43.7501C23.1632 42.7918 24.2127 42.3126 25.3637 42.3126C25.8117 42.3126 26.1971 42.4168 26.52 42.6251C26.8429 42.8335 27.0044 43.0861 27.0044 43.3829C27.0044 43.685 26.6684 44.0314 25.9966 44.422C25.8091 43.6251 25.382 43.2267 24.7153 43.2267C23.533 43.2267 22.6867 44.5131 22.1762 47.0861L21.8325 48.8204H24.5591C25.8039 48.8204 26.7179 48.7527 27.3012 48.6173C27.0512 49.1694 26.7648 49.5027 26.4419 49.6173C26.1242 49.7267 25.3012 49.7814 23.9731 49.7814H21.6372L20.3091 56.4845C20.1789 57.1303 20.1137 57.6954 20.1137 58.1798C20.1137 58.4871 20.1815 58.7657 20.3169 59.0157C19.796 59.1876 19.395 59.2736 19.1137 59.2736C18.6815 59.2736 18.4653 59.0314 18.4653 58.547C18.4653 58.1668 18.5512 57.5418 18.7231 56.672L20.0981 49.7814ZM34.6899 52.9064C34.8306 53.1616 34.9009 53.3855 34.9009 53.5782C34.9009 54.0887 34.4686 54.6538 33.604 55.2736C32.7446 55.8881 31.9608 56.1954 31.2524 56.1954C30.6274 56.1954 30.117 55.9168 29.7212 55.3595C29.3306 54.8022 29.1353 54.0835 29.1353 53.2032C29.1353 52.2241 29.3931 50.8309 29.9087 49.0236L30.2681 47.7111H28.9478C28.3957 47.7111 27.9556 47.7892 27.6274 47.9454C27.9295 47.3934 28.1795 47.047 28.3774 46.9064C28.5754 46.7657 28.9113 46.6954 29.3853 46.6954H30.5649L30.7212 46.1564C30.9608 45.3543 31.2472 44.8048 31.5806 44.5079C31.9139 44.2059 32.4139 44.0548 33.0806 44.0548C33.1587 44.0548 33.2837 44.06 33.4556 44.0704C33.0493 44.5913 32.6274 45.4663 32.1899 46.6954H36.3149C37.0389 46.6954 37.591 46.6017 37.9712 46.4142C37.841 46.9506 37.6665 47.3022 37.4478 47.4689C37.2342 47.6303 36.8332 47.7111 36.2446 47.7111H31.854C31.8019 47.8829 31.7629 48.0105 31.7368 48.0939C31.1066 50.2397 30.7915 51.8595 30.7915 52.9532C30.7915 54.1616 31.2264 54.7657 32.0962 54.7657C32.5441 54.7657 33.0311 54.5756 33.5571 54.1954C34.0884 53.8152 34.466 53.3855 34.6899 52.9064ZM41.4224 52.7501C41.4224 54.2762 42.0682 55.0392 43.3599 55.0392C44.4797 55.0392 45.7141 54.5053 47.063 53.4376C48.412 52.3699 49.6281 50.9637 50.7114 49.2189L51.3755 49.5861C50.3547 51.4923 49.0266 53.0704 47.3911 54.3204C45.7609 55.5704 44.2141 56.1954 42.7505 56.1954C41.813 56.1954 41.0708 55.8934 40.5239 55.2892C39.9823 54.685 39.7114 53.8595 39.7114 52.8126C39.7114 51.3022 40.2036 50.0105 41.188 48.9376C42.1776 47.8647 43.3677 47.3282 44.7583 47.3282C45.4302 47.3282 45.9667 47.4975 46.3677 47.8361C46.7739 48.1746 46.9771 48.6277 46.9771 49.1954C46.9771 50.1277 46.4146 50.9532 45.2896 51.672C44.1698 52.3907 42.8807 52.7501 41.4224 52.7501ZM41.4849 52.0001C42.5734 51.9428 43.5057 51.6303 44.2818 51.0626C45.063 50.4949 45.4536 49.8387 45.4536 49.0939C45.4536 48.4272 45.1568 48.0939 44.563 48.0939C43.8547 48.0939 43.201 48.4741 42.6021 49.2345C42.0031 49.9949 41.6307 50.9168 41.4849 52.0001ZM55.147 55.9454C54.7929 56.1121 54.509 56.1954 54.2955 56.1954C53.7642 56.1954 53.4986 55.9611 53.4986 55.4923C53.4986 55.2527 53.5923 54.6564 53.7798 53.7032L54.1705 51.7579C54.41 50.6017 54.5298 49.7449 54.5298 49.1876C54.5298 48.8855 54.4439 48.6329 54.272 48.4298C54.8189 48.2423 55.2642 48.1486 55.608 48.1486C55.9725 48.1486 56.1548 48.3803 56.1548 48.8439C56.1548 49.1303 56.0246 49.8829 55.7642 51.1017L55.3189 53.3751C56.3033 51.4637 57.2929 49.9793 58.2876 48.922C59.2876 47.8595 60.1939 47.3282 61.0064 47.3282C61.2929 47.3282 61.5402 47.4116 61.7486 47.5782C61.9569 47.7397 62.0611 47.9376 62.0611 48.172C62.0611 48.5366 61.6652 49.021 60.8736 49.6251C60.6757 49.2137 60.3944 49.0079 60.0298 49.0079C59.3684 49.0079 58.5246 49.7111 57.4986 51.1173C56.8632 51.9923 56.3111 52.896 55.8423 53.8282C55.3736 54.7553 55.1392 55.4168 55.1392 55.8126L55.147 55.9454Z" fill="white"/>
<path d="M8.92037 51.2267L9.91925 51.2739L8.01991 50.7917L8.92037 51.2267ZM6.45162 54.7501L7.15491 55.461L7.15493 55.461L6.45162 54.7501ZM2.57662 55.4611L1.74316 56.0138L1.75002 56.0239L2.57662 55.4611ZM3.56099 49.1876L2.77948 48.5637L2.77788 48.5657L3.56099 49.1876ZM9.54537 48.0626L9.07426 48.9447L10.173 49.5315L10.5084 48.3319L9.54537 48.0626ZM11.5063 47.3439L12.3428 47.8919L13.3136 46.4101L11.5433 46.3446L11.5063 47.3439ZM10.8266 49.2032L11.8072 49.3994L11.8074 49.3981L10.8266 49.2032ZM10.6938 49.8673L11.6736 50.0674L11.6744 50.0634L10.6938 49.8673ZM13.5688 52.7657L14.2623 53.4862L14.2624 53.4861L13.5688 52.7657ZM16.4516 49.172L17.0208 48.3498L16.1735 47.7632L15.6127 48.6277L16.4516 49.172ZM17.061 49.5939L17.9333 50.0829L18.3781 49.2894L17.6302 48.7717L17.061 49.5939ZM13.7563 53.8986L14.4351 54.6329L14.4368 54.6314L13.7563 53.8986ZM9.28755 49.3595L10.0876 49.9595L10.7282 49.1053L9.83394 48.522L9.28755 49.3595ZM4.52193 49.7267L5.37901 50.2419L5.38024 50.2398L4.52193 49.7267ZM8.96724 49.797L9.80832 50.3381L9.81524 50.327L8.96724 49.797ZM8.01991 50.7917C7.39722 52.0809 6.63792 53.1591 5.7483 54.0392L7.15493 55.461C8.22364 54.4037 9.11018 53.1329 9.82083 51.6616L8.01991 50.7917ZM5.74832 54.0392C4.81282 54.9647 4.21183 55.1954 3.90474 55.1954V57.1954C5.04557 57.1954 6.14249 56.4626 7.15491 55.461L5.74832 54.0392ZM3.90474 55.1954C3.71109 55.1954 3.56637 55.1379 3.40322 54.8983L1.75002 56.0239C2.25353 56.7634 2.99423 57.1954 3.90474 57.1954V55.1954ZM3.41001 54.9084C3.22441 54.6285 3.08443 54.1852 3.08443 53.4923H1.08443C1.08443 54.4348 1.27258 55.304 1.74322 56.0137L3.41001 54.9084ZM3.08443 53.4923C3.08443 52.0806 3.50465 50.8666 4.3441 49.8095L2.77788 48.5657C1.64858 49.9878 1.08443 51.6436 1.08443 53.4923H3.08443ZM4.3425 49.8115C5.18909 48.7511 6.06574 48.3282 6.99068 48.3282V46.3282C5.32187 46.3282 3.91206 47.145 2.77948 48.5637L4.3425 49.8115ZM6.99068 48.3282C7.56849 48.3282 8.25766 48.5086 9.07426 48.9447L10.0165 47.1805C8.99974 46.6375 7.98579 46.3282 6.99068 46.3282V48.3282ZM10.5084 48.3319C10.4988 48.3664 10.4778 48.4041 10.4514 48.4321C10.4287 48.4561 10.4225 48.4511 10.4627 48.4335C10.5584 48.3915 10.7814 48.3361 11.2016 48.3361V46.3361C10.6531 46.3361 10.1157 46.4017 9.65927 46.6019C9.16903 46.817 8.74695 47.2044 8.58229 47.7934L10.5084 48.3319ZM11.2016 48.3361C11.2441 48.3361 11.3297 48.338 11.4693 48.3432L11.5433 46.3446C11.4017 46.3393 11.2841 46.3361 11.2016 46.3361V48.3361ZM10.6698 46.7958C10.2773 47.3949 10.0161 48.151 9.84579 49.0084L11.8074 49.3981C11.9496 48.6826 12.1415 48.1991 12.3428 47.8919L10.6698 46.7958ZM9.84604 49.0071L9.71322 49.6712L11.6744 50.0634L11.8072 49.3994L9.84604 49.0071ZM9.71403 49.6672C9.54614 50.4893 9.46724 51.4237 9.46724 52.4611H11.4672C11.4672 51.5192 11.5394 50.7245 11.6736 50.0674L9.71403 49.6672ZM9.46724 52.4611C9.46724 53.0774 9.53405 53.6814 9.75996 54.1665C9.87888 54.4218 10.0595 54.6822 10.3335 54.8783C10.6173 55.0814 10.9411 55.172 11.2641 55.172V53.172C11.3215 53.172 11.4129 53.1913 11.4975 53.2519C11.5722 53.3054 11.5868 53.3519 11.573 53.3221C11.558 53.29 11.529 53.2093 11.5052 53.0562C11.4819 52.9061 11.4672 52.71 11.4672 52.4611H9.46724ZM11.2641 55.172C11.8084 55.172 12.3273 54.9521 12.783 54.6741C13.252 54.3879 13.7462 53.983 14.2623 53.4862L12.8753 52.0453C12.4175 52.486 12.0405 52.7842 11.7413 52.9668C11.4287 53.1575 11.2823 53.172 11.2641 53.172V55.172ZM14.2624 53.4861C15.3092 52.4783 16.317 51.2169 17.2905 49.7162L15.6127 48.6277C14.7008 50.0334 13.7868 51.1677 12.8752 52.0454L14.2624 53.4861ZM15.8824 49.9942L16.4918 50.4161L17.6302 48.7717L17.0208 48.3498L15.8824 49.9942ZM16.1887 49.1049C15.2679 50.7475 14.2278 52.0961 13.0759 53.1658L14.4368 54.6314C15.7639 53.399 16.927 51.8778 17.9333 50.0829L16.1887 49.1049ZM13.0775 53.1642C11.8769 54.274 11.0545 54.6173 10.561 54.6173V56.6173C11.8488 56.6173 13.1565 55.8148 14.4351 54.6329L13.0775 53.1642ZM10.561 54.6173C10.3373 54.6173 10.2471 54.5567 10.1529 54.3997C10.0098 54.1613 9.87349 53.675 9.87349 52.8048H7.87349C7.87349 53.8097 8.0184 54.7296 8.43787 55.4287C8.90618 56.2092 9.65971 56.6173 10.561 56.6173V54.6173ZM9.87349 52.8048C9.87349 52.437 9.88831 51.9288 9.91925 51.2739L7.92148 51.1795C7.88992 51.8475 7.87349 52.3914 7.87349 52.8048H9.87349ZM9.83394 48.522C8.6908 47.7762 7.58023 47.2892 6.56099 47.2892V49.2892C6.98967 49.2892 7.69681 49.5157 8.74116 50.197L9.83394 48.522ZM6.56099 47.2892C5.28559 47.2892 4.33338 48.0932 3.66361 49.2136L5.38024 50.2398C5.85631 49.4435 6.26348 49.2892 6.56099 49.2892V47.2892ZM3.66485 49.2115C2.98275 50.3463 2.66255 51.6641 2.66255 53.1251H4.66255C4.66255 51.9611 4.91528 51.0134 5.37901 50.2419L3.66485 49.2115ZM2.66255 53.1251C2.66255 53.7282 2.75529 54.3539 3.08325 54.8557C3.45951 55.4315 4.0501 55.7032 4.6938 55.7032V53.7032C4.65041 53.7032 4.66112 53.6955 4.69703 53.7138C4.71382 53.7224 4.72929 53.7333 4.74172 53.7447C4.7538 53.7558 4.75844 53.7632 4.75748 53.7617C4.75414 53.7566 4.72819 53.7133 4.7041 53.6027C4.68013 53.4927 4.66255 53.3368 4.66255 53.1251H2.66255ZM4.6938 55.7032C5.21399 55.7032 5.66221 55.4361 5.98183 55.1951C6.33121 54.9317 6.69663 54.5677 7.07482 54.1335C7.83432 53.2615 8.74704 51.9876 9.80825 50.338L8.12624 49.256C7.08328 50.8772 6.23167 52.0564 5.56669 52.8199C5.23264 53.2034 4.97079 53.4526 4.77785 53.5981C4.55515 53.766 4.54602 53.7032 4.6938 53.7032V55.7032ZM9.81524 50.327C9.80502 50.3434 9.80174 50.3471 9.81793 50.3242C9.83032 50.3067 9.84858 50.2814 9.87371 50.2471C9.92378 50.1787 9.99471 50.0833 10.0876 49.9595L8.48755 48.7595C8.31684 48.9871 8.17419 49.1791 8.11924 49.267L9.81524 50.327ZM20.0981 49.7814L21.0788 49.9771L21.3174 48.7814H20.0981V49.7814ZM17.9106 50.3595L16.9278 50.1752L16.4903 52.5082L18.4653 51.1915L17.9106 50.3595ZM18.4575 49.0939L19.0519 49.8981L19.0548 49.8959L18.4575 49.0939ZM20.2856 48.8204V49.8204H21.1054L21.2662 49.0166L20.2856 48.8204ZM20.5434 47.5314L21.524 47.7275L21.5241 47.7269L20.5434 47.5314ZM22.2153 43.7501L22.9248 44.4548L22.9263 44.4534L22.2153 43.7501ZM25.9966 44.422L25.0231 44.651L25.3323 45.9649L26.4992 45.2865L25.9966 44.422ZM22.1762 47.0861L21.1954 46.8915L21.1953 46.8916L22.1762 47.0861ZM21.8325 48.8204L20.8516 48.626L20.6148 49.8204H21.8325V48.8204ZM27.3012 48.6173L28.2122 49.0298L29.0474 47.1854L27.0751 47.6432L27.3012 48.6173ZM26.4419 49.6173L26.7674 50.5629L26.7763 50.5597L26.4419 49.6173ZM21.6372 49.7814V48.7814H20.8159L20.6563 49.587L21.6372 49.7814ZM20.3091 56.4845L21.2893 56.6821L21.29 56.6789L20.3091 56.4845ZM20.3169 59.0157L20.6303 59.9654L21.7656 59.5907L21.1962 58.5395L20.3169 59.0157ZM18.7231 56.672L17.7425 56.4763L17.7421 56.4781L18.7231 56.672ZM20.0981 48.7814H19.9419V50.7814H20.0981V48.7814ZM19.9419 48.7814C18.9923 48.7814 18.1172 49.02 17.3559 49.5274L18.4653 51.1915C18.8603 50.9282 19.3393 50.7814 19.9419 50.7814V48.7814ZM18.8935 50.5438C18.9481 50.2524 19.0077 50.0586 19.0591 49.9397C19.115 49.8103 19.131 49.8396 19.0519 49.898L17.8631 48.2897C17.5444 48.5252 17.3495 48.854 17.2231 49.1464C17.0922 49.4494 16.9981 49.7999 16.9278 50.1752L18.8935 50.5438ZM19.0548 49.8959C18.9944 49.9409 19.0044 49.9081 19.1997 49.8732C19.376 49.8417 19.6337 49.8204 19.9887 49.8204V47.8204C19.5677 47.8204 19.1823 47.8447 18.8481 47.9044C18.533 47.9606 18.1654 48.0646 17.8602 48.2918L19.0548 49.8959ZM19.9887 49.8204H20.2856V47.8204H19.9887V49.8204ZM21.2662 49.0166L21.524 47.7275L19.5629 47.3353L19.305 48.6243L21.2662 49.0166ZM21.5241 47.7269C21.857 46.0577 22.3606 45.0229 22.9248 44.4548L21.5058 43.0454C20.5388 44.019 19.9278 45.505 19.5627 47.3358L21.5241 47.7269ZM22.9263 44.4534C23.7211 43.6498 24.5254 43.3126 25.3637 43.3126V41.3126C23.9 41.3126 22.6054 41.9337 21.5044 43.0469L22.9263 44.4534ZM25.3637 43.3126C25.6519 43.3126 25.8418 43.3777 25.9779 43.4654L27.0621 41.7848C26.5523 41.4559 25.9715 41.3126 25.3637 41.3126V43.3126ZM25.9779 43.4654C26.0514 43.5129 26.0558 43.5331 26.0407 43.5094C26.0326 43.4967 26.0223 43.4766 26.0147 43.4505C26.007 43.4243 26.0044 43.4006 26.0044 43.3829H28.0044C28.0044 42.6472 27.5758 42.1162 27.0621 41.7848L25.9779 43.4654ZM26.0044 43.3829C26.0044 43.1559 26.1252 43.0796 26.0346 43.173C25.957 43.253 25.7927 43.3838 25.4939 43.5575L26.4992 45.2865C26.8723 45.0696 27.2119 44.8318 27.4702 44.5655C27.7156 44.3126 28.0044 43.9121 28.0044 43.3829H26.0044ZM26.97 44.193C26.8484 43.6765 26.6232 43.1726 26.2178 42.7943C25.7927 42.3978 25.2634 42.2267 24.7153 42.2267V44.2267C24.782 44.2267 24.8158 44.2365 24.8281 44.241C24.8382 44.2447 24.8445 44.2483 24.8535 44.2567C24.8751 44.2769 24.9572 44.3707 25.0231 44.651L26.97 44.193ZM24.7153 42.2267C23.6877 42.2267 22.9039 42.8128 22.3584 43.6419C21.8313 44.4431 21.4605 45.5549 21.1954 46.8915L23.1571 47.2806C23.4024 46.0443 23.71 45.2264 24.0292 44.7411C24.3301 44.2838 24.5607 44.2267 24.7153 44.2267V42.2267ZM21.1953 46.8916L20.8516 48.626L22.8134 49.0149L23.1572 47.2805L21.1953 46.8916ZM21.8325 49.8204H24.5591V47.8204H21.8325V49.8204ZM24.5591 49.8204C25.8167 49.8204 26.8267 49.7541 27.5274 49.5914L27.0751 47.6432C26.6092 47.7514 25.791 47.8204 24.5591 47.8204V49.8204ZM26.3903 48.2048C26.2908 48.4245 26.2033 48.5565 26.1405 48.6296C26.0794 48.7007 26.0645 48.6901 26.1075 48.6749L26.7763 50.5597C27.4935 50.3052 27.9299 49.6533 28.2122 49.0298L26.3903 48.2048ZM26.1164 48.6718C26.1238 48.6692 26.0841 48.6824 25.9665 48.6993C25.8573 48.715 25.7102 48.7299 25.5201 48.7426C25.1398 48.7678 24.6266 48.7814 23.9731 48.7814V50.7814C24.6477 50.7814 25.2101 50.7676 25.6527 50.7382C26.0614 50.711 26.4685 50.6657 26.7674 50.5628L26.1164 48.6718ZM23.9731 48.7814H21.6372V50.7814H23.9731V48.7814ZM20.6563 49.587L19.3281 56.2901L21.29 56.6789L22.6181 49.9757L20.6563 49.587ZM19.3288 56.2869C19.1898 56.9762 19.1137 57.6102 19.1137 58.1798H21.1137C21.1137 57.7807 21.1679 57.2844 21.2893 56.6821L19.3288 56.2869ZM19.1137 58.1798C19.1137 58.6396 19.2166 59.0841 19.4376 59.492L21.1962 58.5395C21.1463 58.4474 21.1137 58.3346 21.1137 58.1798H19.1137ZM20.0035 58.0661C19.5068 58.23 19.2299 58.2736 19.1137 58.2736V60.2736C19.5601 60.2736 20.0853 60.1452 20.6303 59.9654L20.0035 58.0661ZM19.1137 58.2736C19.0965 58.2736 19.1251 58.2709 19.1799 58.2914C19.2406 58.314 19.3123 58.3575 19.3735 58.4261C19.4933 58.5603 19.4653 58.6613 19.4653 58.547H17.4653C17.4653 58.9171 17.5454 59.3814 17.8813 59.7578C18.2366 60.1558 18.7122 60.2736 19.1137 60.2736V58.2736ZM19.4653 58.547C19.4653 58.2738 19.5327 57.7334 19.7042 56.8659L17.7421 56.4781C17.5698 57.3501 17.4653 58.0598 17.4653 58.547H19.4653ZM19.7038 56.8677L21.0788 49.9771L19.1175 49.5857L17.7425 56.4763L19.7038 56.8677ZM34.6899 52.9064L35.5658 52.4238L34.6167 50.7014L33.784 52.4829L34.6899 52.9064ZM33.604 55.2736L34.1857 56.087L34.1866 56.0863L33.604 55.2736ZM29.7212 55.3595L28.9023 55.9335L28.9059 55.9386L29.7212 55.3595ZM29.9087 49.0236L30.8704 49.2979L30.8732 49.2876L29.9087 49.0236ZM30.2681 47.7111L31.2326 47.9751L31.5787 46.7111H30.2681V47.7111ZM27.6274 47.9454L26.7502 47.4654L25.2663 50.1774L28.0574 48.8483L27.6274 47.9454ZM30.5649 46.6954V47.6954H31.3162L31.5254 46.9738L30.5649 46.6954ZM30.7212 46.1564L29.763 45.8702L29.7607 45.878L30.7212 46.1564ZM31.5806 44.5079L32.2457 45.2547L32.2521 45.2489L31.5806 44.5079ZM33.4556 44.0704L34.2441 44.6855L35.4127 43.1872L33.5161 43.0723L33.4556 44.0704ZM32.1899 46.6954L31.2478 46.3601L30.7726 47.6954H32.1899V46.6954ZM37.9712 46.4142L38.943 46.6501L39.4476 44.5711L37.5289 45.5173L37.9712 46.4142ZM37.4478 47.4689L38.0509 48.2665L38.0538 48.2643L37.4478 47.4689ZM31.854 47.7111V46.7111H31.1121L30.897 47.4211L31.854 47.7111ZM31.7368 48.0939L30.7823 47.7956L30.7798 47.8038L30.7773 47.8121L31.7368 48.0939ZM33.5571 54.1954L32.9751 53.3822L32.9713 53.385L33.5571 54.1954ZM33.8141 53.389C33.8596 53.4716 33.8829 53.5298 33.8941 53.5653C33.9052 53.6007 33.9009 53.6028 33.9009 53.5782H35.9009C35.9009 53.152 35.7495 52.7572 35.5658 52.4238L33.8141 53.389ZM33.9009 53.5782C33.9009 53.5419 33.9166 53.6019 33.7824 53.7773C33.6481 53.9529 33.409 54.183 33.0214 54.4608L34.1866 56.0863C34.6636 55.7444 35.0729 55.382 35.3709 54.9925C35.669 54.6028 35.9009 54.125 35.9009 53.5782H33.9009ZM33.0223 54.4602C32.2536 55.0099 31.6724 55.1954 31.2524 55.1954V57.1954C32.2491 57.1954 33.2357 56.7664 34.1857 56.087L33.0223 54.4602ZM31.2524 55.1954C30.9852 55.1954 30.7653 55.1025 30.5365 54.7804L28.9059 55.9386C29.4688 56.731 30.2697 57.1954 31.2524 57.1954V55.1954ZM30.5401 54.7855C30.2976 54.4396 30.1353 53.9381 30.1353 53.2032H28.1353C28.1353 54.2288 28.3635 55.1648 28.9023 55.9335L30.5401 54.7855ZM30.1353 53.2032C30.1353 52.3668 30.3613 51.0819 30.8703 49.2979L28.9471 48.7492C28.4248 50.5798 28.1353 52.0814 28.1353 53.2032H30.1353ZM30.8732 49.2876L31.2326 47.9751L29.3036 47.447L28.9442 48.7595L30.8732 49.2876ZM30.2681 46.7111H28.9478V48.7111H30.2681V46.7111ZM28.9478 46.7111C28.317 46.7111 27.7114 46.7979 27.1975 47.0426L28.0574 48.8483C28.1997 48.7805 28.4743 48.7111 28.9478 48.7111V46.7111ZM28.5047 48.4254C28.6442 48.1705 28.7601 47.9847 28.8523 47.8569C28.9542 47.7158 28.9902 47.6977 28.9566 47.7216L27.7982 46.0912C27.5668 46.2556 27.3789 46.481 27.2307 46.6863C27.0729 46.9049 26.9128 47.1683 26.7502 47.4654L28.5047 48.4254ZM28.9566 47.7216C28.9071 47.7567 28.8977 47.7447 28.9827 47.727C29.0633 47.7101 29.1931 47.6954 29.3853 47.6954V45.6954C28.87 45.6954 28.2634 45.7607 27.7982 46.0912L28.9566 47.7216ZM29.3853 47.6954H30.5649V45.6954H29.3853V47.6954ZM31.5254 46.9738L31.6817 46.4348L29.7607 45.878L29.6045 46.417L31.5254 46.9738ZM31.6794 46.4426C31.9052 45.6866 32.1264 45.3609 32.2457 45.2547L30.9155 43.7612C30.3681 44.2487 30.0164 45.022 29.763 45.8702L31.6794 46.4426ZM32.2521 45.2489C32.3301 45.1783 32.545 45.0548 33.0806 45.0548V43.0548C32.2828 43.0548 31.4977 43.2334 30.909 43.7669L32.2521 45.2489ZM33.0806 45.0548C33.1262 45.0548 33.2253 45.0583 33.3951 45.0686L33.5161 43.0723C33.342 43.0617 33.1912 43.0548 33.0806 43.0548V45.0548ZM32.6671 43.4554C32.1582 44.1078 31.6934 45.1084 31.2478 46.3601L33.132 47.0308C33.5615 45.8241 33.9404 45.0748 34.2441 44.6855L32.6671 43.4554ZM32.1899 47.6954H36.3149V45.6954H32.1899V47.6954ZM36.3149 47.6954C37.0981 47.6954 37.8308 47.5984 38.4135 47.3111L37.5289 45.5173C37.3512 45.6049 36.9797 45.6954 36.3149 45.6954V47.6954ZM36.9994 46.1783C36.9453 46.4011 36.8908 46.5472 36.8469 46.6356C36.8008 46.7286 36.788 46.7143 36.8417 46.6734L38.0538 48.2643C38.5656 47.8743 38.8046 47.2202 38.943 46.6501L36.9994 46.1783ZM36.8446 46.6712C36.9042 46.6262 36.9132 46.6453 36.7895 46.6702C36.6753 46.6932 36.4988 46.7111 36.2446 46.7111V48.7111C36.579 48.7111 36.8972 48.6886 37.1842 48.6308C37.4614 48.575 37.7777 48.473 38.0509 48.2665L36.8446 46.6712ZM36.2446 46.7111H31.854V48.7111H36.2446V46.7111ZM30.897 47.4211C30.8451 47.5924 30.807 47.7166 30.7823 47.7956L32.6913 48.3921C32.7187 48.3045 32.7588 48.1735 32.811 48.0011L30.897 47.4211ZM30.7773 47.8121C30.1422 49.9748 29.7915 51.7091 29.7915 52.9532H31.7915C31.7915 52.0099 32.071 50.5046 32.6963 48.3757L30.7773 47.8121ZM29.7915 52.9532C29.7915 53.6474 29.911 54.348 30.3061 54.8968C30.7449 55.5064 31.4015 55.7657 32.0962 55.7657V53.7657C31.994 53.7657 31.9523 53.7481 31.9456 53.745C31.9443 53.7444 31.9412 53.745 31.9293 53.7284C31.8894 53.6731 31.7915 53.4675 31.7915 52.9532H29.7915ZM32.0962 55.7657C32.8298 55.7657 33.5198 55.4563 34.1429 55.0059L32.9713 53.385C32.5423 53.695 32.2584 53.7657 32.0962 53.7657V55.7657ZM34.1391 55.0086C34.7775 54.5517 35.284 53.9971 35.5959 53.3298L33.784 52.4829C33.648 52.7739 33.3992 53.0787 32.9751 53.3822L34.1391 55.0086ZM41.4224 52.7501V51.7501H40.4224V52.7501H41.4224ZM50.7114 49.2189L51.1953 48.3437L50.3634 47.8837L49.8619 48.6914L50.7114 49.2189ZM51.3755 49.5861L52.2571 50.0581L52.7228 49.1884L51.8594 48.7109L51.3755 49.5861ZM47.3911 54.3204L46.7839 53.5259L46.7826 53.5269L47.3911 54.3204ZM40.5239 55.2892L39.7794 55.9567L39.7826 55.9603L40.5239 55.2892ZM41.188 48.9376L40.4529 48.2596L40.4512 48.2616L41.188 48.9376ZM46.3677 47.8361L45.7226 48.6002L45.7275 48.6043L46.3677 47.8361ZM45.2896 51.672L44.7512 50.8293L44.7494 50.8304L45.2896 51.672ZM41.4849 52.0001L40.4938 51.8667L40.3329 53.0621L41.5374 52.9987L41.4849 52.0001ZM44.2818 51.0626L43.6939 50.2536L43.6913 50.2555L44.2818 51.0626ZM40.4224 52.7501C40.4224 53.6303 40.6051 54.477 41.1435 55.113C41.7088 55.7809 42.5122 56.0392 43.3599 56.0392V54.0392C42.9159 54.0392 42.7505 53.9159 42.67 53.8209C42.5626 53.6939 42.4224 53.3959 42.4224 52.7501H40.4224ZM43.3599 56.0392C44.7976 56.0392 46.2478 55.3582 47.6836 54.2217L46.4424 52.6535C45.1803 53.6525 44.1618 54.0392 43.3599 54.0392V56.0392ZM47.6836 54.2217C49.1388 53.07 50.4282 51.5708 51.561 49.7464L49.8619 48.6914C48.828 50.3566 47.6851 51.6699 46.4424 52.6535L47.6836 54.2217ZM50.2276 50.094L50.8916 50.4612L51.8594 48.7109L51.1953 48.3437L50.2276 50.094ZM50.494 49.114C49.537 50.9009 48.3002 52.367 46.7839 53.5259L47.9984 55.1149C49.7529 53.7739 51.1723 52.0837 52.2571 50.0581L50.494 49.114ZM46.7826 53.5269C45.2582 54.6958 43.9207 55.1954 42.7505 55.1954V57.1954C44.5074 57.1954 46.2637 56.4451 47.9996 55.114L46.7826 53.5269ZM42.7505 55.1954C42.0487 55.1954 41.5933 54.9805 41.2653 54.6181L39.7826 55.9603C40.5483 56.8062 41.5773 57.1954 42.7505 57.1954V55.1954ZM41.2685 54.6216C40.9345 54.2491 40.7114 53.6866 40.7114 52.8126H38.7114C38.7114 54.0324 39.03 55.1209 39.7794 55.9567L41.2685 54.6216ZM40.7114 52.8126C40.7114 51.5423 41.1166 50.4947 41.9249 49.6137L40.4512 48.2616C39.2907 49.5264 38.7114 51.0622 38.7114 52.8126H40.7114ZM41.9231 49.6156C42.7339 48.7365 43.6622 48.3282 44.7583 48.3282V46.3282C43.0732 46.3282 41.6213 46.9929 40.4529 48.2596L41.9231 49.6156ZM44.7583 48.3282C45.2617 48.3282 45.5477 48.4525 45.7226 48.6002L47.0128 47.0719C46.3856 46.5425 45.5987 46.3282 44.7583 46.3282V48.3282ZM45.7275 48.6043C45.8873 48.7375 45.9771 48.8996 45.9771 49.1954H47.9771C47.9771 48.3558 47.6606 47.6118 47.0079 47.0678L45.7275 48.6043ZM45.9771 49.1954C45.9771 49.6523 45.7237 50.208 44.7512 50.8293L45.828 52.5147C47.1055 51.6985 47.9771 50.6032 47.9771 49.1954H45.9771ZM44.7494 50.8304C43.8061 51.4359 42.7083 51.7501 41.4224 51.7501V53.7501C43.0531 53.7501 44.5334 53.3456 45.8297 52.5136L44.7494 50.8304ZM41.5374 52.9987C42.7933 52.9326 43.919 52.567 44.8722 51.8697L43.6913 50.2555C43.0925 50.6936 42.3535 50.953 41.4323 51.0015L41.5374 52.9987ZM44.8696 51.8716C45.8252 51.1772 46.4536 50.2507 46.4536 49.0939H44.4536C44.4536 49.4267 44.3008 49.8126 43.6939 50.2537L44.8696 51.8716ZM46.4536 49.0939C46.4536 48.6331 46.3536 48.1007 45.9777 47.6788C45.5823 47.2348 45.046 47.0939 44.563 47.0939V49.0939C44.6204 49.0939 44.6269 49.1022 44.6021 49.0929C44.589 49.088 44.5695 49.079 44.547 49.0639C44.5243 49.0485 44.5028 49.0298 44.4842 49.009C44.4456 48.9656 44.437 48.9332 44.4393 48.941C44.4426 48.9521 44.4536 48.9982 44.4536 49.0939H46.4536ZM44.563 47.0939C43.4457 47.0939 42.531 47.7086 41.8165 48.6157L43.3876 49.8533C43.871 49.2396 44.2636 49.0939 44.563 49.0939V47.0939ZM41.8165 48.6157C41.0931 49.5341 40.6604 50.6295 40.4938 51.8667L42.4759 52.1335C42.6011 51.204 42.9131 50.4557 43.3876 49.8533L41.8165 48.6157ZM55.147 55.9454L55.5728 56.8503L56.185 56.5622L56.1453 55.8867L55.147 55.9454ZM53.7798 53.7032L52.7994 53.5064L52.7986 53.5102L53.7798 53.7032ZM54.1705 51.7579L53.1912 51.555L53.19 51.5611L54.1705 51.7579ZM54.272 48.4298L53.9477 47.4839L52.5633 47.9585L53.5086 49.0758L54.272 48.4298ZM55.7642 51.1017L54.7863 50.8927L54.7845 50.9011L54.7829 50.9095L55.7642 51.1017ZM55.3189 53.3751L54.3375 53.1829L56.2079 53.833L55.3189 53.3751ZM58.2876 48.922L57.5594 48.2366L57.5593 48.2367L58.2876 48.922ZM61.7486 47.5782L61.1239 48.3591L61.1299 48.3639L61.136 48.3687L61.7486 47.5782ZM60.8736 49.6251L59.9724 50.0586L60.5045 51.1647L61.4803 50.4201L60.8736 49.6251ZM57.4986 51.1173L56.6908 50.5279L56.6894 50.5297L57.4986 51.1173ZM55.8423 53.8282L56.7347 54.2795L56.7358 54.2775L55.8423 53.8282ZM55.1392 55.8126H54.1392V55.842L54.1409 55.8713L55.1392 55.8126ZM54.7212 55.0406C54.5768 55.1086 54.4665 55.15 54.3868 55.1734C54.3039 55.1978 54.2781 55.1954 54.2955 55.1954V57.1954C54.7327 57.1954 55.1784 57.0358 55.5728 56.8503L54.7212 55.0406ZM54.2955 55.1954C54.1553 55.1954 54.237 55.1618 54.3594 55.2698C54.4227 55.3256 54.4631 55.3915 54.4839 55.4465C54.5024 55.4956 54.4986 55.5175 54.4986 55.4923H52.4986C52.4986 55.9156 52.6243 56.406 53.0362 56.7695C53.4242 57.1119 53.9043 57.1954 54.2955 57.1954V55.1954ZM54.4986 55.4923C54.4986 55.493 54.4986 55.4824 54.5004 55.4568C54.5022 55.4323 54.5052 55.3995 54.5099 55.3572C54.5195 55.2721 54.5347 55.1608 54.5568 55.0207C54.6008 54.7403 54.6685 54.3668 54.761 53.8963L52.7986 53.5102C52.6184 54.4263 52.4986 55.133 52.4986 55.4923H54.4986ZM54.7603 53.9001L55.1509 51.9548L53.19 51.5611L52.7994 53.5064L54.7603 53.9001ZM55.1497 51.9608C55.3913 50.7947 55.5298 49.8535 55.5298 49.1876H53.5298C53.5298 49.6363 53.4288 50.4087 53.1913 51.555L55.1497 51.9608ZM55.5298 49.1876C55.5298 48.683 55.3807 48.1919 55.0354 47.7839L53.5086 49.0758C53.5135 49.0815 53.5159 49.0855 53.5187 49.0937C53.522 49.1036 53.5298 49.1318 53.5298 49.1876H55.5298ZM54.5963 49.3758C55.0998 49.2031 55.4245 49.1486 55.608 49.1486V47.1486C55.1039 47.1486 54.5379 47.2815 53.9477 47.4839L54.5963 49.3758ZM55.608 49.1486C55.5947 49.1486 55.5368 49.1465 55.457 49.1127C55.3712 49.0764 55.2916 49.0163 55.2321 48.9406C55.1251 48.8046 55.1548 48.716 55.1548 48.8439H57.1548C57.1548 48.5082 57.0934 48.072 56.8041 47.7042C56.4789 47.2906 56.0169 47.1486 55.608 47.1486V49.1486ZM55.1548 48.8439C55.1548 48.8433 55.1548 48.847 55.1544 48.8559C55.154 48.8646 55.1533 48.8767 55.152 48.8926C55.1494 48.9248 55.145 48.9674 55.1382 49.0218C55.1245 49.131 55.1028 49.2736 55.0718 49.4527C55.0099 49.8107 54.9152 50.2893 54.7863 50.8927L56.7421 51.3106C56.8736 50.6954 56.9743 50.1883 57.0425 49.7936C57.1065 49.4241 57.1548 49.0846 57.1548 48.8439H55.1548ZM54.7829 50.9095L54.3375 53.1829L56.3002 53.5673L56.7456 51.2939L54.7829 50.9095ZM56.2079 53.833C57.168 51.9687 58.1078 50.5725 59.0159 49.6073L57.5593 48.2367C56.4779 49.3861 55.4385 50.9587 54.4299 52.9173L56.2079 53.833ZM59.0158 49.6074C59.9656 48.5982 60.6218 48.3282 61.0064 48.3282V46.3282C59.766 46.3282 58.6097 47.1208 57.5594 48.2366L59.0158 49.6074ZM61.0064 48.3282C61.0837 48.3282 61.1064 48.3451 61.1239 48.3591L62.3733 46.7974C61.9741 46.4781 61.502 46.3282 61.0064 46.3282V48.3282ZM61.136 48.3687C61.1472 48.3773 61.1233 48.3616 61.098 48.3135C61.0709 48.2619 61.0611 48.2091 61.0611 48.172H63.0611C63.0611 47.587 62.7792 47.1118 62.3612 46.7878L61.136 48.3687ZM61.0611 48.172C61.0611 48.0086 61.1367 47.9963 60.9899 48.1759C60.8615 48.333 60.6326 48.5511 60.2669 48.8302L61.4803 50.4201C61.9062 50.095 62.2711 49.7688 62.5385 49.4415C62.7875 49.1368 63.0611 48.7 63.0611 48.172H61.0611ZM61.7747 49.1916C61.6259 48.8822 61.4128 48.5805 61.1046 48.3551C60.7844 48.1209 60.4139 48.0079 60.0298 48.0079V50.0079C60.0258 50.0079 60.0087 50.0072 59.9841 49.9993C59.9591 49.9914 59.9381 49.9798 59.9238 49.9693C59.8969 49.9497 59.9234 49.9566 59.9724 50.0586L61.7747 49.1916ZM60.0298 48.0079C59.354 48.0079 58.7527 48.3571 58.2607 48.7671C57.7503 49.1924 57.2275 49.7923 56.6908 50.5279L58.3064 51.7067C58.7957 51.0361 59.2078 50.5813 59.5411 50.3035C59.8929 50.0104 60.0443 50.0079 60.0298 50.0079V48.0079ZM56.6894 50.5297C56.0234 51.4469 55.4428 52.3967 54.9489 53.379L56.7358 54.2775C57.1793 53.3952 57.703 52.5377 58.3077 51.7049L56.6894 50.5297ZM54.9499 53.377C54.7045 53.8624 54.5088 54.3008 54.3724 54.6857C54.2419 55.0541 54.1392 55.4452 54.1392 55.8126H56.1392C56.1392 55.7842 56.1537 55.6467 56.2576 55.3536C56.3556 55.0771 56.5114 54.7212 56.7347 54.2795L54.9499 53.377ZM54.1409 55.8713L54.1487 56.0042L56.1453 55.8867L56.1375 55.7539L54.1409 55.8713Z" fill="white" mask="url(#path-1-outside-1_164_6318)"/>
<path d="M35.0207 26.6645C34.4686 26.6782 34.0099 26.2418 33.9961 25.6897L33.772 16.6925C33.7582 16.1404 34.1946 15.6817 34.7467 15.6679C35.2989 15.6541 35.7576 16.0906 35.7713 16.6427L35.9706 24.6402L43.9681 24.4409C44.5202 24.4272 44.979 24.8636 44.9927 25.4157C45.0065 25.9678 44.5701 26.4266 44.018 26.4403L35.0207 26.6645ZM95.3425 42.9382C91.3741 33.6955 83.6187 21.888 73.309 16.2442C68.1854 13.4394 62.4496 12.1648 56.2055 13.4524C49.9473 14.7429 43.0688 18.6301 35.7203 26.3541L34.2713 24.9755C41.8112 17.0503 49.0332 12.8893 55.8015 11.4936C62.5839 10.095 68.8007 11.4962 74.2694 14.4899C85.1446 20.4433 93.1337 32.7245 97.1802 42.1491L95.3425 42.9382Z" fill="url(#paint0_linear_164_6318)"/>
<defs>
<linearGradient id="paint0_linear_164_6318" x1="79.7064" y1="19.307" x2="55.2895" y2="44.9717" gradientUnits="userSpaceOnUse">
<stop stop-color="#ACBBFF"/>
<stop offset="1" stop-color="#00CBFF"/>
</linearGradient>
</defs>
</svg>
