<svg width="20" height="21" viewBox="0 0 20 21" fill="none" xmlns="http://www.w3.org/2000/svg">
<path d="M9.99935 19.4587C5.05768 19.4587 1.04102 15.442 1.04102 10.5003C1.04102 5.55866 5.05768 1.54199 9.99935 1.54199C14.941 1.54199 18.9577 5.55866 18.9577 10.5003C18.9577 15.442 14.941 19.4587 9.99935 19.4587ZM9.99935 2.79199C5.74935 2.79199 2.29102 6.25033 2.29102 10.5003C2.29102 14.7503 5.74935 18.2087 9.99935 18.2087C14.2493 18.2087 17.7077 14.7503 17.7077 10.5003C17.7077 6.25033 14.2493 2.79199 9.99935 2.79199Z" fill="#292D32"/>
<path d="M8.81719 13.4837C8.65052 13.4837 8.49219 13.417 8.37552 13.3003L6.01719 10.942C5.77552 10.7003 5.77552 10.3003 6.01719 10.0587C6.25885 9.81699 6.65885 9.81699 6.90052 10.0587L8.81719 11.9753L13.1005 7.69199C13.3422 7.45033 13.7422 7.45033 13.9839 7.69199C14.2255 7.93366 14.2255 8.33366 13.9839 8.57533L9.25885 13.3003C9.14219 13.417 8.98385 13.4837 8.81719 13.4837Z" fill="#292D32"/>
</svg>
