<svg width="24" height="25" viewBox="0 0 24 25" fill="none" xmlns="http://www.w3.org/2000/svg">
<path d="M9.5 23.25H6.5C6.09 23.25 5.75 22.91 5.75 22.5V20.25H2.5C2.09 20.25 1.75 19.91 1.75 19.5V5.5C1.75 5.35 1.79 5.20999 1.88 5.07999L3.88 2.07999C4.02 1.86999 4.25 1.75 4.5 1.75H21.5C21.91 1.75 22.25 2.09 22.25 2.5V14.5C22.25 14.7 22.17 14.89 22.03 15.03L17.03 20.03C16.89 20.17 16.7 20.25 16.5 20.25H11.9L10.12 22.92C9.97999 23.12 9.75 23.25 9.5 23.25ZM7.25 21.75H9.10001L10.88 19.08C11.02 18.87 11.25 18.75 11.5 18.75H16.19L20.75 14.19V3.25H4.89999L3.25 5.73001V18.75H6.5C6.91 18.75 7.25 19.09 7.25 19.5V21.75Z" fill="black"/>
<path d="M11 14.25H9C8.59 14.25 8.25 13.91 8.25 13.5V7.5C8.25 7.09 8.59 6.75 9 6.75H11C11.41 6.75 11.75 7.09 11.75 7.5V13.5C11.75 13.91 11.41 14.25 11 14.25ZM9.75 12.75H10.25V8.25H9.75V12.75Z" fill="black"/>
<path d="M16 14.25H14C13.59 14.25 13.25 13.91 13.25 13.5V7.5C13.25 7.09 13.59 6.75 14 6.75H16C16.41 6.75 16.75 7.09 16.75 7.5V13.5C16.75 13.91 16.41 14.25 16 14.25ZM14.75 12.75H15.25V8.25H14.75V12.75Z" fill="black"/>
</svg>
