<svg width="1440" height="223" viewBox="0 0 1440 223" fill="none" xmlns="http://www.w3.org/2000/svg">
<path d="M1415.65 2.61396L1404.47 1M1415.65 2.61396L1382.53 2.61396M1415.65 2.61396L1427.2 4.28121M1415.65 2.61396L1439.11 2.61396M1404.47 1L1408.54 1.00063L1412.57 1.00412L1416.51 1.01395L1420.33 1.0333L1423.98 1.0647L1427.43 1.11197L1430.63 1.17764L1433.6 1.26137L1436.15 1.37716L1438.47 1.51134L1439.11 1.55834V2.61396M1404.47 1L1371.88 1M1371.88 1L1339.29 1M1371.88 1L1382.53 2.61396M1339.29 1L1306.69 1M1339.29 1L1349.4 2.61396M1306.69 1L1274.1 1M1306.69 1L1316.27 2.61396M1274.1 1L1241.5 1M1274.1 1L1283.15 2.61396M1241.5 1L1208.91 1M1241.5 1L1250.02 2.61396M1208.91 1L1176.32 1M1208.91 1L1216.89 2.61396M1176.32 1L1143.72 1M1176.32 1L1183.77 2.61396M1143.72 1L1111.13 1M1143.72 1L1150.64 2.61396M1111.13 1L1078.53 1M1111.13 1L1117.52 2.61396M1078.53 1L1045.94 1M1078.53 1L1084.39 2.61396M1045.94 1L1013.35 1M1045.94 1L1051.26 2.61396M1013.35 1L980.752 1M1013.35 1L1014.53 1.39873L1016.32 2.00238L1018.14 2.61396M980.752 1L948.158 1M980.752 1L981.803 1.39873L985.01 2.61396M948.158 1L915.564 1M948.158 1L951.884 2.61396M915.564 1L882.97 1M915.564 1L916.749 1.5992L917.95 2.20539L918.353 2.40936L918.758 2.61396M882.97 1L850.376 1M882.97 1L883.958 1.5992L884.29 1.80031L884.624 2.00238L885.632 2.61396M850.376 1L817.782 1M850.376 1L852.505 2.61396M817.782 1L817.979 1.19889L818.176 1.39873L819.176 2.40936L819.379 2.61396M817.782 1L785.188 1M785.188 1L752.594 1M785.188 1L786.253 2.61396M752.594 1L720 1M752.594 1L752.792 1.5992L753.126 2.61396M720 1L687.406 1M720 1V2.61396M687.406 1L654.812 1M687.406 1L687.208 1.5992L686.874 2.61396M654.812 1L622.218 1M654.812 1L653.747 2.61396M622.218 1L622.021 1.19889L621.824 1.39873L620.824 2.40936L620.621 2.61396M622.218 1L589.624 1M589.624 1L557.03 1M589.624 1L587.765 2.40936L587.495 2.61396M557.03 1L524.436 1M557.03 1L556.042 1.5992L555.71 1.80031L555.042 2.20539L554.706 2.40936L554.368 2.61396M524.436 1L491.842 1M524.436 1L523.251 1.5992L522.05 2.20539L521.647 2.40936L521.242 2.61396M491.842 1L459.248 1M491.842 1L488.116 2.61396M459.248 1L426.654 1M459.248 1L458.197 1.39873L454.99 2.61396M426.654 1L394.06 1M426.654 1L421.863 2.61396M394.06 1L361.466 1M394.06 1L388.737 2.61396M361.466 1L328.872 1M361.466 1L355.611 2.61396M328.872 1L296.278 1M328.872 1L322.484 2.61396M296.278 1L263.684 1M296.278 1L289.358 2.61396M263.684 1L231.09 1M263.684 1L256.231 2.61396M231.09 1L198.496 1M231.09 1L223.105 2.61396M198.496 1L165.902 1M198.496 1L189.979 2.61396M165.902 1L133.308 1M165.902 1L156.852 2.61396M133.308 1L100.714 1M133.308 1L123.726 2.61396M100.714 1L68.1198 1M100.714 1L90.6003 2.61396M68.1198 1L35.526 1M68.1198 1L57.474 2.61396M35.526 1L31.4586 1.00063L27.433 1.00412L23.4914 1.01395L19.6733 1.0333L16.0209 1.0647L12.5729 1.11197L9.37056 1.17764L6.39822 1.26137L3.84762 1.37716L1.52549 1.51134L0.887277 1.55835L0.887277 2.61396M35.526 1L24.3476 2.61396M90.6003 2.61396L123.726 2.61396M90.6003 2.61396L57.474 2.61396M90.6003 2.61396L80.15 4.28121M123.726 2.61396L113.826 4.28121M123.726 2.61396L156.852 2.61396M223.105 2.61396L256.231 2.61396M223.105 2.61396L189.979 2.61396M223.105 2.61396L221.068 3.02569L214.856 4.28121M256.231 2.61396L248.532 4.28121M256.231 2.61396L289.358 2.61396M355.611 2.61396L388.737 2.61396M355.611 2.61396L322.484 2.61396M355.611 2.61396L354.117 3.02569L353.365 3.23252L349.56 4.28121M388.737 2.61396L388.059 2.81919L387.379 3.02569L383.237 4.28121M388.737 2.61396L421.863 2.61396M488.116 2.61396L487.641 2.81919L484.266 4.28121M488.116 2.61396L521.242 2.61396M488.116 2.61396L454.99 2.61396M521.242 2.61396L520.428 3.02569L520.017 3.23252L519.606 3.44061L517.942 4.28121M521.242 2.61396L554.368 2.61396M620.621 2.61396L653.747 2.61396M620.621 2.61396L587.495 2.61396M620.621 2.61396L618.971 4.28121M653.747 2.61396L653.612 2.81919L653.476 3.02569L653.339 3.23252L652.926 3.85901L652.648 4.28121M653.747 2.61396L686.874 2.61396M753.126 2.61396L786.253 2.61396M753.126 2.61396L720 2.61396M753.126 2.61396L753.676 4.28121M786.253 2.61396L786.388 2.81919L786.524 3.02569L786.661 3.23252L787.352 4.28121M786.253 2.61396L819.379 2.61396M885.632 2.61396L918.758 2.61396M885.632 2.61396L852.505 2.61396M885.632 2.61396L886.311 3.02569L887.686 3.85901L888.033 4.06963L888.382 4.28121M918.758 2.61396L919.573 3.02569L919.983 3.23252L920.394 3.44061L922.058 4.28121M918.758 2.61396L951.884 2.61396M1018.14 2.61396L1051.26 2.61396M1018.14 2.61396L985.01 2.61396M1018.14 2.61396L1019.36 3.02569L1019.97 3.23252L1023.09 4.28121M1051.26 2.61396L1051.94 2.81919L1052.62 3.02569L1056.76 4.28121M1051.26 2.61396L1084.39 2.61396M1150.64 2.61396L1183.77 2.61396M1150.64 2.61396L1117.52 2.61396M1150.64 2.61396L1152.41 3.02569L1153.3 3.23252L1157.79 4.28121M1183.77 2.61396L1191.47 4.28121M1183.77 2.61396L1216.89 2.61396M1283.15 2.61396L1316.27 2.61396M1283.15 2.61396L1250.02 2.61396M1283.15 2.61396L1292.5 4.28121M1316.27 2.61396L1326.17 4.28121M1316.27 2.61396L1349.4 2.61396M0.771171 17.7068H0.887277M34.1133 17.7068L46.7607 15.5767M34.1133 17.7068L20.9812 19.9184M34.1133 17.7068L72.218 17.7068M34.1133 17.7068L0.887277 17.7068M46.7607 15.5767L9.35857 15.5767M46.7607 15.5767L58.9504 13.5237M46.7607 15.5767L84.1628 15.5767M9.35857 15.5767L22.2254 13.5237M9.35857 15.5767L0.887277 15.5767M9.35857 15.5767L0.887277 16.9281M46.6094 9.63285L82.0511 9.63285M46.6094 9.63285L58.1736 7.78764M46.6094 9.63285L11.1683 9.63285M46.6094 9.63285L34.6339 11.5437M82.0511 9.63285L93.0071 7.78764M82.0511 9.63285L70.7064 11.5437M82.0511 9.63285L117.493 9.63285M58.1736 7.78764L93.0071 7.78764M58.1736 7.78764L69.3476 6.00492M58.1736 7.78764L23.3408 7.78764M93.0071 7.78764L127.84 7.78764M93.0071 7.78764L103.592 6.00492M0.522477 51.3278H0.887277M31.269 51.3278L47.5779 47.7963M31.269 51.3278L14.1497 55.035M31.269 51.3278H80.4646M31.269 51.3278L0.887277 51.3278M47.5779 47.7963L63.1325 44.4282M47.5779 47.7963L95.6079 47.7963M47.5779 47.7963L0.887277 47.7963M16.2134 44.4282L63.1325 44.4282M16.2134 44.4282L32.1252 41.2123M16.2134 44.4282H0.887277M16.2134 44.4282L0.887277 47.5256M47.333 38.1385L92.1771 38.1385M47.333 38.1385L61.883 35.198M47.333 38.1385L2.4888 38.1385M47.333 38.1385L32.1252 41.2123M92.1771 38.1385L105.758 35.198M92.1771 38.1385L77.9829 41.2123M92.1771 38.1385H137.022M61.883 35.198L105.758 35.198M61.883 35.198L18.0089 35.198M61.883 35.198L75.8173 32.3818M105.758 35.198L118.763 32.3818M105.758 35.198L149.632 35.198M101.987 27.0927L143.188 27.0927M101.987 27.0927L114.291 24.6061M101.987 27.0927L60.7864 27.0927M101.987 27.0927L89.1734 29.6824M143.188 27.0927L154.671 24.6061M143.188 27.0927L131.229 29.6824M143.188 27.0927L184.389 27.0927M114.291 24.6061L154.671 24.6061M114.291 24.6061L73.9102 24.6061M114.291 24.6061L126.114 22.2165M154.671 24.6061L165.706 22.2165M154.671 24.6061L195.052 24.6061M148.427 17.7068L186.532 17.7068M148.427 17.7068L158.967 15.5767M148.427 17.7068L110.323 17.7068M148.427 17.7068L137.484 19.9184M186.532 17.7068L196.369 15.5767M186.532 17.7068L176.319 19.9184M186.532 17.7068L224.637 17.7068M158.967 15.5767L196.369 15.5767M158.967 15.5767L121.565 15.5767M158.967 15.5767L169.125 13.5237M196.369 15.5767L205.85 13.5237M196.369 15.5767L233.771 15.5767M188.376 9.63285L223.817 9.63285M188.376 9.63285L197.505 7.78764M188.376 9.63285L152.935 9.63285M188.376 9.63285L178.922 11.5437M223.817 9.63285L232.338 7.78764M223.817 9.63285L214.993 11.5437M223.817 9.63285L259.259 9.63285M197.505 7.78764L232.338 7.78764M197.505 7.78764L206.327 6.00492M197.505 7.78764L162.673 7.78764M232.338 7.78764L267.172 7.78764M232.338 7.78764L240.572 6.00492M26.0914 112.554L49.0446 105.595M26.0914 112.554L1.51126 120.005M26.0914 112.554L95.4821 112.554M26.0914 112.554H0.887277M49.0446 105.595L70.5288 99.082M49.0446 105.595L116.14 105.595M49.0446 105.595H0.887277M48.5787 87.2317L109.617 87.2317M48.5787 87.2317L68.1932 81.8262M48.5787 87.2317L27.7469 92.9732M48.5787 87.2317H0.887277M109.617 87.2317L127.448 81.8262M109.617 87.2317L90.679 92.9732M109.617 87.2317H170.656M68.1932 81.8262H127.448M68.1932 81.8262L8.93834 81.8262M68.1932 81.8262L86.6947 76.727M127.448 81.8262L144.268 76.727M127.448 81.8262L186.704 81.8262M120.715 67.351L175.196 67.351M120.715 67.351L136.391 63.0309M120.715 67.351H66.2344M120.715 67.351L104.174 71.9099M175.196 67.351L189.446 63.0309M175.196 67.351L160.158 71.9099M175.196 67.351H229.676M136.391 63.0309L189.446 63.0309M136.391 63.0309L83.3351 63.0309M136.391 63.0309L151.267 58.931M189.446 63.0309L202.97 58.931M189.446 63.0309L242.501 63.0309M178.854 51.3278L228.05 51.3278M178.854 51.3278L191.669 47.7963M178.854 51.3278L129.659 51.3278M178.854 51.3278L165.404 55.035M228.05 51.3278L239.699 47.7963M228.05 51.3278L215.821 55.035M228.05 51.3278L277.245 51.3278M191.669 47.7963L239.699 47.7963M191.669 47.7963L143.639 47.7963M191.669 47.7963L203.89 44.4282M239.699 47.7963L250.809 44.4282M239.699 47.7963L287.729 47.7963M226.711 38.1385L271.555 38.1385M226.711 38.1385L237.381 35.198M226.711 38.1385L181.866 38.1385M226.711 38.1385L215.558 41.2123M271.555 38.1385L281.256 35.198M271.555 38.1385L261.417 41.2123M271.555 38.1385H316.399M237.381 35.198L281.256 35.198M237.381 35.198L193.507 35.198M237.381 35.198L247.599 32.3818M281.256 35.198L290.545 32.3818M281.256 35.198L325.13 35.198M266.79 27.0927L307.991 27.0927M266.79 27.0927L275.813 24.6061M266.79 27.0927L225.59 27.0927M266.79 27.0927L257.394 29.6824M307.991 27.0927L309.035 26.7764L316.194 24.6061M307.991 27.0927L299.449 29.6824M307.991 27.0927L349.193 27.0927M275.813 24.6061L316.194 24.6061M275.813 24.6061L235.433 24.6061M275.813 24.6061L284.484 22.2165M316.194 24.6061L324.076 22.2165M316.194 24.6061L356.575 24.6061M300.846 17.7068L338.952 17.7068M300.846 17.7068L308.576 15.5767M300.846 17.7068L262.742 17.7068M300.846 17.7068L292.822 19.9184M338.952 17.7068L345.978 15.5767M338.952 17.7068L336.249 18.5264L331.656 19.9184M338.952 17.7068L377.057 17.7068M308.576 15.5767L345.978 15.5767M308.576 15.5767L271.174 15.5767M308.576 15.5767L316.025 13.5237M345.978 15.5767L352.75 13.5237M345.978 15.5767L383.38 15.5767M330.142 9.63285L365.584 9.63285M330.142 9.63285L336.837 7.78764M330.142 9.63285L294.701 9.63285M330.142 9.63285L323.209 11.5437M365.584 9.63285L370.169 8.24315L370.921 8.01476L371.671 7.78764M365.584 9.63285L359.281 11.5437M365.584 9.63285L401.026 9.63285M336.837 7.78764L371.671 7.78764M336.837 7.78764L343.306 6.00492M336.837 7.78764L302.004 7.78764M371.671 7.78764L406.504 7.78764M371.671 7.78764L377.551 6.00492M51.2327 191.822L146.771 191.822M51.2327 191.822L81.3155 178.793M51.2327 191.822L18.1759 206.138M51.2327 191.822L0.887277 191.822M146.771 191.822L172.557 178.793M146.771 191.822L118.437 206.138M146.771 191.822H242.309M81.3155 178.793L172.557 178.793M81.3155 178.793L108.809 166.886M81.3155 178.793H0.887277M172.557 178.793L196.122 166.886M172.557 178.793H263.797M157.257 145.904H237.649M157.257 145.904L178.71 136.613M157.257 145.904L76.8653 145.904M157.257 145.904L134.033 155.962M237.649 145.904L256.037 136.613M237.649 145.904L217.742 155.962M237.649 145.904H318.041M178.71 136.613H256.037M178.71 136.613L101.383 136.613M178.71 136.613L198.589 128.004M256.037 136.613L273.076 128.004M256.037 136.613H333.365M234.264 112.554L303.655 112.554M234.264 112.554L250.332 105.595M234.264 112.554L164.873 112.554M234.264 112.554L217.058 120.005M303.655 112.554L317.427 105.595M303.655 112.554L288.907 120.005M303.655 112.554H373.045M250.332 105.595L317.427 105.595M250.332 105.595H183.236M250.332 105.595L265.37 99.082M317.427 105.595L330.317 99.082M317.427 105.595H384.523M292.732 87.2317H353.77M292.732 87.2317L305.214 81.8262M292.732 87.2317L231.694 87.2317M292.732 87.2317L279.475 92.9732M353.77 87.2317L364.469 81.8262M353.77 87.2317L342.407 92.9732M353.77 87.2317L414.809 87.2317M305.214 81.8262H364.469M305.214 81.8262L245.959 81.8262M305.214 81.8262L316.988 76.727M364.469 81.8262L374.561 76.727M364.469 81.8262L423.724 81.8262M338.637 67.351H393.118M338.637 67.351L348.612 63.0309M338.637 67.351L284.156 67.351M338.637 67.351L328.111 71.9099M393.118 67.351L401.668 63.0309M393.118 67.351L384.095 71.9099M393.118 67.351L447.598 67.351M348.612 63.0309L401.668 63.0309M348.612 63.0309L295.556 63.0309M348.612 63.0309L358.079 58.931M401.668 63.0309L409.782 58.931M401.668 63.0309L454.723 63.0309M375.635 51.3278L424.83 51.3278M375.635 51.3278L383.789 47.7963M375.635 51.3278H326.439M375.635 51.3278L367.075 55.035M424.83 51.3278L431.819 47.7963M424.83 51.3278L417.493 55.035M424.83 51.3278L474.025 51.3278M383.789 47.7963H431.819M383.789 47.7963L335.759 47.7963M383.789 47.7963L391.566 44.4282M431.819 47.7963L438.485 44.4282M431.819 47.7963L479.849 47.7963M406.089 38.1385L450.934 38.1385M406.089 38.1385L412.879 35.198M406.089 38.1385L361.244 38.1385M406.089 38.1385L398.992 41.2123M450.934 38.1385L456.753 35.198M450.934 38.1385L444.85 41.2123M450.934 38.1385L495.778 38.1385M412.879 35.198L456.753 35.198M412.879 35.198L369.004 35.198M412.879 35.198L419.382 32.3818M456.753 35.198L462.327 32.3818M456.753 35.198L500.628 35.198M431.594 27.0927L472.795 27.0927M431.594 27.0927L437.336 24.6061M431.594 27.0927L390.393 27.0927M431.594 27.0927L425.614 29.6824M472.795 27.0927L472.165 27.4105L467.669 29.6824M472.795 27.0927L477.716 24.6061M472.795 27.0927L513.996 27.0927M437.336 24.6061L477.716 24.6061M437.336 24.6061L396.955 24.6061M437.336 24.6061L442.853 22.2165M477.716 24.6061L482.446 22.2165M477.716 24.6061L518.097 24.6061M453.266 17.7068L491.371 17.7068M453.266 17.7068L458.185 15.5767M453.266 17.7068L415.161 17.7068M453.266 17.7068L448.16 19.9184M491.371 17.7068L495.587 15.5767M491.371 17.7068L489.749 18.5264L488.655 19.0793L486.994 19.9184M491.371 17.7068L529.476 17.7068M458.185 15.5767L495.587 15.5767M458.185 15.5767L420.782 15.5767M458.185 15.5767L462.925 13.5237M495.587 15.5767L497.128 14.798L498.144 14.2847L499.65 13.5237M495.587 15.5767L532.989 15.5767M471.909 9.63285L507.35 9.63285M471.909 9.63285L475.118 8.24315L476.169 7.78764M471.909 9.63285L436.467 9.63285M471.909 9.63285L468.057 11.3011L467.497 11.5437M507.35 9.63285L510.101 8.24315L510.553 8.01476L511.003 7.78764M507.35 9.63285L505.476 10.5797L503.569 11.5437M507.35 9.63285L542.792 9.63285M476.169 7.78764L511.003 7.78764M476.169 7.78764L480.286 6.00492M476.169 7.78764L441.336 7.78764M511.003 7.78764L545.835 7.78764M511.003 7.78764L514.531 6.00492M433.386 191.822H528.924M433.386 191.822L446.278 178.793M433.386 191.822L337.848 191.822M433.386 191.822L419.218 206.138M528.924 191.822L537.519 178.793M528.924 191.822L519.479 206.138M528.924 191.822L624.462 191.822M446.278 178.793H537.519M446.278 178.793H355.038M446.278 178.793L458.061 166.886M537.519 178.793L545.374 166.886M537.519 178.793L628.76 178.793M478.825 145.904H559.216M478.825 145.904L488.019 136.613M478.825 145.904H398.432M478.825 145.904L468.871 155.962M559.216 145.904L565.346 136.613M559.216 145.904L552.581 155.962M559.216 145.904L639.608 145.904M488.019 136.613H565.346M488.019 136.613H410.692M488.019 136.613L496.538 128.004M565.346 136.613L571.025 128.004M565.346 136.613L642.673 136.613M511.827 112.554L581.218 112.554M511.827 112.554L518.714 105.595M511.827 112.554H442.437M511.827 112.554L504.453 120.005M581.218 112.554L585.809 105.595M581.218 112.554L576.303 120.005M581.218 112.554L650.609 112.554M518.714 105.595L585.809 105.595M518.714 105.595H451.618M518.714 105.595L525.159 99.082M585.809 105.595L590.106 99.082M585.809 105.595L652.905 105.595M536.885 87.2317H597.923M536.885 87.2317L542.235 81.8262M536.885 87.2317L475.847 87.2317M536.885 87.2317L531.204 92.9732M597.923 87.2317L601.49 81.8262M597.923 87.2317L594.136 92.9732M597.923 87.2317L658.962 87.2317M542.235 81.8262H601.49M542.235 81.8262L482.98 81.8262M542.235 81.8262L547.28 76.727M601.49 81.8262L604.854 76.727M601.49 81.8262L660.745 81.8262M556.558 67.351H611.039M556.558 67.351L560.833 63.0309M556.558 67.351L502.078 67.351M556.558 67.351L552.048 71.9099M611.039 67.351L613.889 63.0309M611.039 67.351L608.032 71.9099M611.039 67.351L665.52 67.351M560.833 63.0309L613.889 63.0309M560.833 63.0309L507.779 63.0309M560.833 63.0309L564.891 58.931M613.889 63.0309L616.594 58.931M613.889 63.0309H666.945M572.415 51.3278L621.61 51.3278M572.415 51.3278L575.909 47.7963M572.415 51.3278L523.22 51.3278M572.415 51.3278L568.747 55.035M621.61 51.3278L623.94 47.7963M621.61 51.3278L619.164 55.035M621.61 51.3278L670.805 51.3278M575.909 47.7963L623.94 47.7963M575.909 47.7963L527.879 47.7963M575.909 47.7963L577.178 46.5148L579.243 44.4282M623.94 47.7963L626.162 44.4282M623.94 47.7963L671.97 47.7963M585.467 38.1385L630.311 38.1385M585.467 38.1385L588.377 35.198M585.467 38.1385L540.622 38.1385M585.467 38.1385L583.199 40.431L582.425 41.2123M630.311 38.1385L631.049 37.0207L632.251 35.198M630.311 38.1385L628.283 41.2123M630.311 38.1385L675.156 38.1385M588.377 35.198L588.731 34.8392L591.163 32.3818M588.377 35.198L632.251 35.198M588.377 35.198L544.502 35.198M632.251 35.198L632.957 34.1277L633.19 33.7747L633.422 33.4239L634.109 32.3818M632.251 35.198L676.126 35.198M596.397 27.0927L637.598 27.0927M596.397 27.0927L597.64 25.8368L597.947 25.5269L598.252 25.2183L598.556 24.9115L598.858 24.6061M596.397 27.0927L555.197 27.0927M596.397 27.0927L593.835 29.6824M637.598 27.0927L638.835 25.2183L639.038 24.9115L639.238 24.6061M637.598 27.0927L635.89 29.6824M637.598 27.0927L678.799 27.0927M598.858 24.6061L639.238 24.6061M598.858 24.6061L558.478 24.6061M598.858 24.6061L600.347 23.1015L600.64 22.805L601.223 22.2165M639.238 24.6061L640.231 23.1015L640.427 22.805L640.621 22.51L640.815 22.2165M639.238 24.6061L679.62 24.6061M605.686 17.7068L643.791 17.7068M605.686 17.7068L607.794 15.5767M605.686 17.7068L567.58 17.7068M605.686 17.7068L605.146 18.2517L604.327 19.0793L603.497 19.9184M643.791 17.7068L643.611 17.9786L642.516 19.6373L642.331 19.9184M643.791 17.7068L645.196 15.5767M643.791 17.7068L681.895 17.7068M607.794 15.5767L645.196 15.5767M607.794 15.5767L570.392 15.5767M607.794 15.5767L609.825 13.5237M645.196 15.5767L645.71 14.798L645.879 14.5407L646.048 14.2847L646.55 13.5237M645.196 15.5767L682.598 15.5767M613.675 9.63285L649.117 9.63285M613.675 9.63285L615.051 8.24315L615.501 7.78764M613.675 9.63285L578.234 9.63285M613.675 9.63285L612.974 10.3415L612.738 10.5797L612.501 10.8192L611.784 11.5437M649.117 9.63285L649.272 9.39875L649.578 8.9334L649.883 8.47218L650.334 7.78764M649.117 9.63285L648.492 10.5797L648.334 10.8192L648.016 11.3011L647.857 11.5437M649.117 9.63285L684.558 9.63285M615.501 7.78764L650.334 7.78764M615.501 7.78764L617.048 6.22444L617.266 6.00492M615.501 7.78764L580.668 7.78764M650.334 7.78764L650.484 7.56147L650.632 7.33625L650.78 7.11198L650.927 6.88867L651.365 6.22444L651.511 6.00492M650.334 7.78764L685.167 7.78764M815.538 191.822H911.077M815.538 191.822L811.24 178.793M815.538 191.822L720 191.822M815.538 191.822L820.261 206.138M911.077 191.822L902.482 178.793M911.077 191.822L920.521 206.138M911.077 191.822H1006.61M811.24 178.793L902.482 178.793M811.24 178.793H720M811.24 178.793L807.313 166.886M902.482 178.793L894.626 166.886M902.482 178.793H993.722M800.392 145.904L880.784 145.904M800.392 145.904L797.327 136.613M800.392 145.904H720M800.392 145.904L803.71 155.962M880.784 145.904L874.654 136.613M880.784 145.904L887.419 155.962M880.784 145.904H961.175M797.327 136.613L874.654 136.613M797.327 136.613H720M797.327 136.613L794.487 128.004M874.654 136.613L868.975 128.004M874.654 136.613H951.981M789.391 112.554H858.782M789.391 112.554L787.096 105.595M789.391 112.554L720 112.554M789.391 112.554L791.849 120.005M858.782 112.554L854.191 105.595M858.782 112.554L863.697 120.005M858.782 112.554L928.173 112.554M787.096 105.595H854.191M787.096 105.595L720 105.595M787.096 105.595L784.947 99.082M854.191 105.595L849.894 99.082M854.191 105.595L921.286 105.595M781.038 87.2317H842.077M781.038 87.2317L779.255 81.8262M781.038 87.2317L720 87.2317M781.038 87.2317L782.932 92.9732M842.077 87.2317L838.511 81.8262M842.077 87.2317L845.864 92.9732M842.077 87.2317L903.115 87.2317M779.255 81.8262H838.511M779.255 81.8262L720 81.8262M779.255 81.8262L777.573 76.727M838.511 81.8262L835.146 76.727M838.511 81.8262L897.765 81.8262M774.48 67.351H828.961M774.48 67.351L773.056 63.0309M774.48 67.351L720 67.351M774.48 67.351L775.984 71.9099M828.961 67.351L826.111 63.0309M828.961 67.351L831.968 71.9099M828.961 67.351L883.442 67.351M773.056 63.0309L826.111 63.0309M773.056 63.0309L720 63.0309M773.056 63.0309L771.703 58.931M826.111 63.0309L823.406 58.931M826.111 63.0309L879.167 63.0309M769.195 51.3278L818.39 51.3278M769.195 51.3278L768.03 47.7963M769.195 51.3278L720 51.3278M769.195 51.3278L770.418 55.035M818.39 51.3278L816.06 47.7963M818.39 51.3278L820.836 55.035M818.39 51.3278L867.585 51.3278M768.03 47.7963L816.06 47.7963M768.03 47.7963L720 47.7963M768.03 47.7963L766.919 44.4282M816.06 47.7963L813.838 44.4282M816.06 47.7963L864.091 47.7963M764.844 38.1385L809.689 38.1385M764.844 38.1385L763.874 35.198M764.844 38.1385L720 38.1385M764.844 38.1385L765.858 41.2123M809.689 38.1385L807.986 35.5587L807.749 35.198M809.689 38.1385L811.717 41.2123M809.689 38.1385L854.533 38.1385M763.874 35.198L763.757 34.8392L762.945 32.3818M763.874 35.198L807.749 35.198M763.874 35.198L720 35.198M807.749 35.198L807.043 34.1277L806.81 33.7747L806.578 33.4239L805.891 32.3818M807.749 35.198L851.623 35.198M761.201 27.0927L802.402 27.0927M761.201 27.0927L760.381 24.6061M761.201 27.0927L720 27.0927M761.201 27.0927L761.517 28.0513L761.624 28.3742L761.73 28.6987L761.946 29.3528L762.055 29.6824M802.402 27.0927L801.165 25.2183L800.761 24.6061M802.402 27.0927L804.11 29.6824M802.402 27.0927L843.603 27.0927M760.381 24.6061L800.761 24.6061M760.381 24.6061L720 24.6061M760.381 24.6061L759.592 22.2165M800.761 24.6061L799.769 23.1015L799.573 22.805L799.379 22.51L799.185 22.2165M800.761 24.6061L841.142 24.6061M758.105 17.7068L796.21 17.7068M758.105 17.7068L757.402 15.5767M758.105 17.7068L720 17.7068M758.105 17.7068L758.834 19.9184M796.21 17.7068L796.389 17.9786L797.484 19.6373L797.669 19.9184M796.21 17.7068L794.804 15.5767M796.21 17.7068L834.314 17.7068M757.402 15.5767L794.804 15.5767M757.402 15.5767L720 15.5767M757.402 15.5767L756.725 13.5237M794.804 15.5767L794.29 14.798L794.121 14.5407L793.952 14.2847L793.45 13.5237M794.804 15.5767L832.206 15.5767M755.442 9.63285L790.884 9.63285M755.442 9.63285L754.833 7.78764M755.442 9.63285L720 9.63285M755.442 9.63285L756.072 11.5437M790.884 9.63285L790.729 9.39875L790.421 8.9334L790.269 8.70215L789.966 8.24315L789.816 8.01476L789.666 7.78764M790.884 9.63285L791.508 10.5797L791.666 10.8192L791.984 11.3011L792.144 11.5437M790.884 9.63285L826.325 9.63285M754.833 7.78764L754.759 7.56147L754.684 7.33625L754.61 7.11198L754.245 6.00492M754.833 7.78764L789.666 7.78764M754.833 7.78764L720 7.78764M789.666 7.78764L824.499 7.78764M789.666 7.78764L789.368 7.33625L789.22 7.11198L789.073 6.88867L788.635 6.22444L788.489 6.00492M1197.69 191.822L1293.23 191.822M1197.69 191.822L1176.2 178.793M1197.69 191.822H1102.15M1197.69 191.822L1221.3 206.138M1293.23 191.822L1267.44 178.793M1293.23 191.822L1321.56 206.138M1293.23 191.822H1388.77M1176.2 178.793H1267.44M1176.2 178.793H1084.96M1176.2 178.793L1156.57 166.886M1267.44 178.793L1243.88 166.886M1267.44 178.793L1358.68 178.793M1121.96 145.904H1202.35M1121.96 145.904L1106.64 136.613M1121.96 145.904L1041.57 145.904M1121.96 145.904L1138.55 155.962M1202.35 145.904L1183.96 136.613M1202.35 145.904L1222.26 155.962M1202.35 145.904L1282.74 145.904M1106.64 136.613H1183.96M1106.64 136.613L1029.31 136.613M1106.64 136.613L1092.44 128.004M1183.96 136.613L1166.92 128.004M1183.96 136.613H1261.29M1066.95 112.554L1136.35 112.554M1066.95 112.554L1055.48 105.595M1066.95 112.554H997.563M1066.95 112.554L1079.24 120.005M1136.35 112.554L1122.57 105.595M1136.35 112.554L1151.09 120.005M1136.35 112.554H1205.74M1055.48 105.595L1122.57 105.595M1055.48 105.595H988.382M1055.48 105.595L1044.74 99.082M1122.57 105.595L1109.68 99.082M1122.57 105.595H1189.67M1025.19 87.2317H1086.23M1025.19 87.2317L1016.28 81.8262M1025.19 87.2317L964.153 87.2317M1025.19 87.2317L1034.66 92.9732M1086.23 87.2317L1075.53 81.8262M1086.23 87.2317L1097.59 92.9732M1086.23 87.2317L1147.27 87.2317M1016.28 81.8262H1075.53M1016.28 81.8262L957.02 81.8262M1016.28 81.8262L1007.87 76.727M1075.53 81.8262L1065.44 76.727M1075.53 81.8262L1134.79 81.8262M992.402 67.351H1046.88M992.402 67.351L985.277 63.0309M992.402 67.351L937.922 67.351M992.402 67.351L999.921 71.9099M1046.88 67.351L1038.33 63.0309M1046.88 67.351L1055.91 71.9099M1046.88 67.351H1101.36M985.277 63.0309L1038.33 63.0309M985.277 63.0309L932.221 63.0309M985.277 63.0309L978.515 58.931M1038.33 63.0309L1030.22 58.931M1038.33 63.0309L1091.39 63.0309M965.976 51.3278H1015.17M965.976 51.3278L960.151 47.7963M965.976 51.3278L916.78 51.3278M965.976 51.3278L972.09 55.035M1015.17 51.3278L1008.18 47.7963M1015.17 51.3278L1022.51 55.035M1015.17 51.3278L1064.37 51.3278M960.151 47.7963H1008.18M960.151 47.7963L912.121 47.7963M960.151 47.7963L954.596 44.4282M1008.18 47.7963L1001.51 44.4282M1008.18 47.7963L1056.21 47.7963M944.222 38.1385L944.843 38.5154L945.469 38.8941L949.291 41.2123M944.222 38.1385L989.067 38.1385M944.222 38.1385L939.372 35.198M944.222 38.1385L899.378 38.1385M989.067 38.1385L983.247 35.198M989.067 38.1385L995.15 41.2123M989.067 38.1385L1033.91 38.1385M939.372 35.198L983.247 35.198M939.372 35.198L895.498 35.198M939.372 35.198L934.728 32.3818M983.247 35.198L977.673 32.3818M983.247 35.198L1027.12 35.198M926.004 27.0927L967.206 27.0927M926.004 27.0927L921.903 24.6061M926.004 27.0927L884.803 27.0927M926.004 27.0927L930.275 29.6824M967.206 27.0927L964.106 25.5269L962.284 24.6061M967.206 27.0927L972.331 29.6824M967.206 27.0927L1008.41 27.0927M921.903 24.6061L962.284 24.6061M921.903 24.6061L881.522 24.6061M921.903 24.6061L918.447 22.51L917.962 22.2165M962.284 24.6061L957.554 22.2165M962.284 24.6061L1002.66 24.6061M910.524 17.7068L948.629 17.7068M910.524 17.7068L909.634 17.1666L907.011 15.5767M910.524 17.7068L872.42 17.7068M910.524 17.7068L911.423 18.2517L913.247 19.3575L914.172 19.9184M948.629 17.7068L944.413 15.5767M948.629 17.7068L950.251 18.5264L951.345 19.0793L953.006 19.9184M948.629 17.7068L986.734 17.7068M907.011 15.5767L944.413 15.5767M907.011 15.5767L869.608 15.5767M907.011 15.5767L904.46 14.0297L903.625 13.5237M944.413 15.5767L942.872 14.798L941.856 14.2847L940.35 13.5237M944.413 15.5767L981.815 15.5767M897.208 9.63285L932.65 9.63285M897.208 9.63285L895.293 8.47218L894.165 7.78764M897.208 9.63285L861.766 9.63285M897.208 9.63285L900.36 11.5437M932.65 9.63285L929.899 8.24315L929.448 8.01476L928.997 7.78764M932.65 9.63285L934.524 10.5797L936.431 11.5437M932.65 9.63285L968.091 9.63285M894.165 7.78764L928.997 7.78764M894.165 7.78764L892.682 6.88867L891.95 6.44489L891.586 6.22444L891.225 6.00492M894.165 7.78764L859.332 7.78764M928.997 7.78764L963.831 7.78764M928.997 7.78764L925.469 6.00492M1415.94 136.613H1338.62M1415.94 136.613L1390.39 128.004M1415.94 136.613H1439.11M1415.94 136.613L1439.11 144.417M1344.52 112.554H1413.91M1344.52 112.554L1323.86 105.595M1344.52 112.554L1275.13 112.554M1344.52 112.554L1366.64 120.005M1413.91 112.554L1390.96 105.595M1413.91 112.554L1438.49 120.005M1413.91 112.554H1439.11M1323.86 105.595L1390.96 105.595M1323.86 105.595H1256.76M1323.86 105.595L1304.52 99.082M1390.96 105.595L1369.47 99.082M1390.96 105.595H1439.11M1269.34 87.2317H1330.38M1269.34 87.2317L1253.3 81.8262M1269.34 87.2317L1208.31 87.2317M1269.34 87.2317L1286.39 92.9732M1330.38 87.2317L1312.55 81.8262M1330.38 87.2317L1349.32 92.9732M1330.38 87.2317L1391.42 87.2317M1253.3 81.8262H1312.55M1253.3 81.8262L1194.04 81.8262M1253.3 81.8262L1238.16 76.727M1312.55 81.8262L1295.73 76.727M1312.55 81.8262L1371.81 81.8262M1210.32 67.351L1264.8 67.351M1210.32 67.351L1197.5 63.0309M1210.32 67.351H1155.84M1210.32 67.351L1223.86 71.9099M1264.8 67.351L1250.55 63.0309M1264.8 67.351L1279.84 71.9099M1264.8 67.351H1319.29M1197.5 63.0309L1250.55 63.0309M1197.5 63.0309L1144.44 63.0309M1197.5 63.0309L1185.33 58.931M1250.55 63.0309L1237.03 58.931M1250.55 63.0309H1303.61M1162.76 51.3278L1211.95 51.3278M1162.76 51.3278L1152.27 47.7963M1162.76 51.3278L1113.56 51.3278M1162.76 51.3278L1173.76 55.035M1211.95 51.3278L1200.3 47.7963M1211.95 51.3278L1224.18 55.035M1211.95 51.3278L1261.15 51.3278M1152.27 47.7963L1200.3 47.7963M1152.27 47.7963L1104.24 47.7963M1152.27 47.7963L1142.27 44.4282M1200.3 47.7963L1189.19 44.4282M1200.3 47.7963L1248.33 47.7963M1123.6 38.1385L1168.44 38.1385M1123.6 38.1385L1114.87 35.198M1123.6 38.1385H1078.76M1123.6 38.1385L1132.73 41.2123M1168.44 38.1385L1158.74 35.198M1168.44 38.1385L1178.58 41.2123M1168.44 38.1385L1213.29 38.1385M1114.87 35.198L1158.74 35.198M1114.87 35.198L1071 35.198M1114.87 35.198L1106.51 32.3818M1158.74 35.198L1149.45 32.3818M1158.74 35.198L1202.62 35.198M1090.81 27.0927L1132.01 27.0927M1090.81 27.0927L1083.43 24.6061M1090.81 27.0927L1049.61 27.0927M1090.81 27.0927L1098.5 29.6824M1132.01 27.0927L1123.81 24.6061M1132.01 27.0927L1140.55 29.6824M1132.01 27.0927L1173.21 27.0927M1083.43 24.6061L1123.81 24.6061M1083.43 24.6061L1043.04 24.6061M1083.43 24.6061L1076.33 22.2165M1123.81 24.6061L1115.92 22.2165M1123.81 24.6061L1164.19 24.6061M1062.94 17.7068L1101.05 17.7068M1062.94 17.7068L1056.62 15.5767M1062.94 17.7068L1024.84 17.7068M1062.94 17.7068L1064.56 18.2517L1065.38 18.5264L1069.51 19.9184M1101.05 17.7068L1094.02 15.5767M1101.05 17.7068L1108.34 19.9184M1101.05 17.7068L1139.15 17.7068M1056.62 15.5767L1094.02 15.5767M1056.62 15.5767L1019.22 15.5767M1056.62 15.5767L1050.53 13.5237M1094.02 15.5767L1087.25 13.5237M1094.02 15.5767L1131.42 15.5767M1038.97 9.63285L1074.42 9.63285M1038.97 9.63285L1033.5 7.78764M1038.97 9.63285L1003.53 9.63285M1038.97 9.63285L1044.65 11.5437M1074.42 9.63285L1069.83 8.24315L1069.08 8.01476L1068.33 7.78764M1074.42 9.63285L1080.72 11.5437M1074.42 9.63285L1109.86 9.63285M1033.5 7.78764L1068.33 7.78764M1033.5 7.78764L1028.86 6.22444L1028.2 6.00492M1033.5 7.78764L998.664 7.78764M1068.33 7.78764L1103.16 7.78764M1068.33 7.78764L1062.45 6.00492M1428.25 67.351L1409.72 63.0309M1428.25 67.351H1373.77M1428.25 67.351L1439.11 69.8852M1428.25 67.351H1439.11M1409.72 63.0309L1356.66 63.0309M1409.72 63.0309L1392.14 58.931M1409.72 63.0309L1439.11 63.0309M1359.54 51.3278L1408.73 51.3278M1359.54 51.3278L1344.39 47.7963M1359.54 51.3278H1310.34M1359.54 51.3278L1375.43 55.035M1408.73 51.3278L1392.42 47.7963M1408.73 51.3278L1425.85 55.035M1408.73 51.3278L1439.11 51.3278M1344.39 47.7963L1392.42 47.7963M1344.39 47.7963L1296.36 47.7963M1344.39 47.7963L1329.95 44.4282M1392.42 47.7963L1376.87 44.4282M1392.42 47.7963L1439.11 47.7963M1302.98 38.1385L1347.82 38.1385M1302.98 38.1385L1290.37 35.198M1302.98 38.1385H1258.13M1302.98 38.1385L1316.16 41.2123M1347.82 38.1385L1334.24 35.198M1347.82 38.1385L1362.02 41.2123M1347.82 38.1385L1392.67 38.1385M1290.37 35.198L1334.24 35.198M1290.37 35.198L1246.49 35.198M1290.37 35.198L1278.29 32.3818M1334.24 35.198L1321.24 32.3818M1334.24 35.198L1378.12 35.198M1255.61 27.0927L1296.81 27.0927M1255.61 27.0927L1244.95 24.6061M1255.61 27.0927L1214.41 27.0927M1255.61 27.0927L1266.72 29.6824M1296.81 27.0927L1285.33 24.6061M1296.81 27.0927L1308.77 29.6824M1296.81 27.0927L1338.01 27.0927M1244.95 24.6061L1285.33 24.6061M1244.95 24.6061L1204.57 24.6061M1244.95 24.6061L1234.7 22.2165M1285.33 24.6061L1274.29 22.2165M1285.33 24.6061L1325.71 24.6061M1215.36 17.7068L1253.47 17.7068M1215.36 17.7068L1206.23 15.5767M1215.36 17.7068L1177.26 17.7068M1215.36 17.7068L1224.85 19.9184M1253.47 17.7068L1243.63 15.5767M1253.47 17.7068L1263.68 19.9184M1253.47 17.7068L1291.57 17.7068M1206.23 15.5767L1243.63 15.5767M1206.23 15.5767L1168.83 15.5767M1206.23 15.5767L1197.43 13.5237M1243.63 15.5767L1234.15 13.5237M1243.63 15.5767L1281.03 15.5767M1180.74 9.63285L1216.18 9.63285M1180.74 9.63285L1172.83 7.78764M1180.74 9.63285L1145.3 9.63285M1180.74 9.63285L1188.93 11.5437M1216.18 9.63285L1207.66 7.78764M1216.18 9.63285L1225.01 11.5437M1216.18 9.63285L1251.62 9.63285M1172.83 7.78764L1207.66 7.78764M1172.83 7.78764L1165.18 6.00492M1172.83 7.78764L1138 7.78764M1207.66 7.78764L1242.49 7.78764M1207.66 7.78764L1199.43 6.00492M1420.41 27.0927L1406.47 24.6061M1420.41 27.0927L1379.21 27.0927M1420.41 27.0927L1434.94 29.6824M1420.41 27.0927L1439.11 27.0927M1406.47 24.6061L1366.09 24.6061M1406.47 24.6061L1393.07 22.2165M1406.47 24.6061L1439.11 24.6061M1367.78 17.7068L1405.89 17.7068M1367.78 17.7068L1355.84 15.5767M1367.78 17.7068L1329.68 17.7068M1367.78 17.7068L1380.18 19.9184M1405.89 17.7068L1393.24 15.5767M1405.89 17.7068L1419.02 19.9184M1405.89 17.7068L1439.11 17.7068M1355.84 15.5767L1393.24 15.5767M1355.84 15.5767L1318.44 15.5767M1355.84 15.5767L1344.32 13.5237M1393.24 15.5767L1381.05 13.5237M1393.24 15.5767L1430.64 15.5767M1322.51 9.63285L1357.95 9.63285M1322.51 9.63285L1312.16 7.78764M1322.51 9.63285L1287.07 9.63285M1322.51 9.63285L1333.22 11.5437M1357.95 9.63285L1346.99 7.78764M1357.95 9.63285L1369.29 11.5437M1357.95 9.63285L1393.39 9.63285M1312.16 7.78764L1346.99 7.78764M1312.16 7.78764L1302.16 6.00492M1312.16 7.78764L1277.33 7.78764M1346.99 7.78764L1381.83 7.78764M1346.99 7.78764L1336.41 6.00492M1369.29 11.5437L1381.05 13.5237M1369.29 11.5437L1405.37 11.5437M1369.29 11.5437L1333.22 11.5437M1393.39 9.63285L1381.83 7.78764M1393.39 9.63285L1405.37 11.5437M1393.39 9.63285L1428.83 9.63285M1381.83 7.78764L1416.66 7.78764M1381.83 7.78764L1370.65 6.00492M1336.41 6.00492L1302.16 6.00492M1336.41 6.00492L1370.65 6.00492M1336.41 6.00492L1326.17 4.28121M1405.37 11.5437L1417.78 13.5237M1405.37 11.5437L1439.11 11.5437M1428.83 9.63285L1416.66 7.78764M1428.83 9.63285L1439.11 11.1911M1428.83 9.63285L1439.11 9.63285M1416.66 7.78764L1404.9 6.00492M1416.66 7.78764L1439.11 7.78764M1370.65 6.00492L1404.9 6.00492M1370.65 6.00492L1359.85 4.28121M1404.9 6.00492L1393.53 4.28121M1404.9 6.00492L1439.11 6.00492M1381.05 13.5237L1417.78 13.5237M1381.05 13.5237L1344.32 13.5237M1430.64 15.5767L1417.78 13.5237M1430.64 15.5767L1439.11 16.9281M1430.64 15.5767H1439.11M1417.78 13.5237L1439.11 13.5237M1344.32 13.5237L1307.6 13.5237M1344.32 13.5237L1333.22 11.5437M1333.22 11.5437L1297.15 11.5437M1419.02 19.9184L1432.66 22.2165M1419.02 19.9184L1380.18 19.9184M1419.02 19.9184L1439.11 19.9184M1439.23 17.7068H1439.11M1432.66 22.2165L1393.07 22.2165M1432.66 22.2165L1439.11 23.3027M1432.66 22.2165L1439.11 22.2165M1393.07 22.2165L1353.48 22.2165M1393.07 22.2165L1380.18 19.9184M1380.18 19.9184L1341.35 19.9184M1225.01 11.5437L1234.15 13.5237M1225.01 11.5437L1261.08 11.5437M1225.01 11.5437L1188.93 11.5437M1251.62 9.63285L1242.49 7.78764M1251.62 9.63285L1261.08 11.5437M1251.62 9.63285L1287.07 9.63285M1242.49 7.78764L1277.33 7.78764M1242.49 7.78764L1233.67 6.00492M1199.43 6.00492L1233.67 6.00492M1199.43 6.00492L1191.47 4.28121M1199.43 6.00492L1165.18 6.00492M1261.08 11.5437L1270.87 13.5237M1261.08 11.5437L1297.15 11.5437M1287.07 9.63285L1277.33 7.78764M1287.07 9.63285L1297.15 11.5437M1277.33 7.78764L1267.92 6.00492M1233.67 6.00492L1267.92 6.00492M1233.67 6.00492L1225.14 4.28121M1297.15 11.5437L1307.6 13.5237M1302.16 6.00492L1267.92 6.00492M1302.16 6.00492L1292.5 4.28121M1267.92 6.00492L1258.82 4.28121M1234.15 13.5237L1270.87 13.5237M1234.15 13.5237L1197.43 13.5237M1281.03 15.5767L1270.87 13.5237M1281.03 15.5767L1291.57 17.7068M1281.03 15.5767L1318.44 15.5767M1270.87 13.5237L1307.6 13.5237M1197.43 13.5237L1160.7 13.5237M1197.43 13.5237L1188.93 11.5437M1307.6 13.5237L1318.44 15.5767M1188.93 11.5437L1152.86 11.5437M1291.57 17.7068L1302.52 19.9184M1291.57 17.7068L1329.68 17.7068M1318.44 15.5767L1329.68 17.7068M1329.68 17.7068L1341.35 19.9184M1263.68 19.9184L1274.29 22.2165M1263.68 19.9184L1302.52 19.9184M1263.68 19.9184L1224.85 19.9184M1302.52 19.9184L1313.89 22.2165M1302.52 19.9184L1341.35 19.9184M1341.35 19.9184L1353.48 22.2165M1274.29 22.2165L1313.89 22.2165M1274.29 22.2165L1234.7 22.2165M1325.71 24.6061L1313.89 22.2165M1325.71 24.6061L1338.01 27.0927M1325.71 24.6061L1366.09 24.6061M1313.89 22.2165L1353.48 22.2165M1234.7 22.2165L1195.11 22.2165M1234.7 22.2165L1224.85 19.9184M1353.48 22.2165L1366.09 24.6061M1224.85 19.9184L1186.01 19.9184M1338.01 27.0927L1350.83 29.6824M1338.01 27.0927L1379.21 27.0927M1366.09 24.6061L1379.21 27.0927M1379.21 27.0927L1392.88 29.6824M1308.77 29.6824L1321.24 32.3818M1308.77 29.6824L1350.83 29.6824M1308.77 29.6824L1266.72 29.6824M1350.83 29.6824L1364.18 32.3818M1350.83 29.6824L1392.88 29.6824M1392.88 29.6824L1407.13 32.3818M1392.88 29.6824L1434.94 29.6824M1434.94 29.6824L1439.11 29.6824M1434.94 29.6824L1439.11 30.427M1321.24 32.3818L1364.18 32.3818M1321.24 32.3818L1278.29 32.3818M1378.12 35.198L1364.18 32.3818M1378.12 35.198L1392.67 38.1385M1378.12 35.198H1421.99M1364.18 32.3818H1407.13M1278.29 32.3818H1235.35M1278.29 32.3818L1266.72 29.6824M1407.13 32.3818L1421.99 35.198M1407.13 32.3818L1439.11 32.3818M1266.72 29.6824L1224.66 29.6824M1392.67 38.1385L1407.87 41.2123M1392.67 38.1385L1437.51 38.1385M1421.99 35.198L1437.51 38.1385M1421.99 35.198L1439.11 35.198M1439.34 32.3818H1439.11M1437.51 38.1385L1439.11 38.442M1437.51 38.1385H1439.11M1362.02 41.2123L1376.87 44.4282M1362.02 41.2123L1407.87 41.2123M1362.02 41.2123H1316.16M1407.87 41.2123L1423.79 44.4282M1407.87 41.2123L1439.11 41.2123M1439.5 38.5154L1439.11 38.442M1376.87 44.4282L1423.79 44.4282M1376.87 44.4282L1329.95 44.4282M1423.79 44.4282H1439.11M1423.79 44.4282L1439.11 47.5256M1329.95 44.4282L1283.03 44.4282M1329.95 44.4282L1316.16 41.2123M1316.16 41.2123L1270.3 41.2123M1425.85 55.035L1375.43 55.035M1425.85 55.035L1439.11 57.9068M1425.85 55.035H1439.11M1439.48 51.3278H1439.11M1375.43 55.035L1325.01 55.035M1375.43 55.035L1392.14 58.931M1439.26 57.9384L1439.11 57.9068M1080.72 11.5437L1087.25 13.5237M1080.72 11.5437L1116.79 11.5437M1080.72 11.5437L1044.65 11.5437M1109.86 9.63285L1103.16 7.78764M1109.86 9.63285L1116.79 11.5437M1109.86 9.63285L1145.3 9.63285M1103.16 7.78764L1138 7.78764M1103.16 7.78764L1096.69 6.00492M1062.45 6.00492L1096.69 6.00492M1062.45 6.00492L1060.29 5.35179L1056.76 4.28121M1062.45 6.00492L1028.2 6.00492M1116.79 11.5437L1123.98 13.5237M1116.79 11.5437L1152.86 11.5437M1145.3 9.63285L1138 7.78764M1145.3 9.63285L1152.86 11.5437M1138 7.78764L1130.94 6.00492M1096.69 6.00492L1130.94 6.00492M1096.69 6.00492L1090.44 4.28121M1152.86 11.5437L1160.7 13.5237M1165.18 6.00492L1157.79 4.28121M1165.18 6.00492L1130.94 6.00492M1130.94 6.00492L1130.07 5.78605L1128.35 5.35179L1124.12 4.28121M1087.25 13.5237L1123.98 13.5237M1087.25 13.5237L1050.53 13.5237M1131.42 15.5767L1123.98 13.5237M1131.42 15.5767L1139.15 17.7068M1131.42 15.5767L1168.83 15.5767M1123.98 13.5237L1160.7 13.5237M1050.53 13.5237L1013.8 13.5237M1050.53 13.5237L1044.65 11.5437M1160.7 13.5237L1168.83 15.5767M1044.65 11.5437L1008.57 11.5437M1139.15 17.7068L1147.18 19.9184M1139.15 17.7068L1177.26 17.7068M1168.83 15.5767L1169.86 15.8384L1177.26 17.7068M1177.26 17.7068L1186.01 19.9184M1108.34 19.9184L1109.28 20.201L1115.92 22.2165M1108.34 19.9184L1147.18 19.9184M1108.34 19.9184L1069.51 19.9184M1147.18 19.9184L1155.52 22.2165M1147.18 19.9184L1186.01 19.9184M1186.01 19.9184L1195.11 22.2165M1115.92 22.2165L1155.52 22.2165M1115.92 22.2165L1076.33 22.2165M1164.19 24.6061L1155.52 22.2165M1164.19 24.6061L1173.21 27.0927M1164.19 24.6061L1204.57 24.6061M1155.52 22.2165L1195.11 22.2165M1076.33 22.2165L1036.74 22.2165M1076.33 22.2165L1069.51 19.9184M1195.11 22.2165L1204.57 24.6061M1069.51 19.9184L1030.68 19.9184M1173.21 27.0927L1182.61 29.6824M1173.21 27.0927L1214.41 27.0927M1204.57 24.6061L1214.41 27.0927M1214.41 27.0927L1224.66 29.6824M1140.55 29.6824L1149.45 32.3818M1140.55 29.6824L1182.61 29.6824M1140.55 29.6824L1098.5 29.6824M1182.61 29.6824L1192.4 32.3818M1182.61 29.6824L1224.66 29.6824M1224.66 29.6824L1235.35 32.3818M1149.45 32.3818H1192.4M1149.45 32.3818L1106.51 32.3818M1202.62 35.198L1192.4 32.3818M1202.62 35.198L1213.29 38.1385M1202.62 35.198H1246.49M1192.4 32.3818L1235.35 32.3818M1106.51 32.3818L1063.56 32.3818M1106.51 32.3818L1098.5 29.6824M1235.35 32.3818L1246.49 35.198M1098.5 29.6824L1056.44 29.6824M1213.29 38.1385L1224.44 41.2123M1213.29 38.1385L1258.13 38.1385M1246.49 35.198L1258.13 38.1385M1258.13 38.1385L1270.3 41.2123M1178.58 41.2123L1189.19 44.4282M1178.58 41.2123L1224.44 41.2123M1178.58 41.2123H1132.73M1224.44 41.2123L1236.11 44.4282M1224.44 41.2123L1270.3 41.2123M1270.3 41.2123L1283.03 44.4282M1189.19 44.4282L1236.11 44.4282M1189.19 44.4282H1142.27M1248.33 47.7963L1236.11 44.4282M1248.33 47.7963L1261.15 51.3278M1248.33 47.7963H1296.36M1236.11 44.4282L1283.03 44.4282M1142.27 44.4282L1095.35 44.4282M1142.27 44.4282L1132.73 41.2123M1283.03 44.4282L1296.36 47.7963M1132.73 41.2123L1086.87 41.2123M1261.15 51.3278L1274.6 55.035M1261.15 51.3278L1310.34 51.3278M1296.36 47.7963L1310.34 51.3278M1310.34 51.3278L1325.01 55.035M1224.18 55.035L1237.03 58.931M1224.18 55.035L1274.6 55.035M1224.18 55.035L1173.76 55.035M1274.6 55.035L1288.73 58.931M1274.6 55.035L1325.01 55.035M1325.01 55.035L1340.44 58.931M1237.03 58.931L1288.73 58.931M1237.03 58.931L1185.33 58.931M1303.61 63.0309L1288.73 58.931M1303.61 63.0309L1319.29 67.351M1303.61 63.0309L1356.66 63.0309M1288.73 58.931L1340.44 58.931M1185.33 58.931H1133.62M1185.33 58.931L1173.76 55.035M1340.44 58.931L1356.66 63.0309M1340.44 58.931L1392.14 58.931M1173.76 55.035L1123.34 55.035M1319.29 67.351L1335.83 71.9099M1319.29 67.351L1373.77 67.351M1356.66 63.0309L1373.77 67.351M1392.14 58.931L1439.11 58.931M1373.77 67.351L1391.81 71.9099M1279.84 71.9099L1295.73 76.727M1279.84 71.9099L1335.83 71.9099M1279.84 71.9099H1223.86M1335.83 71.9099L1353.31 76.727M1335.83 71.9099H1391.81M1391.81 71.9099L1410.88 76.727M1391.81 71.9099H1439.11M1295.73 76.727L1353.31 76.727M1295.73 76.727H1238.16M1371.81 81.8262L1353.31 76.727M1371.81 81.8262L1391.42 87.2317M1371.81 81.8262H1431.06M1353.31 76.727H1410.88M1238.16 76.727L1180.59 76.727M1238.16 76.727L1223.86 71.9099M1410.88 76.727L1431.06 81.8262M1410.88 76.727H1439.11M1223.86 71.9099L1167.87 71.9099M1391.42 87.2317L1412.25 92.9732M1391.42 87.2317H1439.11M1431.06 81.8262H1439.11M1431.06 81.8262L1439.11 83.86M1349.32 92.9732L1369.47 99.082M1349.32 92.9732H1412.25M1349.32 92.9732L1286.39 92.9732M1412.25 92.9732L1434.42 99.082M1412.25 92.9732H1439.11M1369.47 99.082H1434.42M1369.47 99.082L1304.52 99.082M1434.42 99.082L1439.11 100.376M1434.42 99.082H1439.11M1304.52 99.082H1239.58M1304.52 99.082L1286.39 92.9732M1286.39 92.9732H1223.46M1438.49 120.005H1366.64M1438.49 120.005H1439.11M1438.49 120.005L1439.11 120.194M1366.64 120.005L1294.79 120.005M1366.64 120.005L1390.39 128.004M936.431 11.5437L937.884 12.2777L938.373 12.5248L940.35 13.5237M936.431 11.5437L972.503 11.5437M936.431 11.5437L900.36 11.5437M968.091 9.63285L964.882 8.24315L963.831 7.78764M968.091 9.63285L971.943 11.3011L972.503 11.5437M968.091 9.63285L1003.53 9.63285M963.831 7.78764L998.664 7.78764M963.831 7.78764L959.714 6.00492M925.469 6.00492L959.714 6.00492M925.469 6.00492L924.176 5.35179L922.058 4.28121M925.469 6.00492L891.225 6.00492M972.503 11.5437L973.631 12.0319L977.075 13.5237M972.503 11.5437L1008.57 11.5437M1003.53 9.63285L998.664 7.78764M1003.53 9.63285L1008.57 11.5437M998.664 7.78764L995.12 6.44489L993.959 6.00492M959.714 6.00492L993.959 6.00492M959.714 6.00492L955.734 4.28121M1008.57 11.5437L1013.8 13.5237M1028.2 6.00492L1027.55 5.78605L1023.09 4.28121M1028.2 6.00492L993.959 6.00492M993.959 6.00492L992.235 5.35179L989.41 4.28121M940.35 13.5237L977.075 13.5237M940.35 13.5237L903.625 13.5237M981.815 15.5767L977.075 13.5237M981.815 15.5767L986.734 17.7068M981.815 15.5767L1019.22 15.5767M977.075 13.5237L1013.8 13.5237M903.625 13.5237L866.9 13.5237M903.625 13.5237L900.36 11.5437M1013.8 13.5237L1019.22 15.5767M900.36 11.5437L864.288 11.5437M986.734 17.7068L989.902 19.0793L990.546 19.3575L991.84 19.9184M986.734 17.7068L1024.84 17.7068M1019.22 15.5767L1024.84 17.7068M1024.84 17.7068L1030.68 19.9184M953.006 19.9184L957.554 22.2165M953.006 19.9184L991.84 19.9184M953.006 19.9184L914.172 19.9184M991.84 19.9184L997.147 22.2165M991.84 19.9184L1030.68 19.9184M1030.68 19.9184L1036.74 22.2165M957.554 22.2165L997.147 22.2165M957.554 22.2165L917.962 22.2165M1002.66 24.6061L999.19 23.1015L998.506 22.805L997.147 22.2165M1002.66 24.6061L1008.41 27.0927M1002.66 24.6061L1043.04 24.6061M997.147 22.2165L1036.74 22.2165M917.962 22.2165L878.37 22.2165M917.962 22.2165L914.172 19.9184M1036.74 22.2165L1043.04 24.6061M914.172 19.9184L875.337 19.9184M1008.41 27.0927L1014.39 29.6824M1008.41 27.0927L1049.61 27.0927M1043.04 24.6061L1049.61 27.0927M1049.61 27.0927L1056.44 29.6824M972.331 29.6824L974.974 31.0178L975.643 31.3563L977.673 32.3818M972.331 29.6824L1014.39 29.6824M972.331 29.6824L930.275 29.6824M1014.39 29.6824L1020.62 32.3818M1014.39 29.6824L1056.44 29.6824M1056.44 29.6824L1063.56 32.3818M977.673 32.3818L1020.62 32.3818M977.673 32.3818L934.728 32.3818M1027.12 35.198L1020.62 32.3818M1027.12 35.198L1033.91 38.1385M1027.12 35.198H1071M1020.62 32.3818H1063.56M934.728 32.3818H891.782M934.728 32.3818L933.597 31.6963L930.275 29.6824M1063.56 32.3818L1071 35.198M930.275 29.6824L888.221 29.6824M1033.91 38.1385L1041.01 41.2123M1033.91 38.1385L1078.76 38.1385M1071 35.198L1078.76 38.1385M1078.76 38.1385L1086.87 41.2123M995.15 41.2123L1001.51 44.4282M995.15 41.2123L1041.01 41.2123M995.15 41.2123L949.291 41.2123M1041.01 41.2123L1048.43 44.4282M1041.01 41.2123L1086.87 41.2123M1086.87 41.2123L1095.35 44.4282M1001.51 44.4282L1048.43 44.4282M1001.51 44.4282L954.596 44.4282M1056.21 47.7963L1048.43 44.4282M1056.21 47.7963L1064.37 51.3278M1056.21 47.7963L1104.24 47.7963M1048.43 44.4282L1095.35 44.4282M954.596 44.4282H907.676M954.596 44.4282L949.291 41.2123M1095.35 44.4282L1104.24 47.7963M949.291 41.2123H903.434M1064.37 51.3278L1072.92 55.035M1064.37 51.3278L1113.56 51.3278M1104.24 47.7963L1113.56 51.3278M1113.56 51.3278L1123.34 55.035M1022.51 55.035L1030.22 58.931M1022.51 55.035H1072.92M1022.51 55.035L972.09 55.035M1072.92 55.035L1081.92 58.931M1072.92 55.035L1123.34 55.035M1123.34 55.035L1133.62 58.931M1030.22 58.931L1081.92 58.931M1030.22 58.931L978.515 58.931M1091.39 63.0309L1081.92 58.931M1091.39 63.0309L1101.36 67.351M1091.39 63.0309L1144.44 63.0309M1081.92 58.931L1133.62 58.931M978.515 58.931L926.812 58.931M978.515 58.931L972.09 55.035M1133.62 58.931L1144.44 63.0309M972.09 55.035L921.671 55.035M1101.36 67.351L1111.89 71.9099M1101.36 67.351L1155.84 67.351M1144.44 63.0309L1155.84 67.351M1155.84 67.351L1167.87 71.9099M1055.91 71.9099L1065.44 76.727M1055.91 71.9099L1111.89 71.9099M1055.91 71.9099H999.921M1111.89 71.9099L1123.01 76.727M1111.89 71.9099H1167.87M1167.87 71.9099L1180.59 76.727M1065.44 76.727L1123.01 76.727M1065.44 76.727H1007.87M1134.79 81.8262L1123.01 76.727M1134.79 81.8262L1147.27 87.2317M1134.79 81.8262H1194.04M1123.01 76.727H1180.59M1007.87 76.727L950.293 76.727M1007.87 76.727L999.921 71.9099M1180.59 76.727L1194.04 81.8262M999.921 71.9099L943.937 71.9099M1147.27 87.2317L1160.52 92.9732M1147.27 87.2317H1208.31M1194.04 81.8262L1208.31 87.2317M1208.31 87.2317L1223.46 92.9732M1097.59 92.9732L1109.68 99.082M1097.59 92.9732L1160.52 92.9732M1097.59 92.9732H1034.66M1160.52 92.9732L1174.63 99.082M1160.52 92.9732L1223.46 92.9732M1223.46 92.9732L1239.58 99.082M1109.68 99.082H1174.63M1109.68 99.082L1044.74 99.082M1189.67 105.595L1174.63 99.082M1189.67 105.595L1205.74 112.554M1189.67 105.595L1256.76 105.595M1174.63 99.082L1239.58 99.082M1044.74 99.082L979.788 99.082M1044.74 99.082L1034.66 92.9732M1239.58 99.082L1256.76 105.595M1034.66 92.9732L971.728 92.9732M1205.74 112.554L1222.94 120.005M1205.74 112.554L1275.13 112.554M1256.76 105.595L1275.13 112.554M1275.13 112.554L1294.79 120.005M1151.09 120.005L1166.92 128.004M1151.09 120.005L1222.94 120.005M1151.09 120.005L1079.24 120.005M1222.94 120.005L1241.41 128.004M1222.94 120.005H1294.79M1294.79 120.005L1315.9 128.004M1166.92 128.004L1241.41 128.004M1166.92 128.004L1092.44 128.004M1261.29 136.613L1241.41 128.004M1261.29 136.613L1282.74 145.904M1261.29 136.613L1338.62 136.613M1241.41 128.004H1315.9M1092.44 128.004H1017.95M1092.44 128.004L1079.24 120.005M1315.9 128.004L1338.62 136.613M1315.9 128.004H1390.39M1079.24 120.005H1007.4M1282.74 145.904L1305.97 155.962M1282.74 145.904H1363.13M1338.62 136.613L1363.13 145.904M1390.39 128.004H1439.11M1363.13 145.904L1389.68 155.962M1363.13 145.904H1439.11M1222.26 155.962L1243.88 166.886M1222.26 155.962L1305.97 155.962M1222.26 155.962H1138.55M1305.97 155.962L1331.19 166.886M1305.97 155.962H1389.68M1389.68 155.962L1418.5 166.886M1389.68 155.962H1439.11M1243.88 166.886L1331.19 166.886M1243.88 166.886H1156.57M1358.68 178.793L1331.19 166.886M1358.68 178.793L1388.77 191.822M1358.68 178.793H1439.11M1331.19 166.886H1418.5M1156.57 166.886H1069.25M1156.57 166.886L1138.55 155.962M1418.5 166.886H1439.11M1418.5 166.886L1439.11 174.696M1138.55 155.962H1054.84M1388.77 191.822L1421.82 206.138M1388.77 191.822H1439.11M1321.56 206.138L1352.84 221.944M1321.56 206.138H1421.82M1321.56 206.138L1221.3 206.138M1421.82 206.138L1439.11 213.626M1421.82 206.138H1439.11M1352.84 221.944L1247.37 221.944M1352.84 221.944L1439.11 221.944M1247.37 221.944H1141.9M1247.37 221.944L1221.3 206.138M1221.3 206.138H1121.04M792.144 11.5437L792.305 11.7873L792.466 12.0319L792.628 12.2777L792.791 12.5248L793.284 13.2722L793.45 13.5237M792.144 11.5437L828.216 11.5437M792.144 11.5437L756.072 11.5437M826.325 9.63285L824.949 8.24315L824.499 7.78764M826.325 9.63285L827.499 10.8192L828.216 11.5437M826.325 9.63285L861.766 9.63285M824.499 7.78764L859.332 7.78764M824.499 7.78764L823.17 6.44489L822.734 6.00492M788.489 6.00492L788.346 5.78605L787.775 4.9207L787.352 4.28121M788.489 6.00492L822.734 6.00492M788.489 6.00492L754.245 6.00492M828.216 11.5437L828.456 11.7873L828.699 12.0319L828.942 12.2777L829.187 12.5248L830.175 13.5237M828.216 11.5437L864.288 11.5437M861.766 9.63285L859.933 8.24315L859.332 7.78764M861.766 9.63285L864.288 11.5437M859.332 7.78764L858.145 6.88867L857.269 6.22444L856.98 6.00492M822.734 6.00492L822.518 5.78605L822.089 5.35179L821.662 4.9207L821.45 4.70659L821.029 4.28121M822.734 6.00492L856.98 6.00492M864.288 11.5437L866.238 13.0219L866.9 13.5237M891.225 6.00492L889.084 4.70659L888.382 4.28121M891.225 6.00492L856.98 6.00492M856.98 6.00492L854.986 4.49343L854.705 4.28121M793.45 13.5237L830.175 13.5237M793.45 13.5237L756.725 13.5237M832.206 15.5767L830.175 13.5237M832.206 15.5767L834.314 17.7068M832.206 15.5767L869.608 15.5767M830.175 13.5237L866.9 13.5237M756.725 13.5237L720 13.5237M756.725 13.5237L756.072 11.5437M866.9 13.5237L869.608 15.5767M756.072 11.5437L720 11.5437M834.314 17.7068L834.854 18.2517L835.673 19.0793L836.503 19.9184M834.314 17.7068L872.42 17.7068M869.608 15.5767L869.955 15.8384L872.42 17.7068M872.42 17.7068L872.778 17.9786L873.139 18.2517L873.501 18.5264L875.337 19.9184M797.669 19.9184L799.185 22.2165M797.669 19.9184L836.503 19.9184M797.669 19.9184L758.834 19.9184M836.503 19.9184L838.777 22.2165M836.503 19.9184L875.337 19.9184M875.337 19.9184L877.6 21.6335L877.985 21.9244L878.37 22.2165M799.185 22.2165L838.777 22.2165M799.185 22.2165L759.592 22.2165M841.142 24.6061L841.444 24.9115L841.748 25.2183L842.053 25.5269L843.603 27.0927M841.142 24.6061L839.948 23.3994L839.653 23.1015L839.36 22.805L838.777 22.2165M841.142 24.6061L881.522 24.6061M838.777 22.2165L878.37 22.2165M759.592 22.2165L720 22.2165M759.592 22.2165L758.834 19.9184M878.37 22.2165L881.522 24.6061M758.834 19.9184L720 19.9184M843.603 27.0927L845.84 29.3528L846.165 29.6824M843.603 27.0927L884.803 27.0927M881.522 24.6061L882.331 25.2183L884.803 27.0927M884.803 27.0927L886.069 28.0513L888.221 29.6824M804.11 29.6824L804.992 31.0178L805.214 31.3563L805.891 32.3818M804.11 29.6824L846.165 29.6824M804.11 29.6824L762.055 29.6824M846.165 29.6824L848.837 32.3818M846.165 29.6824L888.221 29.6824M888.221 29.6824L891.782 32.3818M805.891 32.3818H848.837M805.891 32.3818L762.945 32.3818M851.623 35.198L848.837 32.3818M851.623 35.198L854.533 38.1385M851.623 35.198H895.498M848.837 32.3818L891.782 32.3818M762.945 32.3818L720 32.3818M762.945 32.3818L762.719 31.6963L762.274 30.3466L762.055 29.6824M891.782 32.3818L895.498 35.198M762.055 29.6824L720 29.6824M854.533 38.1385L856.801 40.431L857.575 41.2123M854.533 38.1385H899.378M895.498 35.198L899.378 38.1385M899.378 38.1385L901.383 39.6583L903.434 41.2123M811.717 41.2123L813.838 44.4282M811.717 41.2123L857.575 41.2123M811.717 41.2123L765.858 41.2123M857.575 41.2123L860.757 44.4282M857.575 41.2123L903.434 41.2123M903.434 41.2123L907.676 44.4282M813.838 44.4282L860.757 44.4282M813.838 44.4282L766.919 44.4282M864.091 47.7963L863.242 46.9395L860.757 44.4282M864.091 47.7963L867.585 51.3278M864.091 47.7963L912.121 47.7963M860.757 44.4282L907.676 44.4282M766.919 44.4282L720 44.4282M766.919 44.4282L765.858 41.2123M907.676 44.4282L912.121 47.7963M765.858 41.2123L720 41.2123M867.585 51.3278L871.253 55.035M867.585 51.3278L916.78 51.3278M912.121 47.7963L916.78 51.3278M916.78 51.3278L921.671 55.035M820.836 55.035L823.406 58.931M820.836 55.035L871.253 55.035M820.836 55.035L770.418 55.035M871.253 55.035L875.109 58.931M871.253 55.035L921.671 55.035M921.671 55.035L926.812 58.931M823.406 58.931L875.109 58.931M823.406 58.931L771.703 58.931M879.167 63.0309L875.109 58.931M879.167 63.0309L883.442 67.351M879.167 63.0309L932.221 63.0309M875.109 58.931L926.812 58.931M771.703 58.931L720 58.931M771.703 58.931L770.575 55.5115L770.418 55.035M926.812 58.931L932.221 63.0309M770.418 55.035L720 55.035M883.442 67.351L887.953 71.9099M883.442 67.351H937.922M932.221 63.0309L936.468 66.2496L937.922 67.351M937.922 67.351L943.937 71.9099M831.968 71.9099L835.146 76.727M831.968 71.9099L887.953 71.9099M831.968 71.9099H775.984M887.953 71.9099L892.72 76.727M887.953 71.9099H943.937M943.937 71.9099L950.293 76.727M835.146 76.727L892.72 76.727M835.146 76.727H777.573M897.765 81.8262L892.72 76.727M897.765 81.8262L903.115 87.2317M897.765 81.8262H957.02M892.72 76.727H950.293M777.573 76.727L720 76.727M777.573 76.727L775.984 71.9099M950.293 76.727L957.02 81.8262M775.984 71.9099L720 71.9099M903.115 87.2317L908.796 92.9732M903.115 87.2317H964.153M957.02 81.8262L964.153 87.2317M964.153 87.2317L971.728 92.9732M845.864 92.9732L849.894 99.082M845.864 92.9732L908.796 92.9732M845.864 92.9732H782.932M908.796 92.9732L914.841 99.082M908.796 92.9732H971.728M971.728 92.9732L979.788 99.082M849.894 99.082L914.841 99.082M849.894 99.082H784.947M921.286 105.595L914.841 99.082M921.286 105.595L928.173 112.554M921.286 105.595L988.382 105.595M914.841 99.082H979.788M784.947 99.082L720 99.082M784.947 99.082L782.932 92.9732M979.788 99.082L988.382 105.595M782.932 92.9732L720 92.9732M928.173 112.554L935.547 120.005M928.173 112.554L997.563 112.554M988.382 105.595L997.563 112.554M997.563 112.554L1007.4 120.005M863.697 120.005L868.975 128.004M863.697 120.005L935.547 120.005M863.697 120.005H791.849M935.547 120.005L943.462 128.004M935.547 120.005L1007.4 120.005M1007.4 120.005L1017.95 128.004M868.975 128.004H943.462M868.975 128.004H794.487M951.981 136.613L943.462 128.004M951.981 136.613L961.175 145.904M951.981 136.613H1029.31M943.462 128.004H1017.95M794.487 128.004L720 128.004M794.487 128.004L791.849 120.005M1017.95 128.004L1029.31 136.613M791.849 120.005L720 120.005M961.175 145.904L971.129 155.962M961.175 145.904H1041.57M1029.31 136.613L1041.57 145.904M1041.57 145.904L1054.84 155.962M887.419 155.962L894.626 166.886M887.419 155.962H971.129M887.419 155.962L803.71 155.962M971.129 155.962L981.939 166.886M971.129 155.962L1054.84 155.962M1054.84 155.962L1069.25 166.886M894.626 166.886H981.939M894.626 166.886L807.313 166.886M993.722 178.793L981.939 166.886M993.722 178.793L1006.61 191.822M993.722 178.793L1084.96 178.793M981.939 166.886L1069.25 166.886M807.313 166.886H720M807.313 166.886L803.71 155.962M1069.25 166.886L1084.96 178.793M803.71 155.962H720M1006.61 191.822L1020.78 206.138M1006.61 191.822L1102.15 191.822M1084.96 178.793L1102.15 191.822M1102.15 191.822L1121.04 206.138M920.521 206.138L930.948 221.944M920.521 206.138H1020.78M920.521 206.138H820.261M1020.78 206.138L1036.42 221.944M1020.78 206.138L1121.04 206.138M1121.04 206.138L1141.9 221.944M1036.42 221.944H930.948M1036.42 221.944L1141.9 221.944M930.948 221.944H825.474M825.474 221.944L720 221.944M825.474 221.944L820.261 206.138M820.261 206.138L720 206.138M647.857 11.5437L647.695 11.7873L647.534 12.0319L647.372 12.2777L647.209 12.5248L646.881 13.0219L646.716 13.2722L646.55 13.5237M647.857 11.5437L683.928 11.5437M647.857 11.5437L611.784 11.5437M684.558 9.63285L685.167 7.78764M684.558 9.63285L683.928 11.5437M684.558 9.63285L720 9.63285M685.167 7.78764L685.241 7.56147L685.316 7.33625L685.39 7.11198L685.755 6.00492M685.167 7.78764L720 7.78764M651.511 6.00492L651.654 5.78605L652.225 4.9207L652.648 4.28121M651.511 6.00492L685.755 6.00492M651.511 6.00492L617.266 6.00492M683.928 11.5437L683.847 11.7873L683.767 12.0319L683.686 12.2777L683.275 13.5237M683.928 11.5437L720 11.5437M720 9.63285V7.78764M720 9.63285V11.5437M720 7.78764V6.00492M685.755 6.00492L720 6.00492M685.755 6.00492L685.97 5.35179L686.042 5.13577L686.324 4.28121M720 11.5437V13.5237M754.245 6.00492L754.03 5.35179L753.958 5.13577L753.888 4.9207L753.816 4.70659L753.747 4.49343L753.676 4.28121M754.245 6.00492L720 6.00492M720 6.00492V4.28121M646.55 13.5237L683.275 13.5237M646.55 13.5237L609.825 13.5237M682.598 15.5767L682.511 15.8384L682.425 16.1017L681.895 17.7068M682.598 15.5767L683.275 13.5237M682.598 15.5767L720 15.5767M683.275 13.5237L720 13.5237M609.825 13.5237L573.1 13.5237M609.825 13.5237L610.321 13.0219L610.568 12.7729L610.813 12.5248L611.058 12.2777L611.301 12.0319L611.544 11.7873L611.784 11.5437M720 13.5237V15.5767M611.784 11.5437L575.712 11.5437M681.895 17.7068L681.166 19.9184M681.895 17.7068L720 17.7068M720 15.5767V17.7068M720 17.7068V19.9184M642.331 19.9184L640.815 22.2165M642.331 19.9184L681.166 19.9184M642.331 19.9184L603.497 19.9184M681.166 19.9184L680.408 22.2165M681.166 19.9184L720 19.9184M720 19.9184V22.2165M640.815 22.2165L680.408 22.2165M640.815 22.2165L601.223 22.2165M679.62 24.6061L680.408 22.2165M679.62 24.6061L678.799 27.0927M679.62 24.6061L720 24.6061M680.408 22.2165L720 22.2165M601.223 22.2165L561.63 22.2165M601.223 22.2165L603.497 19.9184M720 22.2165V24.6061M603.497 19.9184L564.663 19.9184M678.799 27.0927L678.483 28.0513L678.162 29.0248L677.945 29.6824M678.799 27.0927L720 27.0927M720 24.6061V27.0927M720 27.0927V29.6824M635.89 29.6824L635.008 31.0178L634.786 31.3563L634.109 32.3818M635.89 29.6824L677.945 29.6824M635.89 29.6824L593.835 29.6824M677.945 29.6824L677.726 30.3466L677.281 31.6963L677.055 32.3818M677.945 29.6824L720 29.6824M720 29.6824V32.3818M634.109 32.3818L677.055 32.3818M634.109 32.3818L591.163 32.3818M676.126 35.198L676.244 34.8392L677.055 32.3818M676.126 35.198L675.156 38.1385M676.126 35.198H720M677.055 32.3818H720M591.163 32.3818H548.218M591.163 32.3818L593.835 29.6824M720 32.3818V35.198M593.835 29.6824L551.779 29.6824M675.156 38.1385L674.142 41.2123M675.156 38.1385H720M720 35.198V38.1385M720 38.1385V41.2123M628.283 41.2123L626.162 44.4282M628.283 41.2123L674.142 41.2123M628.283 41.2123L582.425 41.2123M674.142 41.2123L673.081 44.4282M674.142 41.2123H720M720 41.2123V44.4282M626.162 44.4282L673.081 44.4282M626.162 44.4282L579.243 44.4282M671.97 47.7963L673.081 44.4282M671.97 47.7963L670.805 51.3278M671.97 47.7963H720M673.081 44.4282H720M579.243 44.4282L532.324 44.4282M579.243 44.4282L582.425 41.2123M720 44.4282V47.7963M582.425 41.2123L536.566 41.2123M670.805 51.3278L669.582 55.035M670.805 51.3278H720M720 47.7963V51.3278M720 51.3278V55.035M619.164 55.035L616.594 58.931M619.164 55.035L669.582 55.035M619.164 55.035L568.747 55.035M669.582 55.035L668.297 58.931M669.582 55.035H720M720 55.035V58.931M616.594 58.931L668.297 58.931M616.594 58.931L564.891 58.931M666.945 63.0309L668.297 58.931M666.945 63.0309L665.52 67.351M666.945 63.0309L720 63.0309M668.297 58.931H720M564.891 58.931L513.188 58.931M564.891 58.931L568.747 55.035M720 58.931V63.0309M568.747 55.035L518.329 55.035M665.52 67.351L664.016 71.9099M665.52 67.351H720M720 63.0309V67.351M720 67.351V71.9099M608.032 71.9099L604.854 76.727M608.032 71.9099L664.016 71.9099M608.032 71.9099H552.048M664.016 71.9099L662.427 76.727M664.016 71.9099H720M720 71.9099V76.727M604.854 76.727L662.427 76.727M604.854 76.727H547.28M660.745 81.8262L662.427 76.727M660.745 81.8262L658.962 87.2317M660.745 81.8262H720M662.427 76.727H720M547.28 76.727L489.707 76.727M547.28 76.727L552.048 71.9099M720 76.727V81.8262M552.048 71.9099L496.063 71.9099M658.962 87.2317L657.068 92.9732M658.962 87.2317H720M720 81.8262V87.2317M720 87.2317V92.9732M594.136 92.9732L590.106 99.082M594.136 92.9732L657.068 92.9732M594.136 92.9732H531.204M657.068 92.9732L655.053 99.082M657.068 92.9732H720M720 92.9732V99.082M590.106 99.082L655.053 99.082M590.106 99.082H525.159M652.905 105.595L655.053 99.082M652.905 105.595L650.609 112.554M652.905 105.595H720M655.053 99.082H720M525.159 99.082L460.212 99.082M525.159 99.082L531.204 92.9732M720 99.082V105.595M531.204 92.9732L468.272 92.9732M650.609 112.554L648.151 120.005M650.609 112.554H720M720 105.595V112.554M720 112.554V120.005M576.303 120.005L571.025 128.004M576.303 120.005L648.151 120.005M576.303 120.005L504.453 120.005M648.151 120.005L645.513 128.004M648.151 120.005H720M720 120.005V128.004M571.025 128.004L645.513 128.004M571.025 128.004H496.538M642.673 136.613L645.513 128.004M642.673 136.613L639.608 145.904M642.673 136.613H720M645.513 128.004H720M496.538 128.004H422.051M496.538 128.004L504.453 120.005M720 128.004V136.613M504.453 120.005H432.604M639.608 145.904L636.29 155.962M639.608 145.904H720M720 136.613V145.904M720 145.904V155.962M552.581 155.962L545.374 166.886M552.581 155.962L636.29 155.962M552.581 155.962H468.871M636.29 155.962L632.687 166.886M636.29 155.962H720M720 155.962V166.886M545.374 166.886L632.687 166.886M545.374 166.886H458.061M628.76 178.793L632.687 166.886M628.76 178.793L624.462 191.822M628.76 178.793H720M632.687 166.886H720M458.061 166.886H370.748M458.061 166.886L468.871 155.962M720 166.886V178.793M468.871 155.962H385.162M624.462 191.822L619.739 206.138M624.462 191.822H720M720 178.793V191.822M720 191.822V206.138M519.479 206.138L509.052 221.944M519.479 206.138L619.739 206.138M519.479 206.138H419.218M619.739 206.138L614.526 221.944M619.739 206.138H720M720 206.138V221.944M614.526 221.944L509.052 221.944M614.526 221.944H720M509.052 221.944H403.578M403.578 221.944L298.103 221.944M403.578 221.944L419.218 206.138M419.218 206.138L318.958 206.138M503.569 11.5437L501.627 12.5248L499.65 13.5237M503.569 11.5437L539.641 11.5437M503.569 11.5437L467.497 11.5437M542.792 9.63285L545.835 7.78764M542.792 9.63285L539.641 11.5437M542.792 9.63285L578.234 9.63285M545.835 7.78764L580.668 7.78764M545.835 7.78764L548.05 6.44489L548.776 6.00492M514.531 6.00492L548.776 6.00492M514.531 6.00492L515.824 5.35179L517.942 4.28121M514.531 6.00492L480.286 6.00492M539.641 11.5437L536.375 13.5237M539.641 11.5437L575.712 11.5437M578.234 9.63285L580.668 7.78764M578.234 9.63285L575.712 11.5437M580.668 7.78764L581.855 6.88867L582.731 6.22444L583.02 6.00492M548.776 6.00492L583.02 6.00492M548.776 6.00492L550.916 4.70659L551.618 4.28121M575.712 11.5437L573.762 13.0219L573.1 13.5237M617.266 6.00492L617.482 5.78605L617.911 5.35179L618.55 4.70659L618.971 4.28121M617.266 6.00492L583.02 6.00492M583.02 6.00492L583.309 5.78605L583.882 5.35179L585.295 4.28121M499.65 13.5237L536.375 13.5237M499.65 13.5237L462.925 13.5237M532.989 15.5767L533.419 15.316L533.847 15.0562L535.54 14.0297L536.375 13.5237M532.989 15.5767L530.366 17.1666L529.476 17.7068M532.989 15.5767L570.392 15.5767M536.375 13.5237L573.1 13.5237M462.925 13.5237L426.2 13.5237M462.925 13.5237L466.369 12.0319L467.497 11.5437M573.1 13.5237L570.392 15.5767M467.497 11.5437L431.425 11.5437M529.476 17.7068L529.028 17.9786L528.577 18.2517L527.213 19.0793L526.753 19.3575L525.828 19.9184M529.476 17.7068L567.58 17.7068M570.392 15.5767L570.046 15.8384L567.58 17.7068M567.58 17.7068L567.222 17.9786L566.861 18.2517L566.499 18.5264L564.663 19.9184M486.994 19.9184L482.446 22.2165M486.994 19.9184L525.828 19.9184M486.994 19.9184L448.16 19.9184M525.828 19.9184L522.038 22.2165M525.828 19.9184L564.663 19.9184M564.663 19.9184L561.63 22.2165M482.446 22.2165L522.038 22.2165M482.446 22.2165L442.853 22.2165M518.097 24.6061L522.038 22.2165M518.097 24.6061L513.996 27.0927M518.097 24.6061L558.478 24.6061M522.038 22.2165L561.63 22.2165M442.853 22.2165L403.261 22.2165M442.853 22.2165L448.16 19.9184M561.63 22.2165L558.478 24.6061M448.16 19.9184L409.325 19.9184M513.996 27.0927L509.725 29.6824M513.996 27.0927L555.197 27.0927M558.478 24.6061L557.669 25.2183L555.197 27.0927M555.197 27.0927L553.931 28.0513L552.647 29.0248L551.779 29.6824M467.669 29.6824L465.026 31.0178L462.327 32.3818M467.669 29.6824L509.725 29.6824M467.669 29.6824L425.614 29.6824M509.725 29.6824L505.272 32.3818M509.725 29.6824L551.779 29.6824M551.779 29.6824L548.218 32.3818M462.327 32.3818H505.272M462.327 32.3818L419.382 32.3818M500.628 35.198L505.272 32.3818M500.628 35.198L495.778 38.1385M500.628 35.198H544.502M505.272 32.3818L548.218 32.3818M419.382 32.3818L376.436 32.3818M419.382 32.3818L425.614 29.6824M548.218 32.3818L544.502 35.198M425.614 29.6824L383.559 29.6824M495.778 38.1385L494.531 38.8941L490.709 41.2123M495.778 38.1385H540.622M544.502 35.198L540.622 38.1385M540.622 38.1385L540.125 38.5154L538.617 39.6583L536.566 41.2123M444.85 41.2123L438.485 44.4282M444.85 41.2123H490.709M444.85 41.2123L398.992 41.2123M490.709 41.2123L485.405 44.4282M490.709 41.2123L536.566 41.2123M536.566 41.2123L532.324 44.4282M438.485 44.4282H485.405M438.485 44.4282L391.566 44.4282M479.849 47.7963L483.352 45.6729L485.405 44.4282M479.849 47.7963L474.025 51.3278M479.849 47.7963L527.879 47.7963M485.405 44.4282L532.324 44.4282M391.566 44.4282L344.647 44.4282M391.566 44.4282L398.992 41.2123M532.324 44.4282L527.879 47.7963M398.992 41.2123L353.133 41.2123M474.025 51.3278L467.911 55.035M474.025 51.3278L523.22 51.3278M527.879 47.7963L523.22 51.3278M523.22 51.3278L518.329 55.035M417.493 55.035L409.782 58.931M417.493 55.035L467.911 55.035M417.493 55.035L367.075 55.035M467.911 55.035L461.485 58.931M467.911 55.035L518.329 55.035M518.329 55.035L513.188 58.931M409.782 58.931L461.485 58.931M409.782 58.931L358.079 58.931M454.723 63.0309L461.485 58.931M454.723 63.0309L447.598 67.351M454.723 63.0309L507.779 63.0309M461.485 58.931L513.188 58.931M358.079 58.931L306.376 58.931M358.079 58.931L367.075 55.035M513.188 58.931L507.779 63.0309M367.075 55.035L316.657 55.035M447.598 67.351L440.079 71.9099M447.598 67.351H502.078M507.779 63.0309L502.078 67.351M502.078 67.351L496.063 71.9099M384.095 71.9099L374.561 76.727M384.095 71.9099L440.079 71.9099M384.095 71.9099H328.111M440.079 71.9099L432.134 76.727M440.079 71.9099H496.063M496.063 71.9099L489.707 76.727M374.561 76.727L432.134 76.727M374.561 76.727H316.988M423.724 81.8262L432.134 76.727M423.724 81.8262L414.809 87.2317M423.724 81.8262H482.98M432.134 76.727H489.707M316.988 76.727L259.414 76.727M316.988 76.727L328.111 71.9099M489.707 76.727L482.98 81.8262M328.111 71.9099L272.127 71.9099M414.809 87.2317L405.34 92.9732M414.809 87.2317H475.847M482.98 81.8262L475.847 87.2317M475.847 87.2317L468.272 92.9732M342.407 92.9732L330.317 99.082M342.407 92.9732H405.34M342.407 92.9732L279.475 92.9732M405.34 92.9732L395.264 99.082M405.34 92.9732L468.272 92.9732M468.272 92.9732L460.212 99.082M330.317 99.082H395.264M330.317 99.082L265.37 99.082M384.523 105.595L395.264 99.082M384.523 105.595L373.045 112.554M384.523 105.595L451.618 105.595M395.264 99.082L460.212 99.082M265.37 99.082H200.423M265.37 99.082L279.475 92.9732M460.212 99.082L451.618 105.595M279.475 92.9732H216.543M373.045 112.554L360.756 120.005M373.045 112.554L442.437 112.554M451.618 105.595L442.437 112.554M442.437 112.554L432.604 120.005M288.907 120.005L273.076 128.004M288.907 120.005L360.756 120.005M288.907 120.005H217.058M360.756 120.005L347.563 128.004M360.756 120.005L432.604 120.005M432.604 120.005L422.051 128.004M273.076 128.004L347.563 128.004M273.076 128.004H198.589M333.365 136.613L347.563 128.004M333.365 136.613L318.041 145.904M333.365 136.613L410.692 136.613M347.563 128.004H422.051M198.589 128.004L124.101 128.004M198.589 128.004L217.058 120.005M422.051 128.004L410.692 136.613M217.058 120.005L145.209 120.005M318.041 145.904L301.452 155.962M318.041 145.904L398.432 145.904M410.692 136.613L398.432 145.904M398.432 145.904L385.162 155.962M217.742 155.962L196.122 166.886M217.742 155.962H301.452M217.742 155.962H134.033M301.452 155.962L283.435 166.886M301.452 155.962L385.162 155.962M385.162 155.962L370.748 166.886M196.122 166.886H283.435M196.122 166.886L108.809 166.886M263.797 178.793L283.435 166.886M263.797 178.793L242.309 191.822M263.797 178.793L355.038 178.793M283.435 166.886L370.748 166.886M108.809 166.886H21.4958M108.809 166.886L134.033 155.962M370.748 166.886L355.038 178.793M134.033 155.962L50.3233 155.962M242.309 191.822L218.698 206.138M242.309 191.822H337.848M355.038 178.793L337.848 191.822M337.848 191.822L318.958 206.138M118.437 206.138L87.1553 221.944M118.437 206.138H218.698M118.437 206.138L18.1759 206.138M218.698 206.138L192.63 221.944M218.698 206.138H318.958M318.958 206.138L298.103 221.944M192.63 221.944L87.1553 221.944M192.63 221.944H298.103M87.1553 221.944L0.887277 221.944M18.1759 206.138L0.887277 213.626M18.1759 206.138H0.887277M359.281 11.5437L352.75 13.5237M359.281 11.5437L395.353 11.5437M359.281 11.5437L323.209 11.5437M401.026 9.63285L406.504 7.78764M401.026 9.63285L395.353 11.5437M401.026 9.63285L436.467 9.63285M406.504 7.78764L441.336 7.78764M406.504 7.78764L411.797 6.00492M377.551 6.00492L411.797 6.00492M377.551 6.00492L379.706 5.35179L383.237 4.28121M377.551 6.00492L343.306 6.00492M395.353 11.5437L389.475 13.5237M395.353 11.5437L431.425 11.5437M436.467 9.63285L441.336 7.78764M436.467 9.63285L431.425 11.5437M441.336 7.78764L444.88 6.44489L446.041 6.00492M411.797 6.00492L412.445 5.78605L416.913 4.28121M411.797 6.00492L446.041 6.00492M431.425 11.5437L426.2 13.5237M480.286 6.00492L484.266 4.28121M480.286 6.00492L446.041 6.00492M446.041 6.00492L447.765 5.35179L450.59 4.28121M352.75 13.5237L389.475 13.5237M352.75 13.5237L316.025 13.5237M383.38 15.5767L389.475 13.5237M383.38 15.5767L377.057 17.7068M383.38 15.5767L420.782 15.5767M389.475 13.5237L426.2 13.5237M316.025 13.5237L279.3 13.5237M316.025 13.5237L323.209 11.5437M426.2 13.5237L420.782 15.5767M323.209 11.5437L287.138 11.5437M377.057 17.7068L375.438 18.2517L370.49 19.9184M377.057 17.7068L415.161 17.7068M420.782 15.5767L415.161 17.7068M415.161 17.7068L409.325 19.9184M331.656 19.9184L330.725 20.201L324.076 22.2165M331.656 19.9184L370.49 19.9184M331.656 19.9184L292.822 19.9184M370.49 19.9184L363.668 22.2165M370.49 19.9184L409.325 19.9184M409.325 19.9184L408.58 20.201L403.261 22.2165M324.076 22.2165L363.668 22.2165M324.076 22.2165L284.484 22.2165M356.575 24.6061L363.668 22.2165M356.575 24.6061L349.193 27.0927M356.575 24.6061L396.955 24.6061M363.668 22.2165L403.261 22.2165M284.484 22.2165L244.891 22.2165M284.484 22.2165L292.822 19.9184M403.261 22.2165L396.955 24.6061M292.822 19.9184L253.987 19.9184M349.193 27.0927L341.504 29.6824M349.193 27.0927L390.393 27.0927M396.955 24.6061L390.393 27.0927M390.393 27.0927L383.559 29.6824M299.449 29.6824L290.545 32.3818M299.449 29.6824L341.504 29.6824M299.449 29.6824L257.394 29.6824M341.504 29.6824L333.49 32.3818M341.504 29.6824L383.559 29.6824M383.559 29.6824L376.436 32.3818M290.545 32.3818L333.49 32.3818M290.545 32.3818L247.599 32.3818M325.13 35.198L333.49 32.3818M325.13 35.198L316.399 38.1385M325.13 35.198H369.004M333.49 32.3818H376.436M247.599 32.3818H204.654M247.599 32.3818L257.394 29.6824M376.436 32.3818L369.004 35.198M257.394 29.6824L215.339 29.6824M316.399 38.1385L307.275 41.2123M316.399 38.1385L361.244 38.1385M369.004 35.198L361.244 38.1385M361.244 38.1385L353.133 41.2123M261.417 41.2123L250.809 44.4282M261.417 41.2123L307.275 41.2123M261.417 41.2123H215.558M307.275 41.2123L297.728 44.4282M307.275 41.2123L353.133 41.2123M353.133 41.2123L344.647 44.4282M250.809 44.4282L297.728 44.4282M250.809 44.4282H203.89M287.729 47.7963L297.728 44.4282M287.729 47.7963L277.245 51.3278M287.729 47.7963L335.759 47.7963M297.728 44.4282L344.647 44.4282M203.89 44.4282L156.971 44.4282M203.89 44.4282L215.558 41.2123M344.647 44.4282L335.759 47.7963M215.558 41.2123L169.7 41.2123M277.245 51.3278L266.239 55.035M277.245 51.3278L326.439 51.3278M335.759 47.7963L326.439 51.3278M326.439 51.3278L316.657 55.035M215.821 55.035L202.97 58.931M215.821 55.035L266.239 55.035M215.821 55.035L165.404 55.035M266.239 55.035L254.673 58.931M266.239 55.035H316.657M316.657 55.035L306.376 58.931M202.97 58.931L254.673 58.931M202.97 58.931H151.267M242.501 63.0309L254.673 58.931M242.501 63.0309L229.676 67.351M242.501 63.0309L295.556 63.0309M254.673 58.931L306.376 58.931M151.267 58.931L99.5638 58.931M151.267 58.931L165.404 55.035M306.376 58.931L295.556 63.0309M165.404 55.035L114.986 55.035M229.676 67.351L216.142 71.9099M229.676 67.351H284.156M295.556 63.0309L284.156 67.351M284.156 67.351L272.127 71.9099M160.158 71.9099L144.268 76.727M160.158 71.9099L216.142 71.9099M160.158 71.9099H104.174M216.142 71.9099L201.841 76.727M216.142 71.9099H272.127M272.127 71.9099L259.414 76.727M144.268 76.727L201.841 76.727M144.268 76.727H86.6947M186.704 81.8262L201.841 76.727M186.704 81.8262L170.656 87.2317M186.704 81.8262H245.959M201.841 76.727H259.414M86.6947 76.727L29.1214 76.727M86.6947 76.727L104.174 71.9099M259.414 76.727L245.959 81.8262M104.174 71.9099L48.1899 71.9099M170.656 87.2317L153.611 92.9732M170.656 87.2317L231.694 87.2317M245.959 81.8262L231.694 87.2317M231.694 87.2317L216.543 92.9732M90.679 92.9732L70.5288 99.082M90.679 92.9732H153.611M90.679 92.9732L27.7469 92.9732M153.611 92.9732L135.476 99.082M153.611 92.9732L216.543 92.9732M216.543 92.9732L200.423 99.082M70.5288 99.082H135.476M70.5288 99.082L5.58173 99.082M116.14 105.595L135.476 99.082M116.14 105.595L95.4821 112.554M116.14 105.595L183.236 105.595M135.476 99.082L200.423 99.082M5.58173 99.082L27.7469 92.9732M5.58173 99.082H0.887277M5.58173 99.082L0.887277 100.376M200.423 99.082L183.236 105.595M27.7469 92.9732H0.887277M95.4821 112.554L73.3604 120.005M95.4821 112.554H164.873M183.236 105.595L164.873 112.554M164.873 112.554L145.209 120.005M1.51126 120.005L73.3604 120.005M1.51126 120.005H0.887277M1.51126 120.005L0.887277 120.194M73.3604 120.005L49.6132 128.004M73.3604 120.005H145.209M145.209 120.005L124.101 128.004M24.0562 136.613L49.6132 128.004M24.0562 136.613H101.383M24.0562 136.613H0.887277M24.0562 136.613L0.887277 144.417M49.6132 128.004H124.101M49.6132 128.004H0.887277M124.101 128.004L101.383 136.613M101.383 136.613L76.8653 145.904M76.8653 145.904L50.3233 155.962M76.8653 145.904H0.887277M50.3233 155.962L21.4958 166.886M50.3233 155.962H0.887277M21.4958 166.886H0.887277M21.4958 166.886L0.887277 174.696M214.993 11.5437L205.85 13.5237M214.993 11.5437L251.066 11.5437M214.993 11.5437L178.922 11.5437M259.259 9.63285L267.172 7.78764M259.259 9.63285L251.066 11.5437M259.259 9.63285L294.701 9.63285M267.172 7.78764L302.004 7.78764M267.172 7.78764L274.817 6.00492M240.572 6.00492L274.817 6.00492M240.572 6.00492L248.532 4.28121M240.572 6.00492L206.327 6.00492M251.066 11.5437L242.575 13.5237M251.066 11.5437L287.138 11.5437M294.701 9.63285L302.004 7.78764M294.701 9.63285L287.138 11.5437M302.004 7.78764L309.062 6.00492M274.817 6.00492L275.754 5.78605L282.208 4.28121M274.817 6.00492L309.062 6.00492M287.138 11.5437L279.3 13.5237M343.306 6.00492L349.56 4.28121M343.306 6.00492L309.062 6.00492M309.062 6.00492L309.927 5.78605L315.884 4.28121M205.85 13.5237L242.575 13.5237M205.85 13.5237L169.125 13.5237M233.771 15.5767L242.575 13.5237M233.771 15.5767L224.637 17.7068M233.771 15.5767L271.174 15.5767M242.575 13.5237L279.3 13.5237M169.125 13.5237L132.4 13.5237M169.125 13.5237L178.922 11.5437M279.3 13.5237L271.174 15.5767M178.922 11.5437L142.85 11.5437M224.637 17.7068L215.153 19.9184M224.637 17.7068L262.742 17.7068M271.174 15.5767L270.137 15.8384L262.742 17.7068M262.742 17.7068L253.987 19.9184M176.319 19.9184L165.706 22.2165M176.319 19.9184L215.153 19.9184M176.319 19.9184L137.484 19.9184M215.153 19.9184L205.299 22.2165M215.153 19.9184L253.987 19.9184M253.987 19.9184L244.891 22.2165M165.706 22.2165L205.299 22.2165M165.706 22.2165L126.114 22.2165M195.052 24.6061L205.299 22.2165M195.052 24.6061L184.389 27.0927M195.052 24.6061L235.433 24.6061M205.299 22.2165L244.891 22.2165M126.114 22.2165L86.5216 22.2165M126.114 22.2165L137.484 19.9184M244.891 22.2165L235.433 24.6061M137.484 19.9184L98.6499 19.9184M184.389 27.0927L173.284 29.6824M184.389 27.0927L225.59 27.0927M235.433 24.6061L225.59 27.0927M225.59 27.0927L215.339 29.6824M131.229 29.6824L118.763 32.3818M131.229 29.6824L173.284 29.6824M131.229 29.6824L89.1734 29.6824M173.284 29.6824L161.709 32.3818M173.284 29.6824L215.339 29.6824M215.339 29.6824L204.654 32.3818M118.763 32.3818L161.709 32.3818M118.763 32.3818H75.8173M149.632 35.198L161.709 32.3818M149.632 35.198L137.022 38.1385M149.632 35.198H193.507M161.709 32.3818L204.654 32.3818M75.8173 32.3818L32.8721 32.3818M75.8173 32.3818L89.1734 29.6824M204.654 32.3818L193.507 35.198M89.1734 29.6824L47.1187 29.6824M137.022 38.1385L123.841 41.2123M137.022 38.1385L181.866 38.1385M193.507 35.198L181.866 38.1385M181.866 38.1385L169.7 41.2123M77.9829 41.2123L63.1325 44.4282M77.9829 41.2123L123.841 41.2123M77.9829 41.2123H32.1252M123.841 41.2123L110.052 44.4282M123.841 41.2123L169.7 41.2123M169.7 41.2123L156.971 44.4282M63.1325 44.4282L110.052 44.4282M95.6079 47.7963L110.052 44.4282M95.6079 47.7963L80.4646 51.3278M95.6079 47.7963H143.639M110.052 44.4282L156.971 44.4282M156.971 44.4282L143.639 47.7963M32.1252 41.2123L0.887277 41.2123M80.4646 51.3278L64.5677 55.035M80.4646 51.3278L129.659 51.3278M143.639 47.7963L129.659 51.3278M129.659 51.3278L114.986 55.035M14.1497 55.035L64.5677 55.035M14.1497 55.035H0.887277M14.1497 55.035L0.887277 57.9068M64.5677 55.035L47.8603 58.931M64.5677 55.035L114.986 55.035M114.986 55.035L99.5638 58.931M30.2795 63.0309L47.8603 58.931M30.2795 63.0309L11.7541 67.351M30.2795 63.0309H83.3351M30.2795 63.0309L0.887277 63.0309M47.8603 58.931L99.5638 58.931M47.8603 58.931L0.887277 58.931M99.5638 58.931L83.3351 63.0309M0.741207 57.9384L0.887277 57.9068M11.7541 67.351L66.2344 67.351M11.7541 67.351H0.887277M11.7541 67.351L0.887277 69.8852M83.3351 63.0309L66.2344 67.351M66.2344 67.351L48.1899 71.9099M48.1899 71.9099L29.1214 76.727M48.1899 71.9099H0.887277M8.93834 81.8262L29.1214 76.727M8.93834 81.8262H0.887277M8.93834 81.8262L0.887277 83.86M29.1214 76.727H0.887277M70.7064 11.5437L58.9504 13.5237M70.7064 11.5437L106.778 11.5437M70.7064 11.5437L34.6339 11.5437M117.493 9.63285L127.84 7.78764M117.493 9.63285L106.778 11.5437M117.493 9.63285L152.935 9.63285M127.84 7.78764L162.673 7.78764M127.84 7.78764L137.837 6.00492M103.592 6.00492L137.837 6.00492M103.592 6.00492L113.826 4.28121M103.592 6.00492L69.3476 6.00492M106.778 11.5437L95.6753 13.5237M106.778 11.5437L142.85 11.5437M152.935 9.63285L162.673 7.78764M152.935 9.63285L142.85 11.5437M162.673 7.78764L172.082 6.00492M137.837 6.00492L172.082 6.00492M137.837 6.00492L147.503 4.28121M142.85 11.5437L132.4 13.5237M206.327 6.00492L214.856 4.28121M206.327 6.00492L172.082 6.00492M172.082 6.00492L181.179 4.28121M58.9504 13.5237L95.6753 13.5237M58.9504 13.5237L22.2254 13.5237M84.1628 15.5767L95.6753 13.5237M84.1628 15.5767L72.218 17.7068M84.1628 15.5767L121.565 15.5767M95.6753 13.5237L132.4 13.5237M22.2254 13.5237L34.6339 11.5437M22.2254 13.5237L0.887277 13.5237M132.4 13.5237L121.565 15.5767M34.6339 11.5437L0.887277 11.5437M72.218 17.7068L59.8156 19.9184M72.218 17.7068L110.323 17.7068M121.565 15.5767L110.323 17.7068M110.323 17.7068L98.6499 19.9184M20.9812 19.9184L7.33681 22.2165M20.9812 19.9184L59.8156 19.9184M20.9812 19.9184L0.887277 19.9184M59.8156 19.9184L46.9292 22.2165M59.8156 19.9184L98.6499 19.9184M98.6499 19.9184L86.5216 22.2165M33.5297 24.6061L46.9292 22.2165M33.5297 24.6061L19.5857 27.0927M33.5297 24.6061L73.9102 24.6061M33.5297 24.6061L0.887277 24.6061M46.9292 22.2165L7.33681 22.2165M46.9292 22.2165L86.5216 22.2165M7.33681 22.2165L0.887277 23.3027M7.33681 22.2165H0.887277M86.5216 22.2165L73.9102 24.6061M19.5857 27.0927L5.06337 29.6824M19.5857 27.0927L60.7864 27.0927M19.5857 27.0927L0.887277 27.0927M73.9102 24.6061L60.7864 27.0927M60.7864 27.0927L47.1187 29.6824M5.06337 29.6824L47.1187 29.6824M5.06337 29.6824L0.887277 30.427M5.06337 29.6824H0.887277M47.1187 29.6824L32.8721 32.3818M18.0089 35.198L32.8721 32.3818M18.0089 35.198L2.4888 38.1385M18.0089 35.198H0.887277M32.8721 32.3818H0.887277M0.662552 32.3818H0.887277M2.4888 38.1385H0.887277M2.4888 38.1385L0.887277 38.442M0.5 38.5154L0.887277 38.442M11.1683 9.63285L23.3408 7.78764M11.1683 9.63285L0.887277 9.63285M11.1683 9.63285L0.887277 11.1911M23.3408 7.78764L35.1028 6.00492M23.3408 7.78764L0.887277 7.78764M69.3476 6.00492L80.15 4.28121M69.3476 6.00492L35.1028 6.00492M35.1028 6.00492L46.4738 4.28121M35.1028 6.00492L0.887277 6.00492M1191.47 4.28121L1225.14 4.28121M1191.47 4.28121L1157.79 4.28121M1216.89 2.61396L1218.93 3.02569L1225.14 4.28121M1216.89 2.61396L1250.02 2.61396M1225.14 4.28121L1258.82 4.28121M1250.02 2.61396L1252.19 3.02569L1253.29 3.23252L1258.82 4.28121M1258.82 4.28121L1292.5 4.28121M1292.5 4.28121L1326.17 4.28121M1157.79 4.28121L1124.12 4.28121M1326.17 4.28121L1359.85 4.28121M1359.85 4.28121L1349.4 2.61396M1359.85 4.28121L1393.53 4.28121M1349.4 2.61396L1382.53 2.61396M1056.76 4.28121L1090.44 4.28121M1056.76 4.28121L1023.09 4.28121M1084.39 2.61396L1085.88 3.02569L1086.64 3.23252L1090.44 4.28121M1084.39 2.61396L1117.52 2.61396M1090.44 4.28121L1124.12 4.28121M1117.52 2.61396L1124.12 4.28121M1023.09 4.28121L989.41 4.28121M922.058 4.28121L955.734 4.28121M922.058 4.28121L888.382 4.28121M951.884 2.61396L952.359 2.81919L952.834 3.02569L953.313 3.23252L955.734 4.28121M951.884 2.61396L985.01 2.61396M955.734 4.28121L989.41 4.28121M985.01 2.61396L989.41 4.28121M888.382 4.28121L854.705 4.28121M787.352 4.28121L821.029 4.28121M787.352 4.28121L753.676 4.28121M819.379 2.61396L821.029 4.28121M819.379 2.61396L852.505 2.61396M821.029 4.28121L854.705 4.28121M852.505 2.61396L852.777 2.81919L853.049 3.02569L853.322 3.23252L854.705 4.28121M753.676 4.28121L720 4.28121M652.648 4.28121L686.324 4.28121M652.648 4.28121L618.971 4.28121M686.874 2.61396L686.324 4.28121M686.874 2.61396L720 2.61396M686.324 4.28121L720 4.28121M720 2.61396V4.28121M618.971 4.28121L585.295 4.28121M517.942 4.28121L551.618 4.28121M517.942 4.28121L484.266 4.28121M554.368 2.61396L553.689 3.02569L552.314 3.85901L551.618 4.28121M554.368 2.61396L587.495 2.61396M551.618 4.28121L585.295 4.28121M587.495 2.61396L587.223 2.81919L586.951 3.02569L586.678 3.23252L585.295 4.28121M484.266 4.28121L450.59 4.28121M383.237 4.28121L416.913 4.28121M383.237 4.28121L349.56 4.28121M421.863 2.61396L420.641 3.02569L420.026 3.23252L416.913 4.28121M421.863 2.61396L454.99 2.61396M416.913 4.28121L450.59 4.28121M454.99 2.61396L454.447 2.81919L450.59 4.28121M349.56 4.28121L315.884 4.28121M248.532 4.28121L282.208 4.28121M248.532 4.28121L214.856 4.28121M289.358 2.61396L287.592 3.02569L286.704 3.23252L282.208 4.28121M289.358 2.61396L322.484 2.61396M282.208 4.28121L315.884 4.28121M322.484 2.61396L321.671 2.81919L315.884 4.28121M214.856 4.28121L181.179 4.28121M113.826 4.28121L147.503 4.28121M113.826 4.28121L80.15 4.28121M156.852 2.61396L147.503 4.28121M156.852 2.61396L189.979 2.61396M147.503 4.28121L181.179 4.28121M189.979 2.61396L187.806 3.02569L186.713 3.23252L181.179 4.28121M80.15 4.28121L46.4738 4.28121M24.3476 2.61396L12.7976 4.28121M24.3476 2.61396L57.474 2.61396M24.3476 2.61396L0.887277 2.61396M12.7976 4.28121L46.4738 4.28121M12.7976 4.28121L0.887277 6.0007M12.7976 4.28121L0.887277 4.28121M57.474 2.61396L54.7578 3.02569L46.4738 4.28121M1382.53 2.61396L1385.24 3.02569L1393.53 4.28121M1393.53 4.28121L1427.2 4.28121M1427.2 4.28121L1439.11 6.00071M1427.2 4.28121L1439.11 4.28121M1439.11 83.86V81.8262M1439.11 83.86V87.2317M1439.11 81.8262V76.727M1439.11 87.2317V88.2393V92.9732M1439.11 92.9732V99.082M1439.11 44.4282V41.2123M1439.11 44.4282V47.5256M1439.11 2.61396V4.28121M1439.11 4.28121V6.00071M1439.11 6.00071L1439.14 6.00492H1439.11M1439.11 6.00071V6.00492M1439.11 6.00492V7.78764M1439.11 7.78764V9.63285M1439.11 9.63285V11.1911M1439.11 11.1911V11.5437M1439.11 11.5437V13.5237M1439.11 13.5237V15.5767M1439.11 15.5767V16.9281M1439.11 16.9281V17.7068M1439.11 17.7068V19.9184M1439.11 19.9184V22.2165M1439.11 22.2165V23.3027M1439.11 23.3027V24.6061M1439.11 24.6061V27.0927M1439.11 27.0927V29.6824M1439.11 29.6824V30.427M1439.11 30.427V32.3818M1439.11 32.3818V35.198M1439.11 35.198V38.1385M1439.11 38.1385V38.442M1439.11 38.442V41.2123M1439.11 47.7963V51.3278M1439.11 47.7963V47.5256M1439.11 51.3278V55.035M1439.11 55.035V57.9068M1439.11 57.9068V58.931M1439.11 58.931V63.0309M1439.11 63.0309V67.351M1439.11 67.351V69.8852M1439.11 69.8852V71.9099M1439.11 71.9099V76.727M1439.11 99.082V100.376M1439.11 100.376V105.595M1439.11 105.595V112.554M1439.11 112.554V120.005M1439.11 120.005V120.194M1439.11 120.194V128.004M1439.11 128.004V136.613M1439.11 136.613V144.417M1439.11 144.417V145.904M1439.11 145.904V155.962M1439.11 155.962V166.886M1439.11 166.886V174.696M1439.11 174.696V178.793M1439.11 178.793V191.822M1439.11 191.822V206.138M1439.11 206.138V213.626M1439.11 213.626V221.944M1439.11 221.944V222L0.887277 222V221.944M0.887277 47.7963L0.887277 51.3278M0.887277 47.7963V47.5256M0.887277 47.5256L0.887277 44.4282M0.887277 44.4282L0.887277 41.2123M0.887277 41.2123L0.887277 38.442M0.887277 38.442L0.887277 38.1385M0.887277 38.1385L0.887277 35.198M0.887277 35.198L0.887277 32.3818M0.887277 32.3818L0.887277 30.427M0.887277 30.427V29.6824M0.887277 29.6824L0.887277 27.0927M0.887277 27.0927L0.887277 24.6061M0.887277 24.6061L0.887277 23.3027M0.887277 23.3027V22.2165M0.887277 22.2165L0.887277 19.9184M0.887277 19.9184L0.887277 17.7068M0.887277 17.7068V16.9281M0.887277 16.9281L0.887277 15.5767M0.887277 15.5767L0.887277 13.5237M0.887277 13.5237L0.887277 11.5437M0.887277 11.5437L0.887277 11.1911M0.887277 11.1911L0.887277 9.63285M0.887277 9.63285L0.887277 7.78764M0.887277 7.78764L0.887277 6.00492M0.887277 6.00492H0.858062L0.887277 6.0007M0.887277 6.00492V6.0007M0.887277 6.0007L0.887277 4.28121M0.887277 4.28121L0.887277 2.61396M0.887277 221.944L0.887277 213.626M0.887277 213.626L0.887277 206.138M0.887277 206.138L0.887277 191.822M0.887277 191.822L0.887277 178.793M0.887277 178.793L0.887277 174.696M0.887277 174.696L0.887277 166.886M0.887277 166.886L0.887277 155.962M0.887277 155.962L0.887277 145.904M0.887277 145.904L0.887277 144.417M0.887277 144.417L0.887277 136.613M0.887277 136.613L0.887277 128.004M0.887277 128.004L0.887277 120.194M0.887277 120.194V120.005M0.887277 120.005L0.887277 112.554M0.887277 112.554L0.887277 105.595M0.887277 105.595L0.887277 100.376M0.887277 100.376L0.887277 99.082M0.887277 99.082L0.887277 92.9732M0.887277 92.9732L0.887277 87.2317M0.887277 87.2317L0.887277 83.86M0.887277 83.86L0.887277 81.8262M0.887277 81.8262L0.887277 76.727M0.887277 76.727L0.887277 71.9099M0.887277 71.9099L0.887277 69.8852M0.887277 69.8852L0.887277 67.351M0.887277 67.351L0.887277 63.0309M0.887277 63.0309L0.887277 58.931M0.887277 58.931L0.887277 57.9068M0.887277 57.9068L0.887277 55.035M0.887277 55.035L0.887277 51.3278" stroke="url(#paint0_radial_158_5370)" stroke-opacity="0.4" stroke-miterlimit="10" stroke-linecap="round" stroke-linejoin="round"/>
<defs>
<radialGradient id="paint0_radial_158_5370" cx="0" cy="0" r="1" gradientUnits="userSpaceOnUse" gradientTransform="translate(720 223.221) rotate(-90) scale(355.313 1113.87)">
<stop stop-color="#00CBFF"/>
<stop offset="0.723358" stop-color="#B0D3ED" stop-opacity="0"/>
</radialGradient>
</defs>
</svg>
