<svg width="15" height="15" viewBox="0 0 15 15" fill="none" xmlns="http://www.w3.org/2000/svg">
<path fill-rule="evenodd" clip-rule="evenodd" d="M7.20374 0.733962C7.28289 0.654835 7.37684 0.592067 7.48026 0.549242C7.58368 0.506417 7.69453 0.484375 7.80647 0.484375C7.91841 0.484375 8.02924 0.506417 8.13266 0.549242C8.23608 0.592067 8.33005 0.654835 8.40919 0.733962L14.3751 6.69709C14.4543 6.7762 14.5171 6.87011 14.5599 6.97348C14.6027 7.07685 14.6248 7.18765 14.6248 7.29954C14.6248 7.41143 14.6027 7.52221 14.5599 7.62558C14.5171 7.72895 14.4543 7.82287 14.3751 7.90198L8.40919 13.8651C8.33004 13.9442 8.23607 14.007 8.13266 14.0498C8.02924 14.0926 7.9184 14.1147 7.80647 14.1147C7.69453 14.1147 7.58369 14.0926 7.48027 14.0498C7.37685 14.007 7.28289 13.9442 7.20374 13.8651C7.12458 13.786 7.0618 13.6921 7.01897 13.5887C6.97612 13.4853 6.95407 13.3745 6.95407 13.2627C6.95407 13.1508 6.97612 13.04 7.01897 12.9366C7.0618 12.8332 7.12458 12.7393 7.20374 12.6602L11.7147 8.15141H1.84056C1.61452 8.15141 1.39774 8.06166 1.23791 7.9019C1.07807 7.74214 0.988281 7.52547 0.988281 7.29954C0.988281 7.07361 1.07807 6.85693 1.23791 6.69717C1.39774 6.53742 1.61452 6.44766 1.84056 6.44766H11.7147L7.20374 1.93886C7.12457 1.85975 7.06177 1.76583 7.01893 1.66246C6.97608 1.55909 6.95403 1.4483 6.95403 1.33641C6.95403 1.22452 6.97608 1.11373 7.01893 1.01036C7.06177 0.90699 7.12457 0.81307 7.20374 0.733962Z" fill="#FCFBFA"/>
</svg>
