  <svg xmlns="http://www.w3.org/2000/svg" fill="none" viewBox="0 0 64 48" role="img" class="ez-credit-card-icon" data-type="master-card"><rect width="64" height="48" rx="6" fill="url(#paint0_linear_9_76)"></rect><path d="M18.6123 39.9299v-2.1237c0-.8124-.5044-1.3444-1.3703-1.3444-.433 0-.9037.1403-1.2274.6021-.2522-.3876-.6137-.6021-1.1559-.6021-.3615 0-.723.1073-1.0088.4949v-.4247h-.7566v3.3979h.7566v-1.8763c0-.6021.3236-.8866.828-.8866s.7566.3175.7566.8866v1.8763h.7566v-1.8763c0-.6021.3615-.8866.8281-.8866.5044 0 .7566.3175.7566.8866v1.8763h.8365Zm11.223-3.3979h-1.2274v-1.0269h-.7566v1.0269h-.6852v.6721h.6852v1.5588c0 .7794.3236 1.2371 1.1895 1.2371.3237 0 .6852-.1072.9374-.2474l-.2186-.6392c-.2186.1402-.4708.1773-.6515.1773-.3615 0-.5044-.2144-.5044-.5649v-1.5217h1.2273v-.6721h.0043Zm6.4227-.0743c-.433 0-.723.2145-.9037.4949v-.4248h-.7566v3.398h.7566v-1.9134c0-.565.2522-.8866.7229-.8866.143 0 .3237.0371.4708.0701l.2186-.7093c-.1513-.0289-.3657-.0289-.5086-.0289Zm-9.7056.3547c-.3615-.2475-.8659-.3547-1.4081-.3547-.8659 0-1.4418.4248-1.4418 1.0969 0 .565.433.8866 1.1896.9897l.3615.0371c.3951.0701.6137.1774.6137.3547 0 .2474-.2901.4247-.7945.4247s-.9037-.1773-1.1559-.3546l-.3615.5649c.3951.2846.9374.4248 1.4796.4248 1.0088 0 1.5889-.4619 1.5889-1.0969 0-.6021-.4708-.9196-1.1896-1.0268l-.3615-.0372c-.3236-.0371-.5758-.1072-.5758-.3175 0-.2474.2522-.3876.6515-.3876.433 0 .8659.1773 1.0845.2845l.3194-.602Zm20.1299-.3547c-.4329 0-.7229.2145-.9037.4949v-.4248h-.7566v3.398h.7566v-1.9134c0-.565.2522-.8866.723-.8866.1429 0 .3236.0371.4708.0701l.2185-.7011c-.1471-.0371-.3615-.0371-.5086-.0371Zm-9.6677 1.7732c0 1.0268.723 1.7691 1.8411 1.7691.5044 0 .8659-.1072 1.2274-.3876l-.3615-.6021c-.2901.2144-.5759.3175-.9038.3175-.6137 0-1.0466-.4247-1.0466-1.0969 0-.6392.4329-1.0639 1.0466-1.0969.3237 0 .6137.1072.9038.3175l.3615-.602c-.3615-.2846-.723-.3877-1.2274-.3877-1.1181-.0041-1.8411.7423-1.8411 1.7691Zm6.9986 0V36.532h-.7566v.4247c-.2522-.3175-.6137-.4949-1.0845-.4949-.9752 0-1.7318.7423-1.7318 1.7691S41.1969 40 42.1721 40c.5044 0 .8659-.1773 1.0845-.4949v.4248h.7566v-1.699Zm-2.7784 0c0-.602.3951-1.0969 1.0466-1.0969.6137 0 1.0466.4619 1.0466 1.0969 0 .6021-.4329 1.0969-1.0466 1.0969-.6473-.0371-1.0466-.4989-1.0466-1.0969Zm-9.0541-1.7732c-1.0088 0-1.7318.7093-1.7318 1.7691 0 1.0639.723 1.7691 1.7697 1.7691.5044 0 1.0088-.1402 1.4081-.4619l-.3615-.5319c-.29.2144-.6515.3546-1.0088.3546-.4708 0-.9374-.2144-1.0466-.8124h2.5598v-.2845c.0336-1.0928-.6179-1.8021-1.5889-1.8021Zm0 .6392c.4708 0 .7945.2845.8659.8124h-1.8032c.0714-.4578.3951-.8124.9373-.8124Zm18.7975 1.134v-3.0433h-.7566v1.7691c-.2522-.3175-.6137-.4949-1.0845-.4949-.9752 0-1.7318.7423-1.7318 1.7691S48.1619 40 49.1371 40c.5044 0 .8659-.1773 1.0845-.4949v.4248h.7566v-1.699Zm-2.7785 0c0-.602.3952-1.0969 1.0467-1.0969.6137 0 1.0466.4619 1.0466 1.0969 0 .6021-.4329 1.0969-1.0466 1.0969-.6515-.0371-1.0467-.4989-1.0467-1.0969Zm-25.3294 0V36.532h-.7566v.4247c-.2522-.3175-.6137-.4949-1.0845-.4949-.9752 0-1.7318.7423-1.7318 1.7691S20.054 40 21.0292 40c.5044 0 .8659-.1773 1.0845-.4949v.4248h.7566v-1.699Zm-2.8121 0c0-.602.3951-1.0969 1.0467-1.0969.6137 0 1.0466.4619 1.0466 1.0969 0 .6021-.4329 1.0969-1.0466 1.0969-.6516-.0371-1.0467-.4989-1.0467-1.0969Z" fill="#000"></path><path d="M37.6662 10.7258H26.3003v20.033h11.3659v-20.033Z" fill="#FF5A00"></path><path d="M27.0568 20.7423c0-4.0701 1.9504-7.6825 4.9432-10.0165C29.7974 9.0268 27.019 8 23.9884 8 16.809 8 11 13.699 11 20.7423s5.809 12.7422 12.9884 12.7422c3.0306 0 5.809-1.0268 8.0116-2.7257-2.997-2.3011-4.9432-5.9464-4.9432-10.0165Z" fill="#EB001B"></path><path d="M53 20.7423c0 7.0433-5.809 12.7422-12.9884 12.7422-3.0306 0-5.809-1.0268-8.0116-2.7257 3.0306-2.3382 4.9432-5.9464 4.9432-10.0165 0-4.0701-1.9504-7.6825-4.9432-10.0165C34.1984 9.0268 36.9768 8 40.0074 8 47.191 8 53 13.7361 53 20.7423Z" fill="#F79E1B"></path><defs><linearGradient id="paint0_linear_9_76" x1="0" y1="0" x2="64" y2="48" gradientUnits="userSpaceOnUse"><stop stop-color="#F5F7F8"></stop><stop offset="1" stop-color="#E4E5E7"></stop></linearGradient></defs></svg>
