  <svg xmlns="http://www.w3.org/2000/svg" fill="none" viewBox="0 0 64 48" role="img" class="ez-credit-card-icon" data-type="american-express"><rect width="64" height="48" rx="6" fill="url(#paint0_linear_9_53)"></rect><path d="m4.53628 14.9019 1.23079 3.1426H3.31252l1.22376-3.1426ZM31.9917 16.9555c.3502 0 .6424-.0052.8896-.1624.2332-.1277.3705-.4049.3705-.7494 0-.3376-.1443-.5821-.3776-.6969-.2124-.1275-.5394-.1422-.8527-.1422h-2.2143v1.7509h2.1845ZM47.221 14.9019l1.2444 3.1426h-2.482l1.2376-3.1426Z" fill="#fff"></path><path fill-rule="evenodd" clip-rule="evenodd" d="M3.07267 22.9943H.0002269L0 17.2273 2.17771 12h4.68945l.60405 1.2984V12h5.49859l1.2029 2.8396L15.3441 12h17.4573c.7935 0 1.5072.155 2.0309.642V12h4.7784v.642c.823-.4725 1.8419-.642 3.0009-.642h6.9244l.6424 1.2984V12h5.1262l.6996 1.2984V12H61v10.9943h-5.048l-.9539-1.6632v1.6632h-6.2994l-.6842-1.7509h-1.551l-.6995 1.7509h-3.269c-1.2828 0-2.2576-.3172-2.8843-.6691v.6691h-7.7703v-2.4949c0-.3521-.0595-.3718-.263-.3792h-.2907l.0071 2.8741H16.2701v-1.3586L15.7305 23h-3.1383l-.5396-1.3443v1.3386H6.00737l-.69096-1.7509H3.76544l-.69277 1.7509ZM17.5721 21.446h1.8433v-7.8829h-2.9939l-2.1619 5.3476-2.3533-5.3476H8.97135v7.4634l-3.05837-7.4634H3.24127L.0211032 21.446H1.97417l.69799-1.7583h3.74412l.69095 1.7583h3.65747v-6.1793l2.6143 6.1793h1.5788l2.6075-6.1739.0068 6.1739Zm3.1837 0h6.0071v-1.6304h-4.2088v-1.5742h4.1078v-1.6159h-4.1078v-1.4209h4.2088v-1.6415h-6.0071v7.8829Zm13.2099-3.6588c.4665-.1949 1.2671-.8443 1.2671-2.1011 0-.8793-.3411-1.3933-.9099-1.7455-.5814-.3521-1.2585-.3775-2.1775-.3775h-4.136v7.8829h1.7981v-2.8673h1.9303c.6474 0 1.0479.0602 1.3107.3374.294.3408.2888.9262.2848 1.3856-.0005.0519-.0009.1021-.0009.1502l.0068.9941h1.8137v-1.5486c0-.704-.0438-1.0543-.2977-1.4463-.16-.2297-.496-.507-.8895-.6639Zm2.31 3.6588h1.8348v-7.8829h-1.8348v7.8829Zm20.5731 0h2.5483v-7.8827h-1.8419v5.49l-3.161-5.49h-2.7379v7.4561l-3.0445-7.4561h-2.6944l-2.5345 6.1993h-.8076c-.4733 0-.9764-.0947-1.2532-.4066-.3343-.3978-.4945-1.0067-.4945-1.8512 0-.8263.2104-1.4537.5169-1.7857.357-.3647.7275-.4669 1.3838-.4669h1.7043v-1.6891h-1.7409c-1.2391 0-2.1495.29-2.7309.9192-.7729.8445-.9694 1.9133-.9694 3.0824 0 1.4335.3288 2.3401.9608 3.0094.6267.6693 1.7334.8719 2.6075.8719h2.1042l.6789-1.7583h3.7355l.6998 1.7583h3.6622v-5.9166l3.4085 5.9166Z" fill="#fff"></path><path d="M60.739 28.9493H64v2.0383c-.0078-.0096-.0154-.0191-.023-.0287-.0412-.0516-.0818-.1025-.143-.1487-.3982-.3924-1.0514-.5534-2.03-.5765l-.9697-.0248c-.2981 0-.5008-.0184-.6896-.0812-.2319-.0795-.3913-.2634-.3913-.5336 0-.2272.0727-.3994.2615-.5154.1822-.1177.3985-.1294.7241-.1294ZM39.8337 30.5154c.3482 0 .6442-.0117.8835-.1475.2319-.1342.3705-.3811.3705-.6876s-.1386-.5283-.3705-.6443c-.2165-.1229-.5353-.1294-.8539-.1294h-2.2032v1.6088h2.1736ZM29.6738 30.7307h2.3123c.6875 0 1.1151-.3263 1.1151-.9458 0-.6265-.4484-.8783-1.0943-.8783h-2.3331v1.8241ZM25.1446 31.0189l2.7471 2.9178v-5.7429l-2.7471 2.8251ZM16.3981 33.0954h4.3992l2.0438-2.1016-1.9571-2.0874h-4.4859v1.3023h3.9282v1.4615h-3.9282v1.4252Z" fill="#fff"></path><path fill-rule="evenodd" clip-rule="evenodd" d="M61.5719 34.5882c1.1465 0 1.9935-.3083 2.4281-.9163v1.862c-.7169.3313-1.6591.4607-2.6239.4607h-4.6362v-.6396c-.5372.4124-1.5072.6396-2.4351.6396H39.6883v-2.31c0-.2832-.0291-.2948-.3254-.2948h-.2321v2.605h-4.8114v-2.6975c-.8054.3331-1.7183.3629-2.4923.3515h-.5735V36l-5.8334-.005-1.4342-1.5539-1.5224 1.5539H13V26h9.6451l1.3838 1.5298L25.5065 26h6.4568c.7464 0 1.9711.0747 2.5218.5849V26h5.7692c.5422 0 1.7167.1045 2.4128.5849V26h8.7465v.5849c.4348-.3991 1.3542-.5849 2.1375-.5849h4.898v.5849c.5141-.3559 1.24-.5849 2.2393-.5849h3.3114v1.4252h-3.5641c-1.8776 0-2.5671 1.0936-2.5671 2.1326 0 2.1185 1.8307 2.166 3.4417 2.2077.1127.003.2244.0058.3343.0094.3116 0 .5006.0497.6304.159.1316.0994.2186.265.2186.4737 0 .1955-.087.3564-.2116.4672-.1438.1344-.3827.1774-.7241.1774h-3.4414v1.536h3.4554Zm-4.1741-2.2603c0-.7372-.1867-1.1727-.5351-1.5177-.4053-.3927-1.072-.5534-2.0434-.576l-.9632-.0249c-.3048 0-.5075-.0183-.6963-.0812-.2251-.0795-.3915-.2633-.3915-.5335 0-.2273.0727-.3994.2687-.5154.1799-.1178.3915-.1294.7168-.1294h3.2823v-1.5246H53.449c-1.8758 0-2.5581 1.0936-2.5581 2.1326 0 2.1184 1.8301 2.166 3.4354 2.2077.1124.0029.2238.0058.3334.0094.3116 0 .5003.0497.6372.159.1228.0994.2183.265.2183.4737 0 .1955-.0883.3564-.2113.4672-.1509.1344-.3915.1774-.7309.1774h-3.471v1.536h3.485c1.8045 0 2.8108-.7193 2.8108-2.2603Zm-14.7235-.4672c-.1526-.2087-.4782-.4608-.8765-.6014.471-.1788 1.268-.7623 1.2683-1.9056 0-.8171-.3552-1.2643-.9199-1.5907-.5873-.2998-1.247-.338-2.1529-.338h-4.1309v7.1632h1.7979v-2.6163h1.9122c.6527 0 1.0512.0614 1.3127.318.2994.2998.2941.8468.2901 1.2673-.0004.0467-.0009.0918-.0009.1348v.8962h1.7964v-1.42c-.0072-.6314-.0438-.9578-.2965-1.3075ZM50.03 27.425h-5.9718v7.1632H50.03v-1.4864l-4.1899-.0064v-1.4252h4.0876v-1.4615h-4.0876v-1.3023H50.03V27.425Zm-18.1236 4.7606c1.564 0 3.1158-.4109 3.1158-2.4007 0-1.9838-1.5954-2.3599-3.0153-2.3599h-5.7174l-2.2759 2.348-2.2014-2.348h-7.1965v7.1632h7.0874l2.2897-2.3713 2.2032 2.3713h3.4778v-2.4026h2.2326Z" fill="#fff"></path><defs><linearGradient id="paint0_linear_9_53" x1="0" y1="0" x2="64" y2="48" gradientUnits="userSpaceOnUse"><stop stop-color="#9AD4F6"></stop><stop offset="1" stop-color="#2E77BC"></stop></linearGradient></defs></svg>
