  <svg xmlns="http://www.w3.org/2000/svg" fill="none" viewBox="0 0 64 48" role="img" class="ez-credit-card-icon" data-type="discover"><rect width="64" height="48" rx="6" fill="url(#paint0_linear_9_97)"></rect><path fill-rule="evenodd" clip-rule="evenodd" d="M8.38333 20.186H6v8.2952h2.35238c1.26933 0 2.16672-.2788 2.97162-.9596.9286-.7736 1.5165-1.9501 1.5165-3.1882 0-2.4449-1.8263-4.1474-4.45717-4.1474Zm1.88817 6.2523c-.52601.4335-1.17645.6501-2.22856.6501h-.43323v-5.4787h.43323c1.05211 0 1.6713.1857 2.22856.6498.557.4952.8977 1.2694.8977 2.0739-.0003.8049-.3407 1.6097-.8977 2.1049Zm3.312 2.0432h1.6094V20.186h-1.6094v8.2955Zm5.5712-5.1073c-.9905-.3714-1.269-.588-1.269-1.0525 0-.526.526-.8974 1.2071-.8974.4951 0 .8977.1857 1.3.6499l.8667-1.0831c-.712-.6192-1.5475-.9286-2.4452-.9286-1.4856 0-2.5999 1.0215-2.5999 2.3833 0 1.1453.526 1.7026 2.0429 2.2596.6502.2166.9596.3713 1.1143.4641.3404.2169.4951.5261.4951.8668 0 .6811-.526 1.1762-1.269 1.1762-.743 0-1.3928-.4023-1.7644-1.1143l-1.0212 1.0214c.743 1.0831 1.6404 1.5785 2.8784 1.5785 1.6714 0 2.8478-1.1143 2.8478-2.7237-.0003-1.3312-.5573-1.9195-2.3836-2.6002Zm2.8788.9592c0 2.4452 1.9191 4.3335 4.395 4.3335.6811 0 1.2999-.1241 2.012-.4645v-1.9192c-.6502.6499-1.2072.9287-1.9501.9287-1.6094 0-2.7856-1.2072-2.7856-2.8788 0-1.5784 1.2071-2.8475 2.7237-2.8475.7739 0 1.3618.2785 2.012.9287v-1.8882C27.7594 20.1544 27.1714 20 26.4594 20c-2.4452.0003-4.4259 1.9504-4.4259 4.3334ZM41.5641 25.7575l-2.1977-5.5716H37.571l3.5289 8.5119h.8668l3.5904-8.5119h-1.7644l-2.2286 5.5716Zm4.736 2.724h4.581v-1.3931h-2.9716v-2.2286h2.8475V23.436h-2.8475v-1.8263h2.9716v-1.4238h-4.581v8.2956Zm10.988-5.8503c0-1.5476-1.0527-2.4453-2.9403-2.4453h-2.3837v8.2953h1.6095v-3.312h.2166l2.2286 3.312h1.981l-2.5999-3.498c1.2068-.2472 1.8882-1.083 1.8882-2.352Zm-3.2504 1.3931h-.4641v-2.5381h.4951c1.0214 0 1.5472.4332 1.5472 1.2381.0003.8355-.5255 1.3-1.5782 1.3Z" fill="#000"></path><circle cx="33.4889" cy="24.336" r="4.33167" fill="#F58220"></circle><defs><linearGradient id="paint0_linear_9_97" x1="0" y1="0" x2="64" y2="48" gradientUnits="userSpaceOnUse"><stop stop-color="#F5F7F8"></stop><stop offset="1" stop-color="#E4E5E7"></stop></linearGradient></defs></svg>
