<svg xmlns="http://www.w3.org/2000/svg" fill="none" viewBox="0 0 64 48" role="img" class="ez-credit-card-icon" data-type="visa"><rect width="64" height="48" rx="6" fill="url(#paint0_linear_9_38)"></rect><path d="m20.1706 31.7729 5.8642-14.486h-3.9411l-3.6444 9.8964-.4036-2.008-1.294-6.6693c-.2136-.9203-.8665-1.1833-1.6856-1.2191H9.05937L9 17.5737c1.4601.3705 2.7778.9203 3.9174 1.6016l3.3239 12.6096h3.9293v-.012Z" fill="url(#paint1_linear_9_38)"></path><path d="m28.9313 31.7849 2.3386-14.51h-3.7274l-2.3268 14.51h3.7156Z" fill="url(#paint2_linear_9_38)"></path><path d="M41.9063 27.0398c.0238-1.6494-.9853-2.9163-3.122-3.9442-1.3059-.6574-2.1012-1.1115-2.1012-1.7928.0237-.6215.6766-1.255 2.1368-1.255 1.2108-.0239 2.1011.263 2.7778.5498l.3323.1554.5105-3.1315c-.736-.2868-1.8993-.6215-3.3357-.6215-3.68 0-6.2679 1.9841-6.2916 4.8048-.0238 2.0796 1.8518 3.239 3.2645 3.9442 1.4364.7052 1.9231 1.1713 1.9231 1.8048-.0238.9681-1.1634 1.4223-2.2318 1.4223-1.4838 0-2.2792-.2391-3.5019-.7769l-.4867-.239-.5223 3.2629c.8665.4064 2.481.753 4.1548.7769 3.9174 0 6.4697-1.9482 6.4934-4.9602Z" fill="url(#paint3_linear_9_38)"></path><path fill-rule="evenodd" clip-rule="evenodd" d="m55 31.7849-3.0034-14.51H49.112c-.8903 0-1.567.2629-1.9468 1.2072l-5.5319 13.3028h3.9174s.641-1.7929.7835-2.1754h4.784c.1068.514.4511 2.1754.4511 2.1754H55Zm-5.3657-9.3467s.7004 3.4781.8666 4.2072h-3.0983c.3086-.8366 1.4838-4.0637 1.4838-4.0637-.0115.0116.0608-.1879.1587-.4577.1038-.2863.2364-.6519.328-.9288l.2612 1.243Z" fill="url(#paint4_linear_9_38)"></path><defs><linearGradient id="paint0_linear_9_38" x1="0" y1="0" x2="64" y2="48" gradientUnits="userSpaceOnUse"><stop stop-color="#F5F7F8"></stop><stop offset="1" stop-color="#E4E5E7"></stop></linearGradient><linearGradient id="paint1_linear_9_38" x1="9" y1="32" x2="55" y2="32" gradientUnits="userSpaceOnUse"><stop stop-color="#181B60"></stop><stop offset="1" stop-color="#00279C"></stop></linearGradient><linearGradient id="paint2_linear_9_38" x1="9" y1="32" x2="55" y2="32" gradientUnits="userSpaceOnUse"><stop stop-color="#181B60"></stop><stop offset="1" stop-color="#00279C"></stop></linearGradient><linearGradient id="paint3_linear_9_38" x1="9" y1="32" x2="55" y2="32" gradientUnits="userSpaceOnUse"><stop stop-color="#181B60"></stop><stop offset="1" stop-color="#00279C"></stop></linearGradient><linearGradient id="paint4_linear_9_38" x1="9" y1="32" x2="55" y2="32" gradientUnits="userSpaceOnUse"><stop stop-color="#181B60"></stop><stop offset="1" stop-color="#00279C"></stop></linearGradient></defs></svg>





