<svg width="32" height="30" viewBox="0 0 32 30" fill="none" xmlns="http://www.w3.org/2000/svg">
<mask id="mask0_3290_6273" style="mask-type:luminance" maskUnits="userSpaceOnUse" x="7" y="6" width="18" height="18">
<path d="M7.00195 6H24.9992V24H7.00195V6Z" fill="white"/>
</mask>
<g mask="url(#mask0_3290_6273)">
<path d="M23.6606 6H8.32925C7.59811 6 7.00195 6.585 7.00195 7.29375V22.695C7.00195 23.415 7.59811 24 8.32925 24H23.6606C24.3917 24 24.9879 23.415 24.9879 22.7063V7.29375C24.9879 6.57375 24.3917 6 23.6606 6ZM12.3449 21.3337H9.67904V12.7387H12.3449V21.3337ZM11.0063 11.58C10.1515 11.58 9.45407 10.8825 9.45407 10.0387C9.45407 9.195 10.1515 8.4975 11.0063 8.4975C11.8612 8.4975 12.5473 9.195 12.5473 10.0387C12.5473 10.8825 11.8499 11.58 11.0063 11.58ZM22.3333 21.3337H19.6675V17.16C19.6675 16.17 19.645 14.8875 18.2839 14.8875C16.9229 14.8875 16.6867 15.9787 16.6867 17.0925V21.3337H14.0209V12.7387H16.5742V13.9088H16.608C16.9679 13.2338 17.834 12.525 19.1276 12.525C21.8271 12.525 22.3333 14.3025 22.3333 16.62V21.3337Z" fill="#3071AA"/>
</g>
</svg>
