<svg width="27" height="26" viewBox="0 0 27 26" fill="none" xmlns="http://www.w3.org/2000/svg">
<g clip-path="url(#clip0_3044_21724)" filter="url(#filter0_d_3044_21724)">
<path fill-rule="evenodd" clip-rule="evenodd" d="M6.86533 4.26706C6.58639 4.26591 6.31041 4.20982 6.05315 4.10197C5.79589 3.99413 5.56237 3.83666 5.36595 3.63854C5.16952 3.44043 5.01403 3.20555 4.90835 2.94732C4.80267 2.68908 4.74887 2.41256 4.75002 2.13353C4.75002 0.956259 5.69611 0 6.86533 0C8.03564 0 8.98064 0.956259 8.98064 2.13353C8.98064 3.31299 8.03236 4.26706 6.86533 4.26706ZM8.78814 17.5245H4.94252V5.98154H8.78814V17.5245ZM18.4066 17.5245H22.2489V11.0615C22.2489 4.74409 16.2333 4.97495 14.5566 8.08334V5.98045H10.7099V17.5234H14.5566V12.02C14.5566 8.70699 18.4066 8.40063 18.4066 12.02V17.5245Z" fill="white"/>
</g>
<defs>
<filter id="filter0_d_3044_21724" x="0.75" y="0" width="25.5" height="26.6001" filterUnits="userSpaceOnUse" color-interpolation-filters="sRGB">
<feFlood flood-opacity="0" result="BackgroundImageFix"/>
<feColorMatrix in="SourceAlpha" type="matrix" values="0 0 0 0 0 0 0 0 0 0 0 0 0 0 0 0 0 0 127 0" result="hardAlpha"/>
<feOffset dy="4"/>
<feGaussianBlur stdDeviation="2"/>
<feComposite in2="hardAlpha" operator="out"/>
<feColorMatrix type="matrix" values="0 0 0 0 0 0 0 0 0 0 0 0 0 0 0 0 0 0 0.25 0"/>
<feBlend mode="normal" in2="BackgroundImageFix" result="effect1_dropShadow_3044_21724"/>
<feBlend mode="normal" in="SourceGraphic" in2="effect1_dropShadow_3044_21724" result="shape"/>
</filter>
<clipPath id="clip0_3044_21724">
<rect width="17.5" height="18.6" fill="white" transform="translate(4.75)"/>
</clipPath>
</defs>
</svg>
