<svg xmlns="http://www.w3.org/2000/svg" viewBox="0 0 30.92 31.82"><defs><clipPath id="a"><path fill="#3e82f1" d="M15.77 13v6.15h8.48A7.31 7.31 0 0 1 21.11 24v4h5.09a15.6 15.6 0 0 0 4.7-11.7 19 19 0 0 0-.28-3.3Z" clip-rule="evenodd"/></clipPath></defs><path fill="#3e82f1" fill-rule="evenodd" d="M15.77 13v6.15h8.48A7.31 7.31 0 0 1 21.11 24v4h5.09a15.6 15.6 0 0 0 4.7-11.7 19 19 0 0 0-.28-3.3Z"/><g clip-path="url(#a)"><path fill="#3e82f1" d="M14.92 12.92h16v16h-16z" style="isolation:isolate"/></g><path fill="#32a753" fill-rule="evenodd" d="M1.68 18.93v4.13a15.73 15.73 0 0 0 14.09 8.76A15 15 0 0 0 26.2 28l-5.09-4a9.49 9.49 0 0 1-14.17-5.07Z"/><path fill="#f9bb00" fill-rule="evenodd" d="M1.68 8.77a16 16 0 0 0 0 14.29l5.26-4.13a9.55 9.55 0 0 1 0-6V8.77Z"/><path fill="#e74133" fill-rule="evenodd" d="m1.68 8.77 5.26 4.12a9.41 9.41 0 0 1 8.83-6.56 8.45 8.45 0 0 1 6 2.38l4.53-4.57A15.11 15.11 0 0 0 15.77 0 15.74 15.74 0 0 0 1.68 8.77Z"/></svg>